<svg width="60" height="60" viewBox="0 0 60 60" fill="none" xmlns="http://www.w3.org/2000/svg">
<circle cx="30" cy="30" r="29.5" fill="white" stroke="#CFECE9"/>
<path d="M36.8852 30.4262C36.9199 30.1294 36.943 29.8206 36.943 29.5C36.943 29.1794 36.9199 28.8706 36.8736 28.5738L38.8292 27.0062C39.0028 26.8637 39.0491 26.6025 38.9449 26.4006L37.0935 23.1112C36.9777 22.8975 36.7347 22.8263 36.5264 22.8975L34.2237 23.8475C33.7377 23.4675 33.2285 23.1588 32.6615 22.9213L32.3143 20.4037C32.2796 20.1662 32.0829 20 31.8515 20H28.1485C27.9171 20 27.7319 20.1662 27.6972 20.4037L27.3501 22.9213C26.7831 23.1588 26.2623 23.4794 25.7879 23.8475L23.4851 22.8975C23.2768 22.8144 23.0338 22.8975 22.9181 23.1112L21.0666 26.4006C20.9509 26.6144 20.9972 26.8637 21.1824 27.0062L23.138 28.5738C23.0917 28.8706 23.057 29.1912 23.057 29.5C23.057 29.8087 23.0801 30.1294 23.1264 30.4262L21.1708 31.9937C20.9972 32.1362 20.9509 32.3975 21.0551 32.5994L22.9065 35.8888C23.0223 36.1025 23.2653 36.1738 23.4736 36.1025L25.7763 35.1525C26.2623 35.5325 26.7715 35.8412 27.3385 36.0787L27.6857 38.5963C27.7319 38.8338 27.9171 39 28.1485 39H31.8515C32.0829 39 32.2796 38.8338 32.3028 38.5963L32.6499 36.0787C33.2169 35.8412 33.7377 35.5206 34.2121 35.1525L36.5149 36.1025C36.7232 36.1856 36.9662 36.1025 37.0819 35.8888L38.9334 32.5994C39.0491 32.3856 39.0028 32.1362 38.8176 31.9937L36.8852 30.4262ZM30 33.0625C28.0907 33.0625 26.5285 31.4594 26.5285 29.5C26.5285 27.5406 28.0907 25.9375 30 25.9375C31.9093 25.9375 33.4715 27.5406 33.4715 29.5C33.4715 31.4594 31.9093 33.0625 30 33.0625Z" stroke="#4BC7B6" stroke-width="1.2" stroke-linejoin="round"/>
</svg>
