<svg width="60" height="60" viewBox="0 0 60 60" fill="none" xmlns="http://www.w3.org/2000/svg">
<circle cx="30" cy="30" r="29.5" fill="white" stroke="#CFECE9"/>
<path d="M26 21.4997C26 23.5343 27.3578 25.2556 29.2143 25.8103V28.6181L28.3536 30.3392L29.2143 32.06V34.1573L28.211 35.1607L29.2143 36.1638V38.1753L28.211 39.1786L29.2143 40.1818V42.0715H30.7581L32.5892 39.3246V37.0894H31.7857V25.8105C33.6422 25.2558 35 23.5345 35 21.5C35 19.0186 32.9814 17 30.5 17C28.0187 17 26.0001 19.0186 26.0001 21.5L26 21.4997ZM31.6251 39.0329L30.2419 41.1075H30.1785V39.7829L29.5746 39.1789L30.1785 38.5749V35.7648L29.5746 35.1609L30.1785 34.5569V31.8327L29.432 30.3394L30.1785 28.8459V25.9836C30.2852 25.9914 30.3915 26 30.5 26C30.6085 26 30.7148 25.9912 30.8215 25.9836V38.054H31.6251L31.6251 39.0329ZM30.5 17.964C32.4495 17.964 34.0359 19.5501 34.0359 21.4999C34.0359 23.4494 32.4498 25.0358 30.5 25.0358C28.5504 25.0358 26.9641 23.4496 26.9641 21.4999C26.9641 19.5503 28.5504 17.964 30.5 17.964Z" fill="#4BC7B6"/>
<path d="M30.5 21.1787C31.209 21.1787 31.7857 20.6018 31.7857 19.893C31.7857 19.1841 31.2087 18.6074 30.5 18.6074C29.791 18.6074 29.2144 19.1843 29.2144 19.893C29.2144 20.602 29.7911 21.1787 30.5 21.1787ZM30.5 19.5715C30.6772 19.5715 30.8216 19.7157 30.8216 19.893C30.8216 20.0702 30.6774 20.2145 30.5 20.2145C30.3229 20.2145 30.1785 20.0704 30.1785 19.893C30.1785 19.7159 30.3229 19.5715 30.5 19.5715Z" fill="#4BC7B6"/>
</svg>
