<svg width="24" height="24" viewBox="0 0 24 24" fill="none" xmlns="http://www.w3.org/2000/svg">
<path d="M12 22C17.5228 22 22 17.5228 22 12C22 6.47715 17.5228 2 12 2C6.47715 2 2 6.47715 2 12C2 17.5228 6.47715 22 12 22Z" fill="white" fill-opacity="0.7"/>
<path d="M12 23C18.0751 23 23 18.0751 23 12C23 5.92487 18.0751 1 12 1C5.92487 1 1 5.92487 1 12C1 18.0751 5.92487 23 12 23Z" stroke="white" stroke-opacity="0.7" stroke-width="2" stroke-linecap="round" stroke-linejoin="round"/>
<path d="M12 8L8 12L12 16" stroke="#4BC7B6" stroke-width="2" stroke-linecap="round" stroke-linejoin="round"/>
<path d="M16 12H8" stroke="#4BC7B6" stroke-width="2" stroke-linecap="round" stroke-linejoin="round"/>
</svg>
