<svg width="16" height="17" viewBox="0 0 16 17" fill="none" xmlns="http://www.w3.org/2000/svg">
<path d="M15.1868 7.82699L8.67721 14.3366C7.87973 15.134 6.79813 15.5821 5.67033 15.5821C4.54254 15.5821 3.46093 15.134 2.66346 14.3366C1.86598 13.5391 1.41797 12.4575 1.41797 11.3297C1.41797 10.2019 1.86598 9.12029 2.66346 8.32282L9.17304 1.81324C9.70469 1.28159 10.4258 0.98291 11.1776 0.98291C11.9295 0.98291 12.6506 1.28159 13.1822 1.81324C13.7139 2.34488 14.0125 3.06595 14.0125 3.81782C14.0125 4.56968 13.7139 5.29075 13.1822 5.8224L6.66554 12.332C6.39972 12.5978 6.03918 12.7471 5.66325 12.7471C5.28732 12.7471 4.92678 12.5978 4.66096 12.332C4.39513 12.0662 4.24579 11.7056 4.24579 11.3297C4.24579 10.9538 4.39513 10.5932 4.66096 10.3274L10.6747 4.32074" stroke="#4BC7B6" stroke-width="1.38108" stroke-linecap="round" stroke-linejoin="round"/>
</svg>
