<svg width="60" height="60" viewBox="0 0 60 60" fill="none" xmlns="http://www.w3.org/2000/svg">
<circle cx="30" cy="30" r="29.5" fill="white" stroke="#CFECE9"/>
<mask id="path-2-inside-1_12557_243405" fill="white">
<path fill-rule="evenodd" clip-rule="evenodd" d="M29.8661 26.4358C29.8821 26.2848 29.8917 26.1338 29.8917 25.9828L29.8916 25.9829C29.8916 25.9796 29.8917 25.9764 29.8917 25.9732C29.8913 25.8266 29.8819 25.6799 29.8664 25.5348C29.8192 25.2541 29.7449 24.9803 29.6437 24.7148C29.5484 24.5041 29.436 24.3003 29.3066 24.1071C29.2871 24.0791 29.2675 24.0518 29.2479 24.0245C29.2337 24.0047 29.2194 23.9848 29.2051 23.9646C29.1979 23.9558 29.1907 23.9472 29.1835 23.9389C29.0995 23.838 29.0127 23.7427 28.9231 23.6529C28.8307 23.5604 28.7355 23.4735 28.6376 23.3922C28.6342 23.3895 28.6286 23.3844 28.6217 23.378C28.6205 23.3772 28.6192 23.3763 28.618 23.3754C28.5648 23.3361 28.5088 23.2969 28.4528 23.2604C28.2659 23.1365 28.0686 23.0273 27.8643 22.9346C27.6001 22.8335 27.3277 22.7592 27.0484 22.7117C26.7473 22.6806 26.4443 22.6807 26.1412 22.7119C25.8628 22.7593 25.5912 22.8333 25.3278 22.9341C25.1174 23.0295 24.9139 23.1421 24.721 23.2716C24.6931 23.2912 24.6658 23.3108 24.6385 23.3304C24.6187 23.3447 24.5989 23.359 24.5787 23.3733C24.57 23.3805 24.5613 23.3877 24.5531 23.395C24.4523 23.4791 24.3571 23.566 24.2675 23.6557C24.1751 23.7483 24.0884 23.8436 24.0072 23.9417C24.0045 23.945 23.9994 23.9507 23.993 23.9576C23.9922 23.9588 23.9913 23.9601 23.9904 23.9613C23.9512 24.0146 23.912 24.0707 23.8756 24.1268C23.7518 24.3139 23.6428 24.5116 23.5503 24.7161C23.4493 24.9807 23.3751 25.2535 23.3277 25.5333C23.2967 25.8349 23.2967 26.1383 23.3279 26.4418C23.3752 26.7206 23.4492 26.9926 23.5497 27.2565C23.6451 27.4672 23.7574 27.671 23.8868 27.8641C23.9064 27.8921 23.9259 27.9195 23.9455 27.9468C23.9598 27.9666 23.974 27.9865 23.9883 28.0067C23.9955 28.0154 24.0027 28.0241 24.01 28.0324C24.0939 28.1333 24.1807 28.2286 24.2703 28.3183C24.3627 28.4109 24.4579 28.4978 24.5559 28.5791C24.5592 28.5817 24.5648 28.5869 24.5718 28.5933C24.573 28.5941 24.5742 28.595 24.5755 28.5959C24.6287 28.6352 24.6846 28.6744 24.7406 28.7109C24.9275 28.8348 25.1249 28.944 25.3291 29.0366C25.5933 29.1378 25.8657 29.2121 26.145 29.2596C26.4462 29.2906 26.7491 29.2906 27.0522 29.2594C27.3306 29.212 27.6022 29.1379 27.8656 29.0372C28.076 28.9418 28.2795 28.8292 28.4724 28.6997C28.5003 28.6801 28.5276 28.6604 28.5549 28.6408C28.5747 28.6266 28.5946 28.6123 28.6147 28.598C28.6234 28.5908 28.6321 28.5835 28.6403 28.5763C28.7411 28.4922 28.8363 28.4053 28.9259 28.3155C29.0183 28.223 29.1051 28.1277 29.1862 28.0296C29.1889 28.0263 29.194 28.0206 29.2004 28.0137C29.2013 28.0125 29.2021 28.0112 29.203 28.0099C29.2422 27.9567 29.2814 27.9006 29.3178 27.8445C29.4416 27.6574 29.5506 27.4597 29.6431 27.2552C29.7444 26.9899 29.8187 26.7163 29.8661 26.4358ZM29.8861 26.3053C29.8843 26.3187 29.8824 26.3321 29.8804 26.3455C29.8822 26.3322 29.8841 26.3187 29.8861 26.3053ZM29.2562 27.9427C29.2555 27.9469 29.2515 27.9536 29.2456 27.9614C29.2517 27.9523 29.2558 27.9454 29.2562 27.9427ZM26.9186 29.28C26.9321 29.278 26.9455 29.2761 26.9589 29.2743C26.9455 29.2763 26.9321 29.2782 26.9186 29.28ZM26.2776 29.28C26.2642 29.2782 26.2508 29.2763 26.2374 29.2743C26.2507 29.2761 26.2641 29.278 26.2776 29.28ZM24.6427 28.6492C24.6384 28.6485 24.6318 28.6444 24.6239 28.6386C24.633 28.6447 24.6399 28.6487 24.6427 28.6492ZM23.3073 26.3081C23.3093 26.3216 23.3112 26.335 23.313 26.3483C23.3111 26.3349 23.3091 26.3215 23.3073 26.3081ZM23.3073 25.666C23.3091 25.6526 23.3111 25.6392 23.313 25.6258C23.3112 25.6391 23.3093 25.6525 23.3073 25.666ZM23.9372 24.0286C23.9379 24.0244 23.9419 24.0177 23.9478 24.0099C23.9417 24.0189 23.9376 24.0258 23.9372 24.0286ZM26.2748 22.6912C26.2613 22.6932 26.2479 22.6952 26.2346 22.697C26.248 22.695 26.2614 22.6931 26.2748 22.6912ZM26.9158 22.6912C26.9293 22.6931 26.9427 22.695 26.956 22.697C26.9427 22.6952 26.9293 22.6932 26.9158 22.6912ZM28.5508 23.3221C28.555 23.3228 28.5617 23.3268 28.5695 23.3327C28.5604 23.3266 28.5535 23.3226 28.5508 23.3221ZM29.8861 25.6632C29.8841 25.6497 29.8822 25.6363 29.8804 25.623C29.8824 25.6364 29.8843 25.6498 29.8861 25.6632ZM31.5638 26.1006C31.569 26.0623 31.5717 26.023 31.5714 25.9828C31.5658 24.9847 31.2691 23.9641 30.684 23.1482C30.0681 22.2847 29.2422 21.651 28.2456 21.2838C26.3587 20.5885 24.0855 21.2053 22.806 22.7585C22.1201 23.5913 21.7198 24.5698 21.633 25.6464C21.5546 26.6417 21.8094 27.6819 22.3245 28.5371C22.7852 29.3044 23.4684 29.9709 24.268 30.384C24.2636 30.3853 24.2591 30.3867 24.2547 30.388C22.6196 30.8732 21.1086 31.889 20.0243 33.2658C18.8651 34.7426 18.1701 36.5166 18.026 38.4301C18.0087 38.6485 18.0029 38.8668 18 39.0851C18 39.5764 18.3979 39.9948 18.8651 39.9948H20.3992H24.099H28.56H32.4184C32.6269 39.9948 32.8355 39.9962 33.0441 39.9975C33.4544 40.0002 33.8647 40.0028 34.2751 39.9952C34.2924 39.9958 34.3098 39.9956 34.3273 39.9948C34.3273 39.9948 34.3274 39.9948 34.3274 39.9948C34.7945 39.9705 35.1924 39.5945 35.1895 39.0851M35.1895 39.0838C35.1835 37.2496 34.6529 35.4033 33.6352 33.9057C32.5971 32.3803 31.1783 31.2311 29.5029 30.5821C29.3126 30.508 29.1192 30.4418 28.9235 30.3832C30.2557 29.6674 31.2649 28.3327 31.4901 26.8268C31.5262 26.5859 31.5561 26.345 31.5638 26.1006M33.4167 38.1754C33.416 38.1704 33.4153 38.1655 33.4147 38.1605C33.4153 38.1655 33.4159 38.1704 33.4166 38.1754H33.4167ZM33.4142 38.1754C33.4112 38.1478 33.4082 38.1203 33.405 38.0928C33.3162 37.4845 33.1624 36.8901 32.9455 36.317C32.7807 35.9216 32.5893 35.5377 32.3664 35.1731C32.263 35.0056 32.1541 34.8408 32.0424 34.6817C32.0315 34.6676 32.0209 34.6536 32.0103 34.6395C31.9966 34.6213 31.9829 34.6031 31.9685 34.5848C31.9108 34.506 31.8502 34.4332 31.7868 34.3574C31.536 34.0602 31.2678 33.7813 30.9794 33.5265L30.8205 33.3904C30.8374 33.4039 30.8491 33.4125 30.8467 33.4083C30.8429 33.4002 30.8237 33.3867 30.807 33.375C30.7987 33.3692 30.791 33.3638 30.7862 33.3597C30.7809 33.3556 30.7755 33.3514 30.7701 33.3472L30.7458 33.3264C30.7202 33.3053 30.7307 33.315 30.7527 33.3339C30.7461 33.3288 30.7394 33.3238 30.7328 33.3188C30.7148 33.3051 30.6968 33.2915 30.6795 33.2779C30.5209 33.1566 30.3594 33.0413 30.1922 32.9352C29.8836 32.7371 29.5622 32.5635 29.2328 32.4117C28.6874 32.1834 28.1217 32.0215 27.5428 31.9279C26.9137 31.8478 26.2805 31.8477 25.6538 31.9277C25.0749 32.0211 24.5092 32.1829 23.9639 32.4111C23.588 32.5845 23.2229 32.7858 22.8762 33.0201C22.7169 33.1289 22.5602 33.2434 22.4089 33.3608C22.3955 33.3723 22.3822 33.3834 22.3688 33.3946C22.3515 33.409 22.3341 33.4234 22.3168 33.4386C22.2418 33.4992 22.1726 33.5629 22.1005 33.6296C21.818 33.8934 21.5527 34.1755 21.3104 34.4787L21.181 34.6458C21.1938 34.6281 21.202 34.6157 21.198 34.6182C21.1903 34.6222 21.1775 34.6425 21.1664 34.66C21.1608 34.6687 21.1557 34.6768 21.1518 34.6819C21.1479 34.6875 21.1439 34.6931 21.1399 34.6988L21.1201 34.7243C21.1001 34.7513 21.1092 34.7402 21.1272 34.7171C21.1224 34.7241 21.1177 34.731 21.1129 34.738C21.0999 34.757 21.0869 34.7759 21.074 34.7941C20.9586 34.9609 20.849 35.1307 20.7481 35.3066C20.5597 35.631 20.3946 35.969 20.2503 36.3155C20.0328 36.89 19.8787 37.4859 19.7898 38.0957C19.787 38.1199 19.7844 38.144 19.7818 38.1682C19.9028 38.169 20.0238 38.1702 20.1448 38.1713C20.3537 38.1734 20.5627 38.1754 20.7712 38.1754H24.6296H29.0906H32.7904H33.4142ZM19.7796 38.1682C19.7796 38.1682 19.7796 38.1682 19.7796 38.1682C19.7799 38.1657 19.7803 38.1632 19.7806 38.1607C19.7803 38.1632 19.78 38.1657 19.7796 38.1682ZM20.3127 36.1557L20.2819 36.2335C20.292 36.2075 20.3023 36.1816 20.3127 36.1557ZM21.1272 34.7171C21.1429 34.6969 21.1654 34.6674 21.181 34.6458L21.1399 34.6988C21.1357 34.7048 21.1315 34.711 21.1272 34.7171ZM23.8105 32.4773C23.8353 32.4663 23.8602 32.4554 23.885 32.4446L23.8105 32.4773ZM25.7888 31.9072C25.7646 31.9109 25.7408 31.9144 25.717 31.9178C25.7409 31.9141 25.7648 31.9106 25.7888 31.9072ZM27.4065 31.9072C27.4304 31.9106 27.4542 31.9141 27.4781 31.9177C27.4544 31.9144 27.4306 31.9109 27.4065 31.9072ZM29.3847 32.4773L29.3108 32.4449C29.3355 32.4556 29.3601 32.4664 29.3847 32.4773ZM30.7527 33.3339C30.7719 33.3504 30.8 33.374 30.8205 33.3904L30.7701 33.3472C30.7644 33.3428 30.7585 33.3383 30.7527 33.3339ZM32.8826 36.1557C32.8931 36.1818 32.9035 36.208 32.9137 36.2342L32.8826 36.1557Z"/>
</mask>
<path fill-rule="evenodd" clip-rule="evenodd" d="M29.8661 26.4358C29.8821 26.2848 29.8917 26.1338 29.8917 25.9828L29.8916 25.9829C29.8916 25.9796 29.8917 25.9764 29.8917 25.9732C29.8913 25.8266 29.8819 25.6799 29.8664 25.5348C29.8192 25.2541 29.7449 24.9803 29.6437 24.7148C29.5484 24.5041 29.436 24.3003 29.3066 24.1071C29.2871 24.0791 29.2675 24.0518 29.2479 24.0245C29.2337 24.0047 29.2194 23.9848 29.2051 23.9646C29.1979 23.9558 29.1907 23.9472 29.1835 23.9389C29.0995 23.838 29.0127 23.7427 28.9231 23.6529C28.8307 23.5604 28.7355 23.4735 28.6376 23.3922C28.6342 23.3895 28.6286 23.3844 28.6217 23.378C28.6205 23.3772 28.6192 23.3763 28.618 23.3754C28.5648 23.3361 28.5088 23.2969 28.4528 23.2604C28.2659 23.1365 28.0686 23.0273 27.8643 22.9346C27.6001 22.8335 27.3277 22.7592 27.0484 22.7117C26.7473 22.6806 26.4443 22.6807 26.1412 22.7119C25.8628 22.7593 25.5912 22.8333 25.3278 22.9341C25.1174 23.0295 24.9139 23.1421 24.721 23.2716C24.6931 23.2912 24.6658 23.3108 24.6385 23.3304C24.6187 23.3447 24.5989 23.359 24.5787 23.3733C24.57 23.3805 24.5613 23.3877 24.5531 23.395C24.4523 23.4791 24.3571 23.566 24.2675 23.6557C24.1751 23.7483 24.0884 23.8436 24.0072 23.9417C24.0045 23.945 23.9994 23.9507 23.993 23.9576C23.9922 23.9588 23.9913 23.9601 23.9904 23.9613C23.9512 24.0146 23.912 24.0707 23.8756 24.1268C23.7518 24.3139 23.6428 24.5116 23.5503 24.7161C23.4493 24.9807 23.3751 25.2535 23.3277 25.5333C23.2967 25.8349 23.2967 26.1383 23.3279 26.4418C23.3752 26.7206 23.4492 26.9926 23.5497 27.2565C23.6451 27.4672 23.7574 27.671 23.8868 27.8641C23.9064 27.8921 23.9259 27.9195 23.9455 27.9468C23.9598 27.9666 23.974 27.9865 23.9883 28.0067C23.9955 28.0154 24.0027 28.0241 24.01 28.0324C24.0939 28.1333 24.1807 28.2286 24.2703 28.3183C24.3627 28.4109 24.4579 28.4978 24.5559 28.5791C24.5592 28.5817 24.5648 28.5869 24.5718 28.5933C24.573 28.5941 24.5742 28.595 24.5755 28.5959C24.6287 28.6352 24.6846 28.6744 24.7406 28.7109C24.9275 28.8348 25.1249 28.944 25.3291 29.0366C25.5933 29.1378 25.8657 29.2121 26.145 29.2596C26.4462 29.2906 26.7491 29.2906 27.0522 29.2594C27.3306 29.212 27.6022 29.1379 27.8656 29.0372C28.076 28.9418 28.2795 28.8292 28.4724 28.6997C28.5003 28.6801 28.5276 28.6604 28.5549 28.6408C28.5747 28.6266 28.5946 28.6123 28.6147 28.598C28.6234 28.5908 28.6321 28.5835 28.6403 28.5763C28.7411 28.4922 28.8363 28.4053 28.9259 28.3155C29.0183 28.223 29.1051 28.1277 29.1862 28.0296C29.1889 28.0263 29.194 28.0206 29.2004 28.0137C29.2013 28.0125 29.2021 28.0112 29.203 28.0099C29.2422 27.9567 29.2814 27.9006 29.3178 27.8445C29.4416 27.6574 29.5506 27.4597 29.6431 27.2552C29.7444 26.9899 29.8187 26.7163 29.8661 26.4358ZM29.8861 26.3053C29.8843 26.3187 29.8824 26.3321 29.8804 26.3455C29.8822 26.3322 29.8841 26.3187 29.8861 26.3053ZM29.2562 27.9427C29.2555 27.9469 29.2515 27.9536 29.2456 27.9614C29.2517 27.9523 29.2558 27.9454 29.2562 27.9427ZM26.9186 29.28C26.9321 29.278 26.9455 29.2761 26.9589 29.2743C26.9455 29.2763 26.9321 29.2782 26.9186 29.28ZM26.2776 29.28C26.2642 29.2782 26.2508 29.2763 26.2374 29.2743C26.2507 29.2761 26.2641 29.278 26.2776 29.28ZM24.6427 28.6492C24.6384 28.6485 24.6318 28.6444 24.6239 28.6386C24.633 28.6447 24.6399 28.6487 24.6427 28.6492ZM23.3073 26.3081C23.3093 26.3216 23.3112 26.335 23.313 26.3483C23.3111 26.3349 23.3091 26.3215 23.3073 26.3081ZM23.3073 25.666C23.3091 25.6526 23.3111 25.6392 23.313 25.6258C23.3112 25.6391 23.3093 25.6525 23.3073 25.666ZM23.9372 24.0286C23.9379 24.0244 23.9419 24.0177 23.9478 24.0099C23.9417 24.0189 23.9376 24.0258 23.9372 24.0286ZM26.2748 22.6912C26.2613 22.6932 26.2479 22.6952 26.2346 22.697C26.248 22.695 26.2614 22.6931 26.2748 22.6912ZM26.9158 22.6912C26.9293 22.6931 26.9427 22.695 26.956 22.697C26.9427 22.6952 26.9293 22.6932 26.9158 22.6912ZM28.5508 23.3221C28.555 23.3228 28.5617 23.3268 28.5695 23.3327C28.5604 23.3266 28.5535 23.3226 28.5508 23.3221ZM29.8861 25.6632C29.8841 25.6497 29.8822 25.6363 29.8804 25.623C29.8824 25.6364 29.8843 25.6498 29.8861 25.6632ZM31.5638 26.1006C31.569 26.0623 31.5717 26.023 31.5714 25.9828C31.5658 24.9847 31.2691 23.9641 30.684 23.1482C30.0681 22.2847 29.2422 21.651 28.2456 21.2838C26.3587 20.5885 24.0855 21.2053 22.806 22.7585C22.1201 23.5913 21.7198 24.5698 21.633 25.6464C21.5546 26.6417 21.8094 27.6819 22.3245 28.5371C22.7852 29.3044 23.4684 29.9709 24.268 30.384C24.2636 30.3853 24.2591 30.3867 24.2547 30.388C22.6196 30.8732 21.1086 31.889 20.0243 33.2658C18.8651 34.7426 18.1701 36.5166 18.026 38.4301C18.0087 38.6485 18.0029 38.8668 18 39.0851C18 39.5764 18.3979 39.9948 18.8651 39.9948H20.3992H24.099H28.56H32.4184C32.6269 39.9948 32.8355 39.9962 33.0441 39.9975C33.4544 40.0002 33.8647 40.0028 34.2751 39.9952C34.2924 39.9958 34.3098 39.9956 34.3273 39.9948C34.3273 39.9948 34.3274 39.9948 34.3274 39.9948C34.7945 39.9705 35.1924 39.5945 35.1895 39.0851M35.1895 39.0838C35.1835 37.2496 34.6529 35.4033 33.6352 33.9057C32.5971 32.3803 31.1783 31.2311 29.5029 30.5821C29.3126 30.508 29.1192 30.4418 28.9235 30.3832C30.2557 29.6674 31.2649 28.3327 31.4901 26.8268C31.5262 26.5859 31.5561 26.345 31.5638 26.1006M33.4167 38.1754C33.416 38.1704 33.4153 38.1655 33.4147 38.1605C33.4153 38.1655 33.4159 38.1704 33.4166 38.1754H33.4167ZM33.4142 38.1754C33.4112 38.1478 33.4082 38.1203 33.405 38.0928C33.3162 37.4845 33.1624 36.8901 32.9455 36.317C32.7807 35.9216 32.5893 35.5377 32.3664 35.1731C32.263 35.0056 32.1541 34.8408 32.0424 34.6817C32.0315 34.6676 32.0209 34.6536 32.0103 34.6395C31.9966 34.6213 31.9829 34.6031 31.9685 34.5848C31.9108 34.506 31.8502 34.4332 31.7868 34.3574C31.536 34.0602 31.2678 33.7813 30.9794 33.5265L30.8205 33.3904C30.8374 33.4039 30.8491 33.4125 30.8467 33.4083C30.8429 33.4002 30.8237 33.3867 30.807 33.375C30.7987 33.3692 30.791 33.3638 30.7862 33.3597C30.7809 33.3556 30.7755 33.3514 30.7701 33.3472L30.7458 33.3264C30.7202 33.3053 30.7307 33.315 30.7527 33.3339C30.7461 33.3288 30.7394 33.3238 30.7328 33.3188C30.7148 33.3051 30.6968 33.2915 30.6795 33.2779C30.5209 33.1566 30.3594 33.0413 30.1922 32.9352C29.8836 32.7371 29.5622 32.5635 29.2328 32.4117C28.6874 32.1834 28.1217 32.0215 27.5428 31.9279C26.9137 31.8478 26.2805 31.8477 25.6538 31.9277C25.0749 32.0211 24.5092 32.1829 23.9639 32.4111C23.588 32.5845 23.2229 32.7858 22.8762 33.0201C22.7169 33.1289 22.5602 33.2434 22.4089 33.3608C22.3955 33.3723 22.3822 33.3834 22.3688 33.3946C22.3515 33.409 22.3341 33.4234 22.3168 33.4386C22.2418 33.4992 22.1726 33.5629 22.1005 33.6296C21.818 33.8934 21.5527 34.1755 21.3104 34.4787L21.181 34.6458C21.1938 34.6281 21.202 34.6157 21.198 34.6182C21.1903 34.6222 21.1775 34.6425 21.1664 34.66C21.1608 34.6687 21.1557 34.6768 21.1518 34.6819C21.1479 34.6875 21.1439 34.6931 21.1399 34.6988L21.1201 34.7243C21.1001 34.7513 21.1092 34.7402 21.1272 34.7171C21.1224 34.7241 21.1177 34.731 21.1129 34.738C21.0999 34.757 21.0869 34.7759 21.074 34.7941C20.9586 34.9609 20.849 35.1307 20.7481 35.3066C20.5597 35.631 20.3946 35.969 20.2503 36.3155C20.0328 36.89 19.8787 37.4859 19.7898 38.0957C19.787 38.1199 19.7844 38.144 19.7818 38.1682C19.9028 38.169 20.0238 38.1702 20.1448 38.1713C20.3537 38.1734 20.5627 38.1754 20.7712 38.1754H24.6296H29.0906H32.7904H33.4142ZM19.7796 38.1682C19.7796 38.1682 19.7796 38.1682 19.7796 38.1682C19.7799 38.1657 19.7803 38.1632 19.7806 38.1607C19.7803 38.1632 19.78 38.1657 19.7796 38.1682ZM20.3127 36.1557L20.2819 36.2335C20.292 36.2075 20.3023 36.1816 20.3127 36.1557ZM21.1272 34.7171C21.1429 34.6969 21.1654 34.6674 21.181 34.6458L21.1399 34.6988C21.1357 34.7048 21.1315 34.711 21.1272 34.7171ZM23.8105 32.4773C23.8353 32.4663 23.8602 32.4554 23.885 32.4446L23.8105 32.4773ZM25.7888 31.9072C25.7646 31.9109 25.7408 31.9144 25.717 31.9178C25.7409 31.9141 25.7648 31.9106 25.7888 31.9072ZM27.4065 31.9072C27.4304 31.9106 27.4542 31.9141 27.4781 31.9177C27.4544 31.9144 27.4306 31.9109 27.4065 31.9072ZM29.3847 32.4773L29.3108 32.4449C29.3355 32.4556 29.3601 32.4664 29.3847 32.4773ZM30.7527 33.3339C30.7719 33.3504 30.8 33.374 30.8205 33.3904L30.7701 33.3472C30.7644 33.3428 30.7585 33.3383 30.7527 33.3339ZM32.8826 36.1557C32.8931 36.1818 32.9035 36.208 32.9137 36.2342L32.8826 36.1557Z" fill="#4BC7B6"/>
<path d="M31.5638 26.1006L31.6601 26.0737L31.4675 26.1275L31.5638 26.1006ZM35.2859 39.0582L31.6601 26.0737L31.4675 26.1275L35.0932 39.112L35.2859 39.0582ZM31.4675 26.1275L35.0932 39.1107L35.2859 39.0569L31.6601 26.0737L31.4675 26.1275ZM29.8917 25.9828H30.0917V25.7461L29.8584 25.7856L29.8917 25.9828ZM29.8661 26.4358L30.0637 26.4691L30.065 26.4569L29.8661 26.4358ZM29.8916 25.9829L29.6916 25.9817L29.6902 26.2198L29.925 26.18L29.8916 25.9829ZM29.8917 25.9732L30.0917 25.9766L30.0917 25.9726L29.8917 25.9732ZM29.8664 25.5348L30.0657 25.5136L30.0637 25.5016L29.8664 25.5348ZM29.6437 24.7148L29.8309 24.6434L29.8259 24.6324L29.6437 24.7148ZM29.3066 24.1071L29.4728 23.9958L29.4706 23.9926L29.3066 24.1071ZM29.2479 24.0245L29.0854 24.1411L29.0854 24.1411L29.2479 24.0245ZM29.2051 23.9646L29.3684 23.8491L29.3641 23.843L29.3594 23.8373L29.2051 23.9646ZM29.1835 23.9389L29.0297 24.0669L29.0328 24.0705L29.1835 23.9389ZM28.9231 23.6529L29.0646 23.5116L29.0646 23.5116L28.9231 23.6529ZM28.6376 23.3922L28.7653 23.2383L28.7626 23.2361L28.6376 23.3922ZM28.6217 23.378L28.757 23.2308L28.7479 23.2224L28.7377 23.2151L28.6217 23.378ZM28.618 23.3754L28.4992 23.5363L28.5016 23.538L28.618 23.3754ZM28.4528 23.2604L28.3422 23.4271L28.3437 23.428L28.4528 23.2604ZM27.8643 22.9346L27.9471 22.7522L27.9358 22.7479L27.8643 22.9346ZM27.0484 22.7117L27.082 22.5141L27.0689 22.5128L27.0484 22.7117ZM26.1412 22.7119L26.1207 22.5125L26.1077 22.5147L26.1412 22.7119ZM25.3278 22.9341L25.2562 22.7469L25.2452 22.7519L25.3278 22.9341ZM24.721 23.2716L24.6095 23.1056L24.6062 23.1079L24.721 23.2716ZM24.6385 23.3304L24.5218 23.1681L24.5218 23.1681L24.6385 23.3304ZM24.5787 23.3733L24.463 23.2101L24.4569 23.2145L24.4512 23.2192L24.5787 23.3733ZM24.5531 23.395L24.6813 23.5486L24.6849 23.5454L24.5531 23.395ZM24.2675 23.6557L24.126 23.5144L24.126 23.5144L24.2675 23.6557ZM24.0072 23.9417L23.853 23.8142L23.8509 23.8169L24.0072 23.9417ZM23.993 23.9576L23.8456 23.8225L23.8372 23.8317L23.83 23.8418L23.993 23.9576ZM23.9904 23.9613L24.1515 24.0799L24.1532 24.0775L23.9904 23.9613ZM23.8756 24.1268L24.0424 24.2371L24.0434 24.2356L23.8756 24.1268ZM23.5503 24.7161L23.3677 24.6336L23.3635 24.6448L23.5503 24.7161ZM23.3277 25.5333L23.1301 25.4998L23.1288 25.5128L23.3277 25.5333ZM23.3279 26.4418L23.1285 26.4623L23.1307 26.4753L23.3279 26.4418ZM23.5497 27.2565L23.3625 27.3278L23.3675 27.3389L23.5497 27.2565ZM23.8868 27.8641L23.7206 27.9755L23.7229 27.9787L23.8868 27.8641ZM23.9455 27.9468L24.1081 27.8302L24.1081 27.8302L23.9455 27.9468ZM23.9883 28.0067L23.825 28.1222L23.8293 28.1282L23.834 28.134L23.9883 28.0067ZM24.01 28.0324L24.1637 27.9044L24.1606 27.9008L24.01 28.0324ZM24.2703 28.3183L24.4118 28.177L24.4118 28.177L24.2703 28.3183ZM24.5559 28.5791L24.4281 28.733L24.4308 28.7352L24.5559 28.5791ZM24.5718 28.5933L24.4364 28.7405L24.4456 28.7489L24.4557 28.7561L24.5718 28.5933ZM24.5755 28.5959L24.6942 28.435L24.6918 28.4332L24.5755 28.5959ZM24.7406 28.7109L24.8512 28.5442L24.8497 28.5433L24.7406 28.7109ZM25.3291 29.0366L25.2463 29.2191L25.2576 29.2234L25.3291 29.0366ZM26.145 29.2596L26.1114 29.4572L26.1245 29.4585L26.145 29.2596ZM27.0522 29.2594L27.0727 29.4588L27.0858 29.4566L27.0522 29.2594ZM27.8656 29.0372L27.9372 29.2244L27.9482 29.2194L27.8656 29.0372ZM28.4724 28.6997L28.5839 28.8657L28.5872 28.8634L28.4724 28.6997ZM28.5549 28.6408L28.4381 28.4785L28.4381 28.4785L28.5549 28.6408ZM28.6147 28.598L28.7304 28.7612L28.7365 28.7568L28.7422 28.7521L28.6147 28.598ZM28.6403 28.5763L28.5122 28.4227L28.5085 28.4259L28.6403 28.5763ZM28.9259 28.3155L28.7844 28.1742L28.7844 28.1742L28.9259 28.3155ZM29.1862 28.0296L29.3404 28.1571L29.3425 28.1544L29.1862 28.0296ZM29.2004 28.0137L29.3479 28.1488L29.3562 28.1396L29.3634 28.1295L29.2004 28.0137ZM29.203 28.0099L29.0419 27.8914L29.0402 27.8938L29.203 28.0099ZM29.3178 27.8445L29.151 27.7342L29.1501 27.7356L29.3178 27.8445ZM29.6431 27.2552L29.8257 27.3377L29.8299 27.3265L29.6431 27.2552ZM29.8861 26.3053L30.0842 26.3327L29.6883 26.276L29.8861 26.3053ZM29.8804 26.3455L29.6823 26.318L30.0782 26.3747L29.8804 26.3455ZM29.2562 27.9427L29.4535 27.9755L29.059 27.9098L29.2562 27.9427ZM29.2456 27.9614L29.0794 27.8502L29.4062 28.0807L29.2456 27.9614ZM26.9186 29.28L26.8893 29.0822L26.9461 29.4781L26.9186 29.28ZM26.9589 29.2743L26.9882 29.4721L26.9313 29.0762L26.9589 29.2743ZM26.2776 29.28L26.2501 29.4781L26.3069 29.0822L26.2776 29.28ZM26.2374 29.2743L26.2649 29.0762L26.2081 29.4721L26.2374 29.2743ZM24.6427 28.6492L24.6097 28.8465L24.6756 28.4519L24.6427 28.6492ZM24.6239 28.6386L24.7353 28.4725L24.5044 28.799L24.6239 28.6386ZM23.3073 26.3081L23.5051 26.2788L23.1092 26.3355L23.3073 26.3081ZM23.313 26.3483L23.1152 26.3775L23.5111 26.3209L23.313 26.3483ZM23.3073 25.666L23.1092 25.6386L23.5051 25.6953L23.3073 25.666ZM23.313 25.6258L23.5111 25.6532L23.1152 25.5966L23.313 25.6258ZM23.9372 24.0286L23.7399 23.9958L24.1345 24.0615L23.9372 24.0286ZM23.9478 24.0099L24.114 24.121L23.7872 23.8906L23.9478 24.0099ZM26.2748 22.6912L26.3041 22.8891L26.2473 22.4931L26.2748 22.6912ZM26.2346 22.697L26.2053 22.4992L26.2621 22.8951L26.2346 22.697ZM26.9158 22.6912L26.9433 22.4931L26.8865 22.8891L26.9158 22.6912ZM26.956 22.697L26.9285 22.8951L26.9853 22.4992L26.956 22.697ZM28.5508 23.3221L28.5837 23.1248L28.5178 23.5194L28.5508 23.3221ZM28.5695 23.3327L28.4581 23.4988L28.689 23.1723L28.5695 23.3327ZM29.8861 25.6632L29.6883 25.6925L30.0842 25.6358L29.8861 25.6632ZM29.8804 25.623L30.0782 25.5937L29.6823 25.6504L29.8804 25.623ZM31.5638 26.1006L31.3656 26.0734L31.3642 26.0838L31.3639 26.0943L31.5638 26.1006ZM31.5714 25.9828L31.3714 25.984L31.3714 25.984L31.5714 25.9828ZM30.684 23.1482L30.5211 23.2644L30.5214 23.2648L30.684 23.1482ZM28.2456 21.2838L28.3147 21.0961L28.3147 21.0961L28.2456 21.2838ZM22.806 22.7585L22.6516 22.6314L22.6516 22.6314L22.806 22.7585ZM21.633 25.6464L21.4336 25.6303L21.4336 25.6307L21.633 25.6464ZM22.3245 28.5371L22.496 28.4341L22.4958 28.4339L22.3245 28.5371ZM24.268 30.384L24.3247 30.5758L24.8019 30.4347L24.3598 30.2063L24.268 30.384ZM24.2547 30.388L24.3116 30.5797L24.3117 30.5797L24.2547 30.388ZM20.0243 33.2658L19.8672 33.142L19.867 33.1423L20.0243 33.2658ZM18.026 38.4301L18.2253 38.4459L18.2254 38.4451L18.026 38.4301ZM18 39.0851L17.8 39.0825V39.0851H18ZM33.0441 39.9975L33.0454 39.7975L33.0454 39.7975L33.0441 39.9975ZM34.2751 39.9952L34.2811 39.7951L34.2714 39.7953L34.2751 39.9952ZM34.3273 39.9948V39.7946L34.3182 39.795L34.3273 39.9948ZM34.3274 39.9948V40.1951L34.3378 40.1945L34.3274 39.9948ZM33.6352 33.9057L33.8006 33.7933L33.8006 33.7932L33.6352 33.9057ZM29.5029 30.5821L29.4305 30.7685L29.4307 30.7685L29.5029 30.5821ZM28.9235 30.3832L28.8289 30.207L28.4026 30.4361L28.8662 30.5748L28.9235 30.3832ZM31.4901 26.8268L31.2923 26.7972L31.2923 26.7972L31.4901 26.8268ZM33.4147 38.1605L33.6128 38.1332L33.2163 38.1859L33.4147 38.1605ZM33.4167 38.1754V38.3754H33.6458L33.6149 38.1484L33.4167 38.1754ZM33.4166 38.1754L33.2182 38.2011L33.2408 38.3754H33.4166V38.1754ZM33.405 38.0928L33.6038 38.0699L33.6029 38.0639L33.405 38.0928ZM33.4142 38.1754V38.3754H33.6364L33.613 38.1544L33.4142 38.1754ZM32.9455 36.317L33.1327 36.2462L33.1301 36.24L32.9455 36.317ZM32.3664 35.1731L32.5371 35.0688L32.5366 35.0681L32.3664 35.1731ZM32.0424 34.6817L32.2063 34.5667L32.2004 34.559L32.0424 34.6817ZM32.0103 34.6395L32.1701 34.5192L32.1701 34.5192L32.0103 34.6395ZM31.9685 34.5848L31.8069 34.703L31.8117 34.7091L31.9685 34.5848ZM31.7868 34.3574L31.9402 34.2291L31.9396 34.2284L31.7868 34.3574ZM30.9794 33.5265L31.1118 33.3766L31.1095 33.3747L30.9794 33.5265ZM30.8467 33.4083L30.6661 33.4941L30.6693 33.5009L30.673 33.5074L30.8467 33.4083ZM30.807 33.375L30.9218 33.2112L30.9218 33.2112L30.807 33.375ZM30.7862 33.3597L30.915 33.2066L30.9101 33.2027L30.7862 33.3597ZM30.7458 33.3264L30.876 33.1745L30.8729 33.1719L30.7458 33.3264ZM30.7328 33.3188L30.6121 33.4782L30.6121 33.4782L30.7328 33.3188ZM30.6795 33.2779L30.8034 33.1208L30.801 33.119L30.6795 33.2779ZM30.1922 32.9352L30.0841 33.1035L30.085 33.1041L30.1922 32.9352ZM29.2328 32.4117L29.3165 32.2299L29.31 32.2272L29.2328 32.4117ZM27.5428 31.9279L27.5747 31.7304L27.568 31.7295L27.5428 31.9279ZM25.6538 31.9277L25.6285 31.7292L25.6219 31.7302L25.6538 31.9277ZM23.9639 32.4111L23.8866 32.2265L23.8801 32.2295L23.9639 32.4111ZM22.8762 33.0201L22.7642 32.8544L22.7635 32.8549L22.8762 33.0201ZM22.4089 33.3608L22.2861 33.2026L22.2786 33.2091L22.4089 33.3608ZM22.3688 33.3946L22.2408 33.2409L22.2408 33.2409L22.3688 33.3946ZM22.3168 33.4386L22.4427 33.5942L22.4486 33.589L22.3168 33.4386ZM22.1005 33.6296L21.9647 33.4829L21.9641 33.4834L22.1005 33.6296ZM21.3104 34.4787L21.1541 34.3539L21.1523 34.3562L21.3104 34.4787ZM21.198 34.6182L21.291 34.7953L21.298 34.7916L21.3047 34.7874L21.198 34.6182ZM21.1664 34.66L20.9974 34.5529L20.9974 34.5529L21.1664 34.66ZM21.1518 34.6819L20.9926 34.5607L20.989 34.5658L21.1518 34.6819ZM21.1201 34.7243L20.962 34.6018L20.9597 34.6049L21.1201 34.7243ZM21.1129 34.738L21.2779 34.851L21.2779 34.851L21.1129 34.738ZM21.074 34.7941L20.9111 34.6779L20.9095 34.6803L21.074 34.7941ZM20.7481 35.3066L20.9211 35.407L20.9216 35.4061L20.7481 35.3066ZM20.2503 36.3155L20.0656 36.2386L20.0633 36.2447L20.2503 36.3155ZM19.7898 38.0957L19.5918 38.0668L19.5912 38.0727L19.7898 38.0957ZM19.7818 38.1682L19.5829 38.1469L19.5594 38.3668L19.7805 38.3682L19.7818 38.1682ZM20.1448 38.1713L20.1468 37.9713L20.1468 37.9713L20.1448 38.1713ZM19.7796 38.1682V38.3682H19.9556L19.978 38.1937L19.7796 38.1682ZM19.7796 38.1682L19.5814 38.141L19.5503 38.3682H19.7796V38.1682ZM19.7806 38.1607L19.979 38.1861L19.5825 38.1334L19.7806 38.1607ZM20.3127 36.1557L20.4986 36.2293L20.1271 36.0811L20.3127 36.1557ZM20.2819 36.2335L20.0956 36.1607L20.4678 36.3071L20.2819 36.2335ZM23.8105 32.4773L23.7293 32.2945L23.8908 32.6605L23.8105 32.4773ZM23.885 32.4446L23.9653 32.6278L23.8057 32.261L23.885 32.4446ZM25.7888 31.9072L25.8195 32.1048L25.7605 31.7092L25.7888 31.9072ZM25.717 31.9178L25.6869 31.7201L25.745 32.1158L25.717 31.9178ZM27.4065 31.9072L27.4347 31.7092L27.3757 32.1048L27.4065 31.9072ZM27.4781 31.9177L27.4501 32.1158L27.5082 31.72L27.4781 31.9177ZM29.3847 32.4773L29.3045 32.6605L29.466 32.2945L29.3847 32.4773ZM29.3108 32.4449L29.3901 32.2613L29.2306 32.6281L29.3108 32.4449ZM32.8826 36.1557L33.0682 36.0811L32.6967 36.2293L32.8826 36.1557ZM32.9137 36.2342L32.7278 36.3078L33.1 36.1614L32.9137 36.2342ZM29.6917 25.9828C29.6917 26.1254 29.6827 26.2692 29.6672 26.4146L30.065 26.4569C30.0816 26.3004 30.0917 26.1422 30.0917 25.9828H29.6917ZM29.925 26.18L29.9251 26.18L29.8584 25.7856L29.8582 25.7857L29.925 26.18ZM29.6917 25.9698C29.6917 25.9737 29.6916 25.9777 29.6916 25.9817L30.0916 25.984C30.0916 25.9816 30.0916 25.9791 30.0917 25.9766L29.6917 25.9698ZM29.6676 25.556C29.6825 25.6956 29.6913 25.8352 29.6917 25.9737L30.0917 25.9726C30.0913 25.8179 30.0814 25.6643 30.0653 25.5136L29.6676 25.556ZM29.4568 24.7861C29.5533 25.0392 29.6241 25.3002 29.6692 25.568L30.0637 25.5016C30.0142 25.208 29.9365 24.9215 29.8306 24.6436L29.4568 24.7861ZM29.1405 24.2185C29.2634 24.402 29.3705 24.5961 29.4614 24.7972L29.8259 24.6324C29.7262 24.412 29.6086 24.1985 29.4728 23.9958L29.1405 24.2185ZM29.0854 24.1411C29.105 24.1685 29.1239 24.1949 29.1427 24.2217L29.4706 23.9926C29.4502 23.9634 29.4299 23.9352 29.4105 23.908L29.0854 24.1411ZM29.0419 24.0801C29.0565 24.1009 29.0712 24.1213 29.0854 24.1411L29.4105 23.908C29.3962 23.8881 29.3823 23.8687 29.3684 23.8491L29.0419 24.0801ZM29.0328 24.0705C29.0382 24.0767 29.044 24.0836 29.0509 24.0919L29.3594 23.8373C29.3518 23.8281 29.3432 23.8177 29.3341 23.8073L29.0328 24.0705ZM28.7816 23.7942C28.8667 23.8795 28.9495 23.9704 29.0297 24.0668L29.3372 23.811C29.2495 23.7056 29.1586 23.6058 29.0646 23.5116L28.7816 23.7942ZM28.5098 23.5461C28.6029 23.6233 28.6935 23.706 28.7816 23.7942L29.0646 23.5116C28.968 23.4148 28.8682 23.3237 28.7653 23.2383L28.5098 23.5461ZM28.4863 23.5253C28.4909 23.5295 28.5026 23.5403 28.5125 23.5482L28.7626 23.2361C28.7637 23.237 28.7644 23.2376 28.7648 23.2379C28.7653 23.2383 28.7655 23.2385 28.7656 23.2386C28.7657 23.2386 28.7653 23.2384 28.7645 23.2376C28.7628 23.2361 28.7605 23.234 28.757 23.2308L28.4863 23.5253ZM28.5016 23.538C28.5029 23.539 28.5043 23.5399 28.5056 23.5409L28.7377 23.2151C28.7367 23.2144 28.7355 23.2136 28.7343 23.2127L28.5016 23.538ZM28.3437 23.428C28.3958 23.462 28.4486 23.499 28.4992 23.5363L28.7367 23.2144C28.6809 23.1733 28.6217 23.1317 28.5619 23.0928L28.3437 23.428ZM27.7817 23.1168C27.9763 23.205 28.1643 23.3091 28.3422 23.4271L28.5633 23.0937C28.3675 22.9639 28.1608 22.8495 27.9469 22.7525L27.7817 23.1168ZM27.0149 22.9089C27.2813 22.9542 27.541 23.025 27.7928 23.1214L27.9358 22.7479C27.6592 22.642 27.3741 22.5642 27.0819 22.5145L27.0149 22.9089ZM26.1617 22.9108C26.4512 22.881 26.7405 22.881 27.0279 22.9106L27.0689 22.5128C26.7541 22.4803 26.4374 22.4804 26.1208 22.5129L26.1617 22.9108ZM25.3992 23.1209C25.6503 23.0249 25.9092 22.9542 26.1748 22.909L26.1077 22.5147C25.8164 22.5643 25.5321 22.6418 25.2564 22.7473L25.3992 23.1209ZM24.8326 23.4376C25.0159 23.3145 25.2097 23.2073 25.4104 23.1162L25.2452 22.7519C25.0251 22.8518 24.8119 22.9696 24.6095 23.1056L24.8326 23.4376ZM24.7553 23.4928C24.7827 23.4731 24.809 23.4542 24.8359 23.4354L24.6062 23.1079C24.5771 23.1283 24.5489 23.1486 24.5218 23.1681L24.7553 23.4928ZM24.6945 23.5364C24.7152 23.5217 24.7355 23.507 24.7553 23.4928L24.5218 23.1681C24.5019 23.1824 24.4825 23.1963 24.463 23.2101L24.6945 23.5364ZM24.6849 23.5454C24.691 23.54 24.698 23.5342 24.7063 23.5273L24.4512 23.2192C24.442 23.2268 24.4317 23.2355 24.4213 23.2446L24.6849 23.5454ZM24.409 23.797C24.4942 23.7118 24.5849 23.6289 24.6812 23.5485L24.4249 23.2414C24.3197 23.3293 24.22 23.4203 24.126 23.5144L24.409 23.797ZM24.1613 24.0692C24.2384 23.976 24.3209 23.8853 24.409 23.797L24.126 23.5144C24.0293 23.6112 23.9383 23.7112 23.8531 23.8142L24.1613 24.0692ZM24.1405 24.0927C24.1447 24.0882 24.1555 24.0765 24.1634 24.0666L23.8509 23.8169C23.8518 23.8158 23.8524 23.8151 23.8527 23.8146C23.8531 23.8142 23.8533 23.814 23.8534 23.8139C23.8534 23.8138 23.8532 23.8141 23.8524 23.815C23.8509 23.8167 23.8488 23.819 23.8456 23.8225L24.1405 24.0927ZM24.1532 24.0775C24.1542 24.0761 24.1551 24.0748 24.1561 24.0735L23.83 23.8418C23.8292 23.8429 23.8284 23.844 23.8275 23.8452L24.1532 24.0775ZM24.0434 24.2356C24.0773 24.1834 24.1142 24.1305 24.1515 24.0799L23.8293 23.8428C23.7882 23.8987 23.7467 23.958 23.7078 24.0179L24.0434 24.2356ZM23.7325 24.7985C23.8207 24.6036 23.9246 24.4153 24.0424 24.2371L23.7088 24.0164C23.5791 24.2125 23.4649 24.4195 23.3681 24.6337L23.7325 24.7985ZM23.5249 25.5667C23.5701 25.2998 23.6409 25.0397 23.7372 24.7874L23.3635 24.6448C23.2578 24.9218 23.1801 25.2073 23.1305 25.4999L23.5249 25.5667ZM23.5268 26.4214C23.4971 26.1314 23.497 25.8417 23.5267 25.5537L23.1288 25.5128C23.0963 25.8281 23.0964 26.1452 23.1289 26.4622L23.5268 26.4214ZM23.7366 27.1852C23.6407 26.9337 23.5702 26.6744 23.5251 26.4083L23.1307 26.4753C23.1802 26.7669 23.2576 27.0516 23.3629 27.3277L23.7366 27.1852ZM24.053 27.7528C23.93 27.5692 23.8229 27.3751 23.732 27.174L23.3675 27.3389C23.4672 27.5592 23.5848 27.7728 23.7206 27.9754L24.053 27.7528ZM24.1081 27.8302C24.0884 27.8028 24.0695 27.7764 24.0507 27.7496L23.7229 27.9787C23.7432 28.0079 23.7635 28.0361 23.783 28.0633L24.1081 27.8302ZM24.1515 27.8912C24.1369 27.8704 24.1223 27.85 24.1081 27.8302L23.783 28.0633C23.7973 28.0832 23.8112 28.1026 23.825 28.1222L24.1515 27.8912ZM24.1606 27.9008C24.1552 27.8946 24.1494 27.8877 24.1425 27.8793L23.834 28.134C23.8416 28.1432 23.8503 28.1535 23.8594 28.164L24.1606 27.9008ZM24.4118 28.177C24.3267 28.0917 24.244 28.0009 24.1637 27.9044L23.8562 28.1603C23.9439 28.2657 24.0348 28.3655 24.1288 28.4597L24.4118 28.177ZM24.6836 28.4252C24.5905 28.348 24.4999 28.2653 24.4118 28.177L24.1288 28.4597C24.2255 28.5565 24.3252 28.6476 24.4282 28.733L24.6836 28.4252ZM24.7071 28.446C24.7025 28.4418 24.6909 28.431 24.6809 28.423L24.4308 28.7352C24.4297 28.7343 24.429 28.7337 24.4286 28.7333C24.4281 28.733 24.4279 28.7328 24.4278 28.7327C24.4278 28.7326 24.4281 28.7329 24.4289 28.7336C24.4306 28.7352 24.4329 28.7373 24.4364 28.7405L24.7071 28.446ZM24.6918 28.4332C24.6905 28.4323 24.6891 28.4313 24.6878 28.4304L24.4557 28.7561C24.4568 28.7569 24.4579 28.7577 24.4591 28.7586L24.6918 28.4332ZM24.8497 28.5433C24.7976 28.5093 24.7448 28.4723 24.6942 28.435L24.4567 28.7568C24.5125 28.798 24.5717 28.8396 24.6315 28.8785L24.8497 28.5433ZM25.4117 28.8545C25.2171 28.7663 25.0291 28.6622 24.8512 28.5442L24.6301 28.8775C24.8259 29.0074 25.0326 29.1218 25.2465 29.2188L25.4117 28.8545ZM26.1785 29.0624C25.9121 29.0171 25.6524 28.9463 25.4006 28.8499L25.2576 29.2234C25.5342 29.3293 25.8193 29.4071 26.1115 29.4568L26.1785 29.0624ZM27.0317 29.0605C26.7422 29.0902 26.453 29.0903 26.1655 29.0606L26.1245 29.4585C26.4394 29.491 26.756 29.4909 27.0727 29.4584L27.0317 29.0605ZM27.7942 28.8504C27.5431 28.9464 27.2842 29.017 27.0186 29.0623L27.0858 29.4566C27.377 29.407 27.6613 29.3295 27.937 29.224L27.7942 28.8504ZM28.3608 28.5336C28.1775 28.6568 27.9838 28.764 27.783 28.8551L27.9482 29.2194C28.1683 29.1195 28.3815 29.0017 28.5839 28.8657L28.3608 28.5336ZM28.4381 28.4785C28.4107 28.4982 28.3844 28.5171 28.3576 28.5359L28.5872 28.8634C28.6163 28.843 28.6445 28.8227 28.6716 28.8032L28.4381 28.4785ZM28.499 28.4349C28.4782 28.4496 28.4579 28.4642 28.4381 28.4785L28.6716 28.8032C28.6916 28.7889 28.7109 28.775 28.7304 28.7612L28.499 28.4349ZM28.5085 28.4259C28.5024 28.4313 28.4955 28.4371 28.4871 28.444L28.7422 28.7521C28.7514 28.7445 28.7618 28.7358 28.7722 28.7267L28.5085 28.4259ZM28.7844 28.1742C28.6992 28.2595 28.6085 28.3424 28.5122 28.4227L28.7685 28.7298C28.8738 28.642 28.9734 28.551 29.0674 28.4569L28.7844 28.1742ZM29.0321 27.9021C28.955 27.9953 28.8725 28.086 28.7844 28.1742L29.0674 28.4569C29.1641 28.36 29.2551 28.2601 29.3404 28.1571L29.0321 27.9021ZM29.0529 27.8785C29.0488 27.8831 29.0379 27.8948 29.03 27.9047L29.3425 28.1544C29.3417 28.1555 29.341 28.1562 29.3407 28.1566C29.3403 28.1571 29.3401 28.1573 29.34 28.1574C29.34 28.1574 29.3403 28.1571 29.341 28.1563C29.3425 28.1546 29.3447 28.1523 29.3479 28.1488L29.0529 27.8785ZM29.0402 27.8938C29.0392 27.8952 29.0383 27.8965 29.0374 27.8978L29.3634 28.1295C29.3642 28.1284 29.365 28.1273 29.3659 28.1261L29.0402 27.8938ZM29.1501 27.7356C29.1161 27.7879 29.0792 27.8407 29.0419 27.8914L29.3641 28.1285C29.4052 28.0726 29.4467 28.0133 29.4856 27.9534L29.1501 27.7356ZM29.4609 27.1728C29.3727 27.3677 29.2689 27.556 29.151 27.7342L29.4846 27.9548C29.6143 27.7588 29.7285 27.5518 29.8253 27.3376L29.4609 27.1728ZM29.6689 26.4024C29.6237 26.6701 29.5528 26.9309 29.4562 27.1839L29.8299 27.3265C29.9359 27.0488 30.0137 26.7625 30.0633 26.4691L29.6689 26.4024ZM29.688 26.2779C29.6862 26.2907 29.6844 26.3035 29.6825 26.3163L30.0782 26.3747C30.0803 26.3607 30.0823 26.3467 30.0842 26.3327L29.688 26.2779ZM30.0785 26.3729C30.0803 26.3601 30.0821 26.3473 30.084 26.3345L29.6883 26.276C29.6862 26.2902 29.6842 26.3042 29.6823 26.318L30.0785 26.3729ZM29.059 27.9098C29.0622 27.8901 29.0679 27.8755 29.071 27.8682C29.0744 27.8601 29.0776 27.8542 29.0795 27.851C29.0815 27.8476 29.083 27.8452 29.0838 27.844C29.0842 27.8434 29.0845 27.8429 29.0847 27.8426C29.0849 27.8424 29.0851 27.8422 29.0851 27.8422L29.4062 28.0807C29.4116 28.0734 29.419 28.0629 29.4263 28.0504C29.431 28.0422 29.4471 28.0141 29.4535 27.9755L29.059 27.9098ZM29.4119 28.0726C29.4161 28.0663 29.4216 28.0579 29.4268 28.0487C29.4293 28.0443 29.4332 28.0372 29.4371 28.0287C29.4395 28.0236 29.4489 28.0031 29.4535 27.9755L29.059 27.9098C29.0615 27.8947 29.0652 27.8832 29.0673 27.8772C29.0697 27.8706 29.0719 27.8655 29.0734 27.8623C29.0762 27.8561 29.0786 27.8519 29.0793 27.8506C29.0808 27.8479 29.0813 27.8475 29.0794 27.8502L29.4119 28.0726ZM26.948 29.4779C26.9608 29.476 26.9735 29.4742 26.9864 29.4724L26.9313 29.0762C26.9175 29.0781 26.9035 29.0801 26.8893 29.0822L26.948 29.4779ZM26.9296 29.0764C26.9168 29.0783 26.904 29.0802 26.8912 29.0819L26.9461 29.4781C26.9601 29.4762 26.9742 29.4742 26.9882 29.4721L26.9296 29.0764ZM26.305 29.0819C26.2922 29.0802 26.2795 29.0783 26.2667 29.0764L26.2081 29.4721C26.2221 29.4742 26.2361 29.4762 26.2501 29.4781L26.305 29.0819ZM26.2098 29.4724C26.2227 29.4742 26.2355 29.476 26.2482 29.4779L26.3069 29.0822C26.2927 29.0801 26.2787 29.0781 26.2649 29.0762L26.2098 29.4724ZM24.6756 28.4519C24.6953 28.4552 24.71 28.4609 24.7173 28.464C24.7254 28.4675 24.7313 28.4707 24.7346 28.4726C24.738 28.4745 24.7404 28.4761 24.7415 28.4769C24.7422 28.4773 24.7426 28.4776 24.7429 28.4779C24.7432 28.4781 24.7434 28.4782 24.7434 28.4782L24.5044 28.799C24.5117 28.8044 24.5222 28.8118 24.5347 28.8191C24.5429 28.8238 24.5711 28.84 24.6097 28.8465L24.6756 28.4519ZM24.5125 28.8047C24.5188 28.8089 24.5272 28.8144 24.5363 28.8196C24.5408 28.8222 24.5479 28.826 24.5564 28.83C24.5615 28.8323 24.582 28.8418 24.6097 28.8465L24.6756 28.4519C24.6907 28.4545 24.7023 28.4582 24.7082 28.4603C24.7149 28.4627 24.72 28.465 24.7232 28.4664C24.7294 28.4693 24.7337 28.4717 24.7349 28.4724C24.7376 28.4739 24.7381 28.4744 24.7353 28.4725L24.5125 28.8047ZM23.1094 26.3373C23.1113 26.3501 23.1132 26.3629 23.1149 26.3758L23.5111 26.3209C23.5092 26.307 23.5072 26.293 23.5051 26.2788L23.1094 26.3373ZM23.5109 26.3191C23.509 26.3063 23.5072 26.2935 23.5054 26.2807L23.1092 26.3355C23.1111 26.3495 23.1131 26.3635 23.1152 26.3775L23.5109 26.3191ZM23.5054 25.6934C23.5072 25.6806 23.509 25.6678 23.5109 25.655L23.1152 25.5966C23.1131 25.6106 23.1111 25.6246 23.1092 25.6386L23.5054 25.6934ZM23.1149 25.5983C23.1131 25.6112 23.1113 25.624 23.1094 25.6368L23.5051 25.6953C23.5072 25.6811 23.5092 25.6671 23.5111 25.6532L23.1149 25.5983ZM24.1345 24.0615C24.1312 24.0812 24.1255 24.0958 24.1224 24.1031C24.119 24.1112 24.1158 24.1171 24.1139 24.1203C24.112 24.1237 24.1104 24.1261 24.1096 24.1272C24.1092 24.1279 24.1089 24.1284 24.1087 24.1286C24.1085 24.1289 24.1084 24.1291 24.1083 24.1291L23.7872 23.8906C23.7818 23.8978 23.7744 23.9084 23.7672 23.9209C23.7625 23.9291 23.7463 23.9572 23.7399 23.9958L24.1345 24.0615ZM23.7815 23.8987C23.7773 23.905 23.7718 23.9134 23.7666 23.9225C23.7641 23.927 23.7602 23.9341 23.7563 23.9426C23.754 23.9477 23.7445 23.9682 23.7399 23.9958L24.1345 24.0615C24.132 24.0766 24.1282 24.0881 24.1261 24.094C24.1238 24.1007 24.1215 24.1058 24.1201 24.109C24.1172 24.1152 24.1148 24.1194 24.1141 24.1207C24.1126 24.1234 24.1122 24.1238 24.114 24.121L23.7815 23.8987ZM26.2454 22.4934C26.2327 22.4953 26.2199 22.4971 26.207 22.4989L26.2621 22.8951C26.2759 22.8932 26.2899 22.8912 26.3041 22.8891L26.2454 22.4934ZM26.2639 22.8949C26.2766 22.893 26.2894 22.8911 26.3022 22.8894L26.2473 22.4931C26.2333 22.4951 26.2193 22.4971 26.2053 22.4992L26.2639 22.8949ZM26.8884 22.8894C26.9012 22.8911 26.914 22.893 26.9267 22.8949L26.9853 22.4992C26.9713 22.4971 26.9573 22.4951 26.9433 22.4931L26.8884 22.8894ZM26.9836 22.4989C26.9707 22.4971 26.9579 22.4953 26.9452 22.4934L26.8865 22.8891C26.9007 22.8912 26.9147 22.8932 26.9285 22.8951L26.9836 22.4989ZM28.5178 23.5194C28.4981 23.5161 28.4834 23.5104 28.4761 23.5073C28.468 23.5038 28.4621 23.5006 28.4589 23.4987C28.4554 23.4967 28.453 23.4952 28.4519 23.4944C28.4513 23.494 28.4508 23.4936 28.4505 23.4934C28.4502 23.4932 28.4501 23.4931 28.45 23.4931L28.689 23.1723C28.6818 23.1669 28.6712 23.1594 28.6587 23.1522C28.6505 23.1475 28.6224 23.1313 28.5837 23.1248L28.5178 23.5194ZM28.6809 23.1666C28.6747 23.1624 28.6662 23.1569 28.6571 23.1517C28.6526 23.1491 28.6456 23.1452 28.637 23.1413C28.6319 23.139 28.6114 23.1294 28.5837 23.1248L28.5178 23.5194C28.5027 23.5168 28.4912 23.5131 28.4852 23.5109C28.4785 23.5086 28.4734 23.5063 28.4702 23.5049C28.464 23.502 28.4598 23.4996 28.4585 23.4989C28.4558 23.4973 28.4553 23.4969 28.4581 23.4988L28.6809 23.1666ZM30.084 25.634C30.0821 25.6212 30.0803 25.6084 30.0785 25.5955L29.6823 25.6504C29.6842 25.6642 29.6862 25.6783 29.6883 25.6925L30.084 25.634ZM29.6825 25.6522C29.6844 25.665 29.6862 25.6778 29.688 25.6906L30.0842 25.6358C30.0823 25.6218 30.0803 25.6078 30.0782 25.5937L29.6825 25.6522ZM31.7619 26.1278C31.7685 26.0801 31.7717 26.0313 31.7714 25.9816L31.3714 25.984C31.3716 26.0147 31.3696 26.0445 31.3656 26.0734L31.7619 26.1278ZM31.7714 25.9817C31.7656 24.9467 31.4583 23.8848 30.8465 23.0317L30.5214 23.2648C31.0799 24.0435 31.366 25.0227 31.3714 25.984L31.7714 25.9817ZM30.8468 23.0321C30.2078 22.1361 29.3493 21.4774 28.3147 21.0961L28.1764 21.4714C29.1351 21.8247 29.9284 22.4333 30.5211 23.2644L30.8468 23.0321ZM28.3147 21.0961C26.3479 20.3713 23.9851 21.0126 22.6516 22.6314L22.9604 22.8857C24.1859 21.3979 26.3695 20.8056 28.1764 21.4714L28.3147 21.0961ZM22.6516 22.6314C21.9401 23.4953 21.5237 24.5125 21.4336 25.6303L21.8324 25.6625C21.9158 24.6271 22.3002 23.6872 22.9604 22.8857L22.6516 22.6314ZM21.4336 25.6307C21.3519 26.6689 21.6172 27.7505 22.1532 28.6403L22.4958 28.4339C22.0016 27.6134 21.7574 26.6146 21.8324 25.6621L21.4336 25.6307ZM22.153 28.64C22.6314 29.4367 23.3413 30.1304 24.1762 30.5617L24.3598 30.2063C23.5956 29.8115 22.939 29.172 22.496 28.4341L22.153 28.64ZM24.2113 30.1922C24.2067 30.1936 24.2022 30.1949 24.1976 30.1963L24.3117 30.5797C24.316 30.5784 24.3204 30.5771 24.3247 30.5758L24.2113 30.1922ZM24.1978 30.1962C22.5231 30.6932 20.9771 31.7328 19.8672 33.142L20.1814 33.3895C21.2401 32.0453 22.7161 31.0532 24.3116 30.5797L24.1978 30.1962ZM19.867 33.1423C18.6833 34.6503 17.9737 36.4621 17.8265 38.4151L18.2254 38.4451C18.3666 36.5711 19.0469 34.8349 20.1816 33.3893L19.867 33.1423ZM17.8266 38.4143C17.8088 38.6393 17.8029 38.8628 17.8 39.0825L18.2 39.0877C18.2028 38.8708 18.2085 38.6577 18.2253 38.4459L17.8266 38.4143ZM17.8 39.0851C17.8 39.6772 18.2781 40.1948 18.8651 40.1948V39.7948C18.5178 39.7948 18.2 39.4755 18.2 39.0851H17.8ZM18.8651 40.1948H20.3992V39.7948H18.8651V40.1948ZM20.3992 40.1948H24.099V39.7948H20.3992V40.1948ZM24.099 40.1948H28.56V39.7948H24.099V40.1948ZM28.56 40.1948H32.4184V39.7948H28.56V40.1948ZM32.4184 40.1948C32.6262 40.1948 32.8341 40.1962 33.0428 40.1975L33.0454 39.7975C32.8369 39.7962 32.6277 39.7948 32.4184 39.7948V40.1948ZM33.0428 40.1975C33.4527 40.2002 33.8655 40.2029 34.2788 40.1952L34.2714 39.7953C33.8639 39.8028 33.4561 39.8002 33.0454 39.7975L33.0428 40.1975ZM34.2691 40.1951C34.2914 40.1958 34.3138 40.1956 34.3364 40.1946L34.3182 39.795C34.3057 39.7956 34.2934 39.7957 34.2811 39.7953L34.2691 40.1951ZM34.3273 40.1948C34.3325 40.1948 34.3367 40.1946 34.3391 40.1945C34.3404 40.1944 34.3414 40.1943 34.342 40.1943C34.3423 40.1943 34.3426 40.1942 34.3428 40.1942C34.3428 40.1942 34.3429 40.1942 34.3429 40.1942C34.343 40.1942 34.343 40.1942 34.343 40.1942C34.343 40.1942 34.343 40.1942 34.343 40.1942C34.343 40.1942 34.343 40.1942 34.343 40.1942C34.3433 40.1942 34.3414 40.1943 34.3392 40.1945C34.3368 40.1946 34.3326 40.1948 34.3274 40.1948V39.7948C34.3222 39.7948 34.318 39.795 34.3156 39.7952C34.3143 39.7952 34.3133 39.7953 34.3127 39.7954C34.3124 39.7954 34.3121 39.7954 34.312 39.7954C34.3119 39.7954 34.3118 39.7954 34.3118 39.7954C34.3118 39.7954 34.3118 39.7954 34.3117 39.7954C34.3117 39.7954 34.3117 39.7954 34.3117 39.7954C34.3117 39.7954 34.3117 39.7954 34.3117 39.7954C34.3114 39.7955 34.3133 39.7953 34.3155 39.7952C34.318 39.795 34.3221 39.7948 34.3273 39.7948V40.1948ZM34.3378 40.1945C34.9047 40.165 35.393 39.707 35.3895 39.084L34.9895 39.0862C34.9918 39.4819 34.6844 39.776 34.317 39.7951L34.3378 40.1945ZM35.3895 39.0831C35.3834 37.2123 34.8425 35.3265 33.8006 33.7933L33.4698 34.0181C34.4633 35.4801 34.9836 37.2868 34.9895 39.0844L35.3895 39.0831ZM33.8006 33.7932C32.7407 32.2359 31.2902 31.0599 29.5752 30.3956L29.4307 30.7685C31.0665 31.4022 32.4535 32.5248 33.4699 34.0182L33.8006 33.7932ZM29.5754 30.3956C29.38 30.3197 29.1816 30.2517 28.9809 30.1916L28.8662 30.5748C29.0569 30.6319 29.2451 30.6964 29.4305 30.7685L29.5754 30.3956ZM29.0182 30.5594C30.4011 29.8163 31.4526 28.4299 31.6879 26.8564L31.2923 26.7972C31.0772 28.2354 30.1104 29.5184 28.8289 30.207L29.0182 30.5594ZM31.6879 26.8564C31.7244 26.6128 31.7556 26.3629 31.7637 26.1069L31.3639 26.0943C31.3565 26.3271 31.328 26.559 31.2923 26.7972L31.6879 26.8564ZM33.2165 38.1879C33.2172 38.1927 33.2179 38.1975 33.2185 38.2024L33.6149 38.1484C33.6142 38.1433 33.6135 38.1383 33.6128 38.1332L33.2165 38.1879ZM33.6149 38.1497C33.6143 38.1448 33.6137 38.14 33.613 38.1352L33.2163 38.1859C33.2169 38.191 33.2176 38.196 33.2182 38.2011L33.6149 38.1497ZM33.4167 37.9754H33.4166V38.3754H33.4167V37.9754ZM33.2063 38.1157C33.2094 38.1426 33.2124 38.1695 33.2153 38.1964L33.613 38.1544C33.6101 38.1262 33.607 38.0981 33.6037 38.0699L33.2063 38.1157ZM32.7585 36.3878C32.9702 36.9473 33.1203 37.5277 33.2071 38.1217L33.6029 38.0639C33.512 37.4413 33.3546 36.8329 33.1326 36.2462L32.7585 36.3878ZM32.1958 35.2775C32.4127 35.6322 32.5995 36.0069 32.761 36.394L33.1301 36.24C32.9618 35.8364 32.7659 35.4432 32.5371 35.0688L32.1958 35.2775ZM31.8787 34.7966C31.9882 34.9526 32.0949 35.1141 32.1962 35.2782L32.5366 35.0681C32.431 34.897 32.32 34.729 32.2061 34.5668L31.8787 34.7966ZM31.8505 34.7598C31.861 34.7736 31.8725 34.7889 31.8845 34.8044L32.2004 34.559C32.1905 34.5463 32.1808 34.5335 32.1701 34.5192L31.8505 34.7598ZM31.8117 34.7091C31.8244 34.725 31.8366 34.7412 31.8505 34.7598L32.1701 34.5192C32.1566 34.5013 32.1414 34.4811 32.1252 34.4606L31.8117 34.7091ZM31.6334 34.4858C31.6972 34.5619 31.7537 34.63 31.807 34.7029L32.1299 34.4668C32.0679 34.382 32.0033 34.3045 31.9402 34.2291L31.6334 34.4858ZM30.847 33.6764C31.1272 33.9239 31.3886 34.1958 31.634 34.4864L31.9396 34.2284C31.6833 33.9247 31.4083 33.6386 31.1118 33.3766L30.847 33.6764ZM30.6904 33.5423L30.8493 33.6784L31.1095 33.3747L30.9507 33.2385L30.6904 33.5423ZM30.673 33.5074C30.6698 33.5017 30.6596 33.4835 30.6531 33.4577C30.6491 33.4418 30.6286 33.3538 30.6976 33.2762C30.7662 33.1992 30.8554 33.2089 30.8711 33.2108C30.8973 33.2141 30.9165 33.2218 30.9225 33.2243C30.9371 33.2304 30.9473 33.2368 30.9489 33.2377C30.9523 33.2399 30.9546 33.2414 30.9552 33.2418C30.9563 33.2426 30.9536 33.2407 30.9454 33.2341L30.6957 33.5466C30.7043 33.5536 30.7159 33.5627 30.7265 33.5701C30.7266 33.5701 30.7454 33.5839 30.7696 33.5939C30.7761 33.5966 30.7957 33.6046 30.8222 33.6078C30.8383 33.6098 30.9276 33.6194 30.9963 33.5423C31.0655 33.4646 31.0451 33.3763 31.041 33.3601C31.0344 33.3339 31.024 33.3153 31.0205 33.3091L30.673 33.5074ZM30.6922 33.5388C30.7018 33.5455 30.7056 33.5482 30.7075 33.5497C30.7083 33.5504 30.7052 33.548 30.7004 33.5433C30.6979 33.5408 30.6933 33.5361 30.688 33.5294C30.6832 33.5233 30.6743 33.5113 30.6661 33.4941L31.0274 33.3224C31.0111 33.2882 30.9889 33.266 30.9821 33.2593C30.9721 33.2494 30.9624 33.2414 30.9559 33.2362C30.943 33.226 30.9289 33.2162 30.9218 33.2112L30.6922 33.5388ZM30.6574 33.5128C30.6707 33.5239 30.6872 33.5353 30.6922 33.5388L30.9218 33.2112C30.9173 33.2081 30.9147 33.2062 30.9126 33.2048C30.9117 33.2041 30.9115 33.2039 30.9116 33.204C30.9117 33.2041 30.913 33.205 30.9149 33.2067L30.6574 33.5128ZM30.6479 33.5055C30.6529 33.5094 30.6577 33.5131 30.6623 33.5168L30.9101 33.2027C30.9041 33.198 30.8982 33.1934 30.8923 33.1889L30.6479 33.5055ZM30.6157 33.4782L30.64 33.4991L30.9003 33.1953L30.8759 33.1745L30.6157 33.4782ZM30.883 33.1821C30.8693 33.1704 30.8679 33.1688 30.8719 33.1727C30.8727 33.1736 30.8746 33.1754 30.8768 33.1779C30.878 33.1791 30.8842 33.1856 30.8912 33.1949C30.8935 33.1981 30.9037 33.2117 30.9127 33.2313C30.9168 33.2403 30.9268 33.2635 30.9299 33.2953C30.9331 33.328 30.9304 33.3972 30.873 33.4551C30.8192 33.5095 30.7556 33.5145 30.7306 33.5145C30.7031 33.5144 30.6821 33.5086 30.6734 33.506C30.6547 33.5004 30.6412 33.4933 30.6377 33.4914C30.628 33.4863 30.6209 33.4815 30.6195 33.4806C30.6169 33.4788 30.6149 33.4774 30.6139 33.4767C30.6119 33.4752 30.6106 33.4742 30.6104 33.4741C30.6102 33.4738 30.6123 33.4755 30.6187 33.4808L30.8729 33.1719C30.8666 33.1667 30.8604 33.1617 30.8556 33.158C30.8543 33.157 30.852 33.1552 30.8494 33.1533C30.8481 33.1523 30.8458 33.1507 30.8429 33.1487C30.8413 33.1477 30.834 33.1427 30.8242 33.1376C30.8206 33.1357 30.807 33.1285 30.7884 33.1229C30.7797 33.1203 30.7587 33.1145 30.7311 33.1145C30.7061 33.1144 30.6425 33.1194 30.5887 33.1738C30.5313 33.2318 30.5286 33.3009 30.5318 33.3337C30.5348 33.3655 30.5449 33.3887 30.549 33.3977C30.558 33.4174 30.5682 33.431 30.5706 33.4342C30.5776 33.4436 30.584 33.4503 30.5853 33.4517C30.5877 33.4543 30.5898 33.4564 30.591 33.4575C30.5993 33.4657 30.614 33.4784 30.6224 33.4856L30.883 33.1821ZM30.6121 33.4782C30.6187 33.4833 30.6252 33.4881 30.6316 33.493L30.8738 33.1747C30.867 33.1695 30.8601 33.1643 30.8535 33.1593L30.6121 33.4782ZM30.5556 33.4349C30.5747 33.45 30.5943 33.4648 30.6121 33.4782L30.8535 33.1593C30.8352 33.1455 30.8188 33.133 30.8033 33.1208L30.5556 33.4349ZM30.085 33.1041C30.2462 33.2063 30.4028 33.318 30.558 33.4367L30.801 33.119C30.639 32.9951 30.4726 32.8763 30.2993 32.7663L30.085 33.1041ZM29.1491 32.5934C29.4708 32.7416 29.784 32.9108 30.0841 33.1035L30.3002 32.7669C29.9833 32.5634 29.6537 32.3854 29.3165 32.2301L29.1491 32.5934ZM27.5109 32.1254C28.0741 32.2164 28.6246 32.3739 29.1556 32.5962L29.31 32.2272C28.7502 31.9928 28.1693 31.8266 27.5747 31.7305L27.5109 32.1254ZM25.6791 32.1261C26.2889 32.0483 26.9052 32.0483 27.5175 32.1263L27.568 31.7295C26.9223 31.6473 26.272 31.6472 25.6285 31.7293L25.6791 32.1261ZM24.0411 32.5956C24.572 32.3734 25.1225 32.216 25.6857 32.1251L25.6219 31.7302C25.0274 31.8262 24.4465 31.9924 23.8867 32.2266L24.0411 32.5956ZM22.9883 33.1858C23.325 32.9582 23.6804 32.7621 24.0476 32.5927L23.8801 32.2295C23.4955 32.4069 23.1209 32.6133 22.7642 32.8544L22.9883 33.1858ZM22.5315 33.5188C22.6798 33.4038 22.8332 33.2917 22.989 33.1853L22.7635 32.8549C22.6006 32.9661 22.4407 33.083 22.2863 33.2028L22.5315 33.5188ZM22.4967 33.5483C22.5099 33.5373 22.5245 33.5252 22.5392 33.5126L22.2786 33.2091C22.2666 33.2194 22.2544 33.2296 22.2408 33.2409L22.4967 33.5483ZM22.4486 33.589C22.4637 33.5758 22.4791 33.5629 22.4967 33.5483L22.2408 33.2409C22.2238 33.2551 22.2045 33.2711 22.185 33.2882L22.4486 33.589ZM22.2364 33.7764C22.3088 33.7094 22.3735 33.65 22.4426 33.5941L22.191 33.2831C22.1102 33.3485 22.0364 33.4165 21.9647 33.4829L22.2364 33.7764ZM21.4667 34.6035C21.7022 34.3087 21.9608 34.0337 22.237 33.7758L21.9641 33.4834C21.6752 33.7531 21.4031 34.0423 21.1542 34.3539L21.4667 34.6035ZM21.3391 34.7683L21.4685 34.6012L21.1523 34.3562L21.0229 34.5233L21.3391 34.7683ZM21.3047 34.7874C21.2992 34.7908 21.28 34.8029 21.2522 34.8106C21.2327 34.816 21.1377 34.8384 21.0586 34.7604C20.9889 34.6918 20.9989 34.6076 21.0002 34.5961C21.0029 34.5723 21.0093 34.5547 21.0115 34.5489C21.0166 34.5351 21.0221 34.5254 21.023 34.5238C21.0249 34.5205 21.0262 34.5183 21.0265 34.5178C21.0271 34.517 21.0251 34.52 21.0189 34.5286L21.3431 34.7629C21.3497 34.7538 21.3582 34.7418 21.365 34.731C21.3653 34.7306 21.3775 34.7121 21.3861 34.689C21.3885 34.6827 21.3951 34.6646 21.3977 34.6404C21.3991 34.6286 21.4091 34.5442 21.3393 34.4755C21.26 34.3974 21.1648 34.4197 21.145 34.4252C21.1169 34.433 21.0973 34.4453 21.0912 34.4491L21.3047 34.7874ZM21.3353 34.7671C21.3416 34.757 21.3444 34.7528 21.346 34.7505C21.3468 34.7495 21.3446 34.7526 21.3402 34.7576C21.3379 34.7601 21.3334 34.765 21.3269 34.7707C21.321 34.7758 21.3089 34.7859 21.291 34.7953L21.1049 34.4412C21.0701 34.4595 21.0483 34.4839 21.0425 34.4904C21.0331 34.5008 21.0257 34.5108 21.0209 34.5175C21.0114 34.5308 21.0022 34.5454 20.9974 34.5529L21.3353 34.7671ZM21.311 34.803C21.3213 34.7894 21.3319 34.7724 21.3353 34.7671L20.9974 34.5529C20.9944 34.5576 20.9926 34.5605 20.9912 34.5627C20.9905 34.5637 20.9903 34.5641 20.9903 34.564C20.9903 34.564 20.9912 34.5627 20.9927 34.5608L21.311 34.803ZM21.3039 34.8133C21.3076 34.808 21.3111 34.8029 21.3147 34.798L20.989 34.5658C20.9846 34.572 20.9802 34.5782 20.9759 34.5843L21.3039 34.8133ZM21.2782 34.8468L21.298 34.8213L20.9818 34.5763L20.962 34.6018L21.2782 34.8468ZM20.9693 34.5944C20.9581 34.6088 20.9565 34.6105 20.9602 34.6064C20.961 34.6055 20.9627 34.6035 20.965 34.6012C20.9661 34.6 20.9724 34.5934 20.9815 34.5859C20.9844 34.5834 20.9981 34.572 21.0183 34.5618C21.0273 34.5572 21.0522 34.5451 21.0869 34.5413C21.1251 34.5371 21.198 34.542 21.2555 34.6042C21.3055 34.6581 21.3088 34.7189 21.3088 34.7398C21.3088 34.7649 21.3041 34.7841 21.3019 34.7922C21.2971 34.8097 21.2911 34.8224 21.2894 34.826C21.2849 34.8353 21.2807 34.8422 21.2798 34.8437C21.2782 34.8463 21.2769 34.8483 21.2763 34.8492C21.275 34.8512 21.2741 34.8525 21.274 34.8526C21.2739 34.8528 21.2755 34.8505 21.2806 34.8437L20.9597 34.6049C20.9547 34.6116 20.95 34.618 20.9465 34.623C20.9456 34.6243 20.944 34.6266 20.9422 34.6293C20.9413 34.6306 20.9399 34.6329 20.9381 34.6357C20.9371 34.6374 20.9328 34.6445 20.9282 34.654C20.9265 34.6576 20.9204 34.6704 20.9157 34.6879C20.9135 34.696 20.9088 34.7153 20.9088 34.7403C20.9088 34.7613 20.9121 34.822 20.962 34.876C21.0196 34.9382 21.0925 34.9431 21.1307 34.9389C21.1654 34.9351 21.1903 34.923 21.1993 34.9184C21.2195 34.9082 21.2333 34.8967 21.2363 34.8942C21.2454 34.8867 21.2519 34.8799 21.2532 34.8785C21.2557 34.876 21.2576 34.8738 21.2587 34.8726C21.2664 34.864 21.2783 34.8486 21.2852 34.8398L20.9693 34.5944ZM21.2779 34.851C21.2827 34.844 21.2873 34.8372 21.292 34.8305L20.9625 34.6037C20.9575 34.6109 20.9526 34.6181 20.9478 34.625L21.2779 34.851ZM21.2368 34.9102C21.2511 34.8902 21.2651 34.8697 21.2779 34.851L20.9478 34.625C20.9347 34.6443 20.9228 34.6616 20.9111 34.678L21.2368 34.9102ZM20.9216 35.4061C21.0191 35.2362 21.1255 35.0712 21.2385 34.9078L20.9095 34.6803C20.7917 34.8506 20.679 35.0252 20.5746 35.207L20.9216 35.4061ZM20.4349 36.3924C20.5762 36.0533 20.7375 35.7232 20.9211 35.407L20.5752 35.2062C20.382 35.5389 20.213 35.8848 20.0657 36.2386L20.4349 36.3924ZM19.9877 38.1246C20.0745 37.529 20.225 36.9472 20.4374 36.3863L20.0633 36.2447C19.8406 36.8328 19.6829 37.4428 19.5919 38.0669L19.9877 38.1246ZM19.9806 38.1895C19.9832 38.1658 19.9858 38.1422 19.9885 38.1187L19.5912 38.0727C19.5883 38.0975 19.5855 38.1222 19.5829 38.1469L19.9806 38.1895ZM20.1468 37.9713C20.0258 37.9702 19.9044 37.969 19.7831 37.9682L19.7805 38.3682C19.9011 38.369 20.0218 38.3702 20.1429 38.3713L20.1468 37.9713ZM20.7712 37.9754C20.5638 37.9754 20.3558 37.9734 20.1468 37.9713L20.1429 38.3713C20.3517 38.3733 20.5615 38.3754 20.7712 38.3754V37.9754ZM24.6296 37.9754H20.7712V38.3754H24.6296V37.9754ZM29.0906 37.9754H24.6296V38.3754H29.0906V37.9754ZM32.7904 37.9754H29.0906V38.3754H32.7904V37.9754ZM33.4142 37.9754H32.7904V38.3754H33.4142V37.9754ZM19.7796 37.9682L19.7796 37.9682V38.3682L19.7796 38.3682V37.9682ZM19.9777 38.1954C19.9781 38.1929 19.9784 38.1904 19.9787 38.188L19.5825 38.1334C19.5821 38.1359 19.5818 38.1385 19.5814 38.141L19.9777 38.1954ZM19.5822 38.1353C19.5819 38.1377 19.5816 38.14 19.5813 38.1427L19.978 38.1937C19.9783 38.1914 19.9787 38.1887 19.979 38.1861L19.5822 38.1353ZM20.1267 36.082L20.0959 36.1598L20.4678 36.3071L20.4986 36.2293L20.1267 36.082ZM20.4682 36.3062C20.4781 36.2809 20.4881 36.2555 20.4982 36.2303L20.1271 36.0811C20.1165 36.1076 20.1059 36.1341 20.0956 36.1607L20.4682 36.3062ZM21.0189 34.5287C21.0052 34.5476 20.9843 34.575 20.9693 34.5944L21.2852 34.8398C21.3015 34.8187 21.3256 34.7872 21.3431 34.7629L21.0189 34.5287ZM21.298 34.8213L21.3391 34.7683L21.0229 34.5233L20.9818 34.5763L21.298 34.8213ZM21.292 34.8305C21.296 34.8246 21.3 34.8189 21.3039 34.8133L20.9759 34.5843C20.9714 34.5908 20.9669 34.5973 20.9625 34.6037L21.292 34.8305ZM23.8918 32.66C23.9159 32.6493 23.9401 32.6387 23.9643 32.6283L23.8057 32.261C23.7802 32.2721 23.7547 32.2832 23.7293 32.2945L23.8918 32.66ZM23.8048 32.2615L23.7303 32.2941L23.8908 32.6605L23.9653 32.6278L23.8048 32.2615ZM25.758 31.7096C25.7351 31.7131 25.7123 31.7165 25.689 31.7197L25.745 32.1158C25.7693 32.1124 25.7941 32.1088 25.8195 32.1048L25.758 31.7096ZM25.7472 32.1155C25.7704 32.1119 25.7937 32.1085 25.817 32.1052L25.7605 31.7092C25.7359 31.7127 25.7114 31.7163 25.6869 31.7201L25.7472 32.1155ZM27.3783 32.1052C27.4015 32.1085 27.4247 32.1119 27.4479 32.1155L27.5082 31.72C27.4838 31.7163 27.4593 31.7127 27.4347 31.7092L27.3783 32.1052ZM27.5061 31.7197C27.4829 31.7164 27.4601 31.7131 27.4373 31.7096L27.3757 32.1048C27.4011 32.1088 27.4259 32.1124 27.4501 32.1158L27.5061 31.7197ZM29.465 32.2941L29.3911 32.2617L29.2306 32.6281L29.3045 32.6605L29.465 32.2941ZM29.2315 32.6285C29.2556 32.6389 29.2796 32.6494 29.3035 32.66L29.466 32.2945C29.4407 32.2833 29.4155 32.2722 29.3901 32.2613L29.2315 32.6285ZM30.9454 33.2341C30.9275 33.2199 30.9014 33.198 30.883 33.1821L30.6224 33.4856C30.6424 33.5028 30.6725 33.5281 30.6957 33.5466L30.9454 33.2341ZM30.64 33.4991L30.6904 33.5423L30.9507 33.2385L30.9002 33.1953L30.64 33.4991ZM30.6315 33.493C30.6372 33.4973 30.6426 33.5014 30.6479 33.5055L30.8924 33.1889C30.8861 33.1841 30.8799 33.1794 30.8739 33.1747L30.6315 33.493ZM32.697 36.2303C32.7073 36.2558 32.7174 36.2813 32.7274 36.3069L33.1 36.1614C33.0895 36.1346 33.0789 36.1078 33.0682 36.0811L32.697 36.2303ZM33.0997 36.1605L33.0685 36.082L32.6967 36.2293L32.7278 36.3078L33.0997 36.1605Z" fill="white" mask="url(#path-2-inside-1_12557_243405)"/>
<line x1="33.7" y1="27.3" x2="45.3" y2="27.3" stroke="#4BC7B6" stroke-width="1.4" stroke-linecap="round"/>
<line x1="33.7" y1="22.3" x2="43.3" y2="22.3" stroke="#4BC7B6" stroke-width="1.4" stroke-linecap="round"/>
<line x1="35.7" y1="32.3" x2="44.3" y2="32.3" stroke="#4BC7B6" stroke-width="1.4" stroke-linecap="round"/>
</svg>
