<svg width="23" height="24" viewBox="0 0 23 24" fill="none" xmlns="http://www.w3.org/2000/svg">
<path d="M10.0425 6.24559L12.1944 4.15536C12.6654 3.69787 13.2219 3.33763 13.8322 3.09521C14.4424 2.85279 15.0944 2.73293 15.7509 2.74249C16.4075 2.75204 17.0557 2.89082 17.6586 3.15089C18.2615 3.41096 18.8073 3.78724 19.2648 4.25824C19.7223 4.72924 20.0825 5.28574 20.3249 5.89595C20.5673 6.50617 20.6872 7.15817 20.6776 7.81471C20.6681 8.47125 20.5293 9.11948 20.2692 9.72238C20.0092 10.3253 19.6329 10.8711 19.1619 11.3286L17.0099 13.4188M12.706 17.5993L10.554 19.6895C10.083 20.147 9.52654 20.5072 8.91632 20.7496C8.3061 20.9921 7.65411 21.1119 6.99757 21.1024C5.67163 21.0831 4.40766 20.5378 3.48372 19.5866C2.55978 18.6354 2.05155 17.3561 2.07085 16.0301C2.09014 14.7042 2.63538 13.4402 3.5866 12.5163L5.73856 10.4261" stroke="#4BC7B6" stroke-width="2" stroke-linecap="round" stroke-linejoin="round"/>
<path d="M8.50488 14.709L14.2434 9.13504" stroke="#4BC7B6" stroke-width="2" stroke-linecap="round" stroke-linejoin="round"/>
</svg>
