<svg width="293" height="216" viewBox="0 0 293 216" fill="none" xmlns="http://www.w3.org/2000/svg">
<path d="M188.089 197.891L86.4454 198.006C86.3272 198.006 86.214 197.959 86.1304 197.875C86.0469 197.792 86 197.678 86 197.56C86 197.442 86.0469 197.329 86.1304 197.245C86.214 197.162 86.3272 197.115 86.4454 197.115L188.089 197C188.207 197 188.32 197.047 188.404 197.13C188.487 197.214 188.534 197.327 188.534 197.445C188.534 197.563 188.487 197.677 188.404 197.76C188.32 197.844 188.207 197.891 188.089 197.891Z" fill="#CACACA"/>
<path d="M3.15637 103.553C7.78298 121.428 17.5822 136.876 33.0309 144.364C65.1801 159.927 137.685 151.901 191.798 142.687C219.789 137.922 244.393 124.772 262.265 106.265L3.15637 103.553Z" fill="#D1F0EC"/>
<path d="M286.922 19.4325H257.231C255.822 19.4325 254.666 18.389 254.666 17.1139C254.666 15.8388 255.822 14.7926 257.231 14.7926H262.364C260.952 14.7926 259.799 13.7491 259.799 12.4713C259.799 11.1935 260.952 10.1527 262.364 10.1527H258.701C257.29 10.1527 256.134 9.10918 256.134 7.8314C256.134 6.55363 257.29 5.51277 258.701 5.51277H274.198C270.759 4.06729 266.74 3.03974 262.108 2.49935C219.851 -2.39613 204.764 0.846228 199.442 4.18176C192.809 8.3904 185.44 11.3111 177.724 12.7908C151.653 17.6543 102.896 23.5055 58.7049 10.9273C36.7412 4.66358 20.4162 15.2345 10.6329 32.9051H292.078C291.711 27.77 290.611 23.0263 288.592 18.8762C288.113 19.2425 287.525 19.4383 286.922 19.4325Z" fill="#D1F0EC"/>
<path d="M0.639304 66.2578C-0.500895 76.6491 -0.113234 87.1512 1.78996 97.4302L262.468 106.053C269.644 98.6146 275.74 90.2077 280.58 81.0773L0.639304 66.2578ZM103.741 88.4991H98.6078C100.02 88.4991 101.176 89.5453 101.176 90.8204C101.176 92.0955 100.02 93.139 98.6078 93.139H68.9171C67.5081 93.139 66.3521 92.0955 66.3521 90.8204C66.3521 89.5453 67.5081 88.4991 68.9171 88.4991H74.0498C72.6381 88.4991 71.4848 87.4556 71.4848 86.1805C71.4848 84.9053 72.6408 83.8538 74.0498 83.8538H70.3847C68.973 83.8538 67.817 82.8103 67.817 81.5352C67.817 80.2601 68.973 79.2139 70.3847 79.2139H100.075C101.487 79.2139 102.64 80.2574 102.64 81.5352C102.64 82.813 101.484 83.8538 100.075 83.8538H103.741C105.152 83.8538 106.306 84.8974 106.306 86.1751C106.306 87.4529 105.152 88.4991 103.741 88.4991Z" fill="#D1F0EC"/>
<path d="M292.089 33.0654L7.49257 39.3212C4.02994 47.3685 1.73395 56.4674 0.676514 65.8963H287.103C288.967 60.3799 290.35 54.7125 291.237 48.9578C292.092 43.4181 292.433 38.0674 292.089 33.0654ZM58.4599 53.5764H53.3272C54.7389 53.5764 55.8948 54.6226 55.8948 55.8977C55.8948 57.1728 54.7389 58.219 53.3272 58.219H23.6364C22.2274 58.219 21.0714 57.1728 21.0714 55.8977C21.0714 54.6226 22.2274 53.5764 23.6364 53.5764H28.7691C27.3574 53.5764 26.2041 52.5329 26.2041 51.2578C26.2041 49.9826 27.3574 48.9365 28.7691 48.9365H25.1041C23.6924 48.9365 22.5364 47.893 22.5364 46.6178C22.5364 45.3427 23.6924 44.2965 25.1041 44.2965H54.7948C56.2065 44.2965 57.3598 45.3401 57.3598 46.6178C57.3598 47.8956 56.2065 48.9365 54.7948 48.9365H58.4599C59.8715 48.9365 61.0249 49.9826 61.0249 51.2578C61.0249 52.5329 59.8715 53.5764 58.4599 53.5764Z" fill="#D1F0EC"/>
<path opacity="0.1" d="M227.657 201.782C226.882 201.811 222.477 201.782 222.477 201.782C222.412 201.715 222.352 201.644 222.296 201.569C223.422 201.172 225.857 200.597 227.657 201.782Z" fill="black"/>
<path opacity="0.1" d="M240.256 201.782C239.481 201.811 235.076 201.782 235.076 201.782C235.011 201.715 234.95 201.644 234.894 201.569C236.018 201.172 238.453 200.597 240.256 201.782Z" fill="black"/>
<path d="M280.457 49.99C280.457 49.99 258.03 48.6403 260.675 64.3463C260.675 64.3463 260.142 67.1202 262.667 68.382C262.667 68.382 262.707 67.2187 264.966 67.6126C265.771 67.7487 266.589 67.7881 267.403 67.7298C268.503 67.655 269.549 67.2232 270.381 66.4999C270.381 66.4999 276.686 63.8991 279.139 53.5997C279.139 53.5997 280.953 51.3529 280.881 50.7779L277.096 52.3911C277.096 52.3911 278.388 55.1197 277.362 57.3878C277.362 57.3878 277.24 52.4923 276.513 52.5961C276.366 52.6201 274.547 53.5411 274.547 53.5411C274.547 53.5411 276.771 58.2955 275.08 61.7482C275.08 61.7482 275.716 55.8917 273.838 53.8845L271.175 55.4392C271.175 55.4392 273.774 60.3479 272.011 64.3543C272.011 64.3543 272.464 58.2103 270.615 55.8172L268.2 57.6992C268.2 57.6992 270.642 62.5388 269.153 65.861C269.153 65.861 268.959 58.7081 267.677 58.1677C267.677 58.1677 265.565 60.0312 265.243 60.7952C265.243 60.7952 266.916 64.3064 265.88 66.1592C265.88 66.1592 265.243 61.3941 264.721 61.3675C264.721 61.3675 262.617 64.5247 262.396 66.6916C262.396 66.6916 262.489 63.4705 264.21 61.0667C264.21 61.0667 262.175 61.4154 260.989 62.7358C260.989 62.7358 261.317 60.5023 264.718 60.308C264.718 60.308 266.458 57.9122 266.924 57.7684C266.924 57.7684 263.528 57.4836 261.469 58.3967C261.469 58.3967 263.28 56.291 267.544 57.2467L269.941 55.3034C269.941 55.3034 265.472 54.6911 263.576 55.3673C263.576 55.3673 265.757 53.5039 270.583 54.8615L273.18 53.3095C273.18 53.3095 269.369 52.4896 267.097 52.7771C267.097 52.7771 269.494 51.486 273.939 52.8863L275.804 52.053C275.804 52.053 273.01 51.5047 272.192 51.4195C271.374 51.3343 271.332 51.1054 271.332 51.1054C273.106 50.8176 274.926 51.0287 276.587 51.715C276.587 51.715 280.524 50.2375 280.457 49.99Z" fill="#4BC7B6"/>
<path d="M257.455 43.0074C257.455 43.0074 247.333 42.3951 248.516 49.4921C248.516 49.4921 248.279 50.7459 249.416 51.3156C249.416 51.3156 249.432 50.7832 250.455 50.9695C250.818 51.0312 251.187 51.049 251.555 51.0228C252.053 50.9879 252.525 50.7926 252.903 50.4664C252.903 50.4664 255.75 49.2898 256.858 44.6366C256.858 44.6366 257.678 43.6223 257.657 43.3614L255.947 44.0908C255.947 44.0908 256.533 45.3234 256.072 46.3482C256.072 46.3482 256.016 44.1361 255.689 44.1893C255.622 44.1893 254.799 44.6153 254.799 44.6153C254.799 44.6153 255.806 46.7635 255.047 48.3235C255.047 48.3235 255.335 45.6774 254.488 44.7697L253.284 45.4724C253.284 45.4724 254.458 47.6926 253.662 49.5028C253.662 49.5028 253.864 46.7263 253.031 45.6455L251.938 46.4947C251.938 46.4947 253.041 48.6802 252.37 50.1816C252.37 50.1816 252.282 46.9499 251.701 46.705C251.701 46.705 250.748 47.5462 250.601 47.8922C250.601 47.8922 251.358 49.4894 250.889 50.3173C250.889 50.3173 250.601 48.1638 250.356 48.1558C250.356 48.1558 249.405 49.58 249.307 50.5516C249.353 49.6474 249.635 48.7711 250.125 48.0094C249.577 48.1134 249.071 48.3753 248.67 48.7627C248.67 48.7627 248.817 47.7538 250.359 47.666C250.359 47.666 251.158 46.5852 251.355 46.5186C251.355 46.5186 249.821 46.3908 248.891 46.8035C248.891 46.8035 249.709 45.8505 251.637 46.2711L252.703 45.3952C252.703 45.3952 250.684 45.129 249.826 45.4219C249.826 45.4219 250.812 44.5807 252.993 45.1956L254.165 44.4928C254.165 44.4928 252.445 44.1228 251.416 44.2559C251.416 44.2559 252.5 43.6729 254.509 44.3065L255.348 43.9285C255.348 43.9285 254.085 43.6809 253.718 43.6436C253.35 43.6064 253.326 43.5025 253.326 43.5025C254.126 43.3713 254.946 43.4634 255.697 43.7687C255.697 43.7687 257.484 43.1245 257.455 43.0074Z" fill="#D1F0EC"/>
<path opacity="0.1" d="M285.827 194.331C289.789 194.331 293 193.788 293 193.119C293 192.451 289.789 191.908 285.827 191.908C281.865 191.908 278.654 192.451 278.654 193.119C278.654 193.788 281.865 194.331 285.827 194.331Z" fill="#DDE3E2"/>
<path d="M12.4602 214.48C16.4217 214.48 19.6332 213.938 19.6332 213.269C19.6332 212.6 16.4217 212.058 12.4602 212.058C8.49868 212.058 5.28723 212.6 5.28723 213.269C5.28723 213.938 8.49868 214.48 12.4602 214.48Z" fill="#E6E6E6"/>
<path d="M54.0996 216C58.0611 216 61.2726 215.457 61.2726 214.788C61.2726 214.119 58.0611 213.577 54.0996 213.577C50.1381 213.577 46.9266 214.119 46.9266 214.788C46.9266 215.457 50.1381 216 54.0996 216Z" fill="#E6E6E6"/>
<path d="M270.128 207.91C276.043 207.91 280.838 207.1 280.838 206.1C280.838 205.1 276.043 204.29 270.128 204.29C264.213 204.29 259.418 205.1 259.418 206.1C259.418 207.1 264.213 207.91 270.128 207.91Z" fill="#E6E6E6"/>
<path d="M274.555 203.143C275.043 202.744 275.4 202.206 275.578 201.601C275.708 200.992 275.447 200.257 274.864 200.033C274.208 199.783 273.508 200.238 272.978 200.696C272.448 201.154 271.838 201.676 271.143 201.58C271.5 201.257 271.768 200.846 271.919 200.388C272.07 199.93 272.1 199.441 272.006 198.969C271.977 198.772 271.894 198.588 271.766 198.436C271.401 198.048 270.743 198.213 270.306 198.519C268.921 199.493 268.535 201.372 268.527 203.066C268.389 202.456 268.506 201.82 268.503 201.202C268.5 200.585 268.327 199.871 267.8 199.544C267.473 199.369 267.105 199.283 266.735 199.293C266.111 199.269 265.419 199.331 264.993 199.786C264.46 200.353 264.601 201.301 265.062 201.916C265.523 202.53 266.22 202.93 266.862 203.358C267.379 203.665 267.82 204.085 268.152 204.586C268.192 204.655 268.224 204.73 268.247 204.806H272.15C273.023 204.363 273.832 203.803 274.555 203.143Z" fill="#EE8C34"/>
<path d="M15.8082 180.821C15.8082 180.821 17.2705 182.733 15.1317 185.613C12.9929 188.493 11.2296 190.937 11.9354 192.737C11.9354 192.737 15.161 187.375 17.7953 187.298C20.4295 187.221 18.6955 184.045 15.8082 180.821Z" fill="#4BC7B6"/>
<path opacity="0.1" d="M15.8083 180.821C15.9355 181.006 16.0359 181.208 16.1066 181.42C18.6689 184.428 20.0327 187.237 17.5715 187.306C15.2756 187.373 12.5108 191.472 11.8635 192.508C11.8862 192.588 11.9128 192.667 11.9434 192.745C11.9434 192.745 15.169 187.383 17.8033 187.306C20.4375 187.229 18.6956 184.045 15.8083 180.821Z" fill="black"/>
<path d="M18.5277 183.257C18.5277 183.931 18.4505 184.477 18.3573 184.477C18.264 184.477 18.1895 183.944 18.1895 183.257C18.1895 182.57 18.2827 182.901 18.3786 182.901C18.4745 182.901 18.5277 182.584 18.5277 183.257Z" fill="#EE8C34"/>
<path d="M19.4467 184.061C18.8554 184.383 18.3413 184.577 18.296 184.495C18.2507 184.412 18.6956 184.087 19.2869 183.765C19.8782 183.443 19.6438 183.677 19.6891 183.765C19.7343 183.853 20.0513 183.739 19.4467 184.061Z" fill="#EE8C34"/>
<path d="M8.07858 180.821C8.07858 180.821 6.61629 182.733 8.75247 185.613C10.8886 188.493 12.6546 190.937 11.9487 192.737C11.9487 192.737 8.7205 187.375 6.0889 187.298C3.4573 187.221 5.18862 184.045 8.07858 180.821Z" fill="#4BC7B6"/>
<path opacity="0.1" d="M8.04981 180.823C7.92248 181.008 7.82295 181.21 7.75438 181.423C5.20656 184.444 3.85369 187.259 6.31779 187.316C8.61141 187.372 11.3986 191.458 12.0481 192.49C12.0268 192.571 12.0014 192.65 11.972 192.728C11.972 192.728 8.71801 187.382 6.08606 187.317C3.45412 187.253 5.17541 184.061 8.04981 180.823Z" fill="#4BC7B6"/>
<path d="M5.35913 183.257C5.35913 183.931 5.43371 184.477 5.52694 184.477C5.62016 184.477 5.69474 183.944 5.69474 183.257C5.69474 182.57 5.60152 182.901 5.50829 182.901C5.41507 182.901 5.35913 182.584 5.35913 183.257Z" fill="#EE8C34"/>
<path d="M4.42419 184.061C5.0155 184.383 5.53223 184.577 5.57751 184.495C5.62279 184.412 5.17798 184.087 4.58667 183.765C3.99535 183.443 4.22708 183.677 4.18447 183.765C4.14185 183.853 3.83288 183.739 4.42419 184.061Z" fill="#EE8C34"/>
<path d="M5.8252 192.495C5.8252 192.495 9.91643 192.37 11.1523 191.491C12.3882 190.613 17.4463 189.566 17.7526 190.959C18.0589 192.351 23.9001 197.96 19.2815 197.997C14.6629 198.034 8.55002 197.276 7.31945 196.528C6.08889 195.78 5.8252 192.495 5.8252 192.495Z" fill="#E6E6E6"/>
<path opacity="0.2" d="M19.3588 197.522C14.7401 197.56 8.62726 196.801 7.3967 196.053C6.45912 195.483 6.08622 193.436 5.96104 192.491H5.8252C5.8252 192.491 6.09155 195.789 7.31413 196.537C8.5367 197.286 14.6522 198.055 19.2762 198.004C20.608 198.004 21.0688 197.517 21.0448 196.817C20.8583 197.256 20.3523 197.522 19.3588 197.522Z" fill="black"/>
<path d="M193.519 41.3253C195.572 42.9598 197.278 44.9888 198.535 47.2926C199.791 49.5964 200.574 52.1285 200.835 54.7393C200.874 55.1283 201.058 55.4881 201.352 55.7461C201.646 56.0041 202.027 56.1409 202.418 56.1289L204.791 56.0597C204.995 56.0538 205.195 56.0079 205.381 55.9244C205.567 55.8409 205.735 55.7215 205.875 55.5732C206.015 55.4248 206.124 55.2503 206.196 55.0597C206.268 54.8691 206.302 54.6662 206.296 54.4625V54.3613C205.685 47.9246 202.62 41.9693 197.736 37.7299C192.851 33.4905 186.522 31.2921 180.06 31.5903C179.649 31.6096 179.262 31.7912 178.985 32.0952C178.708 32.3991 178.563 32.8006 178.581 33.2115V33.31L178.848 35.6685C178.891 36.0569 179.079 36.4146 179.376 36.6691C179.673 36.9236 180.055 37.056 180.446 37.0395C185.178 36.8474 189.82 38.3693 193.519 41.3253Z" fill="#EE8C34"/>
<path d="M191.625 43.6978C187.989 40.7898 183.438 39.2663 178.784 39.3986C178.58 39.4048 178.38 39.451 178.195 39.5347C178.009 39.6184 177.842 39.7379 177.703 39.8863C177.564 40.0348 177.456 40.2092 177.384 40.3996C177.313 40.5899 177.28 40.7926 177.287 40.9958C177.284 41.0383 177.284 41.081 177.287 41.1236L177.484 42.8805C177.526 43.263 177.71 43.6159 177.999 43.87C178.289 44.1241 178.662 44.2611 179.047 44.2541C182.718 44.1887 186.283 45.4832 189.056 47.8881C191.828 50.293 193.613 53.6382 194.065 57.2794C194.111 57.6624 194.298 58.0143 194.59 58.2663C194.883 58.5184 195.258 58.6525 195.644 58.6424L197.413 58.5918C197.822 58.5814 198.21 58.409 198.493 58.1125C198.775 57.816 198.928 57.4197 198.918 57.0106V56.8855C198.629 54.316 197.837 51.8285 196.586 49.5656C195.334 47.3026 193.648 45.3086 191.625 43.6978Z" fill="#EE8C34"/>
<path d="M184.239 52.9477C186.375 54.6486 187.794 57.0893 188.215 59.7864C188.271 60.1626 188.462 60.5054 188.753 60.7505C189.044 60.9956 189.415 61.1261 189.795 61.1175L190.65 61.0935C191.061 61.0803 191.45 60.9047 191.731 60.6053C192.013 60.3059 192.164 59.907 192.152 59.4963C192.152 59.435 192.152 59.3712 192.136 59.3099C191.617 55.7867 189.85 52.5666 187.156 50.2357C184.462 47.9048 181.02 46.618 177.457 46.6094C177.049 46.6143 176.659 46.781 176.373 47.073C176.087 47.365 175.929 47.7583 175.934 48.1667C175.934 48.2199 175.934 48.2758 175.934 48.329L176.03 49.1809C176.075 49.5595 176.257 49.9084 176.542 50.1616C176.827 50.4148 177.196 50.5546 177.577 50.5545C180.003 50.5872 182.347 51.4296 184.239 52.9477Z" fill="#EE8C34"/>
<path d="M78.7643 41.325C76.7099 42.9592 75.0038 44.9881 73.7467 47.292C72.4896 49.5958 71.7069 52.128 71.4448 54.739C71.4065 55.1275 71.2222 55.487 70.929 55.7449C70.6359 56.0028 70.2557 56.1399 69.8653 56.1286L67.4894 56.0594C67.2857 56.0535 67.0852 56.0075 66.8993 55.924C66.7134 55.8405 66.5459 55.7211 66.4063 55.5727C66.2667 55.4243 66.1578 55.2498 66.0859 55.0592C66.014 54.8686 65.9804 54.6657 65.9872 54.4622C65.9872 54.4276 65.9872 54.393 65.9872 54.361C66.5961 47.9223 69.6614 41.965 74.5472 37.7243C79.433 33.4836 85.7645 31.2851 92.2286 31.5847C92.4322 31.5939 92.6321 31.6432 92.8166 31.7297C93.0012 31.8162 93.1669 31.9382 93.3042 32.0888C93.4415 32.2394 93.5478 32.4156 93.6169 32.6072C93.686 32.7989 93.7165 33.0023 93.7069 33.2058C93.7094 33.2386 93.7094 33.2715 93.7069 33.3043L93.4405 35.6576C93.3983 36.0462 93.2096 36.4043 92.9127 36.6589C92.6159 36.9135 92.2332 37.0457 91.8424 37.0285C87.1074 36.8388 82.4632 38.3646 78.7643 41.325Z" fill="#EE8C34"/>
<path d="M80.658 43.6976C84.2926 40.7912 88.8409 39.2678 93.4938 39.3984C93.697 39.4049 93.897 39.4514 94.0823 39.5352C94.2675 39.6191 94.4344 39.7386 94.5735 39.8869C94.7125 40.0352 94.8209 40.2095 94.8925 40.3997C94.9641 40.59 94.9974 40.7925 94.9907 40.9956C94.9907 41.0382 94.9907 41.0808 94.9907 41.1234L94.7936 42.8803C94.7512 43.2624 94.5677 43.6149 94.2791 43.8689C93.9904 44.123 93.6173 44.2602 93.2327 44.2539C89.5618 44.1885 85.9964 45.4828 83.2233 47.8877C80.4502 50.2925 78.6655 53.6378 78.2129 57.2792C78.1666 57.6622 77.9791 58.014 77.687 58.2661C77.3948 58.5182 77.0192 58.6523 76.6334 58.6422L74.8648 58.5916C74.6621 58.5868 74.4624 58.542 74.2771 58.4599C74.0918 58.3777 73.9246 58.2598 73.785 58.1129C73.6454 57.9659 73.5363 57.7929 73.4638 57.6037C73.3913 57.4145 73.3569 57.2129 73.3625 57.0104C73.3598 56.9687 73.3598 56.9269 73.3625 56.8853C73.6503 54.3154 74.4429 51.8276 75.6948 49.5645C76.9467 47.3015 78.6334 45.3077 80.658 43.6976Z" fill="#EE8C34"/>
<path d="M88.0441 52.9482C85.9078 54.6491 84.4886 57.0898 84.0674 59.787C84.0122 60.1633 83.8211 60.5065 83.5301 60.7517C83.2392 60.9969 82.8684 61.1272 82.4879 61.118L81.6329 61.094C81.222 61.0808 80.833 60.9052 80.5514 60.6058C80.2698 60.3064 80.1185 59.9076 80.1307 59.4968C80.1307 59.4356 80.1307 59.3717 80.1467 59.3105C80.6671 55.7884 82.435 52.5699 85.1287 50.2402C87.8225 47.9105 91.2633 46.6242 94.8256 46.6152C95.2341 46.6201 95.6241 46.7869 95.9097 47.0789C96.1954 47.3709 96.3534 47.7642 96.3491 48.1725C96.3491 48.2258 96.3491 48.2817 96.3491 48.3349L96.2533 49.1868C96.2083 49.5649 96.0263 49.9135 95.7416 50.1666C95.457 50.4197 95.0894 50.5598 94.7084 50.5604C92.2827 50.5912 89.9369 51.4317 88.0441 52.9482Z" fill="#EE8C34"/>
<path d="M131.026 197.547V27.3339C131.026 26.1669 131.49 25.0476 132.316 24.2224C133.141 23.3972 134.261 22.9336 135.429 22.9336H138.039C138.618 22.9332 139.19 23.0468 139.725 23.2678C140.259 23.4888 140.745 23.8128 141.154 24.2215C141.563 24.6301 141.888 25.1153 142.109 25.6494C142.331 26.1834 142.445 26.7558 142.445 27.3339V197.547C142.439 199.964 131.026 199.964 131.026 197.547Z" fill="#2F2E41"/>
<path d="M168.758 57.2764H104.311C98.6308 57.2764 94.0265 61.878 94.0265 67.5545V117.561C94.0265 123.237 98.6308 127.839 104.311 127.839H168.758C174.438 127.839 179.042 123.237 179.042 117.561V67.5545C179.042 61.878 174.438 57.2764 168.758 57.2764Z" fill="url(#paint0_linear_9972_316446)"/>
<path d="M167.845 58.3145H105.349C99.6696 58.3145 95.0653 62.9161 95.0653 68.5926V116.525C95.0653 122.202 99.6696 126.803 105.349 126.803H167.845C173.524 126.803 178.129 122.202 178.129 116.525V68.5926C178.129 62.9161 173.524 58.3145 167.845 58.3145Z" fill="white"/>
<path d="M136.598 117.606C150.439 117.606 161.66 106.392 161.66 92.5588C161.66 78.7257 150.439 67.5117 136.598 67.5117C122.757 67.5117 111.537 78.7257 111.537 92.5588C111.537 106.392 122.757 117.606 136.598 117.606Z" fill="#4BC7B6"/>
<path d="M149.748 105.15C149.748 109.106 143.529 105.488 136.859 105.488C130.19 105.488 123.448 108.949 123.448 105.001C123.448 102.746 125.598 99.6106 128.679 97.3346C131.005 95.6176 133.857 94.3877 136.723 94.3877C139.669 94.3877 142.557 95.7187 144.861 97.5475C147.767 99.8449 149.748 102.938 149.748 105.15Z" fill="#444053"/>
<path d="M144.861 97.54C141.315 97.0076 134.904 96.3554 128.679 97.327C131.005 95.6127 133.857 94.3828 136.723 94.3828C139.669 94.3828 142.557 95.7138 144.861 97.54Z" fill="#F6F8FB"/>
<path opacity="0.05" d="M123.448 74.8779C123.448 74.8779 115.897 79.7015 115.958 87.2457C116.02 94.7899 123.448 74.8779 123.448 74.8779Z" fill="black"/>
<path d="M127.686 89.2744C128.163 89.2478 130.408 89.0801 131.833 88.2681C132.062 88.132 132.321 88.0552 132.587 88.0445C133.04 88.0312 133.562 88.2202 133.229 89.2797C132.696 91.0127 129.545 92.9613 127.595 92.8522C125.731 92.7483 123.496 91.9923 122.029 89.3383C121.888 89.0827 121.818 88.7941 121.826 88.5024C121.845 87.97 122.039 87.2965 123.046 88.0445C124.407 89.0561 126.985 89.2478 127.505 89.2744C127.565 89.2797 127.626 89.2797 127.686 89.2744Z" fill="#444053"/>
<path d="M145.721 89.2744C146.198 89.2478 148.443 89.0801 149.868 88.2681C150.097 88.132 150.356 88.0552 150.622 88.0445C151.075 88.0312 151.597 88.2202 151.264 89.2797C150.731 91.0127 147.58 92.9613 145.63 92.8522C143.766 92.7483 141.531 91.9923 140.063 89.3383C139.923 89.0827 139.853 88.7941 139.861 88.5024C139.88 87.97 140.074 87.2965 141.081 88.0445C142.442 89.0561 145.02 89.2478 145.537 89.2744C145.598 89.2797 145.66 89.2797 145.721 89.2744Z" fill="#444053"/>
<defs>
<linearGradient id="paint0_linear_9972_316446" x1="136.534" y1="127.842" x2="136.534" y2="57.279" gradientUnits="userSpaceOnUse">
<stop stop-color="#808080" stop-opacity="0.25"/>
<stop offset="0.54" stop-color="#808080" stop-opacity="0.12"/>
<stop offset="1" stop-color="#808080" stop-opacity="0.1"/>
</linearGradient>
</defs>
</svg>
