<svg width="60" height="60" viewBox="0 0 60 60" fill="none" xmlns="http://www.w3.org/2000/svg">
<circle cx="30" cy="30" r="29.5" fill="white" stroke="#CFECE9"/>
<path d="M39.549 39.1053L39.5492 39.1055C39.7416 39.2965 39.85 39.556 39.85 39.827C39.85 40.0979 39.7418 40.3577 39.5494 40.5486L39.5487 40.5494C39.3577 40.7418 39.0979 40.85 38.827 40.85C38.5559 40.85 38.2962 40.7418 38.1053 40.5494L38.1051 40.5492L34.1514 36.5837L34.0574 36.4894L33.9526 36.5716C32.3489 37.8302 30.3689 38.5132 28.3304 38.5107H28.3303C25.8956 38.5107 23.5605 37.5434 21.8389 35.8218L21.741 35.9197L21.8389 35.8218C20.1171 34.1001 19.15 31.7651 19.15 29.3304C19.15 26.8956 20.1172 24.5606 21.8389 22.8389L21.8389 22.8389C23.5606 21.1172 25.8956 20.15 28.3303 20.15C30.765 20.15 33.0999 21.1172 34.8216 22.8389C36.5432 24.5606 37.5105 26.8956 37.5105 29.3304V29.3305C37.513 31.3691 36.83 33.3493 35.5714 34.9528L35.4892 35.0576L35.5835 35.1516L39.549 39.1053ZM23.2761 34.3844L23.3821 34.2783L23.2761 34.3844C24.6167 35.725 26.4347 36.478 28.3305 36.478C30.2261 36.478 32.0441 35.725 33.3846 34.3844C34.7251 33.0441 35.4781 31.226 35.4781 29.3303C35.4781 27.4343 34.7252 25.6162 33.3846 24.2758C32.0443 22.9354 30.2262 22.1822 28.3305 22.1822C26.4346 22.1822 24.6164 22.9352 23.2761 24.2758C21.9357 25.6164 21.1825 27.4345 21.1825 29.3303C21.1825 31.2259 21.9357 33.044 23.2761 34.3844Z" fill="#4BC7B6" stroke="white" stroke-width="0.3"/>
</svg>
