<svg width="15" height="20" viewBox="0 0 15 20" fill="none" xmlns="http://www.w3.org/2000/svg">
<path fill-rule="evenodd" clip-rule="evenodd" d="M2.53796 5.98094L2.88102 9.06848L2.1868 9.12388C1.2187 9.20118 0.428198 9.92898 0.271268 10.8874C-0.0904225 13.0963 -0.0904225 15.3493 0.271268 17.5582C0.428198 18.5166 1.2187 19.2443 2.1868 19.3216L3.68293 19.4411C6.04505 19.6296 8.41845 19.6296 10.7806 19.4411L12.2767 19.3216C13.2448 19.2443 14.0353 18.5166 14.1922 17.5582C14.5539 15.3493 14.5539 13.0963 14.1922 10.8874C14.0353 9.92898 13.2448 9.20118 12.2767 9.12388L11.5824 9.06848L11.9254 5.98093C11.9659 5.61696 11.9659 5.24962 11.9254 4.88564L11.9027 4.68075C11.6612 2.50736 9.95265 0.7877 7.78085 0.53219C7.41605 0.48927 7.04745 0.48927 6.68265 0.53219C4.51082 0.7877 2.80221 2.50735 2.56073 4.68074L2.53796 4.88564C2.49752 5.24962 2.49752 5.61696 2.53796 5.98094ZM7.60573 2.02191C7.35743 1.99269 7.10643 1.99269 6.85803 2.02191C5.37943 2.19587 4.21615 3.36668 4.05173 4.84639L4.02897 5.05129C4.00076 5.30516 4.00076 5.5614 4.02897 5.81529L4.37776 8.95448C6.27853 8.83257 8.18523 8.83257 10.086 8.95448L10.4348 5.81529C10.463 5.5614 10.463 5.30516 10.4348 5.05129L10.4121 4.84639C10.2476 3.36668 9.08443 2.19587 7.60573 2.02191ZM7.23193 12.7228C6.40353 12.7228 5.73193 13.3944 5.73193 14.2228C5.73193 15.0512 6.40353 15.7228 7.23193 15.7228C8.06033 15.7228 8.73193 15.0512 8.73193 14.2228C8.73193 13.3944 8.06033 12.7228 7.23193 12.7228Z" fill="#4BC7B6"/>
</svg>
