<svg width="375" height="459" viewBox="0 0 375 459" fill="none" xmlns="http://www.w3.org/2000/svg">
<path d="M374.819 421.67C374.819 421.67 259.22 449.773 185.15 449.773C111.079 449.773 -4.51935 421.67 -4.51935 421.67L-4.5193 -54.9999L374.819 -54.9998L374.819 421.67Z" fill="#4BC7B6"/>
<path d="M-125.76 458.381C-133.201 433.354 -138.638 406.084 -128.229 381.975C-114.582 350.378 -76.7254 332.69 -40.0607 328.642C-3.39605 324.594 33.5286 331.284 70.3557 333.857C107.183 336.429 146.631 334.206 176.981 314.843C219.072 287.982 232.893 235.636 270.88 203.999C302.551 177.626 350.361 168.922 390.557 182.233" stroke="white" stroke-opacity="0.3" stroke-width="2.52586" stroke-miterlimit="10"/>
<path d="M-97.8681 458.381C-104.909 434.71 -110.054 408.916 -100.197 386.103C-87.2966 356.191 -51.4551 339.481 -16.7942 335.652C17.8666 331.823 52.82 338.154 87.6541 340.587C122.488 343.02 159.803 340.916 188.517 322.64C228.345 297.235 241.407 247.71 277.336 217.788C307.296 192.862 352.528 184.616 390.547 197.199" stroke="white" stroke-opacity="0.3" stroke-width="2.52586" stroke-miterlimit="10"/>
<path d="M-69.9705 458.38C-76.6102 436.066 -81.4628 411.737 -72.1368 390.231C-59.9622 362.053 -26.2004 346.27 6.51082 342.651C39.222 339.031 72.1498 345.014 104.991 347.317C137.832 349.62 173.024 347.626 200.092 330.367C237.645 306.437 249.971 259.714 283.852 231.507C312.1 207.977 354.744 200.219 390.596 212.085" stroke="white" stroke-opacity="0.3" stroke-width="2.52586" stroke-miterlimit="10"/>
<path d="M-42.0749 458.381C-48.3139 437.442 -52.9065 414.559 -44.1438 394.359C-32.7057 367.887 -0.991034 353.06 29.738 349.66C60.467 346.26 91.4018 351.884 122.261 354.037C153.12 356.191 186.167 354.337 211.599 338.084C246.877 315.571 258.456 271.71 290.279 245.207C316.827 223.102 356.882 215.814 390.568 226.961" stroke="white" stroke-opacity="0.3" stroke-width="2.52586" stroke-miterlimit="10"/>
<path d="M-14.1924 458.379C-20.0306 438.767 -24.2873 417.39 -16.1204 398.485C-5.42967 373.718 24.2487 359.849 52.9955 356.668C81.7423 353.488 110.684 358.742 139.55 360.766C168.416 362.79 199.34 361.036 223.137 345.86C256.13 324.802 266.961 283.763 296.737 258.966C321.574 238.287 359.051 231.477 390.56 241.906" stroke="white" stroke-opacity="0.3" stroke-width="2.52586" stroke-miterlimit="10"/>
</svg>
