<svg width="12" height="12" viewBox="0 0 12 12" fill="none" xmlns="http://www.w3.org/2000/svg">
<path fill-rule="evenodd" clip-rule="evenodd" d="M6.92627 0C8.12051 0.185844 9.19895 0.724164 10.051 1.50195C9.55666 1.78074 9.04608 2.00404 8.528 2.1794C8.12326 1.40924 7.59067 0.672253 6.92627 0H6.92627Z" fill="#4BC7B6"/>
<path fill-rule="evenodd" clip-rule="evenodd" d="M5.0678 0.00525054C4.39761 0.685013 3.86052 1.4317 3.45557 2.21091C2.93806 2.03288 2.43288 1.79834 1.95361 1.50195C2.80434 0.726654 3.8783 0.191625 5.0678 0.00524902V0.00525054Z" fill="#4BC7B6"/>
<path fill-rule="evenodd" clip-rule="evenodd" d="M5.66616 0.362305V2.61523C5.14 2.59856 4.61701 2.52977 4.10645 2.40517C4.50073 1.68298 5.01851 0.993694 5.66616 0.362305Z" fill="#4BC7B6"/>
<path fill-rule="evenodd" clip-rule="evenodd" d="M6.33887 0.362305C6.97727 0.984482 7.49065 1.66318 7.88283 2.37366C7.37133 2.50261 6.85506 2.58205 6.33887 2.60998V0.362306V0.362305Z" fill="#4BC7B6"/>
<path fill-rule="evenodd" clip-rule="evenodd" d="M1.47044 1.99036C2.01107 2.33837 2.57921 2.61324 3.1667 2.8201C2.78312 3.7242 2.57039 4.66655 2.51551 5.60344H0C0.0759434 4.22218 0.616118 2.96759 1.47044 1.99036Z" fill="#4BC7B6"/>
<path fill-rule="evenodd" clip-rule="evenodd" d="M10.5346 1.99561C11.385 2.97203 11.9242 4.22484 11.9998 5.60344H9.48959C9.43359 4.65342 9.21145 3.69904 8.81738 2.78334C9.40483 2.58067 9.9804 2.32112 10.5346 1.99561Z" fill="#4BC7B6"/>
<path fill-rule="evenodd" clip-rule="evenodd" d="M8.18742 2.97766C8.56925 3.83207 8.78156 4.71915 8.83862 5.60345H6.33887V3.27175C6.95724 3.24094 7.57736 3.14026 8.18742 2.97766Z" fill="#4BC7B6"/>
<path fill-rule="evenodd" clip-rule="evenodd" d="M3.80195 3.0144C4.41155 3.17452 5.0369 3.26394 5.66625 3.28224V5.60344H3.1665C3.22239 4.73183 3.43071 3.85752 3.80195 3.0144Z" fill="#4BC7B6"/>
<path fill-rule="evenodd" clip-rule="evenodd" d="M0.00488281 6.27563H2.50464C2.52777 7.24012 2.71802 8.19045 3.07706 9.07998C2.52013 9.28414 1.97902 9.54755 1.46482 9.87822C0.616677 8.90268 0.0803313 7.65225 0.00488281 6.27563L0.00488281 6.27563Z" fill="#4BC7B6"/>
<path fill-rule="evenodd" clip-rule="evenodd" d="M3.15576 6.27563H5.66601V8.58108C5.00368 8.60093 4.34705 8.69799 3.70718 8.87517C3.36381 8.05132 3.17946 7.17257 3.15576 6.27563Z" fill="#4BC7B6"/>
<path fill-rule="evenodd" clip-rule="evenodd" d="M6.33887 6.27563H8.84912C8.82538 7.18604 8.63533 8.07748 8.28195 8.91193C7.64019 8.73262 6.99021 8.61861 6.33887 8.58633V6.27563V6.27563Z" fill="#4BC7B6"/>
<path fill-rule="evenodd" clip-rule="evenodd" d="M9.50029 6.27563H11.9948C11.9186 7.64668 11.3833 8.89419 10.5401 9.86772C10.0138 9.55836 9.46909 9.30553 8.91211 9.10624C9.27846 8.20868 9.47722 7.2502 9.50029 6.27563Z" fill="#4BC7B6"/>
<path fill-rule="evenodd" clip-rule="evenodd" d="M5.66658 9.24805V11.5745C4.96837 10.9715 4.4084 10.2663 3.99658 9.49488C4.54256 9.35133 5.10234 9.2665 5.66658 9.24805V9.24805Z" fill="#4BC7B6"/>
<path fill-rule="evenodd" clip-rule="evenodd" d="M6.33887 9.2533C6.89246 9.2831 7.44552 9.37455 7.99312 9.52113C7.58339 10.2804 7.02754 10.9744 6.33887 11.5692V9.2533V9.2533Z" fill="#4BC7B6"/>
<path fill-rule="evenodd" clip-rule="evenodd" d="M3.35567 9.69446C3.75668 10.4845 4.29565 11.2177 4.9679 11.8529C3.81484 11.6537 2.77515 11.1281 1.94824 10.3719C2.39849 10.0937 2.87115 9.86975 3.35567 9.69446V9.69446Z" fill="#4BC7B6"/>
<path fill-rule="evenodd" clip-rule="evenodd" d="M8.63872 9.7207C9.11988 9.89148 9.59623 10.1067 10.0566 10.3666C9.22846 11.1249 8.18651 11.6535 7.03174 11.8528C7.6989 11.2238 8.23832 10.5022 8.63872 9.7207Z" fill="#4BC7B6"/>
</svg>
