<svg width="62" height="62" viewBox="0 0 62 62" fill="none" xmlns="http://www.w3.org/2000/svg">
<circle cx="31" cy="31" r="30" fill="#232C36" stroke="#DBF2EF" stroke-opacity="0.3"/>
<path d="M38.1279 37.3668L36.8245 35.1942C36.2225 34.1914 35.9044 33.0429 35.9044 31.8738L35.9044 29.9707C35.9044 27.5681 34.3012 25.536 32.1088 24.8808L32.1088 23.5182C32.1088 22.6809 31.4279 22 30.5906 22C29.7533 22 29.0724 22.6809 29.0724 23.5182L29.0724 24.8808C26.8801 25.536 25.2768 27.5681 25.2768 29.9707L25.2768 31.8738C25.2768 33.0429 24.9587 34.1906 24.3575 35.1934L23.0541 37.366C22.9835 37.4837 22.982 37.6295 23.0496 37.7486C23.1171 37.8678 23.2424 37.9415 23.379 37.9415L37.8022 37.9415C37.9389 37.9415 38.0649 37.8678 38.1324 37.7494C38.2 37.631 38.1977 37.4837 38.1279 37.3668Z" stroke="#4BC7B6" stroke-width="1.2"/>
<path d="M28.0403 39.3799C28.4971 40.3341 29.4643 40.9999 30.5909 40.9999C31.7176 40.9999 32.6848 40.3341 33.1416 39.3799L28.0403 39.3799Z" fill="#4BC7B6"/>
</svg>
