<svg width="62" height="62" viewBox="0 0 62 62" fill="none" xmlns="http://www.w3.org/2000/svg">
<circle cx="31" cy="31" r="30" fill="#232C36" stroke="#DBF2EF" stroke-opacity="0.3"/>
<mask id="path-2-outside-1_13010_256949" maskUnits="userSpaceOnUse" x="18" y="21" width="20" height="21" fill="black">
<rect fill="white" x="18" y="21" width="20" height="21"/>
<path fill-rule="evenodd" clip-rule="evenodd" d="M30.8661 27.4358C30.8821 27.2848 30.8917 27.1338 30.8917 26.9828L30.8916 26.9829C30.8916 26.9796 30.8917 26.9764 30.8917 26.9732C30.8913 26.8266 30.8819 26.6799 30.8664 26.5348C30.8192 26.2541 30.7449 25.9803 30.6437 25.7148C30.5484 25.5041 30.436 25.3003 30.3066 25.1071C30.2871 25.0791 30.2675 25.0518 30.2479 25.0245C30.2337 25.0047 30.2194 24.9848 30.2051 24.9646C30.1979 24.9558 30.1907 24.9472 30.1835 24.9389C30.0995 24.838 30.0127 24.7427 29.9231 24.6529C29.8307 24.5604 29.7355 24.4735 29.6376 24.3922C29.6342 24.3895 29.6286 24.3844 29.6217 24.378C29.6205 24.3772 29.6192 24.3763 29.618 24.3754C29.5648 24.3361 29.5088 24.2969 29.4528 24.2604C29.2659 24.1365 29.0686 24.0273 28.8643 23.9346C28.6001 23.8335 28.3277 23.7592 28.0484 23.7117C27.7473 23.6806 27.4443 23.6807 27.1412 23.7119C26.8628 23.7593 26.5912 23.8333 26.3278 23.9341C26.1174 24.0295 25.9139 24.1421 25.721 24.2716C25.6931 24.2912 25.6658 24.3108 25.6385 24.3304C25.6187 24.3447 25.5989 24.359 25.5787 24.3733C25.57 24.3805 25.5613 24.3877 25.5531 24.395C25.4523 24.4791 25.3571 24.566 25.2675 24.6557C25.1751 24.7483 25.0884 24.8436 25.0072 24.9417C25.0045 24.945 24.9994 24.9507 24.993 24.9576C24.9922 24.9588 24.9913 24.9601 24.9904 24.9613C24.9512 25.0146 24.912 25.0707 24.8756 25.1268C24.7518 25.3139 24.6428 25.5116 24.5503 25.7161C24.4493 25.9807 24.3751 26.2535 24.3277 26.5333C24.2967 26.8349 24.2967 27.1383 24.3279 27.4418C24.3752 27.7206 24.4492 27.9926 24.5497 28.2565C24.6451 28.4672 24.7574 28.671 24.8868 28.8641C24.9064 28.8921 24.9259 28.9195 24.9455 28.9468C24.9598 28.9666 24.974 28.9865 24.9883 29.0067C24.9955 29.0154 25.0027 29.0241 25.01 29.0324C25.0939 29.1333 25.1807 29.2286 25.2703 29.3183C25.3627 29.4109 25.4579 29.4978 25.5559 29.5791C25.5592 29.5817 25.5648 29.5869 25.5718 29.5933C25.573 29.5941 25.5742 29.595 25.5755 29.5959C25.6287 29.6352 25.6846 29.6744 25.7406 29.7109C25.9275 29.8348 26.1249 29.944 26.3291 30.0366C26.5933 30.1378 26.8657 30.2121 27.145 30.2596C27.4462 30.2906 27.7491 30.2906 28.0522 30.2594C28.3306 30.212 28.6022 30.1379 28.8656 30.0372C29.076 29.9418 29.2795 29.8292 29.4724 29.6997C29.5003 29.6801 29.5276 29.6604 29.5549 29.6408C29.5747 29.6266 29.5946 29.6123 29.6147 29.598C29.6234 29.5908 29.6321 29.5835 29.6403 29.5763C29.7411 29.4922 29.8363 29.4053 29.9259 29.3155C30.0183 29.223 30.1051 29.1277 30.1862 29.0296C30.1889 29.0263 30.194 29.0206 30.2004 29.0137C30.2013 29.0125 30.2021 29.0112 30.203 29.0099C30.2422 28.9567 30.2814 28.9006 30.3178 28.8445C30.4416 28.6574 30.5506 28.4597 30.6431 28.2552C30.7444 27.9899 30.8187 27.7163 30.8661 27.4358ZM30.8861 27.3053C30.8843 27.3187 30.8824 27.3321 30.8804 27.3455C30.8822 27.3322 30.8841 27.3187 30.8861 27.3053ZM30.2562 28.9427C30.2555 28.9469 30.2515 28.9536 30.2456 28.9614C30.2517 28.9523 30.2558 28.9454 30.2562 28.9427ZM27.9186 30.28C27.9321 30.278 27.9455 30.2761 27.9589 30.2743C27.9455 30.2763 27.9321 30.2782 27.9186 30.28ZM27.2776 30.28C27.2642 30.2782 27.2508 30.2763 27.2374 30.2743C27.2507 30.2761 27.2641 30.278 27.2776 30.28ZM25.6427 29.6492C25.6384 29.6485 25.6318 29.6444 25.6239 29.6386C25.633 29.6447 25.6399 29.6487 25.6427 29.6492ZM24.3073 27.3081C24.3093 27.3216 24.3112 27.335 24.313 27.3483C24.3111 27.3349 24.3091 27.3215 24.3073 27.3081ZM24.3073 26.666C24.3091 26.6526 24.3111 26.6392 24.313 26.6258C24.3112 26.6391 24.3093 26.6525 24.3073 26.666ZM24.9372 25.0286C24.9379 25.0244 24.9419 25.0177 24.9478 25.0099C24.9417 25.0189 24.9376 25.0258 24.9372 25.0286ZM27.2748 23.6912C27.2613 23.6932 27.2479 23.6952 27.2346 23.697C27.248 23.695 27.2614 23.6931 27.2748 23.6912ZM27.9158 23.6912C27.9293 23.6931 27.9427 23.695 27.956 23.697C27.9427 23.6952 27.9293 23.6932 27.9158 23.6912ZM29.5508 24.3221C29.555 24.3228 29.5617 24.3268 29.5695 24.3327C29.5604 24.3266 29.5535 24.3226 29.5508 24.3221ZM30.8861 26.6632C30.8841 26.6497 30.8822 26.6363 30.8804 26.623C30.8824 26.6364 30.8843 26.6498 30.8861 26.6632ZM32.5638 27.1006C32.569 27.0623 32.5717 27.023 32.5714 26.9828C32.5658 25.9847 32.2691 24.9641 31.684 24.1482C31.0681 23.2847 30.2422 22.651 29.2456 22.2838C27.3587 21.5885 25.0855 22.2053 23.806 23.7585C23.1201 24.5913 22.7198 25.5698 22.633 26.6464C22.5546 27.6417 22.8094 28.6819 23.3245 29.5371C23.7851 30.3043 24.4683 30.9708 25.2677 31.3839C25.2634 31.3852 25.259 31.3864 25.2547 31.3877C23.6196 31.8729 22.1086 32.8888 21.0243 34.2655C19.8651 35.7424 19.1701 37.5164 19.026 39.4299C19.0087 39.6482 19.0029 39.8666 19 40.0849C19 40.5761 19.3979 40.9946 19.8651 40.9946H21.3992H25.099H29.56H33.4184C33.6269 40.9946 33.8355 40.996 34.0441 40.9973C34.4544 41 34.8647 41.0026 35.2751 40.995C35.2924 40.9955 35.3098 40.9954 35.3273 40.9946C35.3273 40.9946 35.3274 40.9946 35.3274 40.9946C35.7945 40.9703 36.1924 40.5942 36.1895 40.0849M36.1895 40.0835C36.1835 38.2493 35.6529 36.4031 34.6352 34.9055C33.5971 33.3801 32.1783 32.2308 30.5029 31.5818C30.3126 31.5078 30.1194 31.4416 29.9238 31.3831C31.2559 30.6672 32.2649 29.3326 32.4901 27.8268C32.5262 27.5859 32.5561 27.345 32.5638 27.1006M34.4167 39.1751C34.416 39.1702 34.4153 39.1653 34.4147 39.1603C34.4153 39.1652 34.4159 39.1702 34.4166 39.1751H34.4167ZM34.4142 39.1751C34.4112 39.1476 34.4082 39.1201 34.405 39.0926C34.3162 38.4843 34.1624 37.8898 33.9455 37.3167C33.7807 36.9214 33.5893 36.5375 33.3664 36.1729C33.263 36.0053 33.1541 35.8406 33.0424 35.6815C33.0315 35.6674 33.0209 35.6533 33.0103 35.6392C32.9966 35.621 32.9829 35.6028 32.9685 35.5846C32.9108 35.5058 32.8502 35.433 32.7868 35.3572C32.536 35.06 32.2678 34.781 31.9794 34.5263L31.8205 34.3902C31.8374 34.4036 31.8491 34.4122 31.8467 34.408C31.8429 34.3999 31.8237 34.3865 31.807 34.3748C31.7987 34.3689 31.791 34.3635 31.7862 34.3595C31.7809 34.3553 31.7755 34.3511 31.7701 34.347L31.7458 34.3261C31.7202 34.3051 31.7307 34.3147 31.7527 34.3336C31.7461 34.3286 31.7394 34.3236 31.7328 34.3185C31.7148 34.3049 31.6968 34.2913 31.6795 34.2776C31.5209 34.1563 31.3594 34.0411 31.1922 33.935C30.8836 33.7369 30.5622 33.5632 30.2328 33.4115C29.6874 33.1831 29.1217 33.0212 28.5428 32.9277C27.9137 32.8476 27.2805 32.8475 26.6538 32.9275C26.0749 33.0209 25.5092 33.1827 24.9639 33.4109C24.588 33.5843 24.2229 33.7855 23.8762 34.0199C23.7169 34.1287 23.5602 34.2432 23.4089 34.3606C23.3955 34.3721 23.3822 34.3832 23.3688 34.3943C23.3515 34.4088 23.3341 34.4232 23.3168 34.4384C23.2418 34.499 23.1726 34.5627 23.1005 34.6294C22.818 34.8932 22.5527 35.1752 22.3104 35.4785L22.181 35.6455C22.1938 35.6278 22.202 35.6155 22.198 35.618C22.1903 35.622 22.1775 35.6422 22.1664 35.6598C22.1608 35.6685 22.1557 35.6766 22.1518 35.6817C22.1479 35.6872 22.1439 35.6929 22.1399 35.6985L22.1201 35.7241C22.1001 35.751 22.1092 35.74 22.1272 35.7169C22.1224 35.7238 22.1177 35.7308 22.1129 35.7378C22.0999 35.7567 22.0869 35.7757 22.074 35.7939C21.9586 35.9606 21.849 36.1305 21.7481 36.3063C21.5597 36.6308 21.3946 36.9688 21.2503 37.3153C21.0328 37.8898 20.8787 38.4857 20.7898 39.0955C20.787 39.1196 20.7844 39.1438 20.7818 39.168C20.9028 39.1688 21.0238 39.1699 21.1448 39.1711C21.3537 39.1731 21.5627 39.1751 21.7712 39.1751H25.6296H30.0906H33.7904H34.4142ZM20.7796 39.168C20.7796 39.168 20.7796 39.168 20.7796 39.168C20.7799 39.1655 20.7803 39.163 20.7806 39.1605C20.7803 39.163 20.78 39.1655 20.7796 39.168ZM21.3127 37.1554L21.2819 37.2332C21.292 37.2073 21.3023 37.1813 21.3127 37.1554ZM22.1272 35.7169C22.1429 35.6966 22.1654 35.6671 22.181 35.6455L22.1399 35.6985C22.1357 35.7046 22.1315 35.7107 22.1272 35.7169ZM24.8105 33.477C24.8353 33.466 24.8602 33.4552 24.885 33.4444L24.8105 33.477ZM26.7888 32.907C26.7646 32.9107 26.7408 32.9142 26.717 32.9175C26.7409 32.9139 26.7648 32.9104 26.7888 32.907ZM28.4065 32.907C28.4304 32.9104 28.4542 32.9139 28.4781 32.9175C28.4544 32.9142 28.4306 32.9107 28.4065 32.907ZM30.3847 33.477L30.3108 33.4447C30.3355 33.4553 30.3601 33.4661 30.3847 33.477ZM31.7527 34.3336C31.7719 34.3502 31.8 34.3738 31.8205 34.3902L31.7701 34.347C31.7644 34.3425 31.7585 34.3381 31.7527 34.3336ZM33.8826 37.1554C33.8931 37.1816 33.9035 37.2077 33.9137 37.2339L33.8826 37.1554Z"/>
</mask>
<path fill-rule="evenodd" clip-rule="evenodd" d="M30.8661 27.4358C30.8821 27.2848 30.8917 27.1338 30.8917 26.9828L30.8916 26.9829C30.8916 26.9796 30.8917 26.9764 30.8917 26.9732C30.8913 26.8266 30.8819 26.6799 30.8664 26.5348C30.8192 26.2541 30.7449 25.9803 30.6437 25.7148C30.5484 25.5041 30.436 25.3003 30.3066 25.1071C30.2871 25.0791 30.2675 25.0518 30.2479 25.0245C30.2337 25.0047 30.2194 24.9848 30.2051 24.9646C30.1979 24.9558 30.1907 24.9472 30.1835 24.9389C30.0995 24.838 30.0127 24.7427 29.9231 24.6529C29.8307 24.5604 29.7355 24.4735 29.6376 24.3922C29.6342 24.3895 29.6286 24.3844 29.6217 24.378C29.6205 24.3772 29.6192 24.3763 29.618 24.3754C29.5648 24.3361 29.5088 24.2969 29.4528 24.2604C29.2659 24.1365 29.0686 24.0273 28.8643 23.9346C28.6001 23.8335 28.3277 23.7592 28.0484 23.7117C27.7473 23.6806 27.4443 23.6807 27.1412 23.7119C26.8628 23.7593 26.5912 23.8333 26.3278 23.9341C26.1174 24.0295 25.9139 24.1421 25.721 24.2716C25.6931 24.2912 25.6658 24.3108 25.6385 24.3304C25.6187 24.3447 25.5989 24.359 25.5787 24.3733C25.57 24.3805 25.5613 24.3877 25.5531 24.395C25.4523 24.4791 25.3571 24.566 25.2675 24.6557C25.1751 24.7483 25.0884 24.8436 25.0072 24.9417C25.0045 24.945 24.9994 24.9507 24.993 24.9576C24.9922 24.9588 24.9913 24.9601 24.9904 24.9613C24.9512 25.0146 24.912 25.0707 24.8756 25.1268C24.7518 25.3139 24.6428 25.5116 24.5503 25.7161C24.4493 25.9807 24.3751 26.2535 24.3277 26.5333C24.2967 26.8349 24.2967 27.1383 24.3279 27.4418C24.3752 27.7206 24.4492 27.9926 24.5497 28.2565C24.6451 28.4672 24.7574 28.671 24.8868 28.8641C24.9064 28.8921 24.9259 28.9195 24.9455 28.9468C24.9598 28.9666 24.974 28.9865 24.9883 29.0067C24.9955 29.0154 25.0027 29.0241 25.01 29.0324C25.0939 29.1333 25.1807 29.2286 25.2703 29.3183C25.3627 29.4109 25.4579 29.4978 25.5559 29.5791C25.5592 29.5817 25.5648 29.5869 25.5718 29.5933C25.573 29.5941 25.5742 29.595 25.5755 29.5959C25.6287 29.6352 25.6846 29.6744 25.7406 29.7109C25.9275 29.8348 26.1249 29.944 26.3291 30.0366C26.5933 30.1378 26.8657 30.2121 27.145 30.2596C27.4462 30.2906 27.7491 30.2906 28.0522 30.2594C28.3306 30.212 28.6022 30.1379 28.8656 30.0372C29.076 29.9418 29.2795 29.8292 29.4724 29.6997C29.5003 29.6801 29.5276 29.6604 29.5549 29.6408C29.5747 29.6266 29.5946 29.6123 29.6147 29.598C29.6234 29.5908 29.6321 29.5835 29.6403 29.5763C29.7411 29.4922 29.8363 29.4053 29.9259 29.3155C30.0183 29.223 30.1051 29.1277 30.1862 29.0296C30.1889 29.0263 30.194 29.0206 30.2004 29.0137C30.2013 29.0125 30.2021 29.0112 30.203 29.0099C30.2422 28.9567 30.2814 28.9006 30.3178 28.8445C30.4416 28.6574 30.5506 28.4597 30.6431 28.2552C30.7444 27.9899 30.8187 27.7163 30.8661 27.4358ZM30.8861 27.3053C30.8843 27.3187 30.8824 27.3321 30.8804 27.3455C30.8822 27.3322 30.8841 27.3187 30.8861 27.3053ZM30.2562 28.9427C30.2555 28.9469 30.2515 28.9536 30.2456 28.9614C30.2517 28.9523 30.2558 28.9454 30.2562 28.9427ZM27.9186 30.28C27.9321 30.278 27.9455 30.2761 27.9589 30.2743C27.9455 30.2763 27.9321 30.2782 27.9186 30.28ZM27.2776 30.28C27.2642 30.2782 27.2508 30.2763 27.2374 30.2743C27.2507 30.2761 27.2641 30.278 27.2776 30.28ZM25.6427 29.6492C25.6384 29.6485 25.6318 29.6444 25.6239 29.6386C25.633 29.6447 25.6399 29.6487 25.6427 29.6492ZM24.3073 27.3081C24.3093 27.3216 24.3112 27.335 24.313 27.3483C24.3111 27.3349 24.3091 27.3215 24.3073 27.3081ZM24.3073 26.666C24.3091 26.6526 24.3111 26.6392 24.313 26.6258C24.3112 26.6391 24.3093 26.6525 24.3073 26.666ZM24.9372 25.0286C24.9379 25.0244 24.9419 25.0177 24.9478 25.0099C24.9417 25.0189 24.9376 25.0258 24.9372 25.0286ZM27.2748 23.6912C27.2613 23.6932 27.2479 23.6952 27.2346 23.697C27.248 23.695 27.2614 23.6931 27.2748 23.6912ZM27.9158 23.6912C27.9293 23.6931 27.9427 23.695 27.956 23.697C27.9427 23.6952 27.9293 23.6932 27.9158 23.6912ZM29.5508 24.3221C29.555 24.3228 29.5617 24.3268 29.5695 24.3327C29.5604 24.3266 29.5535 24.3226 29.5508 24.3221ZM30.8861 26.6632C30.8841 26.6497 30.8822 26.6363 30.8804 26.623C30.8824 26.6364 30.8843 26.6498 30.8861 26.6632ZM32.5638 27.1006C32.569 27.0623 32.5717 27.023 32.5714 26.9828C32.5658 25.9847 32.2691 24.9641 31.684 24.1482C31.0681 23.2847 30.2422 22.651 29.2456 22.2838C27.3587 21.5885 25.0855 22.2053 23.806 23.7585C23.1201 24.5913 22.7198 25.5698 22.633 26.6464C22.5546 27.6417 22.8094 28.6819 23.3245 29.5371C23.7851 30.3043 24.4683 30.9708 25.2677 31.3839C25.2634 31.3852 25.259 31.3864 25.2547 31.3877C23.6196 31.8729 22.1086 32.8888 21.0243 34.2655C19.8651 35.7424 19.1701 37.5164 19.026 39.4299C19.0087 39.6482 19.0029 39.8666 19 40.0849C19 40.5761 19.3979 40.9946 19.8651 40.9946H21.3992H25.099H29.56H33.4184C33.6269 40.9946 33.8355 40.996 34.0441 40.9973C34.4544 41 34.8647 41.0026 35.2751 40.995C35.2924 40.9955 35.3098 40.9954 35.3273 40.9946C35.3273 40.9946 35.3274 40.9946 35.3274 40.9946C35.7945 40.9703 36.1924 40.5942 36.1895 40.0849M36.1895 40.0835C36.1835 38.2493 35.6529 36.4031 34.6352 34.9055C33.5971 33.3801 32.1783 32.2308 30.5029 31.5818C30.3126 31.5078 30.1194 31.4416 29.9238 31.3831C31.2559 30.6672 32.2649 29.3326 32.4901 27.8268C32.5262 27.5859 32.5561 27.345 32.5638 27.1006M34.4167 39.1751C34.416 39.1702 34.4153 39.1653 34.4147 39.1603C34.4153 39.1652 34.4159 39.1702 34.4166 39.1751H34.4167ZM34.4142 39.1751C34.4112 39.1476 34.4082 39.1201 34.405 39.0926C34.3162 38.4843 34.1624 37.8898 33.9455 37.3167C33.7807 36.9214 33.5893 36.5375 33.3664 36.1729C33.263 36.0053 33.1541 35.8406 33.0424 35.6815C33.0315 35.6674 33.0209 35.6533 33.0103 35.6392C32.9966 35.621 32.9829 35.6028 32.9685 35.5846C32.9108 35.5058 32.8502 35.433 32.7868 35.3572C32.536 35.06 32.2678 34.781 31.9794 34.5263L31.8205 34.3902C31.8374 34.4036 31.8491 34.4122 31.8467 34.408C31.8429 34.3999 31.8237 34.3865 31.807 34.3748C31.7987 34.3689 31.791 34.3635 31.7862 34.3595C31.7809 34.3553 31.7755 34.3511 31.7701 34.347L31.7458 34.3261C31.7202 34.3051 31.7307 34.3147 31.7527 34.3336C31.7461 34.3286 31.7394 34.3236 31.7328 34.3185C31.7148 34.3049 31.6968 34.2913 31.6795 34.2776C31.5209 34.1563 31.3594 34.0411 31.1922 33.935C30.8836 33.7369 30.5622 33.5632 30.2328 33.4115C29.6874 33.1831 29.1217 33.0212 28.5428 32.9277C27.9137 32.8476 27.2805 32.8475 26.6538 32.9275C26.0749 33.0209 25.5092 33.1827 24.9639 33.4109C24.588 33.5843 24.2229 33.7855 23.8762 34.0199C23.7169 34.1287 23.5602 34.2432 23.4089 34.3606C23.3955 34.3721 23.3822 34.3832 23.3688 34.3943C23.3515 34.4088 23.3341 34.4232 23.3168 34.4384C23.2418 34.499 23.1726 34.5627 23.1005 34.6294C22.818 34.8932 22.5527 35.1752 22.3104 35.4785L22.181 35.6455C22.1938 35.6278 22.202 35.6155 22.198 35.618C22.1903 35.622 22.1775 35.6422 22.1664 35.6598C22.1608 35.6685 22.1557 35.6766 22.1518 35.6817C22.1479 35.6872 22.1439 35.6929 22.1399 35.6985L22.1201 35.7241C22.1001 35.751 22.1092 35.74 22.1272 35.7169C22.1224 35.7238 22.1177 35.7308 22.1129 35.7378C22.0999 35.7567 22.0869 35.7757 22.074 35.7939C21.9586 35.9606 21.849 36.1305 21.7481 36.3063C21.5597 36.6308 21.3946 36.9688 21.2503 37.3153C21.0328 37.8898 20.8787 38.4857 20.7898 39.0955C20.787 39.1196 20.7844 39.1438 20.7818 39.168C20.9028 39.1688 21.0238 39.1699 21.1448 39.1711C21.3537 39.1731 21.5627 39.1751 21.7712 39.1751H25.6296H30.0906H33.7904H34.4142ZM20.7796 39.168C20.7796 39.168 20.7796 39.168 20.7796 39.168C20.7799 39.1655 20.7803 39.163 20.7806 39.1605C20.7803 39.163 20.78 39.1655 20.7796 39.168ZM21.3127 37.1554L21.2819 37.2332C21.292 37.2073 21.3023 37.1813 21.3127 37.1554ZM22.1272 35.7169C22.1429 35.6966 22.1654 35.6671 22.181 35.6455L22.1399 35.6985C22.1357 35.7046 22.1315 35.7107 22.1272 35.7169ZM24.8105 33.477C24.8353 33.466 24.8602 33.4552 24.885 33.4444L24.8105 33.477ZM26.7888 32.907C26.7646 32.9107 26.7408 32.9142 26.717 32.9175C26.7409 32.9139 26.7648 32.9104 26.7888 32.907ZM28.4065 32.907C28.4304 32.9104 28.4542 32.9139 28.4781 32.9175C28.4544 32.9142 28.4306 32.9107 28.4065 32.907ZM30.3847 33.477L30.3108 33.4447C30.3355 33.4553 30.3601 33.4661 30.3847 33.477ZM31.7527 34.3336C31.7719 34.3502 31.8 34.3738 31.8205 34.3902L31.7701 34.347C31.7644 34.3425 31.7585 34.3381 31.7527 34.3336ZM33.8826 37.1554C33.8931 37.1816 33.9035 37.2077 33.9137 37.2339L33.8826 37.1554Z" fill="#4BC7B6"/>
<path d="M32.5638 27.1006L32.9972 26.9796L32.1304 27.2216L32.5638 27.1006ZM36.623 39.9638L32.9972 26.9796L32.1304 27.2216L35.7561 40.2059L36.623 39.9638ZM32.1304 27.2216L35.7561 40.2046L36.623 39.9625L32.9972 26.9796L32.1304 27.2216ZM30.8917 26.9828H31.7917V25.9177L30.7416 26.0954L30.8917 26.9828ZM30.8661 27.4358L31.7535 27.5857L31.7581 27.5583L31.7611 27.5308L30.8661 27.4358ZM30.8916 26.9829L29.9916 26.9775L29.9853 28.049L31.0418 27.8702L30.8916 26.9829ZM30.8917 26.9732L31.7916 26.9884L31.7917 26.9796L31.7917 26.9708L30.8917 26.9732ZM30.8664 26.5348L31.7614 26.4394L31.7585 26.4122L31.7539 26.3853L30.8664 26.5348ZM30.6437 25.7148L31.4846 25.3942L31.4749 25.3687L31.4637 25.3439L30.6437 25.7148ZM30.3066 25.1071L31.0544 24.6063L31.0494 24.5988L31.0443 24.5915L30.3066 25.1071ZM30.2479 25.0245L29.5165 25.5489V25.5489L30.2479 25.0245ZM30.2051 24.9646L30.9399 24.4449L30.9205 24.4175L30.8992 24.3916L30.2051 24.9646ZM30.1835 24.9389L29.4916 25.5146L29.4986 25.5229L29.5057 25.5311L30.1835 24.9389ZM29.9231 24.6529L30.56 24.017L30.56 24.017L29.9231 24.6529ZM29.6376 24.3922L30.2123 23.6996L30.2064 23.6947L30.2004 23.6899L29.6376 24.3922ZM29.6217 24.378L30.2307 23.7154L30.1895 23.6775L30.144 23.6451L29.6217 24.378ZM29.618 24.3754L29.0835 25.0996L29.0944 25.1074L29.618 24.3754ZM29.4528 24.2604L28.9553 25.0104L28.9618 25.0147L29.4528 24.2604ZM28.8643 23.9346L29.2361 23.115L29.2114 23.1038L29.1861 23.0941L28.8643 23.9346ZM28.0484 23.7117L28.1992 22.8244L28.1701 22.8195L28.1407 22.8164L28.0484 23.7117ZM27.1412 23.7119L27.0491 22.8166L27.0195 22.8196L26.9902 22.8246L27.1412 23.7119ZM26.3278 23.9341L26.0064 23.0934L25.9808 23.1032L25.956 23.1145L26.3278 23.9341ZM25.721 24.2716L25.2191 23.5246L25.2117 23.5296L25.2044 23.5347L25.721 24.2716ZM25.6385 24.3304L25.1131 23.5997L25.1131 23.5997L25.6385 24.3304ZM25.5787 24.3733L25.058 23.6392L25.0306 23.6586L25.0047 23.6801L25.5787 24.3733ZM25.5531 24.395L26.1298 25.086L26.1381 25.079L26.1462 25.0719L25.5531 24.395ZM25.2675 24.6557L24.6306 24.0198L24.6306 24.0198L25.2675 24.6557ZM25.0072 24.9417L24.3137 24.368L24.3088 24.3739L24.3041 24.3799L25.0072 24.9417ZM24.993 24.9576L24.3295 24.3496L24.2917 24.3908L24.2593 24.4364L24.993 24.9576ZM24.9904 24.9613L25.7154 25.4947L25.7231 25.4839L24.9904 24.9613ZM24.8756 25.1268L25.6263 25.6232L25.6305 25.6167L24.8756 25.1268ZM24.5503 25.7161L23.7303 25.3453L23.7191 25.3699L23.7095 25.3952L24.5503 25.7161ZM24.3277 26.5333L23.4404 26.3829L23.4354 26.4119L23.4324 26.4412L24.3277 26.5333ZM24.3279 27.4418L23.4326 27.5336L23.4356 27.5631L23.4406 27.5924L24.3279 27.4418ZM24.5497 28.2565L23.7088 28.5771L23.7185 28.6025L23.7297 28.6274L24.5497 28.2565ZM24.8868 28.8641L24.139 29.365L24.144 29.3724L24.1491 29.3798L24.8868 28.8641ZM24.9455 28.9468L25.677 28.4224L25.677 28.4224L24.9455 28.9468ZM24.9883 29.0067L24.2535 29.5264L24.2729 29.5538L24.2942 29.5796L24.9883 29.0067ZM25.01 29.0324L25.7018 28.4567L25.6949 28.4484L25.6877 28.4402L25.01 29.0324ZM25.2703 29.3183L25.9072 28.6824L25.2703 29.3183ZM25.5559 29.5791L24.9812 30.2717L24.987 30.2766L24.993 30.2814L25.5559 29.5791ZM25.5718 29.5933L24.9627 30.2559L25.0039 30.2938L25.0495 30.3262L25.5718 29.5933ZM25.5755 29.5959L26.1099 28.8717L26.099 28.8639L25.5755 29.5959ZM25.7406 29.7109L26.2381 28.9608L26.2316 28.9566L25.7406 29.7109ZM26.3291 30.0366L25.9574 30.8563L25.982 30.8675L26.0073 30.8772L26.3291 30.0366ZM27.145 30.2596L26.9942 31.1469L27.0233 31.1518L27.0527 31.1548L27.145 30.2596ZM28.0522 30.2594L28.1443 31.1547L28.1739 31.1516L28.2033 31.1466L28.0522 30.2594ZM28.8656 30.0372L29.1871 30.8779L29.2126 30.8681L29.2374 30.8568L28.8656 30.0372ZM29.4724 29.6997L29.9743 30.4467L29.9817 30.4417L29.989 30.4366L29.4724 29.6997ZM29.5549 29.6408L29.0295 28.9101L29.0295 28.9101L29.5549 29.6408ZM29.6147 29.598L30.1354 30.3321L30.1628 30.3126L30.1887 30.2912L29.6147 29.598ZM29.6403 29.5763L29.0637 28.8853L29.0554 28.8923L29.0472 28.8994L29.6403 29.5763ZM29.9259 29.3155L29.289 28.6796L29.289 28.6796L29.9259 29.3155ZM30.1862 29.0296L30.8797 29.6033L30.8845 29.5974L30.8893 29.5915L30.1862 29.0296ZM30.2004 29.0137L30.864 29.6217L30.9017 29.5805L30.934 29.535L30.2004 29.0137ZM30.203 29.0099L29.478 28.4766L29.4704 28.4873L30.203 29.0099ZM30.3178 28.8445L29.5671 28.3481L29.5629 28.3546L30.3178 28.8445ZM30.6431 28.2552L31.4632 28.626L31.4743 28.6014L31.4839 28.5761L30.6431 28.2552ZM30.8861 27.3053L31.7776 27.4285L29.9958 27.1735L30.8861 27.3053ZM30.8804 27.3455L29.9889 27.222L31.7707 27.4769L30.8804 27.3455ZM30.2562 28.9427L31.144 29.0904L29.3685 28.7947L30.2562 28.9427ZM30.2456 28.9614L29.4976 28.461L30.9682 29.498L30.2456 28.9614ZM27.9186 30.28L27.7866 29.3898L28.0423 31.1715L27.9186 30.28ZM27.9589 30.2743L28.0907 31.1646L27.835 29.3828L27.9589 30.2743ZM27.2776 30.28L27.154 31.1715L27.4097 29.3898L27.2776 30.28ZM27.2374 30.2743L27.3613 29.3828L27.1055 31.1646L27.2374 30.2743ZM25.6427 29.6492L25.4945 30.5369L25.791 28.7615L25.6427 29.6492ZM25.6239 29.6386L26.1253 28.8912L25.0863 30.3604L25.6239 29.6386ZM24.3073 27.3081L25.1976 27.1764L23.4158 27.4313L24.3073 27.3081ZM24.313 27.3483L23.4227 27.4798L25.2045 27.2248L24.313 27.3483ZM24.3073 26.666L23.4158 26.5428L25.1976 26.7977L24.3073 26.666ZM24.313 26.6258L25.2045 26.7493L23.4227 26.4943L24.313 26.6258ZM24.9372 25.0286L24.0494 24.8809L25.825 25.1765L24.9372 25.0286ZM24.9478 25.0099L25.6959 25.5102L24.2252 24.4733L24.9478 25.0099ZM27.2748 23.6912L27.4069 24.5815L27.1512 22.7998L27.2748 23.6912ZM27.2346 23.697L27.1027 22.8067L27.3585 24.5884L27.2346 23.697ZM27.9158 23.6912L28.0395 22.7998L27.7838 24.5815L27.9158 23.6912ZM27.956 23.697L27.8321 24.5884L28.0879 22.8067L27.956 23.697ZM29.5508 24.3221L29.699 23.4344L29.4025 25.2098L29.5508 24.3221ZM29.5695 24.3327L29.0681 25.0801L30.1071 23.6109L29.5695 24.3327ZM30.8861 26.6632L29.9958 26.7949L31.7777 26.54L30.8861 26.6632ZM30.8804 26.623L31.7707 26.4915L29.9889 26.7465L30.8804 26.623ZM32.5638 27.1006L31.6722 26.9781L31.6657 27.025L31.6642 27.0723L32.5638 27.1006ZM32.5714 26.9828L31.6714 26.9879L31.6714 26.9882L32.5714 26.9828ZM31.684 24.1482L30.9512 24.6708L30.9526 24.6727L31.684 24.1482ZM29.2456 22.2838L29.5568 21.4393L29.5568 21.4393L29.2456 22.2838ZM23.806 23.7585L23.1113 23.1863L23.1113 23.1864L23.806 23.7585ZM22.633 26.6464L21.7359 26.5741L21.7358 26.5757L22.633 26.6464ZM23.3245 29.5371L24.0961 29.0738L24.0954 29.0727L23.3245 29.5371ZM25.2677 31.3839L25.523 32.2469L27.6696 31.6119L25.6809 30.5843L25.2677 31.3839ZM25.2547 31.3877L25.5107 32.2506L25.5115 32.2503L25.2547 31.3877ZM21.0243 34.2655L20.3173 33.7087L20.3164 33.7098L21.0243 34.2655ZM19.026 39.4299L19.9231 39.501L19.9234 39.4975L19.026 39.4299ZM19 40.0849L18.1 40.073V40.0849H19ZM34.0441 40.9973L34.0499 40.0973H34.0499L34.0441 40.9973ZM35.2751 40.995L35.302 40.0954L35.2802 40.0948L35.2584 40.0952L35.2751 40.995ZM35.3273 40.9946V40.0946H35.3069L35.2865 40.0955L35.3273 40.9946ZM35.3274 40.9946V41.8946H35.3509L35.3743 41.8934L35.3274 40.9946ZM34.6352 34.9055L35.3796 34.3996L35.3793 34.3991L34.6352 34.9055ZM30.5029 31.5818L30.1768 32.4206L30.1778 32.4211L30.5029 31.5818ZM29.9238 31.3831L29.4978 30.5903L27.5797 31.6211L29.6658 32.2453L29.9238 31.3831ZM32.4901 27.8268L31.6001 27.6935L31.6 27.6937L32.4901 27.8268ZM34.4147 39.1603L35.3062 39.0373L33.5219 39.2744L34.4147 39.1603ZM34.4167 39.1751V40.0751H35.4476L35.3085 39.0537L34.4167 39.1751ZM34.4166 39.1751L33.524 39.2907L33.6256 40.0751H34.4166V39.1751ZM34.405 39.0926L35.2991 38.9895L35.2976 38.976L35.2956 38.9625L34.405 39.0926ZM34.4142 39.1751V40.0751H35.4143L35.3092 39.0806L34.4142 39.1751ZM33.9455 37.3167L34.7873 36.9982L34.782 36.9842L34.7762 36.9703L33.9455 37.3167ZM33.3664 36.1729L34.1343 35.7035L34.1323 35.7002L33.3664 36.1729ZM33.0424 35.6815L33.7791 35.1645L33.7666 35.1467L33.7533 35.1295L33.0424 35.6815ZM33.0103 35.6392L33.7294 35.098L33.7294 35.098L33.0103 35.6392ZM32.9685 35.5846L32.242 36.1159L32.2523 36.13L32.2631 36.1436L32.9685 35.5846ZM32.7868 35.3572L33.477 34.7796L33.4745 34.7766L32.7868 35.3572ZM31.9794 34.5263L32.5753 33.8517L32.565 33.8429L31.9794 34.5263ZM31.8467 34.408L31.0338 34.7943L31.0483 34.8247L31.0651 34.8541L31.8467 34.408ZM31.807 34.3748L32.3237 33.6378L32.3236 33.6378L31.807 34.3748ZM31.7862 34.3595L32.3656 33.6708L32.3547 33.6617L32.3436 33.6529L31.7862 34.3595ZM31.7458 34.3261L32.3314 33.6427L32.3246 33.6369L32.3177 33.6312L31.7458 34.3261ZM31.7328 34.3185L31.1895 35.0361L31.1895 35.0361L31.7328 34.3185ZM31.6795 34.2776L32.2369 33.5709L32.2262 33.5627L31.6795 34.2776ZM31.1922 33.935L30.7059 34.6923L30.7099 34.6949L31.1922 33.935ZM30.2328 33.4115L30.6093 32.594L30.595 32.5874L30.5804 32.5813L30.2328 33.4115ZM28.5428 32.9277L28.6864 32.0392L28.6715 32.0368L28.6565 32.0349L28.5428 32.9277ZM26.6538 32.9275L26.5399 32.0347L26.5251 32.0366L26.5104 32.039L26.6538 32.9275ZM24.9639 33.4109L24.6164 32.5807L24.6015 32.5869L24.5869 32.5936L24.9639 33.4109ZM23.8762 34.0199L23.3722 33.2743L23.3688 33.2766L23.8762 34.0199ZM23.4089 34.3606L22.8571 33.6496L22.8395 33.6632L22.8226 33.6778L23.4089 34.3606ZM23.3688 34.3943L22.7929 33.7027L22.7929 33.7027L23.3688 34.3943ZM23.3168 34.4384L23.8828 35.1381L23.8966 35.1269L23.91 35.1152L23.3168 34.4384ZM23.1005 34.6294L22.4893 33.9688L22.4864 33.9715L23.1005 34.6294ZM22.3104 35.4785L21.6072 34.9167L21.599 34.9272L22.3104 35.4785ZM22.198 35.618L22.6166 36.4147L22.6481 36.3981L22.6782 36.3791L22.198 35.618ZM22.1664 35.6598L21.4062 35.1779L21.4062 35.1779L22.1664 35.6598ZM22.1518 35.6817L21.4355 35.1367L21.4272 35.1478L21.4191 35.159L22.1518 35.6817ZM22.1201 35.7241L21.4087 35.1729L21.4033 35.1798L21.3981 35.1868L22.1201 35.7241ZM22.1129 35.7378L22.8555 36.2463L22.8555 36.2463L22.1129 35.7378ZM22.074 35.7939L21.3412 35.2712L21.3337 35.2819L22.074 35.7939ZM21.7481 36.3063L22.5264 36.7583L22.5287 36.7543L21.7481 36.3063ZM21.2503 37.3153L20.4195 36.9692L20.4138 36.9828L20.4086 36.9966L21.2503 37.3153ZM20.7898 39.0955L19.8992 38.9657L19.8973 38.9789L19.8958 38.9921L20.7898 39.0955ZM20.7818 39.168L19.8869 39.0723L19.7811 40.0616L20.776 40.068L20.7818 39.168ZM21.1448 39.1711L21.1536 38.2711H21.1536L21.1448 39.1711ZM20.7796 39.168V40.068H21.5713L21.6723 39.2828L20.7796 39.168ZM20.7796 39.168L19.8879 39.0457L19.7478 40.068H20.7796V39.168ZM20.7806 39.1605L21.6733 39.2746L19.889 39.0375L20.7806 39.1605ZM21.3127 37.1554L22.1494 37.487L20.4776 36.8198L21.3127 37.1554ZM21.2819 37.2332L20.4435 36.9059L22.1186 37.5648L21.2819 37.2332ZM24.8105 33.477L24.445 32.6546L25.1717 34.3014L24.8105 33.477ZM24.885 33.4444L25.2462 34.2687L24.5282 32.6182L24.885 33.4444ZM26.7888 32.907L26.9273 33.7962L26.6617 32.016L26.7888 32.907ZM26.717 32.9175L26.5813 32.0278L26.843 33.8087L26.717 32.9175ZM28.4065 32.907L28.5336 32.016L28.268 33.7962L28.4065 32.907ZM28.4781 32.9175L28.3521 33.8087L28.6138 32.0278L28.4781 32.9175ZM30.3847 33.477L30.0235 34.3014L30.7503 32.6546L30.3847 33.477ZM30.3108 33.4447L30.6677 32.6184L29.9496 34.269L30.3108 33.4447ZM33.8826 37.1554L34.7177 36.8197L33.0459 37.4869L33.8826 37.1554ZM33.9137 37.2339L33.077 37.5655L34.7521 36.9066L33.9137 37.2339ZM29.9917 26.9828C29.9917 27.0959 29.9845 27.2145 29.9711 27.3407L31.7611 27.5308C31.7797 27.355 31.7917 27.1717 31.7917 26.9828H29.9917ZM31.0418 27.8702L31.0419 27.8702L30.7416 26.0954L30.7414 26.0955L31.0418 27.8702ZM29.9918 26.958C29.9917 26.9644 29.9917 26.9709 29.9916 26.9775L31.7916 26.9882L31.7916 26.9884L29.9918 26.958ZM29.9715 26.6303C29.9843 26.7504 29.9914 26.8655 29.9917 26.9756L31.7917 26.9708C31.7912 26.7876 31.7795 26.6095 31.7614 26.4394L29.9715 26.6303ZM29.8027 26.0354C29.8827 26.2451 29.9414 26.4616 29.979 26.6843L31.7539 26.3853C31.6969 26.0466 31.6071 25.7155 31.4846 25.3942L29.8027 26.0354ZM29.5589 25.608C29.6595 25.7582 29.7479 25.9183 29.8237 26.0857L31.4637 25.3439C31.3488 25.0898 31.2125 24.8424 31.0544 24.6063L29.5589 25.608ZM29.5165 25.5489C29.5365 25.5769 29.553 25.5999 29.569 25.6228L31.0443 24.5915C31.0211 24.5584 30.9985 24.5268 30.9794 24.5002L29.5165 25.5489ZM29.4704 25.4843C29.4865 25.5072 29.5024 25.5294 29.5165 25.5489L30.9794 24.5002C30.9649 24.4799 30.9523 24.4624 30.9399 24.4449L29.4704 25.4843ZM29.5057 25.5311C29.5049 25.5301 29.5048 25.5301 29.5058 25.5313C29.5069 25.5325 29.5085 25.5344 29.5111 25.5376L30.8992 24.3916C30.8904 24.381 30.8768 24.3646 30.8612 24.3468L29.5057 25.5311ZM29.2862 25.2888C29.3559 25.3586 29.4244 25.4338 29.4916 25.5146L30.8753 24.3633C30.7745 24.2422 30.6695 24.1267 30.56 24.017L29.2862 25.2888ZM29.0628 25.0848C29.1386 25.1477 29.2131 25.2156 29.2862 25.2889L30.56 24.017C30.4483 23.9052 30.3324 23.7993 30.2123 23.6996L29.0628 25.0848ZM29.0126 25.0407C29.016 25.0438 29.0228 25.05 29.0299 25.0564C29.0341 25.0602 29.0521 25.0764 29.0747 25.0944L30.2004 23.6899C30.2119 23.6991 30.2203 23.7064 30.2239 23.7094C30.228 23.7131 30.231 23.7157 30.232 23.7166C30.2338 23.7182 30.2342 23.7186 30.2307 23.7154L29.0126 25.0407ZM29.0944 25.1074C29.0959 25.1085 29.0976 25.1097 29.0994 25.111L30.144 23.6451C30.1433 23.6446 30.1425 23.6441 30.1415 23.6433L29.0944 25.1074ZM28.9618 25.0147C29.0006 25.04 29.042 25.0689 29.0836 25.0995L30.1523 23.6512C30.0875 23.6033 30.0169 23.5538 29.9438 23.5061L28.9618 25.0147ZM28.4926 24.7543C28.6533 24.8272 28.8086 24.9131 28.9553 25.0104L29.9503 23.5104C29.7232 23.3598 29.4838 23.2274 29.2361 23.115L28.4926 24.7543ZM27.8975 24.599C28.1189 24.6366 28.3341 24.6953 28.5426 24.7752L29.1861 23.0941C28.8662 22.9717 28.5365 22.8818 28.1992 22.8244L27.8975 24.599ZM27.2333 24.6071C27.4755 24.5822 27.7166 24.5823 27.956 24.6069L28.1407 22.8164C27.7779 22.779 27.4131 22.7792 27.0491 22.8166L27.2333 24.6071ZM26.6493 24.7747C26.8571 24.6952 27.0716 24.6367 27.2923 24.5991L26.9902 22.8246C26.654 22.8819 26.3253 22.9715 26.0064 23.0934L26.6493 24.7747ZM26.223 25.0187C26.3728 24.918 26.5326 24.8294 26.6996 24.7537L25.956 23.1145C25.7022 23.2296 25.4549 23.3661 25.2191 23.5246L26.223 25.0187ZM26.164 25.0612C26.1919 25.0411 26.2148 25.0246 26.2377 25.0085L25.2044 23.5347C25.1713 23.5579 25.1397 23.5806 25.1131 23.5997L26.164 25.0612ZM26.0995 25.1073C26.1223 25.0911 26.1445 25.0752 26.164 25.0612L25.1131 23.5997C25.0929 23.6143 25.0754 23.6269 25.058 23.6392L26.0995 25.1073ZM26.1462 25.0719C26.1453 25.0727 26.1452 25.0727 26.1464 25.0717C26.1476 25.0707 26.1496 25.0691 26.1528 25.0664L25.0047 23.6801C24.9941 23.6889 24.9778 23.7025 24.9599 23.7181L26.1462 25.0719ZM25.9044 25.2916C25.9741 25.2218 26.0491 25.1532 26.1298 25.086L24.9764 23.704C24.8555 23.8049 24.7401 23.9102 24.6306 24.0198L25.9044 25.2916ZM25.7006 25.5154C25.7635 25.4395 25.8313 25.3649 25.9044 25.2916L24.6306 24.0198C24.519 24.1317 24.4133 24.2477 24.3137 24.368L25.7006 25.5154ZM25.6566 25.5656C25.6597 25.5623 25.6658 25.5555 25.6722 25.5484C25.676 25.5442 25.6922 25.5261 25.7103 25.5036L24.3041 24.3799C24.3132 24.3684 24.3205 24.36 24.3236 24.3564C24.3272 24.3522 24.3298 24.3493 24.3307 24.3482C24.3323 24.3465 24.3327 24.346 24.3295 24.3496L25.6566 25.5656ZM25.7231 25.4839C25.7244 25.4822 25.7255 25.4805 25.7267 25.4789L24.2593 24.4364C24.2588 24.4372 24.2582 24.438 24.2576 24.4388L25.7231 25.4839ZM25.6305 25.6167C25.6558 25.5778 25.6847 25.5363 25.7153 25.4947L24.2654 24.428C24.2177 24.4929 24.1682 24.5636 24.1206 24.6368L25.6305 25.6167ZM25.3704 26.0869C25.4432 25.9258 25.5291 25.7702 25.6263 25.6232L24.1249 24.6303C23.9746 24.8576 23.8424 25.0973 23.7303 25.3453L25.3704 26.0869ZM25.215 26.6837C25.2527 26.4617 25.3114 26.246 25.3912 26.037L23.7095 25.3952C23.5873 25.7154 23.4976 26.0454 23.4404 26.3829L25.215 26.6837ZM25.2232 27.35C25.1983 27.1072 25.1983 26.8654 25.223 26.6254L23.4324 26.4412C23.3951 26.8043 23.3952 27.1693 23.4326 27.5336L25.2232 27.35ZM25.3907 27.9359C25.3113 27.7275 25.2527 27.5125 25.2152 27.2912L23.4406 27.5924C23.4977 27.9288 23.5871 28.2578 23.7088 28.5771L25.3907 27.9359ZM25.6345 28.3633C25.5339 28.2131 25.4455 28.053 25.3698 27.8856L23.7297 28.6274C23.8446 28.8814 23.9809 29.1289 24.139 29.365L25.6345 28.3633ZM25.677 28.4224C25.6569 28.3944 25.6405 28.3714 25.6244 28.3485L24.1491 29.3798C24.1723 29.4129 24.195 29.4445 24.2141 29.4711L25.677 28.4224ZM25.7231 28.487C25.7069 28.4641 25.691 28.4419 25.677 28.4224L24.214 29.4711C24.2286 29.4914 24.2411 29.5089 24.2535 29.5264L25.7231 28.487ZM25.6877 28.4402C25.6885 28.4412 25.6886 28.4412 25.6876 28.44C25.6865 28.4388 25.6849 28.4369 25.6823 28.4337L24.2942 29.5796C24.303 29.5903 24.3166 29.6067 24.3322 29.6245L25.6877 28.4402ZM25.9072 28.6824C25.8375 28.6126 25.769 28.5375 25.7018 28.4567L24.3181 29.608C24.4189 29.7291 24.524 29.8446 24.6334 29.9543L25.9072 28.6824ZM26.1306 28.8865C26.0548 28.8236 25.9803 28.7556 25.9072 28.6824L24.6334 29.9543C24.7451 30.0661 24.861 30.172 24.9812 30.2717L26.1306 28.8865ZM26.1808 28.9306C26.1774 28.9275 26.1707 28.9213 26.1635 28.9149C26.1593 28.9112 26.1413 28.8949 26.1187 28.8768L24.993 30.2814C24.9816 30.2722 24.9731 30.2649 24.9695 30.2618C24.9654 30.2582 24.9624 30.2556 24.9614 30.2546C24.9596 30.2531 24.9592 30.2526 24.9627 30.2559L26.1808 28.9306ZM26.099 28.8639C26.0974 28.8627 26.0957 28.8615 26.094 28.8603L25.0495 30.3262C25.0502 30.3267 25.051 30.3273 25.0519 30.328L26.099 28.8639ZM26.2316 28.9566C26.1928 28.9313 26.1514 28.9024 26.1098 28.8717L25.0411 30.3201C25.1059 30.3679 25.1765 30.4175 25.2496 30.4651L26.2316 28.9566ZM26.7008 29.217C26.5401 29.1441 26.3848 29.0582 26.2381 28.9609L25.2432 30.4609C25.4702 30.6115 25.7096 30.7439 25.9574 30.8563L26.7008 29.217ZM27.2959 29.3723C27.0745 29.3347 26.8593 29.2759 26.6509 29.1961L26.0073 30.8772C26.3273 30.9996 26.6569 31.0895 26.9942 31.1469L27.2959 29.3723ZM27.9601 29.3641C27.7179 29.389 27.4768 29.389 27.2374 29.3643L27.0527 31.1548C27.4155 31.1923 27.7803 31.1921 28.1443 31.1547L27.9601 29.3641ZM28.5442 29.1966C28.3363 29.2761 28.1218 29.3346 27.9012 29.3722L28.2033 31.1466C28.5394 31.0894 28.8681 30.9998 29.1871 30.8779L28.5442 29.1966ZM28.9704 28.9526C28.8206 29.0533 28.6608 29.1418 28.4938 29.2176L29.2374 30.8568C29.4913 30.7417 29.7385 30.6052 29.9743 30.4467L28.9704 28.9526ZM29.0295 28.9101C29.0015 28.9302 28.9786 28.9467 28.9557 28.9627L29.989 30.4366C30.0221 30.4134 30.0537 30.3907 30.0803 30.3716L29.0295 28.9101ZM29.0939 28.864C29.0711 28.8802 29.049 28.8961 29.0295 28.9101L30.0803 30.3716C30.1005 30.357 30.118 30.3444 30.1354 30.3321L29.0939 28.864ZM29.0472 28.8994C29.0481 28.8986 29.0482 28.8985 29.047 28.8996C29.0458 28.9006 29.0439 28.9022 29.0407 28.9049L30.1887 30.2912C30.1993 30.2824 30.2156 30.2688 30.2335 30.2532L29.0472 28.8994ZM29.289 28.6796C29.2193 28.7494 29.1443 28.818 29.0637 28.8853L30.217 30.2673C30.338 30.1663 30.4533 30.0611 30.5628 29.9515L29.289 28.6796ZM29.4928 28.4559C29.43 28.5318 29.3621 28.6064 29.289 28.6796L30.5628 29.9515C30.6744 29.8396 30.7802 29.7236 30.8797 29.6033L29.4928 28.4559ZM29.5368 28.4056C29.5337 28.409 29.5276 28.4158 29.5212 28.4229C29.5174 28.4271 29.5012 28.4451 29.4832 28.4677L30.8893 29.5915C30.8802 29.6029 30.8729 29.6113 30.8698 29.6149C30.8662 29.6191 30.8636 29.622 30.8627 29.6231C30.8611 29.6248 30.8607 29.6252 30.864 29.6217L29.5368 28.4056ZM29.4704 28.4873C29.4691 28.4891 29.4679 28.4907 29.4668 28.4923L30.934 29.535C30.9346 29.5342 30.9352 29.5334 30.9357 29.5326L29.4704 28.4873ZM29.5629 28.3546C29.5376 28.3935 29.5087 28.435 29.4781 28.4766L30.928 29.5433C30.9758 29.4784 31.0252 29.4077 31.0728 29.3345L29.5629 28.3546ZM29.823 27.8844C29.7502 28.0455 29.6643 28.2011 29.5671 28.3481L31.0685 29.341C31.2188 29.1136 31.351 28.874 31.4632 28.626L29.823 27.8844ZM29.9787 27.2858C29.9411 27.5084 29.8822 27.7247 29.8023 27.9343L31.4839 28.5761C31.6065 28.255 31.6963 27.9241 31.7535 27.5857L29.9787 27.2858ZM29.9946 27.182C29.9931 27.1927 29.9916 27.2034 29.99 27.2141L31.7707 27.4769C31.7731 27.4608 31.7754 27.4447 31.7776 27.4285L29.9946 27.182ZM31.7719 27.469C31.7734 27.4579 31.7749 27.4472 31.7764 27.437L29.9958 27.1735C29.9933 27.1903 29.991 27.2065 29.9889 27.222L31.7719 27.469ZM29.3684 28.7949C29.3838 28.7026 29.4105 28.6326 29.4265 28.595C29.4439 28.5539 29.4611 28.5221 29.4726 28.5021C29.495 28.4632 29.515 28.4357 29.5231 28.4249L30.9682 29.498C30.9821 29.4793 31.0071 29.4445 31.0331 29.3993C31.0478 29.3736 31.1164 29.2566 31.144 29.0904L29.3684 28.7949ZM30.9937 29.4618C31.0021 29.4493 31.0179 29.4253 31.0349 29.3955C31.0432 29.381 31.058 29.3542 31.0737 29.3199C31.0823 29.301 31.1237 29.2122 31.144 29.0906L29.3685 28.7947C29.38 28.7256 29.3973 28.6725 29.4073 28.644C29.4185 28.6125 29.4293 28.5874 29.4368 28.5711C29.4514 28.5391 29.4648 28.5152 29.4712 28.5039C29.4846 28.4804 29.4953 28.4644 29.4976 28.461L30.9937 29.4618ZM28.0507 31.1703C28.061 31.1688 28.0716 31.1673 28.0828 31.1657L27.835 29.3828C27.8194 29.385 27.8033 29.3873 27.7866 29.3898L28.0507 31.1703ZM27.827 29.384C27.8164 29.3856 27.8057 29.3871 27.795 29.3886L28.0423 31.1715C28.0584 31.1693 28.0746 31.167 28.0907 31.1646L27.827 29.384ZM27.4012 29.3886C27.3906 29.3871 27.3799 29.3856 27.3692 29.384L27.1055 31.1646C27.1216 31.1669 27.1378 31.1693 27.154 31.1715L27.4012 29.3886ZM27.1135 31.1657C27.1247 31.1673 27.1353 31.1688 27.1455 31.1703L27.4097 29.3898C27.3929 29.3873 27.3768 29.385 27.3613 29.3828L27.1135 31.1657ZM25.7908 28.7615C25.8834 28.7769 25.9535 28.8038 25.9912 28.8198C26.0324 28.8373 26.0642 28.8546 26.0842 28.8662C26.1232 28.8886 26.1506 28.9087 26.1615 28.9168L25.0863 30.3604C25.105 30.3743 25.1398 30.3994 25.1851 30.4255C25.2106 30.4402 25.3279 30.5091 25.4945 30.5369L25.7908 28.7615ZM25.1225 30.386C25.1349 30.3943 25.159 30.4102 25.1888 30.4272C25.2034 30.4356 25.2301 30.4504 25.2645 30.4662C25.2834 30.4749 25.3724 30.5165 25.4943 30.5369L25.791 28.7615C25.8602 28.7731 25.9135 28.7904 25.9421 28.8006C25.9736 28.8117 25.9988 28.8227 26.0151 28.8302C26.0472 28.8449 26.0711 28.8583 26.0825 28.8647C26.1059 28.8781 26.1219 28.8889 26.1253 28.8912L25.1225 30.386ZM23.417 27.4398C23.4185 27.45 23.42 27.4607 23.4216 27.4719L25.2045 27.2248C25.2024 27.2093 25.2001 27.1931 25.1976 27.1764L23.417 27.4398ZM25.2034 27.2169C25.2018 27.2062 25.2003 27.1955 25.1988 27.1848L23.4158 27.4313C23.418 27.4475 23.4203 27.4636 23.4227 27.4798L25.2034 27.2169ZM25.1988 26.7893C25.2003 26.7786 25.2018 26.7679 25.2034 26.7572L23.4227 26.4943C23.4203 26.5105 23.418 26.5266 23.4158 26.5428L25.1988 26.7893ZM23.4216 26.5022C23.42 26.5135 23.4185 26.5241 23.417 26.5343L25.1976 26.7977C25.2001 26.781 25.2024 26.7648 25.2045 26.7493L23.4216 26.5022ZM25.825 25.1764C25.8096 25.2687 25.7829 25.3387 25.7669 25.3763C25.7495 25.4174 25.7323 25.4492 25.7208 25.4692C25.6984 25.5081 25.6784 25.5355 25.6703 25.5464L24.2252 24.4733C24.2113 24.492 24.1863 24.5268 24.1603 24.572C24.1456 24.5977 24.077 24.7147 24.0494 24.8809L25.825 25.1764ZM24.1997 24.5095C24.1914 24.5219 24.1756 24.546 24.1585 24.5758C24.1503 24.5903 24.1355 24.6171 24.1197 24.6514C24.1111 24.6703 24.0697 24.7591 24.0494 24.8808L25.825 25.1765C25.8135 25.2455 25.7962 25.2987 25.7861 25.3272C25.775 25.3587 25.7641 25.3838 25.7566 25.4002C25.742 25.4322 25.7287 25.4561 25.7222 25.4674C25.7088 25.4908 25.6981 25.5069 25.6959 25.5102L24.1997 24.5095ZM27.1427 22.801C27.1325 22.8025 27.1219 22.804 27.1106 22.8056L27.3585 24.5884C27.374 24.5863 27.3901 24.584 27.4069 24.5815L27.1427 22.801ZM27.3664 24.5873C27.3771 24.5857 27.3877 24.5842 27.3984 24.5827L27.1512 22.7998C27.135 22.802 27.1189 22.8043 27.1027 22.8067L27.3664 24.5873ZM27.7922 24.5827C27.8029 24.5842 27.8136 24.5857 27.8242 24.5873L28.0879 22.8067C28.0718 22.8043 28.0556 22.802 28.0395 22.7998L27.7922 24.5827ZM28.08 22.8056C28.0688 22.804 28.0582 22.8025 28.0479 22.801L27.7838 24.5815C27.8005 24.584 27.8167 24.5863 27.8321 24.5884L28.08 22.8056ZM29.4026 25.2098C29.31 25.1943 29.2398 25.1675 29.2022 25.1514C29.161 25.134 29.1292 25.1166 29.1092 25.1051C29.0702 25.0827 29.0428 25.0626 29.0319 25.0545L30.1071 23.6109C30.0884 23.597 30.0537 23.5719 30.0084 23.5458C29.9828 23.5311 29.8656 23.4622 29.699 23.4344L29.4026 25.2098ZM30.071 23.5853C30.0585 23.577 30.0345 23.5611 30.0046 23.5441C29.9901 23.5357 29.9633 23.5209 29.9289 23.5051C29.9101 23.4964 29.821 23.4548 29.699 23.4344L29.4025 25.2098C29.3332 25.1982 29.2799 25.1808 29.2513 25.1707C29.2198 25.1595 29.1946 25.1486 29.1782 25.1411C29.1462 25.1264 29.1223 25.113 29.1109 25.1065C29.0875 25.0931 29.0715 25.0823 29.0681 25.0801L30.071 23.5853ZM31.7764 26.5315C31.7749 26.5213 31.7734 26.5106 31.7719 26.4994L29.9889 26.7465C29.991 26.762 29.9933 26.7782 29.9958 26.7949L31.7764 26.5315ZM29.99 26.7544C29.9916 26.7651 29.9931 26.7758 29.9946 26.7865L31.7777 26.54C31.7754 26.5238 31.7731 26.5076 31.7707 26.4915L29.99 26.7544ZM33.4554 27.2231C33.4665 27.1423 33.4719 27.0602 33.4714 26.9774L31.6714 26.9882C31.6714 26.9858 31.6716 26.9824 31.6722 26.9781L33.4554 27.2231ZM33.4714 26.9778C33.4649 25.8137 33.1204 24.607 32.4153 23.6237L30.9526 24.6727C31.4177 25.3213 31.6668 26.1557 31.6714 26.9879L33.4714 26.9778ZM32.4167 23.6257C31.6966 22.6159 30.7243 21.8695 29.5568 21.4393L28.9344 23.1282C29.7601 23.4326 30.4396 23.9534 30.9512 24.6708L32.4167 23.6257ZM29.5568 21.4393C27.3102 20.6114 24.6337 21.3382 23.1113 23.1863L24.5007 24.3308C25.5373 23.0723 27.4072 22.5655 28.9344 23.1282L29.5568 21.4393ZM23.1113 23.1864C22.3099 24.1594 21.8376 25.3119 21.7359 26.5741L23.5301 26.7187C23.6019 25.8277 23.9304 25.0231 24.5007 24.3307L23.1113 23.1864ZM21.7358 26.5757C21.6422 27.7638 21.9445 28.9903 22.5536 30.0015L24.0954 29.0727C23.6743 28.3735 23.467 27.5197 23.5302 26.7171L21.7358 26.5757ZM22.5529 30.0004C23.093 30.9 23.896 31.6881 24.8546 32.1834L25.6809 30.5843C25.0406 30.2535 24.4772 29.7086 24.0961 29.0738L22.5529 30.0004ZM25.0124 30.5208C25.0078 30.5222 25.0029 30.5237 24.9979 30.5252L25.5115 32.2503C25.5151 32.2492 25.5189 32.2481 25.523 32.2469L25.0124 30.5208ZM24.9986 30.5249C23.1854 31.063 21.5168 32.1857 20.3173 33.7087L21.7314 34.8224C22.7004 33.5919 24.0538 32.6829 25.5107 32.2506L24.9986 30.5249ZM20.3164 33.7098C19.047 35.3271 18.2861 37.271 18.1285 39.3623L19.9234 39.4975C20.0542 37.7618 20.6832 36.1577 21.7323 34.8212L20.3164 33.7098ZM18.1288 39.3588C18.1091 39.6068 18.103 39.8485 18.1001 40.073L19.8999 40.0968C19.9027 39.8846 19.9082 39.6896 19.9231 39.501L18.1288 39.3588ZM18.1 40.0849C18.1 41.03 18.8588 41.8946 19.8651 41.8946V40.0946C19.8841 40.0946 19.8983 40.0991 19.9059 40.1025C19.9125 40.1055 19.9127 40.1071 19.9096 40.1038C19.9065 40.1005 19.9035 40.096 19.9017 40.0916C19.9001 40.0877 19.9 40.0856 19.9 40.0849H18.1ZM19.8651 41.8946H21.3992V40.0946H19.8651V41.8946ZM21.3992 41.8946H25.099V40.0946H21.3992V41.8946ZM25.099 41.8946H29.56V40.0946H25.099V41.8946ZM29.56 41.8946H33.4184V40.0946H29.56V41.8946ZM33.4184 41.8946C33.6236 41.8946 33.8292 41.8959 34.0383 41.8973L34.0499 40.0973C33.8418 40.096 33.6303 40.0946 33.4184 40.0946V41.8946ZM34.0383 41.8973C34.4467 41.8999 34.8683 41.9027 35.2918 41.8948L35.2584 40.0952C34.8612 40.1025 34.4621 40.1 34.0499 40.0973L34.0383 41.8973ZM35.2482 41.8946C35.288 41.8958 35.328 41.8955 35.3681 41.8937L35.2865 40.0955C35.2916 40.0953 35.2968 40.0952 35.302 40.0954L35.2482 41.8946ZM35.3273 41.8946C35.3507 41.8946 35.3695 41.8937 35.3804 41.893C35.3861 41.8927 35.3907 41.8924 35.3934 41.8922C35.3948 41.8921 35.396 41.892 35.3967 41.8919C35.397 41.8919 35.3973 41.8919 35.3975 41.8919C35.3976 41.8918 35.3976 41.8918 35.3977 41.8918C35.3977 41.8918 35.3977 41.8918 35.3977 41.8918C35.3977 41.8918 35.3977 41.8918 35.3977 41.8918C35.3977 41.8918 35.3977 41.8918 35.3977 41.8918C35.3981 41.8918 35.396 41.892 35.3935 41.8922C35.3907 41.8924 35.3862 41.8927 35.3805 41.893C35.3696 41.8937 35.3508 41.8946 35.3274 41.8946V40.0946C35.3041 40.0946 35.2853 40.0955 35.2743 40.0962C35.2686 40.0965 35.2641 40.0968 35.2613 40.097C35.2599 40.0971 35.2588 40.0972 35.2581 40.0973C35.2577 40.0973 35.2574 40.0973 35.2573 40.0973C35.2572 40.0973 35.2571 40.0973 35.2571 40.0973C35.257 40.0973 35.257 40.0973 35.257 40.0973C35.257 40.0973 35.257 40.0973 35.257 40.0973C35.257 40.0973 35.257 40.0973 35.257 40.0973C35.2566 40.0974 35.2588 40.0972 35.2613 40.097C35.264 40.0968 35.2686 40.0965 35.2742 40.0962C35.2852 40.0955 35.3039 40.0946 35.3273 40.0946V41.8946ZM35.3743 41.8934C36.2902 41.8457 37.0952 41.1007 37.0895 40.0798L35.2896 40.0899C35.2896 40.0945 35.2892 40.0967 35.2891 40.097C35.289 40.0973 35.2891 40.0967 35.2896 40.0956C35.2906 40.0932 35.2918 40.0918 35.2919 40.0917C35.2919 40.0917 35.2919 40.0917 35.2918 40.0918C35.2918 40.0918 35.2917 40.0919 35.2917 40.0919C35.2915 40.0921 35.2912 40.0923 35.2909 40.0925C35.2902 40.093 35.2893 40.0935 35.2882 40.094C35.286 40.095 35.2835 40.0957 35.2806 40.0958L35.3743 41.8934ZM37.0895 40.0806C37.083 38.0817 36.5061 36.0574 35.3796 34.3996L33.8908 35.4113C34.7997 36.7488 35.2841 38.4169 35.2895 40.0865L37.0895 40.0806ZM35.3793 34.3991C34.2433 32.7301 32.6815 31.4606 30.828 30.7426L30.1778 32.4211C31.6751 33.0011 32.9508 34.0301 33.8912 35.4118L35.3793 34.3991ZM30.8291 30.743C30.6161 30.6602 30.4001 30.5861 30.1818 30.5208L29.6658 32.2453C29.8387 32.297 30.0092 32.3555 30.1768 32.4206L30.8291 30.743ZM30.3499 32.1758C31.9101 31.3373 33.1095 29.7701 33.3802 27.9599L31.6 27.6937C31.4204 28.895 30.6017 29.997 29.4978 30.5903L30.3499 32.1758ZM33.3802 27.9601C33.4181 27.7069 33.454 27.4256 33.4633 27.129L31.6642 27.0723C31.6582 27.2644 31.6343 27.4649 31.6001 27.6935L33.3802 27.9601ZM33.5231 39.2833C33.5237 39.2878 33.5243 39.2922 33.5249 39.2966L35.3085 39.0537C35.3077 39.0482 35.307 39.0427 35.3062 39.0373L33.5231 39.2833ZM35.3091 39.0596C35.3085 39.0551 35.308 39.0506 35.3074 39.0462L33.5219 39.2744C33.5226 39.2799 33.5233 39.2853 33.524 39.2907L35.3091 39.0596ZM34.4167 38.2751H34.4166V40.0751H34.4167V38.2751ZM33.5109 39.1956C33.5138 39.2203 33.5165 39.245 33.5191 39.2697L35.3092 39.0806C35.306 39.0502 35.3026 39.0199 35.2991 38.9895L33.5109 39.1956ZM33.1038 37.6353C33.2975 38.1472 33.435 38.6785 33.5145 39.2227L35.2956 38.9625C35.1973 38.2901 35.0273 37.6324 34.7873 36.9982L33.1038 37.6353ZM32.5985 36.6423C32.7944 36.9628 32.9655 37.3049 33.1149 37.6632L34.7762 36.9703C34.5959 36.5379 34.3841 36.1122 34.1343 35.7035L32.5985 36.6423ZM32.3057 36.1984C32.4077 36.3438 32.5068 36.4938 32.6006 36.6457L34.1323 35.7002C34.0191 35.5169 33.9005 35.3374 33.7791 35.1645L32.3057 36.1984ZM32.2913 36.1805C32.3012 36.1937 32.3158 36.2132 32.3316 36.2334L33.7533 35.1295C33.7472 35.1216 33.7406 35.1129 33.7294 35.098L32.2913 36.1805ZM32.2631 36.1436C32.2694 36.1516 32.2765 36.1609 32.2913 36.1805L33.7294 35.098C33.7167 35.0811 33.6963 35.054 33.6738 35.0256L32.2631 36.1436ZM32.0966 35.9347C32.1614 36.0122 32.204 36.064 32.242 36.1159L33.6949 35.0533C33.6176 34.9476 33.5391 34.8538 33.477 34.7796L32.0966 35.9347ZM31.3836 35.2008C31.6352 35.4231 31.873 35.6699 32.099 35.9377L33.4745 34.7766C33.1989 34.4502 32.9004 34.139 32.5752 33.8518L31.3836 35.2008ZM31.2349 35.0736L31.3938 35.2097L32.565 33.8429L32.4061 33.7067L31.2349 35.0736ZM31.0651 34.8541C31.05 34.8277 31.0036 34.7451 30.9742 34.6282C30.9561 34.5562 30.8639 34.1597 31.1749 33.8104C31.4837 33.4637 31.8853 33.507 31.9568 33.5159C32.0751 33.5304 32.162 33.5657 32.19 33.5772C32.2576 33.6052 32.306 33.6354 32.3162 33.6416C32.3347 33.653 32.3486 33.6626 32.3553 33.6672C32.3769 33.6823 32.3897 33.693 32.3823 33.687L31.2587 35.0933C31.2682 35.1008 31.2953 35.1226 31.3264 35.1442C31.3355 35.1505 31.3515 35.1615 31.3717 35.1739C31.3836 35.1813 31.4334 35.2122 31.502 35.2406C31.5305 35.2524 31.6179 35.2877 31.7365 35.3023C31.8084 35.3112 32.2101 35.3545 32.5191 35.0076C32.8302 34.6582 32.7381 34.2615 32.7198 34.1891C32.6904 34.0719 32.6438 33.9889 32.6284 33.962L31.0651 34.8541ZM31.2904 35.1117C31.3044 35.1215 31.2901 35.1119 31.2727 35.0981C31.2636 35.0909 31.2381 35.0704 31.2073 35.0399C31.1914 35.0241 31.167 34.9987 31.14 34.9647C31.115 34.9332 31.0724 34.8753 31.0338 34.7943L32.6597 34.0218C32.5898 33.8749 32.4965 33.7834 32.4752 33.7622C32.4392 33.7265 32.4072 33.7005 32.3907 33.6874C32.3585 33.6619 32.3263 33.6397 32.3237 33.6378L31.2904 35.1117ZM31.2068 35.0482C31.2346 35.0716 31.2589 35.0892 31.2672 35.0952C31.2775 35.1027 31.2877 35.1098 31.2904 35.1117L32.3236 33.6378C32.318 33.6339 32.3201 33.6354 32.3234 33.6377C32.3255 33.6392 32.3302 33.6426 32.3363 33.6473C32.342 33.6517 32.3525 33.6598 32.3656 33.6708L31.2068 35.0482ZM31.2201 35.0593C31.2236 35.062 31.2264 35.0643 31.2288 35.0661L32.3436 33.6529C32.3353 33.6464 32.3275 33.6403 32.3201 33.6346L31.2201 35.0593ZM31.1602 35.0096L31.1845 35.0304L32.3557 33.6636L32.3314 33.6427L31.1602 35.0096ZM32.3391 33.6509C32.3161 33.6311 32.3378 33.6489 32.3634 33.6742C32.3679 33.6786 32.3765 33.6872 32.3871 33.6984C32.3924 33.7041 32.4207 33.734 32.4521 33.776C32.4629 33.7904 32.5088 33.8515 32.5492 33.9398C32.5677 33.9802 32.6129 34.0848 32.6267 34.228C32.6409 34.3752 32.6287 34.6864 32.3706 34.9473C32.1285 35.192 31.8422 35.2144 31.7295 35.2142C31.6057 35.2141 31.5113 35.188 31.4722 35.1763C31.3882 35.1511 31.3274 35.1189 31.3113 35.1105C31.2675 35.0874 31.2354 35.0656 31.2287 35.0611C31.2164 35.0528 31.2068 35.0459 31.2019 35.0423C31.1917 35.0349 31.1842 35.0291 31.1815 35.027C31.1723 35.0199 31.1673 35.0156 31.1739 35.0211L32.3177 33.6312C32.3115 33.6261 32.2982 33.6152 32.2845 33.6045C32.2807 33.6016 32.2722 33.5951 32.2614 33.5872C32.2561 33.5833 32.2463 33.5762 32.2337 33.5678C32.2268 33.5631 32.1945 33.5412 32.1506 33.5181C32.1344 33.5096 32.0735 33.4774 31.9896 33.4522C31.9504 33.4405 31.856 33.4144 31.7322 33.4142C31.6195 33.4141 31.3332 33.4365 31.0911 33.6812C30.833 33.9421 30.8208 34.2533 30.835 34.4005C30.8488 34.5437 30.894 34.6483 30.9124 34.6887C30.9529 34.7771 30.9989 34.8382 31.0097 34.8527C31.0411 34.8948 31.0695 34.9248 31.0751 34.9307C31.0858 34.9421 31.0946 34.951 31.0994 34.9556C31.1153 34.9714 31.1292 34.9838 31.1311 34.9855C31.1362 34.9902 31.141 34.9943 31.1444 34.9974C31.1516 35.0037 31.1592 35.0102 31.1663 35.0163L32.3391 33.6509ZM31.1895 35.0361C31.1963 35.0412 31.202 35.0455 31.2075 35.0497L32.2979 33.6175C32.2902 33.6117 32.2826 33.6059 32.2761 33.601L31.1895 35.0361ZM31.1222 34.9843C31.1476 35.0044 31.1728 35.0234 31.1895 35.0361L32.2761 33.601C32.2568 33.5864 32.2459 33.5782 32.2368 33.571L31.1222 34.9843ZM30.7099 34.6949C30.8499 34.7837 30.9895 34.883 31.1327 34.9925L32.2262 33.5627C32.0523 33.4297 31.8689 33.2985 31.6744 33.175L30.7099 34.6949ZM29.8563 34.2289C30.1509 34.3646 30.4353 34.5185 30.7059 34.6923L31.6784 33.1776C31.332 32.9552 30.9736 32.7618 30.6093 32.594L29.8563 34.2289ZM28.3992 33.8162C28.9075 33.8983 29.4048 34.0405 29.8852 34.2417L30.5804 32.5813C29.97 32.3257 29.3358 32.1442 28.6864 32.0392L28.3992 33.8162ZM26.7678 33.8202C27.3185 33.7499 27.8753 33.7499 28.4291 33.8205L28.6565 32.0349C27.9522 31.9452 27.2424 31.945 26.5399 32.0347L26.7678 33.8202ZM25.3113 34.2411C25.7917 34.0401 26.2889 33.898 26.7972 33.816L26.5104 32.039C25.8609 32.1438 25.2268 32.3252 24.6164 32.5807L25.3113 34.2411ZM24.3803 34.7655C24.6822 34.5614 25.0041 34.3835 25.3408 34.2281L24.5869 32.5936C24.1719 32.7851 23.7636 33.0097 23.3722 33.2743L24.3803 34.7655ZM23.9607 35.0716C24.0983 34.9648 24.2402 34.8612 24.3837 34.7632L23.3688 33.2766C23.1936 33.3962 23.0222 33.5215 22.8571 33.6496L23.9607 35.0716ZM23.9446 35.086C23.9572 35.0756 23.9758 35.0601 23.9952 35.0434L22.8226 33.6778C22.8153 33.684 22.8072 33.6908 22.7929 33.7027L23.9446 35.086ZM23.91 35.1152C23.9174 35.1088 23.926 35.1015 23.9446 35.086L22.7929 33.7027C22.7769 33.716 22.7509 33.7376 22.7236 33.7615L23.91 35.1152ZM23.7118 35.29C23.7856 35.2217 23.8343 35.1774 23.8828 35.1381L22.7508 33.7386C22.6494 33.8207 22.5596 33.9037 22.4893 33.9689L23.7118 35.29ZM23.0136 36.0402C23.2257 35.7747 23.4606 35.5245 23.7147 35.2873L22.4864 33.9715C22.1753 34.2619 21.8796 34.5758 21.6072 34.9168L23.0136 36.0402ZM22.8924 36.1968L23.0219 36.0297L21.599 34.9272L21.4696 35.0943L22.8924 36.1968ZM22.6782 36.3791C22.6525 36.3953 22.5654 36.4498 22.4397 36.4848C22.3515 36.5093 21.9237 36.6099 21.5673 36.2589C21.2535 35.9497 21.2987 35.5706 21.3045 35.5184C21.3165 35.4106 21.3457 35.3305 21.3558 35.3035C21.3797 35.2395 21.4058 35.1931 21.4116 35.1828C21.4216 35.1647 21.4301 35.1511 21.4342 35.1445C21.4476 35.1233 21.4571 35.1107 21.4515 35.1185L22.9105 36.1726C22.9177 36.1626 22.9376 36.1351 22.9573 36.1038C22.963 36.0947 22.9728 36.0789 22.9839 36.0591C22.9906 36.0469 23.0174 35.999 23.0418 35.934C23.0521 35.9064 23.0814 35.8259 23.0934 35.7177C23.0993 35.6652 23.1445 35.2858 22.8305 34.9765C22.474 34.6254 22.046 34.726 21.9575 34.7506C21.8315 34.7856 21.7439 34.8403 21.7177 34.8568L22.6782 36.3791ZM22.9265 36.1416C22.9357 36.1271 22.9273 36.1409 22.915 36.1581C22.9087 36.1669 22.8898 36.193 22.8612 36.2248C22.8464 36.2413 22.8221 36.2672 22.7889 36.2963C22.7588 36.3227 22.7004 36.3706 22.6166 36.4147L21.7793 34.8213C21.6293 34.9001 21.5391 35.003 21.5215 35.0226C21.488 35.06 21.4638 35.093 21.4519 35.1095C21.4285 35.1422 21.4081 35.1749 21.4062 35.1779L22.9265 36.1416ZM22.8681 36.2266C22.8896 36.1983 22.9058 36.1737 22.9112 36.1654C22.9181 36.1548 22.9246 36.1445 22.9265 36.1416L21.4062 35.1779C21.4025 35.1837 21.4037 35.1819 21.4057 35.1788C21.407 35.1768 21.41 35.1722 21.4142 35.1662C21.4181 35.1605 21.4255 35.1499 21.4355 35.1367L22.8681 36.2266ZM22.8779 36.2138C22.8804 36.2101 22.8826 36.2069 22.8845 36.2043L21.4191 35.159C21.4131 35.1675 21.4073 35.1757 21.402 35.1833L22.8779 36.2138ZM22.8315 36.2754L22.8513 36.2498L21.4285 35.1473L21.4087 35.1729L22.8315 36.2754ZM21.4164 35.1648C21.3978 35.1888 21.4142 35.1666 21.4378 35.1402C21.4419 35.1356 21.45 35.1266 21.4607 35.1155C21.4658 35.1101 21.4947 35.0798 21.5357 35.0459C21.549 35.035 21.6106 34.9834 21.7015 34.9373C21.7421 34.9167 21.8542 34.8624 22.0103 34.8453C22.1823 34.8263 22.5101 34.8486 22.7692 35.1284C22.9939 35.3711 23.0087 35.6446 23.0088 35.7388C23.0089 35.8514 22.9875 35.9379 22.9776 35.9747C22.9564 36.0531 22.929 36.1107 22.9214 36.1267C22.9012 36.1691 22.882 36.2005 22.8779 36.2073C22.8704 36.2195 22.8642 36.229 22.861 36.2339C22.8543 36.244 22.849 36.2516 22.8472 36.2542C22.8407 36.2634 22.837 36.2683 22.8421 36.2614L21.3981 35.1868C21.3932 35.1934 21.3831 35.207 21.3733 35.2209C21.3706 35.2248 21.3647 35.2333 21.3576 35.2441C21.3541 35.2494 21.3477 35.2592 21.3401 35.2717C21.3358 35.2787 21.3165 35.3103 21.2962 35.3528C21.2886 35.3689 21.2612 35.4265 21.24 35.505C21.23 35.5417 21.2086 35.6282 21.2088 35.7409C21.2089 35.8351 21.2237 36.1087 21.4484 36.3513C21.7075 36.6312 22.0353 36.6534 22.2073 36.6345C22.3634 36.6173 22.4755 36.563 22.5162 36.5424C22.6071 36.4963 22.6687 36.4447 22.6821 36.4337C22.7232 36.3997 22.7521 36.3693 22.7575 36.3638C22.7684 36.3525 22.7767 36.3432 22.7811 36.3383C22.7959 36.3217 22.8075 36.3074 22.8091 36.3055C22.8134 36.3002 22.8173 36.2953 22.8202 36.2917C22.8261 36.2843 22.8322 36.2764 22.838 36.2689L21.4164 35.1648ZM22.8555 36.2463C22.8604 36.2391 22.8645 36.2331 22.8685 36.2272L21.3859 35.2065C21.3804 35.2146 21.3749 35.2225 21.3703 35.2293L22.8555 36.2463ZM22.8067 36.3164C22.8255 36.29 22.8434 36.2639 22.8555 36.2463L21.3703 35.2293C21.3564 35.2496 21.3483 35.2613 21.3412 35.2713L22.8067 36.3164ZM22.5287 36.7543C22.6143 36.6052 22.7096 36.4571 22.8142 36.3058L21.3337 35.2819C21.2077 35.4642 21.0838 35.6557 20.9675 35.8584L22.5287 36.7543ZM22.0811 37.6613C22.2117 37.3478 22.3596 37.0456 22.5264 36.7583L20.9698 35.8544C20.7599 36.216 20.5775 36.5898 20.4195 36.9692L22.0811 37.6613ZM21.6804 39.2253C21.7599 38.6798 21.8977 38.1472 22.092 37.6339L20.4086 36.9966C20.1679 37.6323 19.9975 38.2916 19.8992 38.9657L21.6804 39.2253ZM21.6767 39.2637C21.679 39.242 21.6814 39.2203 21.6839 39.1988L19.8958 38.9921C19.8927 39.0189 19.8897 39.0456 19.8869 39.0723L21.6767 39.2637ZM21.1536 38.2711C21.0327 38.27 20.9102 38.2688 20.7876 38.268L20.776 40.068C20.8953 40.0687 21.0148 40.0699 21.1361 40.0711L21.1536 38.2711ZM21.7712 38.2751C21.5677 38.2751 21.3632 38.2732 21.1536 38.2711L21.1361 40.0711C21.3443 40.0731 21.5576 40.0751 21.7712 40.0751V38.2751ZM25.6296 38.2751H21.7712V40.0751H25.6296V38.2751ZM30.0906 38.2751H25.6296V40.0751H30.0906V38.2751ZM33.7904 38.2751H30.0906V40.0751H33.7904V38.2751ZM34.4142 38.2751H33.7904V40.0751H34.4142V38.2751ZM20.7796 38.268C20.7925 38.268 20.8028 38.2682 20.8091 38.2684C20.8122 38.2686 20.8148 38.2687 20.8164 38.2687C20.8178 38.2688 20.819 38.2688 20.8188 38.2688C20.8188 38.2688 20.8188 38.2688 20.8188 38.2688C20.8188 38.2688 20.8188 38.2688 20.8188 38.2688C20.8188 38.2688 20.8188 38.2688 20.8188 38.2688C20.8188 38.2688 20.8188 38.2688 20.8188 38.2688C20.8187 38.2688 20.8187 38.2688 20.8187 38.2688C20.8186 38.2688 20.8184 38.2688 20.8182 38.2688C20.8178 38.2688 20.8172 38.2687 20.8164 38.2687C20.8148 38.2687 20.8122 38.2685 20.809 38.2684C20.8028 38.2682 20.7924 38.268 20.7796 38.268V40.068C20.7668 40.068 20.7564 40.0677 20.7502 40.0675C20.747 40.0674 20.7444 40.0673 20.7428 40.0672C20.7414 40.0672 20.7402 40.0671 20.7404 40.0671C20.7404 40.0671 20.7404 40.0671 20.7404 40.0671C20.7404 40.0671 20.7404 40.0671 20.7404 40.0671C20.7404 40.0671 20.7404 40.0671 20.7404 40.0671C20.7404 40.0671 20.7404 40.0671 20.7405 40.0671C20.7405 40.0671 20.7405 40.0671 20.7406 40.0671C20.7407 40.0671 20.7408 40.0671 20.741 40.0671C20.7414 40.0672 20.7421 40.0672 20.7429 40.0672C20.7444 40.0673 20.747 40.0674 20.7502 40.0675C20.7564 40.0677 20.7668 40.068 20.7796 40.068V38.268ZM21.6712 39.2902C21.6716 39.2878 21.6719 39.2856 21.6722 39.2834L19.889 39.0375C19.8887 39.0403 19.8883 39.0431 19.8879 39.0457L21.6712 39.2902ZM19.8879 39.0463C19.8876 39.0484 19.8874 39.0497 19.887 39.0531L21.6723 39.2828C21.6725 39.2813 21.673 39.2775 21.6733 39.2746L19.8879 39.0463ZM20.476 36.8239L20.4451 36.9017L22.1186 37.5648L22.1494 37.487L20.476 36.8239ZM22.1202 37.5606C22.1293 37.5374 22.1385 37.5142 22.1477 37.4911L20.4776 36.8198C20.4661 36.8484 20.4547 36.8771 20.4435 36.9059L22.1202 37.5606ZM21.4515 35.1185C21.4446 35.128 21.4292 35.1483 21.4164 35.1648L22.838 36.2689C22.8567 36.2449 22.8862 36.2062 22.9105 36.1726L21.4515 35.1185ZM22.8513 36.2498L22.8924 36.1968L21.4696 35.0943L21.4285 35.1473L22.8513 36.2498ZM22.8685 36.2272C22.8721 36.2221 22.8751 36.2177 22.8778 36.2138L21.402 35.1833C21.3963 35.1915 21.3909 35.1993 21.3859 35.2065L22.8685 36.2272ZM25.1761 34.2995C25.198 34.2897 25.2199 34.2801 25.2418 34.2707L24.5282 32.6182C24.5004 32.6302 24.4726 32.6423 24.445 32.6546L25.1761 34.2995ZM24.5238 32.6201L24.4493 32.6527L25.1717 34.3014L25.2462 34.2687L24.5238 32.6201ZM26.6502 32.0177C26.6319 32.0205 26.6126 32.0234 26.591 32.0264L26.843 33.8087C26.8689 33.805 26.8974 33.8009 26.9273 33.7962L26.6502 32.0177ZM26.8528 33.8072C26.8737 33.804 26.8947 33.8009 26.9158 33.7979L26.6617 32.016C26.6349 32.0198 26.6081 32.0237 26.5813 32.0278L26.8528 33.8072ZM28.2795 33.7979C28.3005 33.8009 28.3214 33.804 28.3423 33.8072L28.6138 32.0278C28.5871 32.0237 28.5603 32.0198 28.5336 32.016L28.2795 33.7979ZM28.6041 32.0264C28.5826 32.0233 28.5633 32.0205 28.5451 32.0177L28.268 33.7962C28.2978 33.8009 28.3262 33.805 28.3521 33.8087L28.6041 32.0264ZM30.7459 32.6527L30.672 32.6203L29.9496 34.269L30.0235 34.3014L30.7459 32.6527ZM29.954 34.2709C29.9758 34.2803 29.9975 34.2898 30.0192 34.2995L30.7503 32.6546C30.7228 32.6424 30.6953 32.6304 30.6677 32.6184L29.954 34.2709ZM32.3823 33.687C32.3737 33.6801 32.3547 33.6643 32.3391 33.6509L31.1663 35.0163C31.1892 35.036 31.2263 35.0674 31.2587 35.0933L32.3823 33.687ZM31.1845 35.0304L31.2349 35.0736L32.4061 33.7067L32.3557 33.6635L31.1845 35.0304ZM31.2075 35.0497C31.2123 35.0534 31.2164 35.0565 31.2201 35.0593L32.3202 33.6346C32.3123 33.6285 32.3048 33.6228 32.2979 33.6175L31.2075 35.0497ZM33.0475 37.4911C33.0569 37.5144 33.0662 37.5378 33.0754 37.5613L34.7521 36.9066C34.7408 36.8776 34.7293 36.8487 34.7177 36.8197L33.0475 37.4911ZM34.7504 36.9024L34.7193 36.8239L33.0459 37.4869L33.077 37.5655L34.7504 36.9024Z" fill="#232C36" mask="url(#path-2-outside-1_13010_256949)"/>
<line x1="34.95" y1="28.05" x2="46.05" y2="28.05" stroke="#4BC7B6" stroke-width="1.9" stroke-linecap="round"/>
<line x1="34.95" y1="23.05" x2="44.05" y2="23.05" stroke="#4BC7B6" stroke-width="1.9" stroke-linecap="round"/>
<line x1="36.95" y1="33.05" x2="45.05" y2="33.05" stroke="#4BC7B6" stroke-width="1.9" stroke-linecap="round"/>
</svg>
