<svg width="62" height="62" viewBox="0 0 62 62" fill="none" xmlns="http://www.w3.org/2000/svg">
<circle cx="31" cy="31" r="30" fill="#232C36" stroke="#DBF2EF" stroke-opacity="0.3"/>
<path d="M43.2 31.344C43.2 30.1737 42.2946 29.2133 41.146 29.1151C40.2185 24.9357 36.4709 21.8 32 21.8C27.529 21.8 23.7814 24.9358 22.854 29.1151C21.7062 29.2135 20.8 30.1737 20.8 31.3441V33.9408C20.8 35.0198 21.6805 35.8957 22.7619 35.8957H23.0487C23.5455 35.8957 23.95 35.4936 23.95 34.9963C23.95 34.9594 23.9427 34.9193 23.9358 34.8894C23.9427 34.8596 23.95 34.8195 23.95 34.7826V31.1305C23.95 26.7102 27.5612 23.1131 32 23.1131C36.4397 23.1131 40.05 26.7102 40.05 31.1305V33.8696C40.05 37.4453 37.6693 40.2857 34.2296 41.1508C34.0425 41.0406 33.8002 40.9739 33.4831 40.9739H30.5168C29.9926 40.9739 29.6639 41.1532 29.4745 41.408C29.2933 41.6518 29.2654 41.9307 29.2654 42.087C29.2654 42.2435 29.2936 42.5223 29.4748 42.7659C29.6644 43.0207 29.993 43.2 30.5168 43.2H33.4831C33.9291 43.2 34.2357 43.0709 34.4357 42.8699C34.5853 42.7196 34.6607 42.5435 34.698 42.3892C37.9669 41.519 40.4084 39.0877 41.1387 35.8956H41.2381C42.3195 35.8956 43.2 35.0198 43.2 33.9407V31.344ZM22.6333 31.1304V34.5698C22.3388 34.5101 22.1166 34.2498 22.1166 33.9407V31.344C22.1166 30.9738 22.337 30.6537 22.6553 30.506C22.641 30.7122 22.6333 30.9203 22.6333 31.1304ZM41.8833 33.9407C41.8833 34.2591 41.6477 34.5257 41.34 34.5746C41.3576 34.3424 41.3666 34.1075 41.3666 33.8695V31.1304C41.3666 30.9205 41.3589 30.7126 41.3447 30.507C41.6629 30.6547 41.8833 30.9748 41.8833 31.345L41.8833 33.9407Z" fill="#4BC7B6" stroke="#4BC7B6" stroke-width="0.4"/>
</svg>
