<svg width="62" height="62" viewBox="0 0 62 62" fill="none" xmlns="http://www.w3.org/2000/svg">
<circle cx="31" cy="31" r="30" fill="#232C36" stroke="#DBF2EF" stroke-opacity="0.3"/>
<path d="M27 22.4997C27 24.5343 28.3578 26.2556 30.2143 26.8103V29.6181L29.3536 31.3392L30.2143 33.06V35.1573L29.211 36.1607L30.2143 37.1638V39.1753L29.211 40.1786L30.2143 41.1818V43.0715H31.7581L33.5892 40.3246V38.0894H32.7857V26.8105C34.6422 26.2558 36 24.5345 36 22.5C36 20.0186 33.9814 18 31.5 18C29.0187 18 27.0001 20.0186 27.0001 22.5L27 22.4997ZM32.6251 40.0329L31.2419 42.1075H31.1785V40.7829L30.5746 40.1789L31.1785 39.5749V36.7648L30.5746 36.1609L31.1785 35.5569V32.8327L30.432 31.3394L31.1785 29.8459V26.9836C31.2852 26.9914 31.3915 27 31.5 27C31.6085 27 31.7148 26.9912 31.8215 26.9836V39.054H32.6251L32.6251 40.0329ZM31.5 18.964C33.4495 18.964 35.0359 20.5501 35.0359 22.4999C35.0359 24.4494 33.4498 26.0358 31.5 26.0358C29.5504 26.0358 27.9641 24.4496 27.9641 22.4999C27.9641 20.5503 29.5504 18.964 31.5 18.964Z" fill="#4BC7B6"/>
<path d="M31.5 22.1787C32.209 22.1787 32.7856 21.6018 32.7856 20.893C32.7856 20.1841 32.2087 19.6074 31.5 19.6074C30.791 19.6074 30.2144 20.1843 30.2144 20.893C30.2144 21.602 30.791 22.1787 31.5 22.1787ZM31.5 20.5715C31.6771 20.5715 31.8215 20.7157 31.8215 20.893C31.8215 21.0702 31.6773 21.2145 31.5 21.2145C31.3229 21.2145 31.1785 21.0704 31.1785 20.893C31.1785 20.7159 31.3228 20.5715 31.5 20.5715Z" fill="#4BC7B6"/>
</svg>
