<svg width="62" height="62" viewBox="0 0 62 62" fill="none" xmlns="http://www.w3.org/2000/svg">
<circle cx="31" cy="31" r="30" fill="#232C36" stroke="#DBF2EF" stroke-opacity="0.3"/>
<path d="M40.6549 39.9991L36.6894 36.0454C37.9688 34.4154 38.663 32.4026 38.6605 30.3304C38.6605 27.8558 37.6774 25.4827 35.9277 23.7329C34.1778 21.983 31.8047 21 29.3303 21C26.8558 21 24.4827 21.983 22.7328 23.7329C20.983 25.4826 20 27.8559 20 30.3304C20 32.8049 20.9829 35.178 22.7328 36.9279C24.4826 38.6776 26.8558 39.6607 29.3303 39.6607C31.4023 39.6632 33.4151 38.969 35.0452 37.6896L38.9989 41.6551C39.2179 41.8758 39.5159 42 39.827 42C40.1379 42 40.4361 41.8758 40.6551 41.6551C40.8758 41.436 41 41.1379 41 40.827C41 40.5159 40.8758 40.2179 40.6551 39.9988L40.6549 39.9991ZM22.3325 30.3303C22.3325 28.4743 23.0699 26.6943 24.3821 25.3819C25.6944 24.0694 27.4743 23.3322 29.3305 23.3322C31.1864 23.3322 32.9663 24.0696 34.2785 25.3819C35.591 26.6942 36.3281 28.4741 36.3281 30.3303C36.3281 32.1862 35.5909 33.9662 34.2785 35.2783C32.9662 36.5908 31.1863 37.328 29.3305 37.328C27.4745 37.328 25.6946 36.5908 24.3821 35.2783C23.0698 33.966 22.3325 32.1861 22.3325 30.3303Z" fill="#4BC7B6"/>
</svg>
