<svg width="62" height="62" viewBox="0 0 62 62" fill="none" xmlns="http://www.w3.org/2000/svg">
<circle cx="31" cy="31" r="30" fill="#232C36" stroke="#DBF2EF" stroke-opacity="0.3"/>
<path d="M37.8852 31.4262C37.9199 31.1294 37.943 30.8206 37.943 30.5C37.943 30.1794 37.9199 29.8706 37.8736 29.5738L39.8292 28.0062C40.0028 27.8637 40.0491 27.6025 39.9449 27.4006L38.0935 24.1112C37.9777 23.8975 37.7347 23.8263 37.5264 23.8975L35.2237 24.8475C34.7377 24.4675 34.2285 24.1588 33.6615 23.9213L33.3143 21.4037C33.2796 21.1662 33.0829 21 32.8515 21H29.1485C28.9171 21 28.7319 21.1662 28.6972 21.4037L28.3501 23.9213C27.7831 24.1588 27.2623 24.4794 26.7879 24.8475L24.4851 23.8975C24.2768 23.8144 24.0338 23.8975 23.9181 24.1112L22.0666 27.4006C21.9509 27.6144 21.9972 27.8637 22.1824 28.0062L24.138 29.5738C24.0917 29.8706 24.057 30.1912 24.057 30.5C24.057 30.8087 24.0801 31.1294 24.1264 31.4262L22.1708 32.9937C21.9972 33.1362 21.9509 33.3975 22.0551 33.5994L23.9065 36.8888C24.0223 37.1025 24.2653 37.1738 24.4736 37.1025L26.7763 36.1525C27.2623 36.5325 27.7715 36.8412 28.3385 37.0787L28.6857 39.5963C28.7319 39.8338 28.9171 40 29.1485 40H32.8515C33.0829 40 33.2796 39.8338 33.3028 39.5963L33.6499 37.0787C34.2169 36.8412 34.7377 36.5206 35.2121 36.1525L37.5149 37.1025C37.7232 37.1856 37.9662 37.1025 38.0819 36.8888L39.9334 33.5994C40.0491 33.3856 40.0028 33.1362 39.8176 32.9937L37.8852 31.4262ZM31 34.0625C29.0907 34.0625 27.5285 32.4594 27.5285 30.5C27.5285 28.5406 29.0907 26.9375 31 26.9375C32.9093 26.9375 34.4715 28.5406 34.4715 30.5C34.4715 32.4594 32.9093 34.0625 31 34.0625Z" stroke="#4BC7B6" stroke-width="1.2" stroke-linejoin="round"/>
</svg>
