<svg width="62" height="62" viewBox="0 0 62 62" fill="none" xmlns="http://www.w3.org/2000/svg">
<circle cx="31" cy="31" r="30" fill="#232C36" stroke="#DBF2EF" stroke-opacity="0.3"/>
<path d="M31.5 41.9247C31.3886 41.9247 31.2789 41.897 31.1808 41.8442C28.4743 40.4528 26.1958 38.3534 24.5878 35.7696C22.98 33.1859 22.1029 30.2146 22.0499 27.1717C22.0469 26.2476 22.1306 25.3254 22.3 24.417C22.3351 24.2338 22.4445 24.0733 22.6019 23.9737C22.7595 23.874 22.9513 23.8438 23.1318 23.8905C23.818 24.0664 24.5239 24.1536 25.2322 24.1503C27.3869 24.1607 29.4631 23.3421 31.031 21.8637C31.1571 21.7426 31.3252 21.6748 31.5002 21.6748C31.6751 21.6748 31.8432 21.7426 31.9692 21.8637C33.5371 23.342 35.6132 24.1604 37.7676 24.15C38.4759 24.1535 39.1818 24.0661 39.868 23.8902C40.0485 23.8437 40.2403 23.8737 40.3979 23.9734C40.5553 24.0731 40.6647 24.2336 40.6998 24.4168C40.8692 25.3252 40.9529 26.2476 40.9499 27.1717C40.8969 30.2144 40.0198 33.1861 38.412 35.7696C36.8041 38.3534 34.5256 40.453 31.819 41.8442C31.7209 41.897 31.6115 41.9247 31.5 41.9247ZM23.5165 25.3529C23.4382 25.956 23.3993 26.5635 23.4002 27.1716C23.4499 29.9086 24.2262 32.5832 25.6496 34.9214C27.0728 37.2596 29.0919 39.1777 31.5001 40.4791C33.9084 39.1776 35.9277 37.2596 37.3506 34.9214C38.7739 32.5831 39.5502 29.9086 39.5999 27.1716C39.6008 26.5635 39.5619 25.956 39.4836 25.3529C38.9169 25.4514 38.3429 25.5005 37.7676 25.4999C35.4811 25.5052 33.2644 24.7121 31.4998 23.2573C29.7354 24.7121 27.5188 25.5053 25.2319 25.4999C24.6567 25.5005 24.0832 25.4514 23.5165 25.3529ZM31.0002 34.6011L35.0502 29.8761C35.1981 29.692 35.2389 29.444 35.1582 29.2221C35.0773 29.0003 34.8862 28.8368 34.6546 28.791C34.4229 28.7453 34.1841 28.824 34.025 28.9986L30.5228 33.0841L29.0026 31.0573C28.8579 30.8644 28.6212 30.7633 28.3818 30.7921C28.1424 30.821 27.9366 30.9753 27.8418 31.1971C27.747 31.4189 27.7779 31.6744 27.9226 31.8673L29.9476 34.5673C30.0701 34.7312 30.2607 34.8305 30.4654 34.8368C30.473 34.8374 30.4803 34.8374 30.4874 34.8374C30.6847 34.8374 30.8721 34.7512 31.0002 34.6011Z" fill="#4BC7B6"/>
</svg>
