<svg width="62" height="62" viewBox="0 0 62 62" fill="none" xmlns="http://www.w3.org/2000/svg">
<circle cx="31" cy="31" r="30" fill="#232C36" stroke="#DBF2EF" stroke-opacity="0.3"/>
<path d="M40.577 24.8457H24.4231C23.7803 24.8457 23.1641 25.101 22.7096 25.5553C22.2553 26.0098 22 26.626 22 27.2688V38.5765C22 39.2193 22.2553 39.8355 22.7096 40.29C23.1641 40.7443 23.7803 40.9996 24.4231 40.9996H40.577C41.2198 40.9996 41.836 40.7443 42.2905 40.29C42.7448 39.8355 43.0001 39.2193 43.0001 38.5765V27.2688C43.0001 26.626 42.7448 26.0098 42.2905 25.5553C41.836 25.101 41.2198 24.8457 40.577 24.8457ZM41.3847 38.5765C41.3847 38.7907 41.2996 38.9963 41.1482 39.1477C40.9967 39.2991 40.7912 39.3842 40.577 39.3842H24.4231C24.2089 39.3842 24.0034 39.2991 23.8519 39.1477C23.7005 38.9963 23.6154 38.7907 23.6154 38.5765V27.2688C23.6154 27.0546 23.7005 26.8491 23.8519 26.6976C24.0034 26.5462 24.2089 26.4611 24.4231 26.4611H40.577C40.7912 26.4611 40.9967 26.5462 41.1482 26.6976C41.2996 26.8491 41.3847 27.0546 41.3847 27.2688V38.5765Z" fill="#4BC7B6"/>
<path d="M28.4615 21.6154H36.5385C36.8271 21.6154 37.0937 21.4614 37.238 21.2115C37.3822 20.9617 37.3822 20.6537 37.238 20.4038C37.0937 20.154 36.8271 20 36.5385 20H28.4615C28.1729 20 27.9062 20.154 27.762 20.4038C27.6178 20.6537 27.6178 20.9617 27.762 21.2115C27.9062 21.4614 28.1729 21.6154 28.4615 21.6154Z" fill="#4BC7B6"/>
<path d="M26.0384 24.0382H38.9615C39.2502 24.0382 39.5168 23.8843 39.661 23.6344C39.8053 23.3845 39.8053 23.0766 39.661 22.8267C39.5168 22.5768 39.2502 22.4229 38.9615 22.4229H26.0384C25.7498 22.4229 25.4831 22.5768 25.3389 22.8267C25.1947 23.0766 25.1947 23.3845 25.3389 23.6344C25.4831 23.8843 25.7498 24.0382 26.0384 24.0382Z" fill="#4BC7B6"/>
<path d="M35.8715 31.5499L31.7409 28.9653C31.4129 28.7603 31.0224 28.6799 30.6402 28.7383C30.2582 28.7969 29.9095 28.9905 29.658 29.284C29.4065 29.5777 29.2686 29.9516 29.2693 30.3384V35.5076C29.2684 35.8943 29.4063 36.2686 29.658 36.5625C29.9097 36.8562 30.2584 37.0498 30.6408 37.1082C31.0231 37.1666 31.4138 37.0858 31.7416 36.8807L35.8713 34.296H35.8715C36.3437 34.0009 36.6307 33.4831 36.6307 32.9262C36.6307 32.3693 36.3437 31.8515 35.8715 31.5563L35.8715 31.5499ZM30.8845 35.5076V30.3384L35.0143 32.923L30.8845 35.5076Z" fill="#4BC7B6"/>
</svg>
