<svg width="62" height="62" viewBox="0 0 62 62" fill="none" xmlns="http://www.w3.org/2000/svg">
<circle cx="31" cy="31" r="30" fill="#232C36" stroke="#DBF2EF" stroke-opacity="0.3"/>
<path fill-rule="evenodd" clip-rule="evenodd" d="M31.001 19.5C27.9634 19.5 25.501 21.9624 25.501 25V33C25.501 36.0376 27.9634 38.5 31.001 38.5C34.0385 38.5 36.501 36.0376 36.501 33V25C36.501 21.9624 34.0385 19.5 31.001 19.5ZM26.501 25C26.501 22.5147 28.5157 20.5 31.001 20.5C33.4863 20.5 35.501 22.5147 35.501 25V33C35.501 35.4853 33.4863 37.5 31.001 37.5C28.5157 37.5 26.501 35.4853 26.501 33V25ZM38 29C38 28.4477 38.4477 28 39 28C39.5523 28 40 28.4477 40 29V33C39.9978 37.582 36.5536 41.4309 32 41.94V44H30V41.94C25.4464 41.4309 22.0022 37.582 22 33V29C22 28.4477 22.4477 28 23 28C23.5523 28 24 28.4477 24 29V33C24 36.866 27.134 40 31 40C34.866 40 38 36.866 38 33V29Z" fill="#4BC7B6"/>
</svg>
