<svg width="55" height="49" viewBox="0 0 55 49" fill="none" xmlns="http://www.w3.org/2000/svg">
<path d="M12.2184 16.3603C13.3883 15.2122 13.3883 13.3477 12.2184 12.211C11.0484 11.0626 9.14873 11.0626 7.97852 12.211L7.4108 12.7793L6.84307 12.2224C5.6731 11.0626 3.77344 11.0626 2.61506 12.211C2.04733 12.7681 1.74609 13.5069 1.74609 14.2912C1.74609 15.0757 2.05892 15.8148 2.61506 16.3719L7.4108 21.0781L12.2184 16.3603Z" fill="#EE8C34" fill-opacity="0.3"/>
<path d="M53.252 43.4251C54.422 42.2769 54.422 40.4125 53.252 39.2758C52.0821 38.1274 50.1824 38.1274 49.0122 39.2758L48.4445 39.844L47.8768 39.2871C46.7068 38.1274 44.8071 38.1274 43.6487 39.2758C43.081 39.8329 42.7798 40.5717 42.7798 41.356C42.7798 42.1405 43.0926 42.8795 43.6487 43.4367L48.4445 48.1428L53.252 43.4251Z" fill="#EE8C34" fill-opacity="0.3"/>
<path d="M18.3297 5.01056C19.4997 3.86244 19.4997 1.99802 18.3297 0.861266C17.1597 -0.287089 15.2601 -0.287089 14.0898 0.861266L13.5221 1.42953L12.9544 0.872635C11.7844 -0.287089 9.88477 -0.287089 8.72639 0.861266C8.15866 1.41839 7.85742 2.1572 7.85742 2.94148C7.85742 3.726 8.17025 4.46504 8.72639 5.02216L13.5221 9.72835L18.3297 5.01056Z" fill="#EE8C34" fill-opacity="0.3"/>
<path d="M13.6945 41.4746C15.2245 39.9732 15.2245 37.5351 13.6945 36.0486C12.1645 34.5469 9.68036 34.5469 8.1501 36.0486L7.40769 36.7917L6.66528 36.0634C5.13532 34.5469 2.65115 34.5469 1.13634 36.0486C0.393931 36.7771 0 37.7433 0 38.7689C0 39.7948 0.409082 40.7612 1.13634 41.4897L7.40769 47.644L13.6945 41.4746Z" fill="#EE8C34" fill-opacity="0.5"/>
<path d="M47.9463 9.38708C49.2062 8.15064 49.2062 6.1428 47.9463 4.91861C46.6863 3.68192 44.6405 3.68192 43.3803 4.91861L42.7689 5.53058L42.1575 4.93085C40.8975 3.68192 38.8518 3.68192 37.6043 4.91861C36.9929 5.51858 36.6685 6.31422 36.6685 7.15884C36.6685 8.00371 37.0053 8.7996 37.6043 9.39957L42.7689 14.4678L47.9463 9.38708Z" fill="#EE8C34" fill-opacity="0.5"/>
</svg>
