<svg width="15" height="15" viewBox="0 0 15 15" fill="none" xmlns="http://www.w3.org/2000/svg">
<path d="M10.375 1H4.125C2.39911 1 1 2.39911 1 4.125V10.375C1 12.1009 2.39911 13.5 4.125 13.5H10.375C12.1009 13.5 13.5 12.1009 13.5 10.375V4.125C13.5 2.39911 12.1009 1 10.375 1Z" stroke="#D0D0D0" stroke-width="1.25" stroke-linecap="round" stroke-linejoin="round"/>
<path d="M9.75031 6.85595C9.82744 7.3761 9.73859 7.90734 9.4964 8.37408C9.25422 8.84083 8.87102 9.21933 8.40132 9.45575C7.93162 9.69216 7.39934 9.77445 6.88017 9.69091C6.36101 9.60737 5.88141 9.36225 5.50958 8.99043C5.13775 8.6186 4.89264 8.139 4.8091 7.61983C4.72556 7.10067 4.80785 6.56838 5.04426 6.09868C5.28067 5.62898 5.65917 5.24579 6.12592 5.0036C6.59267 4.76141 7.1239 4.67257 7.64406 4.7497C8.17463 4.82838 8.66584 5.07561 9.04511 5.45489C9.42439 5.83417 9.67163 6.32537 9.75031 6.85595Z" stroke="#D0D0D0" stroke-width="1.25" stroke-linecap="round" stroke-linejoin="round"/>
<path d="M10.6875 3.8125H10.6941" stroke="#D0D0D0" stroke-width="1.25" stroke-linecap="round" stroke-linejoin="round"/>
</svg>
