<svg width="48" height="48" viewBox="0 0 48 48" fill="none" xmlns="http://www.w3.org/2000/svg">
<g clip-path="url(#clip0_13082_259933)">
<circle cx="24" cy="24" r="24" fill="#D1F0EC"/>
<path d="M24.1325 16.5436L20.1757 22.1004C19.9686 22.3912 20.0365 22.7948 20.3273 23.0019L20.3858 23.0436C20.6766 23.2506 21.0802 23.1828 21.2873 22.8919L25.2441 17.3352C25.4512 17.0444 25.3833 16.6407 25.0925 16.4337L25.034 16.392C24.7432 16.1849 24.3396 16.2528 24.1325 16.5436Z" fill="#4BC7B6"/>
<path d="M28.2762 19.4948L24.3194 25.0516C24.1123 25.3424 24.1802 25.746 24.471 25.9531L24.5295 25.9947C24.8203 26.2018 25.2239 26.1339 25.431 25.8431L29.3878 20.2863C29.5949 19.9955 29.527 19.5919 29.2362 19.3848L29.1777 19.3432C28.8869 19.1361 28.4833 19.2039 28.2762 19.4948Z" fill="#4BC7B6"/>
<path d="M-13.9775 40.7778C-13.9775 40.7778 -5.6389 30.2263 -2.23449 38.1138C-1.71929 39.3789 -1.50872 47.6661 4.94702 47.0307C6.33322 46.8943 7.63876 46.3317 8.76149 45.5075C10.7745 44.0297 13.6955 41.3147 14.071 38.8049C14.574 35.4411 13.143 37.9022 13.143 37.9022C13.143 37.9022 8.92343 44.7461 4.39544 45.0209C2.84935 45.1148 1.42318 44.1584 0.824243 42.7299C0.530875 42.0173 0.32958 41.2702 0.225229 40.5067C-0.0171333 38.757 -1.11483 30.7742 -9.06596 33.9963C-10.8865 34.7538 -13.3821 36.0588 -15.4002 39.3934C-17.4184 42.7281 -13.9775 40.7778 -13.9775 40.7778Z" fill="#A2E1D9"/>
<path d="M13.6281 35.2319L12.2069 37.3794C11.7163 38.1207 11.9195 39.1194 12.6608 39.61L12.9453 39.7982C13.6866 40.2888 14.6853 40.0856 15.1759 39.3443L16.5971 37.1967C17.0877 36.4554 16.8844 35.4567 16.1431 34.9661L15.8587 34.7779C15.1174 34.2873 14.1187 34.4905 13.6281 35.2319Z" fill="#A2E1D9"/>
<path d="M14.5936 29.6273L12.4873 32.8101C11.9966 33.5514 12.1999 34.5501 12.9412 35.0407L17.0418 37.7544C17.7832 38.245 18.7818 38.0418 19.2724 37.3005L21.3788 34.1177C21.8694 33.3764 21.6661 32.3777 20.9248 31.8871L16.8242 29.1733C16.0828 28.6827 15.0842 28.886 14.5936 29.6273Z" fill="#4BC7B6"/>
<path d="M17.3255 23.2609L14.1844 28.0073C13.6938 28.7486 13.897 29.7473 14.6384 30.2379L20.8856 34.3723C21.6269 34.8629 22.6256 34.6597 23.1162 33.9183L26.2573 29.172C26.7479 28.4306 26.5447 27.432 25.8034 26.9414L19.5561 22.807C18.8148 22.3164 17.8161 22.5196 17.3255 23.2609Z" fill="#A2E1D9"/>
<path d="M17.3854 21.4224L17.3556 21.4674C17.0286 21.9617 17.1641 22.6274 17.6583 22.9545L26.41 28.7463C26.9042 29.0734 27.57 28.9379 27.8971 28.4437L27.9269 28.3987C28.2539 27.9044 28.1184 27.2387 27.6242 26.9116L18.8725 21.1198C18.3783 20.7927 17.7125 20.9282 17.3854 21.4224Z" fill="#4BC7B6"/>
<path d="M32.2465 29.3272C32.4363 29.2895 32.6332 29.3269 32.7959 29.4315C32.9586 29.5361 33.0744 29.6997 33.1189 29.888L34.9344 36.9442C35.0428 37.3657 34.7925 37.791 34.3839 37.8803L33.8143 38.0044C33.4057 38.0934 33.003 37.8102 32.9286 37.3812L31.6827 30.201C31.646 30.0107 31.6841 29.8137 31.7892 29.6509C31.8942 29.4881 32.0581 29.3721 32.2465 29.3272Z" fill="#EE8C34"/>
<path d="M35.3362 27.6905C35.3879 27.6557 35.4459 27.6315 35.507 27.6191C35.5681 27.6067 35.631 27.6065 35.6922 27.6185C35.7534 27.6305 35.8116 27.6543 35.8635 27.6888C35.9155 27.7233 35.9601 27.7676 35.9949 27.8193L38.7166 31.7048C38.7949 31.815 38.8263 31.9518 38.8038 32.0851C38.7814 32.2184 38.707 32.3374 38.5969 32.4159L38.2793 32.6331C38.2246 32.6697 38.1629 32.6946 38.0981 32.7062C38.0333 32.7178 37.9668 32.7159 37.9028 32.7005C37.8388 32.6851 37.7787 32.6566 37.7263 32.6168C37.6738 32.577 37.6302 32.5268 37.5982 32.4693L35.1941 28.3667C35.1285 28.2567 35.1067 28.1261 35.133 28.0008C35.1593 27.8755 35.2319 27.7648 35.3362 27.6905Z" fill="#EE8C34"/>
<path d="M36.3786 24.6241C36.5263 24.2461 37.0161 24.0951 37.489 24.2816L45.8848 27.5937C46.3863 27.7916 46.6738 28.2906 46.5169 28.6917L46.2985 29.2504C46.1418 29.6513 45.6041 29.7927 45.1156 29.5615L36.9378 25.6905C36.4778 25.4725 36.2309 25.0021 36.3786 24.6241Z" fill="#EE8C34"/>
<path d="M19.3369 12.8488C19.1458 12.8786 18.9506 12.8331 18.7923 12.7219C18.6341 12.6107 18.5251 12.4424 18.4884 12.2525L16.965 5.12755C16.874 4.70192 17.1416 4.28725 17.5535 4.21491L18.1278 4.11437C18.5397 4.04224 18.9304 4.34182 18.9871 4.77344L19.9363 11.9989C19.9651 12.1905 19.9189 12.3859 19.8072 12.5442C19.6956 12.7025 19.5271 12.8116 19.3369 12.8488Z" fill="#EE8C34"/>
<path d="M16.1826 14.357C16.1295 14.3896 16.0705 14.4115 16.009 14.4213C15.9474 14.4311 15.8845 14.4287 15.8239 14.4143C15.7633 14.3998 15.7061 14.3735 15.6556 14.337C15.6052 14.3004 15.5624 14.2543 15.5298 14.2012L12.9703 10.2069C12.8967 10.0935 12.871 9.95558 12.8989 9.8233C12.9268 9.69102 13.006 9.57521 13.1192 9.50128L13.4455 9.29744C13.5017 9.26307 13.5643 9.24072 13.6295 9.2318C13.6948 9.22287 13.7611 9.22756 13.8244 9.24557C13.8877 9.26358 13.9466 9.29452 13.9974 9.33644C14.0481 9.37835 14.0897 9.43034 14.1193 9.4891L16.3524 13.6872C16.4135 13.7998 16.4299 13.9312 16.3984 14.0553C16.3669 14.1794 16.2899 14.2871 16.1826 14.357Z" fill="#EE8C34"/>
<path d="M15.0148 17.3792C14.8516 17.7508 14.356 17.8816 13.8912 17.6757L5.63889 14.0207C5.14593 13.8023 4.87928 13.2919 5.05254 12.8977L5.29381 12.3484C5.46683 11.9543 6.00994 11.8351 6.48849 12.0863L14.4999 16.2907C14.9506 16.5275 15.1779 17.0076 15.0148 17.3792Z" fill="#EE8C34"/>
</g>
<defs>
<clipPath id="clip0_13082_259933">
<rect width="48" height="48" rx="24" fill="white"/>
</clipPath>
</defs>
</svg>
