<svg width="34" height="33" viewBox="0 0 34 33" fill="none" xmlns="http://www.w3.org/2000/svg">
<path fill-rule="evenodd" clip-rule="evenodd" d="M22.7301 3.73533V0.272461H33.3181V10.8185H29.8415V6.18373L25.0666 10.9333C29.2433 16.3008 28.8593 24.0734 23.9153 28.9985C21.335 31.5609 17.84 32.9997 14.1965 32.9997C10.5529 32.9997 7.05789 31.5609 4.47762 28.9985C-0.885926 23.6618 -0.885927 14.9747 4.47445 9.6348C9.41609 4.71044 17.2228 4.32795 22.6116 8.48809L27.3833 3.73533H22.7301ZM14.1964 29.5447C16.9197 29.5447 19.5318 28.4686 21.4595 26.5526C25.4647 22.564 25.4639 16.0734 21.4595 12.084C17.455 8.09469 10.9386 8.09545 6.93331 12.084C2.92805 16.0727 2.92805 22.564 6.93331 26.5526C8.86099 28.4686 11.4731 29.5447 14.1964 29.5447Z" fill="#4BC7B6"/>
</svg>
