<svg width="189" height="168" viewBox="0 0 189 168" fill="none" xmlns="http://www.w3.org/2000/svg">
<circle cx="95.0188" cy="83.6438" r="83.6438" fill="#A2E1D9" fill-opacity="0.5"/>
<g clip-path="url(#clip0_416_16159)">
<path d="M144.406 134.829C149.953 134.829 154.45 125.653 154.45 114.334C154.45 103.016 149.953 93.8398 144.406 93.8398C138.858 93.8398 134.361 103.016 134.361 114.334C134.361 125.653 138.858 134.829 144.406 134.829Z" fill="#EE8C34"/>
<path d="M143.478 147.881C147.501 123.744 143.519 99.695 143.478 99.4551L142.696 99.5876C142.736 99.8264 146.695 123.749 142.695 147.75L143.478 147.881Z" fill="#CACACA"/>
<path d="M135.562 109.928L135.188 110.628L144.27 115.486L144.645 114.786L135.562 109.928Z" fill="#CACACA"/>
<path d="M153.857 112.362L144.775 117.223L145.15 117.923L154.232 113.062L153.857 112.362Z" fill="#CACACA"/>
<path d="M168.54 121.984C179.39 121.984 188.186 104.037 188.186 81.8992C188.186 59.761 179.39 41.8145 168.54 41.8145C157.69 41.8145 148.895 59.761 148.895 81.8992C148.895 104.037 157.69 121.984 168.54 121.984Z" fill="#4BC7B6"/>
<path d="M166.351 147.45C174.209 100.304 166.431 53.3303 166.351 52.8613L165.569 52.9939C165.648 53.4617 173.403 100.309 165.568 147.32L166.351 147.45Z" fill="#CACACA"/>
<path d="M151.064 73.6135L150.689 74.3135L168.455 83.8158L168.829 83.1159L151.064 73.6135Z" fill="#CACACA"/>
<path d="M187.204 78.3746L169.441 87.8818L169.816 88.5817L187.579 79.0744L187.204 78.3746Z" fill="#CACACA"/>
<path d="M122.912 147.576H18.4164C18.0321 147.575 17.6636 147.422 17.3919 147.151C17.1201 146.879 16.9672 146.51 16.9668 146.126V80.0971C16.9672 79.7127 17.1201 79.3443 17.3919 79.0725C17.6636 78.8008 18.0321 78.6479 18.4164 78.6475H122.912C123.296 78.6479 123.665 78.8008 123.937 79.0725C124.208 79.3443 124.361 79.7128 124.362 80.0971V146.126C124.361 146.51 124.208 146.879 123.937 147.151C123.665 147.422 123.296 147.575 122.912 147.576Z" fill="#E4E4E4"/>
<path d="M28.0275 86.6484C27.8628 86.6486 27.7049 86.7141 27.5884 86.8306C27.4719 86.9471 27.4064 87.105 27.4062 87.2697V138.953C27.4064 139.118 27.4719 139.275 27.5884 139.392C27.7049 139.508 27.8628 139.574 28.0275 139.574H113.304C113.468 139.574 113.626 139.508 113.743 139.392C113.859 139.275 113.925 139.118 113.925 138.953V87.2697C113.925 87.105 113.859 86.9471 113.743 86.8306C113.626 86.7141 113.468 86.6486 113.304 86.6484H28.0275Z" fill="white"/>
<path d="M114.131 99.9601V96.685H102.071V86.4414H98.7962V96.685H77.3263V86.4414H74.0513V96.685H40.9368V86.4414H37.6617V96.685H26.2109V99.9601H37.6617V112.696H26.2109V115.971H37.6617V129.618H26.2109V132.893H55.3107V139.781H58.5858V132.893H74.0513V139.781H77.3263V132.893H114.131V129.618H77.3263V115.971H114.131V112.696H102.071V99.9601H114.131ZM74.0513 99.9601V103.963H40.9368V99.9601H74.0513ZM40.9368 107.238H74.0513V112.696H40.9368V107.238ZM40.9368 129.618V115.971H55.3107V129.618H40.9368ZM74.0513 129.618H58.5858V115.971H74.0513V129.618ZM98.7962 112.696H77.3263V99.9601H98.7962V112.696Z" fill="#E6E6E6"/>
<path d="M75.6887 118.932C77.9999 118.932 79.8735 117.058 79.8735 114.747C79.8735 112.436 77.9999 110.562 75.6887 110.562C73.3775 110.562 71.5039 112.436 71.5039 114.747C71.5039 117.058 73.3775 118.932 75.6887 118.932Z" fill="#4BC7B6"/>
<path d="M188.556 147.93H0V147.479H188.638L188.556 147.93Z" fill="#CACACA"/>
<path d="M76.1915 89.888C90.4486 89.888 102.006 78.3304 102.006 64.0734C102.006 49.8164 90.4486 38.2588 76.1915 38.2588C61.9345 38.2588 50.377 49.8164 50.377 64.0734C50.377 78.3304 61.9345 89.888 76.1915 89.888Z" fill="#4BC7B6"/>
<path d="M76.4439 106.038L68.2883 92.1063L60.1328 78.1747L76.2757 78.0776L92.4186 77.9805L84.4312 92.0092L76.4439 106.038Z" fill="#4BC7B6"/>
<path d="M76.3986 73.1732C81.5138 73.1732 85.6605 69.0265 85.6605 63.9113C85.6605 58.7961 81.5138 54.6494 76.3986 54.6494C71.2834 54.6494 67.1367 58.7961 67.1367 63.9113C67.1367 69.0265 71.2834 73.1732 76.3986 73.1732Z" fill="white"/>
<path d="M75.5942 2.06624C75.5942 2.06624 70.0704 0.510241 68.4366 8.05681C66.8028 15.6034 67.8405 14.6526 67.8405 14.6526L80.1717 13.2133C80.1717 13.2133 83.8798 4.36132 75.5942 2.06624Z" fill="#2F2E41"/>
<path d="M67.5602 35.1738C67.5602 35.1738 59.2267 35.5596 60.6699 38.8307C60.7719 39.062 60.8669 39.2786 60.9548 39.4807C61.9864 41.85 63.1738 44.1484 64.5092 46.3608L69.6311 54.8472L71.4949 53.8117L66.2501 40.1777L70.9644 39.7928L67.5602 35.1738Z" fill="#FFB6B6"/>
<path d="M89.5334 38.6378L92.2273 44.5066C92.2273 44.5066 94.2477 46.527 96.4605 54.6086C98.6734 62.6903 99.1544 62.4017 99.1544 62.4017L96.9672 63.1301L87.994 46.8156L83.5684 41.2354L84.9153 38.2529L89.5334 38.6378Z" fill="#FFB6B6"/>
<path d="M86.2624 31.9027L90.1334 39.1076C90.1334 39.1076 98.9098 56.3532 98.0028 56.2959C96.9831 56.2315 94.1191 57.4201 93.2397 58.5739C92.8153 59.1308 86.6129 45.5274 84.4344 42.4859L79.7201 38.8299C79.7201 38.8299 66.3348 41.0828 66.3184 40.3502C66.3103 39.9913 70.75 48.601 69.8388 48.2195C68.8009 47.7849 66.3593 49.8998 65.2829 49.462C64.8388 49.2814 61.7008 41.6732 60.4305 38.5555C60.2712 38.1663 60.2629 37.7317 60.4073 37.3367C60.5517 36.9417 60.8384 36.6149 61.2112 36.4203C62.1658 35.9238 75.4302 32.895 75.4302 32.895L75.1982 31.7103L76.1603 29.7861L86.2624 31.9027Z" fill="#2F2E41"/>
<path d="M78.3249 10.6643C78.6569 8.61879 77.2677 6.69148 75.2222 6.35954C73.1767 6.0276 71.2494 7.41674 70.9174 9.46226C70.5855 11.5078 71.9746 13.4351 74.0202 13.767C76.0657 14.099 77.993 12.7098 78.3249 10.6643Z" fill="#FFB6B6"/>
<path d="M86.6126 32.481C86.8198 33.1026 85.478 33.4596 83.6077 33.1104C81.9894 32.8083 80.2182 32.4494 78.8212 32.1589C77.3251 31.8471 76.2562 31.6143 76.2562 31.6143C76.2562 31.6143 75.8714 34.0196 74.6207 33.7309C73.5431 33.4827 70.323 22.2348 69.4523 19.1262C69.3886 18.8993 69.4009 18.6577 69.4872 18.4383C69.5735 18.219 69.7292 18.0338 69.9304 17.9111L74.3532 15.2105C74.3532 15.2105 77.4011 14.1637 78.5124 14.1339C79.6236 14.1041 81.5478 13.8154 81.5478 13.8154C81.5478 13.8154 83.7606 14.0079 84.1455 15.6434C84.5303 17.279 86.1362 26.9764 86.1659 29.3053C86.1985 31.8598 85.9914 30.6172 86.6126 32.481Z" fill="#CACACA"/>
<path d="M76.0238 5.24414C76.0238 5.24414 74.4678 9.36753 70.6556 11.0791L70.0332 7.42253L76.0238 5.24414Z" fill="#2F2E41"/>
<path d="M78.2772 9.63076C78.5695 9.63076 78.8064 9.17848 78.8064 8.62056C78.8064 8.06264 78.5695 7.61035 78.2772 7.61035C77.985 7.61035 77.748 8.06264 77.748 8.62056C77.748 9.17848 77.985 9.63076 78.2772 9.63076Z" fill="#FFB6B6"/>
<path d="M73.0459 55.8085L65.608 59.228L65.5647 59.134C65.2117 58.3662 65.1782 57.4896 65.4715 56.6971C65.7648 55.9045 66.3609 55.261 67.1287 54.9079L67.1288 54.9078L71.6717 52.8193L73.0459 55.8085Z" fill="#2F2E41"/>
<path d="M95.8574 62.6404L100.42 60.5952L100.42 60.5951C101.191 60.2495 102.068 60.2243 102.858 60.5252C103.647 60.8261 104.285 61.4283 104.631 62.1994L104.673 62.2939L97.2032 65.6425L95.8574 62.6404Z" fill="#2F2E41"/>
<path opacity="0.2" d="M83.5058 23.5762L82.6348 33.1563L84.1832 33.2294L83.5058 23.5762Z" fill="black"/>
<path d="M77.4351 41.4733C77.6196 41.2673 77.7568 41.0233 77.8368 40.7586C77.9169 40.4938 77.9379 40.2147 77.8984 39.941C77.859 39.6672 77.7599 39.4055 77.6084 39.1741C77.4568 38.9428 77.2563 38.7475 77.0211 38.602L73.6748 21.6982L69.832 23.1684L74.3297 39.3219C74.1114 39.7333 74.0517 40.2104 74.1617 40.6629C74.2718 41.1154 74.544 41.5118 74.9268 41.777C75.3096 42.0422 75.7763 42.1577 76.2386 42.1018C76.7009 42.0458 77.1266 41.8222 77.4351 41.4733Z" fill="#FFB6B6"/>
<path d="M74.5208 24.5467L70.3013 25.2899C70.1813 25.3111 70.0581 25.3061 69.9401 25.2753C69.8222 25.2445 69.7122 25.1887 69.6178 25.1116C69.5233 25.0345 69.4466 24.938 69.3928 24.8286C69.3391 24.7192 69.3095 24.5995 69.3062 24.4776L69.1897 20.2078C69.085 19.5929 69.2283 18.9615 69.5883 18.4521C69.9484 17.9428 70.4957 17.597 71.1103 17.4906C71.7249 17.3842 72.3567 17.5259 72.867 17.8846C73.3773 18.2433 73.7245 18.7897 73.8325 19.404L75.1786 23.4433C75.2171 23.559 75.2302 23.6816 75.217 23.8028C75.2039 23.924 75.1648 24.0409 75.1023 24.1456C75.0399 24.2503 74.9557 24.3404 74.8553 24.4096C74.755 24.4788 74.6409 24.5256 74.5208 24.5467H74.5208Z" fill="#CACACA"/>
<path d="M80.6702 41.1759C80.9111 41.0399 81.1192 40.8528 81.2799 40.6277C81.4407 40.4026 81.5501 40.145 81.6005 39.873C81.6509 39.6011 81.641 39.3214 81.5716 39.0536C81.5022 38.7859 81.375 38.5366 81.1988 38.3234L83.4496 21.2393L79.3383 21.3996L78.4186 38.1423C78.08 38.462 77.8704 38.8947 77.8296 39.3586C77.7888 39.8225 77.9195 40.2852 78.197 40.6592C78.4746 41.0331 78.8796 41.2922 79.3354 41.3875C79.7913 41.4827 80.2662 41.4074 80.6702 41.1759Z" fill="#FFB6B6"/>
<path d="M83.3376 24.2087L79.1026 23.5596C78.9821 23.5411 78.867 23.4969 78.7651 23.4299C78.6633 23.363 78.577 23.2748 78.5123 23.1715C78.4476 23.0682 78.4059 22.9522 78.39 22.8313C78.3742 22.7105 78.3846 22.5876 78.4205 22.4711L79.6793 18.3894C79.7773 17.7733 80.1155 17.2213 80.6199 16.8543C81.1242 16.4873 81.7535 16.3353 82.3698 16.4316C82.9861 16.5279 83.539 16.8646 83.9073 17.368C84.2757 17.8714 84.4294 18.5003 84.3347 19.1168L84.3144 23.3744C84.3138 23.4963 84.2869 23.6167 84.2356 23.7273C84.1843 23.8378 84.1097 23.9361 84.017 24.0152C83.9243 24.0944 83.8156 24.1526 83.6984 24.186C83.5811 24.2194 83.4581 24.2271 83.3376 24.2087Z" fill="#CACACA"/>
</g>
<defs>
<clipPath id="clip0_416_16159">
<rect width="188.638" height="145.996" fill="white" transform="translate(0 1.93359)"/>
</clipPath>
</defs>
</svg>
