<svg width="30" height="30" viewBox="0 0 30 30" fill="none" xmlns="http://www.w3.org/2000/svg">
<path d="M22.924 27.3264C21.9074 27.3264 21.0432 26.9705 20.3316 26.2589C19.62 25.5473 19.2642 24.6832 19.2642 23.6666C19.2642 23.5242 19.2743 23.3766 19.2947 23.2237C19.315 23.0716 19.3455 22.9346 19.3862 22.8126L10.7857 17.8109C10.44 18.1159 10.0537 18.3546 9.62672 18.527C9.19974 18.7002 8.75243 18.7868 8.28479 18.7868C7.26818 18.7868 6.40407 18.431 5.69244 17.7194C4.98081 17.0078 4.625 16.1437 4.625 15.127C4.625 14.1104 4.98081 13.2463 5.69244 12.5347C6.40407 11.8231 7.26818 11.4673 8.28479 11.4673C8.75243 11.4673 9.19974 11.5535 9.62672 11.7259C10.0537 11.8991 10.44 12.1382 10.7857 12.4432L19.3862 7.44148C19.3455 7.31949 19.315 7.18245 19.2947 7.03036C19.2743 6.87747 19.2642 6.72985 19.2642 6.58753C19.2642 5.57092 19.62 4.7068 20.3316 3.99517C21.0432 3.28355 21.9074 2.92773 22.924 2.92773C23.9406 2.92773 24.8047 3.28355 25.5163 3.99517C26.2279 4.7068 26.5838 5.57092 26.5838 6.58753C26.5838 7.60414 26.2279 8.46826 25.5163 9.17988C24.8047 9.89151 23.9406 10.2473 22.924 10.2473C22.4563 10.2473 22.009 10.1607 21.582 9.98748C21.1551 9.81506 20.7688 9.57636 20.4231 9.27138L11.8226 14.2731C11.8633 14.3951 11.8938 14.5321 11.9141 14.6842C11.9344 14.8371 11.9446 14.9847 11.9446 15.127C11.9446 15.2694 11.9344 15.4166 11.9141 15.5687C11.8938 15.7216 11.8633 15.859 11.8226 15.981L20.4231 20.9827C20.7688 20.6777 21.1551 20.4386 21.582 20.2654C22.009 20.093 22.4563 20.0068 22.924 20.0068C23.9406 20.0068 24.8047 20.3626 25.5163 21.0742C26.2279 21.7858 26.5838 22.65 26.5838 23.6666C26.5838 24.6832 26.2279 25.5473 25.5163 26.2589C24.8047 26.9705 23.9406 27.3264 22.924 27.3264ZM22.924 7.80746C23.2696 7.80746 23.5591 7.69075 23.7926 7.45734C24.0268 7.22311 24.1439 6.93318 24.1439 6.58753C24.1439 6.24188 24.0268 5.95194 23.7926 5.71772C23.5591 5.4843 23.2696 5.3676 22.924 5.3676C22.5783 5.3676 22.2888 5.4843 22.0554 5.71772C21.8212 5.95194 21.704 6.24188 21.704 6.58753C21.704 6.93318 21.8212 7.22311 22.0554 7.45734C22.2888 7.69075 22.5783 7.80746 22.924 7.80746ZM8.28479 16.347C8.63044 16.347 8.92038 16.2299 9.1546 15.9956C9.38802 15.7622 9.50472 15.4727 9.50472 15.127C9.50472 14.7814 9.38802 14.4915 9.1546 14.2572C8.92038 14.0238 8.63044 13.9071 8.28479 13.9071C7.93915 13.9071 7.64921 14.0238 7.41498 14.2572C7.18157 14.4915 7.06486 14.7814 7.06486 15.127C7.06486 15.4727 7.18157 15.7622 7.41498 15.9956C7.64921 16.2299 7.93915 16.347 8.28479 16.347ZM22.924 24.8865C23.2696 24.8865 23.5591 24.7694 23.7926 24.5352C24.0268 24.3017 24.1439 24.0122 24.1439 23.6666C24.1439 23.3209 24.0268 23.0314 23.7926 22.798C23.5591 22.5637 23.2696 22.4466 22.924 22.4466C22.5783 22.4466 22.2888 22.5637 22.0554 22.798C21.8212 23.0314 21.704 23.3209 21.704 23.6666C21.704 24.0122 21.8212 24.3017 22.0554 24.5352C22.2888 24.7694 22.5783 24.8865 22.924 24.8865Z" fill="#FDFDFD"/>
</svg>
