<svg width="35" height="34" viewBox="0 0 35 34" fill="none" xmlns="http://www.w3.org/2000/svg">
<path d="M33.0417 6.2742L31.4873 5.85929C31.2834 5.80738 31.1243 5.64822 31.0724 5.44439C31.0198 5.24368 31.0777 5.03016 31.2243 4.88339L32.3755 3.73218C32.6709 3.43676 32.7863 3.00618 32.6782 2.60263C32.57 2.19908 32.2548 1.88387 31.8513 1.77574C31.4477 1.66761 31.0172 1.78298 30.7217 2.0784L29.5705 3.22962C29.4238 3.37626 29.2102 3.43409 29.0095 3.38155C28.8057 3.32964 28.6465 3.17048 28.5946 2.96665L28.1797 1.41222C28.0119 0.787717 27.3696 0.417507 26.7451 0.585332C26.1206 0.753157 25.7504 1.39546 25.9182 2.01997L26.3389 3.5744C26.3915 3.77511 26.3337 3.98862 26.187 4.13539C26.0377 4.28178 25.8227 4.33941 25.6202 4.28733L24.0657 3.87243C23.7679 3.79015 23.4495 3.83233 23.1833 3.9893C22.9136 4.14273 22.716 4.39712 22.634 4.69639C22.5573 4.99648 22.5991 5.31462 22.7509 5.58464C22.9073 5.85301 23.1636 6.04844 23.4638 6.1281L25.0183 6.54301C25.2175 6.6008 25.3724 6.75791 25.4273 6.95791C25.4852 7.16042 25.4268 7.37835 25.2754 7.52475L20.6238 12.1822C20.4175 12.3883 20.0908 12.4107 19.8583 12.2348C17.8459 10.7141 15.3915 9.89324 12.8692 9.8973C6.41436 9.8973 1.18172 15.13 1.18172 21.5848C1.18172 28.0396 6.41436 33.2722 12.8692 33.2722C19.324 33.2722 24.5566 28.0396 24.5566 21.5848C24.5607 19.0625 23.7398 16.608 22.2191 14.5957C22.0432 14.3631 22.0656 14.0364 22.2717 13.8301L26.9292 9.17853C27.0759 9.02768 27.2935 8.96935 27.496 9.02659C27.696 9.08156 27.8531 9.23645 27.9109 9.43565L28.3258 10.9901C28.4055 11.2903 28.6009 11.5467 28.8693 11.703C29.1393 11.8548 29.4574 11.8967 29.7575 11.8199C30.3791 11.6504 30.7472 11.0108 30.5815 10.3882L30.1666 8.83375C30.1145 8.63123 30.1721 8.41623 30.3185 8.26691C30.4653 8.12027 30.6788 8.06244 30.8795 8.11497L32.434 8.53572C33.0585 8.70354 33.7008 8.33333 33.8686 7.70883C34.0364 7.08433 33.6662 6.44202 33.0417 6.2742ZM22.2191 21.5848C22.2191 26.7486 18.033 30.9347 12.8692 30.9347C7.70532 30.9347 3.51921 26.7486 3.51921 21.5848C3.51921 16.4209 7.70532 12.2348 12.8692 12.2348C18.0302 12.2416 22.2124 16.4237 22.2191 21.5848Z" fill="#4BC7B6" stroke="#4BC7B6" stroke-width="0.562962"/>
</svg>
