<svg width="26" height="33" viewBox="0 0 26 33" fill="none" xmlns="http://www.w3.org/2000/svg">
<path fill-rule="evenodd" clip-rule="evenodd" d="M12.829 0C19.5519 0 25.0218 5.32228 25.0218 11.8636C25.0218 17.8971 20.369 22.8934 14.3707 23.6325V25.7727H18.4349V28.7728H14.3707V32.7273H11.2875V28.7728H7.22325V25.7727H11.2875V23.6325C5.28924 22.8934 0.636391 17.8971 0.636391 11.8636C0.636391 5.32228 6.10629 0 12.829 0ZM12.829 3C7.8062 3 3.71955 6.97637 3.71955 11.8636C3.71955 16.7509 7.8062 20.7273 12.829 20.7273C17.8519 20.7273 21.9385 16.7509 21.9385 11.8636C21.9385 6.97637 17.8519 3 12.829 3Z" fill="#EE8C34"/>
</svg>
