<svg width="229" height="176" viewBox="0 0 229 176" fill="none" xmlns="http://www.w3.org/2000/svg">
<g clip-path="url(#clip0_18627_417318)">
<path d="M175.035 160.203C181.722 160.203 187.143 149.142 187.143 135.498C187.143 121.853 181.722 110.792 175.035 110.792C168.347 110.792 162.926 121.853 162.926 135.498C162.926 149.142 168.347 160.203 175.035 160.203Z" fill="#EE8C34"/>
<path d="M173.916 175.937C178.766 146.841 173.965 117.85 173.916 117.561L172.973 117.72C173.021 118.008 177.795 146.847 172.972 175.78L173.916 175.937Z" fill="#CACACA"/>
<path d="M164.374 130.186L163.923 131.03L174.872 136.886L175.324 136.042L164.374 130.186Z" fill="#CACACA"/>
<path d="M186.428 133.119L175.48 138.979L175.932 139.823L186.879 133.963L186.428 133.119Z" fill="#CACACA"/>
<path d="M204.127 144.718C217.207 144.718 227.81 123.084 227.81 96.3968C227.81 69.7095 217.207 48.0752 204.127 48.0752C191.048 48.0752 180.445 69.7095 180.445 96.3968C180.445 123.084 191.048 144.718 204.127 144.718Z" fill="#E6E6E6"/>
<path d="M201.489 175.417C210.961 118.584 201.584 61.9577 201.489 61.3923L200.545 61.5521C200.641 62.1161 209.99 118.59 200.545 175.26L201.489 175.417Z" fill="#CACACA"/>
<path d="M183.061 86.4094L182.61 87.2532L204.025 98.7081L204.477 97.8643L183.061 86.4094Z" fill="#CACACA"/>
<path d="M226.627 92.148L205.214 103.609L205.666 104.453L227.079 92.9917L226.627 92.148Z" fill="#CACACA"/>
<path d="M149.125 175.57H23.1567C22.6934 175.569 22.2492 175.385 21.9216 175.057C21.594 174.729 21.4097 174.285 21.4092 173.822V94.225C21.4097 93.7617 21.594 93.3175 21.9216 92.9899C22.2492 92.6623 22.6934 92.4781 23.1567 92.4775H149.125C149.588 92.4781 150.032 92.6624 150.36 92.99C150.687 93.3176 150.872 93.7617 150.872 94.225V173.822C150.872 174.285 150.687 174.729 150.36 175.057C150.032 175.385 149.588 175.569 149.125 175.57Z" fill="#E4E4E4"/>
<path d="M34.7411 102.123C34.5426 102.123 34.3522 102.202 34.2118 102.342C34.0714 102.483 33.9924 102.673 33.9922 102.871V165.175C33.9924 165.373 34.0714 165.564 34.2118 165.704C34.3522 165.844 34.5426 165.923 34.7411 165.924H137.54C137.739 165.923 137.929 165.844 138.07 165.704C138.21 165.564 138.289 165.373 138.289 165.175V102.871C138.289 102.673 138.21 102.483 138.07 102.342C137.929 102.202 137.739 102.123 137.54 102.123H34.7411Z" fill="white"/>
<path d="M138.539 118.17V114.222H124.001V101.873H120.053V114.222H94.1718V101.873H90.2239V114.222H50.3048V101.873H46.3567V114.222H32.553V118.17H46.3567V133.523H32.553V137.471H46.3567V153.921H32.553V157.87H67.6323V166.174H71.5804V157.87H90.2238V166.174H94.1718V157.87H138.539V153.921H94.1718V137.471H138.539V133.523H124.001V118.17H138.539ZM90.2239 118.17V122.995H50.3048V118.17H90.2239ZM50.3048 126.943H90.2239V133.523H50.3048V126.943ZM50.3048 153.921V137.471H67.6323V153.921H50.3048ZM90.2239 153.921H71.5804V137.471H90.2239V153.921ZM120.053 133.523H94.1718V118.17H120.053V133.523Z" fill="#E6E6E6"/>
<path d="M92.1978 141.04C94.9839 141.04 97.2425 138.782 97.2425 135.996C97.2425 133.21 94.9839 130.951 92.1978 130.951C89.4117 130.951 87.1531 133.21 87.1531 135.996C87.1531 138.782 89.4117 141.04 92.1978 141.04Z" fill="#4BC7B6"/>
<path d="M228.257 175.997H0.955566V175.452H228.356L228.257 175.997Z" fill="#CACACA"/>
<path d="M92.8022 106.028C109.989 106.028 123.921 92.0958 123.921 74.9091C123.921 57.7225 109.989 43.79 92.8022 43.79C75.6156 43.79 61.6831 57.7225 61.6831 74.9091C61.6831 92.0958 75.6156 106.028 92.8022 106.028Z" fill="#4BC7B6"/>
<path d="M93.1066 125.496L83.2752 108.702L73.4438 91.9073L92.9039 91.7902L112.364 91.6731L102.735 108.585L93.1066 125.496Z" fill="#4BC7B6"/>
<path d="M93.052 85.8785C99.2183 85.8785 104.217 80.8797 104.217 74.7134C104.217 68.5471 99.2183 63.5483 93.052 63.5483C86.8857 63.5483 81.887 68.5471 81.887 74.7134C81.887 80.8797 86.8857 85.8785 93.052 85.8785Z" fill="white"/>
<path d="M92.0828 0.159901C92.0828 0.159901 85.424 -1.71583 83.4544 7.38145C81.4849 16.4787 82.7359 15.3325 82.7359 15.3325L97.601 13.5975C97.601 13.5975 102.071 2.92659 92.0828 0.159901Z" fill="#2F2E41"/>
<path d="M82.3988 40.0703C82.3988 40.0703 72.3529 40.5353 74.0926 44.4786C74.2155 44.7574 74.33 45.0186 74.436 45.2621C75.6796 48.1183 77.111 50.889 78.7209 53.556L84.8952 63.7862L87.142 62.538L80.8194 46.1024L86.5024 45.6385L82.3988 40.0703Z" fill="#FFB6B6"/>
<path d="M108.886 44.2464L112.134 51.3212C112.134 51.3212 114.569 53.7567 117.237 63.499C119.904 73.2414 120.484 72.8934 120.484 72.8934L117.848 73.7715L107.031 54.1047L101.696 47.3778L103.319 43.7825L108.886 44.2464Z" fill="#FFB6B6"/>
<path d="M104.943 36.1277L109.609 44.8131C109.609 44.8131 120.189 65.6024 119.096 65.5333C117.867 65.4557 114.414 66.8885 113.354 68.2794C112.842 68.9507 105.366 52.552 102.739 48.8855L97.0564 44.4783C97.0564 44.4783 80.9205 47.1941 80.9007 46.311C80.8911 45.8784 86.243 56.2572 85.1446 55.7973C83.8934 55.2734 80.9501 57.8229 79.6525 57.2952C79.1172 57.0775 75.3344 47.9058 73.8031 44.1475C73.611 43.6784 73.601 43.1544 73.7751 42.6783C73.9491 42.2022 74.2947 41.8082 74.7441 41.5736C75.895 40.9751 91.885 37.3239 91.885 37.3239L91.6053 35.8958L92.7651 33.5762L104.943 36.1277Z" fill="#2F2E41"/>
<path d="M95.3744 10.5243C95.7745 8.05843 94.0999 5.73508 91.6341 5.33493C89.1682 4.93479 86.8449 6.60937 86.4447 9.07522C86.0446 11.5411 87.7192 13.8644 90.185 14.2646C92.6509 14.6647 94.9742 12.9901 95.3744 10.5243Z" fill="#FFB6B6"/>
<path d="M105.366 36.8241C105.615 37.5734 103.998 38.0038 101.743 37.5828C99.7924 37.2186 97.6572 36.786 95.9731 36.4357C94.1696 36.06 92.8811 35.7793 92.8811 35.7793C92.8811 35.7793 92.4172 38.6788 90.9095 38.3309C89.6105 38.0316 85.7286 24.4724 84.679 20.7251C84.6023 20.4515 84.6171 20.1603 84.7212 19.8959C84.8252 19.6314 85.0128 19.4082 85.2554 19.2603L90.587 16.0047C90.587 16.0047 94.2613 14.7428 95.6008 14.7069C96.9404 14.6709 99.26 14.323 99.26 14.323C99.26 14.323 101.928 14.555 102.391 16.5266C102.855 18.4983 104.791 30.1884 104.827 32.9958C104.866 36.0752 104.617 34.5773 105.366 36.8241Z" fill="#CACACA"/>
<path d="M92.6007 3.99023C92.6007 3.99023 90.725 8.96092 86.1294 11.0242L85.3792 6.61625L92.6007 3.99023Z" fill="#2F2E41"/>
<path d="M95.3168 9.27884C95.6691 9.27884 95.9547 8.73362 95.9547 8.06105C95.9547 7.38848 95.6691 6.84326 95.3168 6.84326C94.9645 6.84326 94.679 7.38848 94.679 8.06105C94.679 8.73362 94.9645 9.27884 95.3168 9.27884Z" fill="#FFB6B6"/>
<path d="M89.0117 64.946L80.0454 69.0681L79.9932 68.9547C79.5677 68.0291 79.5273 66.9724 79.8809 66.0171C80.2344 65.0617 80.953 64.2859 81.8785 63.8603L81.8788 63.8602L87.3551 61.3425L89.0117 64.946Z" fill="#2F2E41"/>
<path d="M116.511 73.1814L122.011 70.7159L122.011 70.7158C122.941 70.2992 123.998 70.2689 124.95 70.6316C125.902 70.9943 126.671 71.7202 127.087 72.6498L127.138 72.7637L118.133 76.8004L116.511 73.1814Z" fill="#2F2E41"/>
<path opacity="0.2" d="M101.621 26.0901L100.571 37.6387L102.438 37.7269L101.621 26.0901Z" fill="black"/>
<path d="M94.3016 47.6645C94.5241 47.4161 94.6894 47.122 94.7859 46.8029C94.8824 46.4837 94.9077 46.1473 94.8602 45.8173C94.8126 45.4873 94.6932 45.1717 94.5105 44.8928C94.3277 44.6139 94.0861 44.3785 93.8025 44.2031L89.7686 23.8259L85.1362 25.5982L90.5581 45.071C90.295 45.5669 90.223 46.1421 90.3556 46.6875C90.4883 47.233 90.8164 47.7108 91.2779 48.0305C91.7393 48.3502 92.302 48.4895 92.8593 48.4221C93.4166 48.3546 93.9298 48.085 94.3016 47.6645Z" fill="#FFB6B6"/>
<path d="M90.7894 27.2599L85.7029 28.1558C85.5582 28.1812 85.4096 28.1752 85.2674 28.1382C85.1252 28.1011 84.9927 28.0338 84.8789 27.9408C84.765 27.8479 84.6725 27.7316 84.6077 27.5997C84.5429 27.4678 84.5073 27.3235 84.5033 27.1766L84.3629 22.0293C84.2366 21.288 84.4094 20.527 84.8434 19.9129C85.2774 19.2989 85.9372 18.8821 86.6781 18.7538C87.419 18.6255 88.1806 18.7963 88.7957 19.2287C89.4109 19.6611 89.8295 20.3198 89.9597 21.0604L91.5823 25.9297C91.6287 26.0692 91.6445 26.217 91.6287 26.3631C91.6128 26.5091 91.5657 26.6501 91.4904 26.7763C91.4152 26.9026 91.3136 27.0111 91.1927 27.0945C91.0717 27.178 90.9341 27.2344 90.7894 27.2599H90.7894Z" fill="#CACACA"/>
<path d="M98.2017 47.3065C98.4921 47.1426 98.743 46.917 98.9367 46.6457C99.1305 46.3743 99.2624 46.0638 99.3231 45.7359C99.3839 45.4081 99.372 45.0709 99.2883 44.7482C99.2047 44.4254 99.0513 44.1249 98.8389 43.8679L101.552 23.2732L96.5961 23.4664L95.4875 43.6496C95.0793 44.0349 94.8266 44.5566 94.7774 45.1158C94.7282 45.675 94.8858 46.2328 95.2203 46.6836C95.5549 47.1344 96.0432 47.4467 96.5927 47.5615C97.1422 47.6763 97.7147 47.5856 98.2017 47.3065Z" fill="#FFB6B6"/>
<path d="M101.418 26.8523L96.3128 26.0699C96.1675 26.0476 96.0287 25.9943 95.9059 25.9136C95.7831 25.8329 95.6792 25.7266 95.6012 25.6021C95.5231 25.4776 95.4728 25.3377 95.4537 25.192C95.4346 25.0463 95.4472 24.8982 95.4905 24.7577L97.008 19.8372C97.1261 19.0947 97.5338 18.4292 98.1418 17.9868C98.7498 17.5443 99.5084 17.3611 100.251 17.4772C100.994 17.5933 101.661 17.9992 102.105 18.6061C102.549 19.2129 102.734 19.971 102.62 20.7142L102.596 25.8467C102.595 25.9937 102.562 26.1387 102.5 26.272C102.439 26.4053 102.349 26.5237 102.237 26.6191C102.125 26.7146 101.994 26.7848 101.853 26.8251C101.712 26.8653 101.563 26.8746 101.418 26.8523Z" fill="#CACACA"/>
</g>
<defs>
<clipPath id="clip0_18627_417318">
<rect width="227.4" height="175.996" fill="white" transform="translate(0.955566)"/>
</clipPath>
</defs>
</svg>
