<svg width="241" height="167" viewBox="0 0 241 167" fill="none" xmlns="http://www.w3.org/2000/svg">
<g clip-path="url(#clip0_6571_259863)">
<path d="M45.7211 35.8511C53.3228 35.8511 59.4853 29.6998 59.4853 22.1118C59.4853 14.5238 53.3228 8.37256 45.7211 8.37256C38.1194 8.37256 31.957 14.5238 31.957 22.1118C31.957 29.6998 38.1194 35.8511 45.7211 35.8511Z" fill="#EE8C34"/>
<path d="M112.689 73.6601C112.689 106.079 93.3817 117.398 69.565 117.398C45.7484 117.398 26.4412 106.079 26.4412 73.6601C26.4412 41.2415 69.565 0 69.565 0C69.565 0 112.689 41.2415 112.689 73.6601Z" fill="#D1F0EC"/>
<path d="M67.994 112.439L68.4358 85.3076L86.8161 51.7421L68.505 81.0514L68.7035 68.852L81.3713 44.5678L68.756 65.6237L69.113 43.6825L82.678 24.3492L69.1694 40.2322L69.3924 0L67.9902 53.2603L68.1054 51.0631L54.314 29.9911L67.8843 55.2808L66.5993 79.7853L66.5611 79.135L50.6617 56.9598L66.5129 81.4327L66.3522 84.4972L66.3234 84.5433L66.3365 84.7949L63.0764 146.965H67.4323L67.9549 114.853L83.7669 90.4399L67.994 112.439Z" fill="#3F3D56"/>
<path d="M241 86.9378C241 113.474 225.196 122.739 205.701 122.739C186.206 122.739 170.402 113.474 170.402 86.9378C170.402 60.4017 205.701 26.6436 205.701 26.6436C205.701 26.6436 241 60.4017 241 86.9378Z" fill="#D1F0EC"/>
<path d="M204.415 118.68L204.777 96.4719L219.822 68.997L204.833 92.9879L204.996 83.0023L215.365 63.1243L205.039 80.3596L205.331 62.3998L216.435 46.5745L205.377 59.5757L205.56 26.6436L204.412 70.2395L204.506 68.4412L193.217 51.1926L204.325 71.8936L203.273 91.9517L203.242 91.4193L190.228 73.2678L203.203 93.3001L203.071 95.8085L203.048 95.8463L203.058 96.0522L200.39 146.941H203.955L204.383 120.656L217.326 100.673L204.415 118.68Z" fill="#3F3D56"/>
<path d="M119.273 152.101C185.146 152.101 238.547 149.407 238.547 146.083C238.547 142.759 185.146 140.064 119.273 140.064C53.4005 140.064 0 142.759 0 146.083C0 149.407 53.4005 152.101 119.273 152.101Z" fill="#3F3D56"/>
<path d="M191.934 157.057C203.216 157.057 212.362 156.595 212.362 156.026C212.362 155.457 203.216 154.995 191.934 154.995C180.651 154.995 171.505 155.457 171.505 156.026C171.505 156.595 180.651 157.057 191.934 157.057Z" fill="#CACACA"/>
<path d="M118.01 167C129.293 167 138.439 166.539 138.439 165.969C138.439 165.4 129.293 164.938 118.01 164.938C106.728 164.938 97.5816 165.4 97.5816 165.969C97.5816 166.539 106.728 167 118.01 167Z" fill="#CACACA"/>
<path d="M61.9267 159.987C87.703 159.987 108.599 158.933 108.599 157.632C108.599 156.331 87.703 155.277 61.9267 155.277C36.1504 155.277 15.2545 156.331 15.2545 157.632C15.2545 158.933 36.1504 159.987 61.9267 159.987Z" fill="#CACACA"/>
<path d="M20.8793 138.524C30.2627 138.524 37.8694 130.931 37.8694 121.565C37.8694 112.198 30.2627 104.605 20.8793 104.605C11.4959 104.605 3.88919 112.198 3.88919 121.565C3.88919 130.931 11.4959 138.524 20.8793 138.524Z" fill="#4BC7B6"/>
<path d="M18.1416 134.843L12.9804 134.782L12.8714 144.013L18.0326 144.074L18.1416 134.843Z" fill="#4BC7B6"/>
<path d="M28.464 134.965L23.3028 134.904L23.1938 144.134L28.355 144.195L28.464 134.965Z" fill="#2F2E41"/>
<path d="M21.4722 144.221C21.4827 143.332 19.5655 142.589 17.1902 142.561C14.8148 142.533 12.8807 143.231 12.8702 144.12C12.8597 145.009 14.7768 145.753 17.1522 145.781C19.5275 145.809 21.4617 145.111 21.4722 144.221Z" fill="#4BC7B6"/>
<path d="M31.7971 144.128C31.8076 143.239 29.8905 142.496 27.5151 142.468C25.1397 142.44 23.2056 143.138 23.1951 144.027C23.1846 144.916 25.1017 145.66 27.4771 145.688C29.8525 145.715 31.7866 145.017 31.7971 144.128Z" fill="#2F2E41"/>
<path d="M21.3601 123.073C24.567 123.073 27.1668 120.478 27.1668 117.276C27.1668 114.075 24.567 111.48 21.3601 111.48C18.1531 111.48 15.5533 114.075 15.5533 117.276C15.5533 120.478 18.1531 123.073 21.3601 123.073Z" fill="white"/>
<path d="M21.3601 119.209C22.4291 119.209 23.2957 118.344 23.2957 117.277C23.2957 116.21 22.4291 115.344 21.3601 115.344C20.2911 115.344 19.4245 116.21 19.4245 117.277C19.4245 118.344 20.2911 119.209 21.3601 119.209Z" fill="#3F3D56"/>
<path d="M4.58562 105.6C3.28623 99.4516 7.7444 93.3067 14.5432 91.8751C21.3421 90.4434 27.907 94.2672 29.2063 100.416C30.5057 106.564 25.985 108.773 19.1862 110.205C12.3874 111.636 5.88501 111.749 4.58562 105.6Z" fill="#A2E1D9"/>
<path d="M46.7965 131.026C46.7965 142.85 39.7553 146.978 31.0688 146.978C30.8675 146.978 30.6666 146.976 30.466 146.971C30.0636 146.963 29.6649 146.943 29.2711 146.917C21.4317 146.363 15.3411 142.022 15.3411 131.026C15.3411 119.646 29.9093 105.287 31.0036 104.224L31.0055 104.223C31.0477 104.181 31.0688 104.161 31.0688 104.161C31.0688 104.161 46.7965 119.203 46.7965 131.026Z" fill="#A2E1D9"/>
<path d="M30.4957 145.169L36.2481 137.146L30.4813 146.05L30.466 146.971C30.0636 146.962 29.6649 146.943 29.2711 146.916L29.8911 135.087L29.8863 134.995L29.8968 134.978L29.9553 133.861L24.1742 124.935L29.9735 133.023L29.9869 133.26L30.4555 124.323L25.5061 115.099L30.5158 122.754L31.0036 104.224L31.0055 104.161V104.222L30.9241 118.834L35.8514 113.041L30.9039 120.093L30.7736 128.095L35.3742 120.415L30.7545 129.272L30.6816 133.721L37.3606 123.032L30.6567 135.274L30.4957 145.169Z" fill="#3F3D56"/>
<path d="M153.23 138.341C162.614 138.341 170.221 130.748 170.221 121.381C170.221 112.015 162.614 104.422 153.23 104.422C143.847 104.422 136.24 112.015 136.24 121.381C136.24 130.748 143.847 138.341 153.23 138.341Z" fill="#4BC7B6"/>
<path d="M154.681 134.861L149.747 136.374L152.463 145.198L157.397 143.684L154.681 134.861Z" fill="#2F2E41"/>
<path d="M164.548 131.835L159.614 133.348L162.331 142.172L167.265 140.658L164.548 131.835Z" fill="#2F2E41"/>
<path d="M157.08 145.578C159.351 144.882 160.98 143.628 160.718 142.778C160.456 141.928 158.403 141.804 156.133 142.5C153.862 143.197 152.233 144.451 152.495 145.3C152.757 146.15 154.81 146.275 157.08 145.578Z" fill="#2F2E41"/>
<path d="M166.885 142.346C169.156 141.649 170.784 140.396 170.523 139.546C170.261 138.696 168.208 138.571 165.937 139.268C163.666 139.965 162.038 141.218 162.3 142.068C162.561 142.918 164.614 143.043 166.885 142.346Z" fill="#2F2E41"/>
<path d="M152.378 122.947C155.585 122.947 158.185 120.352 158.185 117.151C158.185 113.95 155.585 111.355 152.378 111.355C149.171 111.355 146.571 113.95 146.571 117.151C146.571 120.352 149.171 122.947 152.378 122.947Z" fill="white"/>
<path d="M152.378 119.083C153.447 119.083 154.314 118.218 154.314 117.151C154.314 116.084 153.447 115.219 152.378 115.219C151.309 115.219 150.443 116.084 150.443 117.151C150.443 118.218 151.309 119.083 152.378 119.083Z" fill="#3F3D56"/>
<path d="M132.835 111.138C129.719 105.678 132.087 98.4688 138.124 95.0354C144.162 91.602 151.582 93.2449 154.699 98.7048C157.815 104.165 154.184 107.645 148.147 111.078C142.11 114.511 135.951 116.598 132.835 111.138Z" fill="#A2E1D9"/>
<path d="M122.929 128.861C122.929 139.714 116.466 143.504 108.492 143.504C108.307 143.504 108.123 143.502 107.939 143.498C107.569 143.49 107.203 143.472 106.842 143.448C99.6457 142.939 94.0548 138.955 94.0548 128.861C94.0548 118.415 107.428 105.234 108.432 104.258L108.434 104.256C108.473 104.219 108.492 104.2 108.492 104.2C108.492 104.2 122.929 118.007 122.929 128.861Z" fill="#A2E1D9"/>
<path d="M107.966 141.843L113.246 134.478L107.953 142.652L107.939 143.498C107.569 143.49 107.203 143.472 106.842 143.448L107.411 132.589L107.407 132.505L107.416 132.489L107.47 131.463L102.163 123.269L107.487 130.694L107.499 130.912L107.929 122.707L103.386 114.241L107.985 121.267L108.432 104.258L108.434 104.2V104.256L108.359 117.669L112.882 112.352L108.341 118.825L108.221 126.17L112.444 119.121L108.204 127.251L108.137 131.335L114.268 121.523L108.114 132.76L107.966 141.843Z" fill="#3F3D56"/>
<path d="M179.706 133.387C179.706 145.211 172.665 149.339 163.979 149.339C163.778 149.339 163.577 149.337 163.376 149.332C162.974 149.324 162.575 149.305 162.181 149.278C154.342 148.724 148.251 144.383 148.251 133.387C148.251 122.008 162.819 107.649 163.914 106.586L163.916 106.584C163.958 106.543 163.979 106.523 163.979 106.523C163.979 106.523 179.706 121.564 179.706 133.387Z" fill="#A2E1D9"/>
<path d="M163.406 147.53L169.158 139.507L163.391 148.411L163.376 149.332C162.974 149.324 162.575 149.305 162.181 149.278L162.801 137.449L162.796 137.357L162.807 137.34L162.865 136.222L157.084 127.296L162.884 135.385L162.897 135.622L163.366 126.684L158.416 117.46L163.426 125.115L163.914 106.586L163.916 106.523V106.584L163.834 121.196L168.761 115.403L163.814 122.454L163.684 130.457L168.284 122.777L163.665 131.634L163.592 136.083L170.271 125.394L163.567 137.635L163.406 147.53Z" fill="#3F3D56"/>
<path d="M154.31 131.534C154.941 130.205 152.016 127.501 147.777 125.494C143.538 123.488 139.59 122.938 138.959 124.266C138.327 125.594 141.252 128.298 145.491 130.305C149.73 132.312 153.678 132.862 154.31 131.534Z" fill="#4BC7B6"/>
<path d="M23.5448 129.981C24.0928 128.617 21.0066 126.098 16.6517 124.355C12.2968 122.613 8.32226 122.307 7.77429 123.672C7.22632 125.036 10.3124 127.555 14.6673 129.297C19.0222 131.04 22.9968 131.346 23.5448 129.981Z" fill="#4BC7B6"/>
</g>
<defs>
<clipPath id="clip0_6571_259863">
<rect width="241" height="167" fill="white"/>
</clipPath>
</defs>
</svg>
