<svg width="60" height="60" viewBox="0 0 60 60" fill="none" xmlns="http://www.w3.org/2000/svg">
<circle cx="30" cy="30" r="29.5" fill="white" stroke="#CFECE9"/>
<path d="M37.1279 36.3668L35.8245 34.1942C35.2225 33.1914 34.9044 32.0429 34.9044 30.8738L34.9044 28.9707C34.9044 26.5681 33.3012 24.536 31.1088 23.8808L31.1088 22.5182C31.1088 21.6809 30.4279 21 29.5906 21C28.7533 21 28.0724 21.6809 28.0724 22.5182L28.0724 23.8808C25.8801 24.536 24.2768 26.5681 24.2768 28.9707L24.2768 30.8738C24.2768 32.0429 23.9587 33.1906 23.3575 34.1934L22.0541 36.366C21.9835 36.4837 21.982 36.6295 22.0496 36.7486C22.1171 36.8678 22.2424 36.9415 22.379 36.9415L36.8022 36.9415C36.9389 36.9415 37.0649 36.8678 37.1324 36.7494C37.2 36.631 37.1977 36.4837 37.1279 36.3668Z" stroke="#4BC7B6" stroke-width="1.2"/>
<path d="M27.0404 38.3799C27.4972 39.3341 28.4644 39.9999 29.5911 39.9999C30.7178 39.9999 31.6849 39.3341 32.1418 38.3799L27.0404 38.3799V38.3799Z" fill="#4BC7B6"/>
</svg>
