<svg width="15" height="15" viewBox="0 0 15 15" fill="none" xmlns="http://www.w3.org/2000/svg">
<path d="M7.5 15C3.35788 15 0 11.6421 0 7.5C0 3.35792 3.35792 0 7.5 0C11.6421 0 15 3.35792 15 7.5C15 11.6421 11.6421 15 7.5 15ZM4.87768 7.6808C4.60788 7.42801 4.18412 7.44165 3.93114 7.71145C3.67815 7.98125 3.69179 8.40501 3.96159 8.65799L6.1045 10.6669C6.39205 10.9363 6.84905 10.9007 7.09103 10.5894L10.8411 5.76795C11.0681 5.47591 11.0156 5.05516 10.7236 4.82815C10.4318 4.60114 10.011 4.65364 9.78395 4.94567L6.48466 9.18738L4.87768 7.6808Z" fill="#4BC7B6"/>
</svg>
