<svg width="184" height="184" viewBox="0 0 184 184" fill="none" xmlns="http://www.w3.org/2000/svg">
<circle opacity="0.5" cx="92" cy="92" r="92" fill="#DBF2EF"/>
<path d="M91.6901 126.211C90.6061 126.208 89.5268 126.068 88.4775 125.796L88.2707 125.739L88.0789 125.643C81.1431 122.165 75.2917 117.572 70.6872 111.99C66.8757 107.343 63.9041 102.066 61.906 96.3974C59.5166 89.6106 58.367 82.4494 58.5122 75.2558C58.5152 75.1048 58.5176 74.9882 58.5176 74.9078C58.5176 71.4109 60.4587 68.3427 63.4626 67.091C65.7617 66.1331 86.6364 57.559 88.1447 56.9395C90.9851 55.5162 94.0154 56.7042 94.5003 56.9119C95.588 57.3566 114.885 65.2495 119.056 67.2352C123.353 69.2817 124.5 72.9583 124.5 74.808C124.5 83.1824 123.05 91.0088 120.189 98.0701C117.879 103.786 114.605 109.062 110.51 113.67C102.608 122.562 94.7037 125.715 94.6275 125.742C93.6828 126.067 92.689 126.226 91.6901 126.211ZM89.8314 121.607C90.5166 121.761 92.0943 121.991 93.1226 121.616C94.4289 121.14 101.044 117.709 107.226 110.752C115.768 101.14 120.101 89.0574 120.108 74.8389C120.093 74.5509 119.888 72.4963 117.167 71.2008C113.078 69.2535 93.0199 61.0518 92.8178 60.9691L92.7624 60.9456C92.342 60.7695 91.0043 60.3985 90.0822 60.8817L89.8975 60.9678C89.674 61.0596 67.5152 70.1606 65.152 71.1453C63.4988 71.8341 62.9098 73.5406 62.9098 74.9079C62.9098 75.0078 62.9072 75.1531 62.9036 75.341C62.7147 85.0698 64.966 109.009 89.8314 121.607Z" fill="#4BC7B6"/>
<path d="M89.0632 58.9363C89.0632 58.9363 66.7031 68.1199 64.3073 69.1181C61.9116 70.1163 60.7137 72.5121 60.7137 74.9078C60.7137 77.3035 58.9169 108.565 89.0632 123.679C89.0632 123.679 91.7993 124.436 93.8751 123.679C95.9509 122.922 122.304 110.145 122.304 74.808C122.304 74.808 122.304 71.2144 118.111 69.2179C113.919 67.2215 93.6487 58.9363 93.6487 58.9363C93.6487 58.9363 91.1595 57.8382 89.0632 58.9363Z" fill="#4BC7B6"/>
<path opacity="0.1" d="M91.4591 66.1235V115.115C91.4591 115.115 68.8993 104.256 69.099 75.7065L91.4591 66.1235Z" fill="#62716D"/>
<path d="M87.5021 101.334L80.3157 92.0941L84.4949 88.8437L87.8977 93.2187L99.3927 81.084L103.237 84.726L87.5021 101.334Z" fill="white"/>
</svg>
