<svg width="14" height="13" viewBox="0 0 14 13" fill="none" xmlns="http://www.w3.org/2000/svg">
<path d="M6.05223 11.2823C6.41332 7.95061 6.41332 4.595 6.05223 1.26325C6.01977 0.963571 5.79205 0.711216 5.47726 0.619C4.22225 0.251349 2.85323 0.251349 1.59822 0.619C1.28345 0.711216 1.0557 0.963571 1.02323 1.26325C0.662178 4.595 0.662178 7.95061 1.02323 11.2823C1.0557 11.582 1.28345 11.8343 1.59822 11.9266C2.85323 12.2942 4.22225 12.2942 5.47726 11.9266C5.79205 11.8343 6.01977 11.582 6.05223 11.2823Z" fill="white"/>
<path d="M13.3098 11.2819C13.6709 7.95025 13.6709 4.59463 13.3098 1.26288C13.2773 0.963205 13.0496 0.71085 12.7348 0.618634C11.4798 0.250983 10.1108 0.250983 8.85581 0.618634C8.54101 0.71085 8.31329 0.963205 8.28083 1.26288C7.91974 4.59463 7.91974 7.95025 8.28083 11.2819C8.31329 11.5817 8.54101 11.834 8.85581 11.9262C10.1108 12.2939 11.4798 12.2939 12.7348 11.9262C13.0496 11.834 13.2773 11.5817 13.3098 11.2819Z" fill="white"/>
</svg>
