<svg width="60" height="60" viewBox="0 0 60 60" fill="none" xmlns="http://www.w3.org/2000/svg">
<circle cx="30" cy="30" r="29.5" fill="white" stroke="#CFECE9"/>
<path d="M21.1794 24.0249L21.1792 24.0251C20.5843 24.6202 20.25 25.4271 20.25 26.2688V37.5765C20.25 38.4182 20.5843 39.2251 21.1792 39.8202L21.1794 39.8204C21.7745 40.4153 22.5814 40.7496 23.4231 40.7496H39.577C40.4187 40.7496 41.2256 40.4153 41.8207 39.8204L41.8209 39.8202C42.4158 39.2251 42.7501 38.4182 42.7501 37.5765V26.2688C42.7501 25.4271 42.4158 24.6202 41.8209 24.0251L41.8207 24.0249C41.2256 23.43 40.4187 23.0957 39.577 23.0957H23.4231C22.5814 23.0957 21.7745 23.43 21.1794 24.0249ZM39.6347 37.5765C39.6347 37.5919 39.6286 37.6066 39.6178 37.6174C39.6071 37.6281 39.5924 37.6342 39.577 37.6342H23.4231C23.4077 37.6342 23.393 37.6281 23.3823 37.6174C23.3715 37.6066 23.3654 37.5919 23.3654 37.5765V26.2688C23.3654 26.2534 23.3715 26.2387 23.3823 26.228C23.393 26.2172 23.4077 26.2111 23.4231 26.2111H39.577C39.5924 26.2111 39.6071 26.2172 39.6178 26.228C39.6286 26.2387 39.6347 26.2534 39.6347 26.2688V37.5765Z" fill="#4BC7B6" stroke="white" stroke-width="1.5"/>
<path d="M27.4615 21.3654H35.5385C36.095 21.3654 36.6093 21.0685 36.8875 20.5865C37.1657 20.1046 37.1657 19.5108 36.8875 19.0289C36.6093 18.5469 36.095 18.25 35.5385 18.25H27.4615C26.9049 18.25 26.3906 18.5469 26.1124 19.0289C25.8343 19.5108 25.8343 20.1046 26.1124 20.5865C26.3906 21.0685 26.9049 21.3654 27.4615 21.3654Z" fill="#4BC7B6" stroke="white" stroke-width="1.5"/>
<path d="M25.0384 23.7882H37.9615C38.5181 23.7882 39.0324 23.4913 39.3106 23.0093C39.5888 22.5274 39.5888 21.9337 39.3106 21.4518C39.0324 20.9698 38.5181 20.6729 37.9615 20.6729H25.0384C24.4818 20.6729 23.9675 20.9697 23.6893 21.4518C23.4112 21.9337 23.4112 22.5274 23.6893 23.0093C23.9676 23.4913 24.4818 23.7882 25.0384 23.7882Z" fill="#4BC7B6" stroke="white" stroke-width="1.5"/>
<path d="M35.6191 30.1875C36.0997 30.6308 36.3807 31.2593 36.3807 31.9262C36.3807 32.7417 35.9605 33.4998 35.2691 33.932L35.1259 34.0215L31.1395 36.5164C31.1395 36.5164 31.1395 36.5164 31.1395 36.5164C30.6595 36.8169 30.0874 36.9351 29.5276 36.8496L35.6191 30.1875ZM35.6191 30.1875L35.6188 30.1328L35.2693 29.9141L31.1387 27.3295L31.1384 27.3293C30.6581 27.0291 30.0863 26.9114 29.5269 26.9969L29.5265 26.997C28.9673 27.0827 28.4568 27.3661 28.0885 27.796L28.0883 27.7962C27.7204 28.2259 27.5184 28.7731 27.5193 29.339M35.6191 30.1875L27.5193 29.339M27.5193 29.339V29.3384H28.2693L27.5193 29.3398C27.5193 29.3395 27.5193 29.3393 27.5193 29.339ZM27.5193 29.339V34.5068M27.5193 29.339L28.0885 36.0505M28.0885 36.0505L28.0884 36.0503C27.7202 35.6204 27.5182 35.0729 27.5193 34.5068M28.0885 36.0505C28.457 36.4805 28.9676 36.7641 29.5275 36.8496L28.0885 36.0505ZM27.5193 34.5068C27.5193 34.5065 27.5193 34.5062 27.5193 34.5059L28.2692 34.5076H27.5193V34.5068ZM30.6345 30.6925L32.6006 31.923L30.6345 33.1534V30.6925Z" fill="#4BC7B6" stroke="white" stroke-width="1.5"/>
</svg>
