<svg width="60" height="60" viewBox="0 0 60 60" fill="none" xmlns="http://www.w3.org/2000/svg">
<circle cx="30" cy="30" r="29.5" fill="white" stroke="#CFECE9"/>
<path d="M30.5 40.9247C30.3886 40.9247 30.2789 40.897 30.1808 40.8442C27.4743 39.4528 25.1958 37.3534 23.5878 34.7696C21.98 32.1859 21.1029 29.2146 21.0499 26.1717C21.0469 25.2476 21.1306 24.3254 21.3 23.417C21.3351 23.2338 21.4445 23.0733 21.6019 22.9737C21.7595 22.874 21.9513 22.8438 22.1318 22.8905C22.818 23.0664 23.5239 23.1536 24.2322 23.1503C26.3869 23.1607 28.4631 22.3421 30.031 20.8637C30.1571 20.7426 30.3252 20.6748 30.5002 20.6748C30.6751 20.6748 30.8432 20.7426 30.9692 20.8637C32.5371 22.342 34.6132 23.1604 36.7676 23.15C37.4759 23.1535 38.1818 23.0661 38.868 22.8902C39.0485 22.8437 39.2403 22.8737 39.3979 22.9734C39.5553 23.0731 39.6647 23.2336 39.6998 23.4168C39.8692 24.3252 39.9529 25.2476 39.9499 26.1717C39.8969 29.2144 39.0198 32.1861 37.412 34.7696C35.8041 37.3534 33.5256 39.453 30.819 40.8442C30.7209 40.897 30.6115 40.9247 30.5 40.9247ZM22.5165 24.3529C22.4382 24.956 22.3993 25.5635 22.4002 26.1716C22.4499 28.9086 23.2262 31.5832 24.6496 33.9214C26.0728 36.2596 28.0919 38.1777 30.5001 39.4791C32.9084 38.1776 34.9277 36.2596 36.3506 33.9214C37.7739 31.5831 38.5502 28.9086 38.5999 26.1716C38.6008 25.5635 38.5619 24.956 38.4836 24.3529C37.9169 24.4514 37.3429 24.5005 36.7676 24.4999C34.4811 24.5052 32.2644 23.7121 30.4998 22.2573C28.7354 23.7121 26.5188 24.5053 24.2319 24.4999C23.6567 24.5005 23.0832 24.4514 22.5165 24.3529ZM30.0002 33.6011L34.0502 28.8761C34.1981 28.692 34.2389 28.444 34.1582 28.2221C34.0773 28.0003 33.8862 27.8368 33.6546 27.791C33.4229 27.7453 33.1841 27.824 33.025 27.9986L29.5228 32.0841L28.0026 30.0573C27.8579 29.8644 27.6212 29.7633 27.3818 29.7921C27.1424 29.821 26.9366 29.9753 26.8418 30.1971C26.747 30.4189 26.7779 30.6744 26.9226 30.8673L28.9476 33.5673C29.0701 33.7312 29.2607 33.8305 29.4654 33.8368C29.473 33.8374 29.4803 33.8374 29.4874 33.8374C29.6847 33.8374 29.8721 33.7512 30.0002 33.6011Z" fill="#4BC7B6"/>
</svg>
