<svg width="229" height="176" viewBox="0 0 229 176" fill="none" xmlns="http://www.w3.org/2000/svg">
<g clip-path="url(#clip0_5930_247029)">
<path d="M175.035 160.204C181.722 160.204 187.143 149.142 187.143 135.498C187.143 121.853 181.722 110.792 175.035 110.792C168.347 110.792 162.926 121.853 162.926 135.498C162.926 149.142 168.347 160.204 175.035 160.204Z" fill="#EE8C34"/>
<path d="M173.916 175.937C178.766 146.841 173.965 117.85 173.916 117.561L172.973 117.72C173.022 118.008 177.795 146.847 172.973 175.78L173.916 175.937Z" fill="#CACACA"/>
<path d="M164.374 130.185L163.923 131.029L174.872 136.886L175.323 136.042L164.374 130.185Z" fill="#CACACA"/>
<path d="M186.428 133.12L175.48 138.979L175.932 139.823L186.879 133.963L186.428 133.12Z" fill="#CACACA"/>
<path d="M204.127 144.718C217.207 144.718 227.81 123.084 227.81 96.3968C227.81 69.7095 217.207 48.0752 204.127 48.0752C191.048 48.0752 180.445 69.7095 180.445 96.3968C180.445 123.084 191.048 144.718 204.127 144.718Z" fill="#E6E6E6"/>
<path d="M201.489 175.418C210.962 118.584 201.585 61.9579 201.489 61.3926L200.546 61.5524C200.641 62.1163 209.99 118.59 200.545 175.261L201.489 175.418Z" fill="#CACACA"/>
<path d="M183.061 86.4091L182.61 87.2529L204.026 98.7079L204.477 97.8641L183.061 86.4091Z" fill="#CACACA"/>
<path d="M226.627 92.1485L205.214 103.609L205.666 104.453L227.079 92.9922L226.627 92.1485Z" fill="#CACACA"/>
<path d="M149.125 175.57H23.1567C22.6934 175.569 22.2492 175.385 21.9216 175.057C21.594 174.729 21.4097 174.285 21.4092 173.822V94.225C21.4097 93.7617 21.594 93.3175 21.9216 92.9899C22.2492 92.6623 22.6934 92.4781 23.1567 92.4775H149.125C149.588 92.4781 150.032 92.6624 150.36 92.99C150.687 93.3176 150.872 93.7617 150.872 94.225V173.822C150.872 174.285 150.687 174.729 150.36 175.057C150.032 175.385 149.588 175.569 149.125 175.57Z" fill="#E4E4E4"/>
<path d="M34.7411 102.123C34.5426 102.123 34.3522 102.202 34.2118 102.343C34.0714 102.483 33.9924 102.673 33.9922 102.872V165.175C33.9924 165.374 34.0714 165.564 34.2118 165.705C34.3522 165.845 34.5426 165.924 34.7411 165.924H137.54C137.739 165.924 137.929 165.845 138.07 165.705C138.21 165.564 138.289 165.374 138.289 165.175V102.872C138.289 102.673 138.21 102.483 138.07 102.343C137.929 102.202 137.739 102.123 137.54 102.123H34.7411Z" fill="white"/>
<path d="M138.539 118.17V114.222H124.001V101.873H120.053V114.222H94.1716V101.873H90.2236V114.222H50.3046V101.873H46.3565V114.222H32.5527V118.17H46.3565V133.523H32.5527V137.471H46.3565V153.921H32.5527V157.869H67.632V166.173H71.5801V157.869H90.2236V166.173H94.1715V157.869H138.539V153.921H94.1716V137.471H138.539V133.523H124.001V118.17H138.539ZM90.2236 118.17V122.995H50.3046V118.17H90.2236ZM50.3046 126.943H90.2236V133.523H50.3046V126.943ZM50.3046 153.921V137.471H67.6321V153.921H50.3046ZM90.2236 153.921H71.5801V137.471H90.2236V153.921ZM120.053 133.523H94.1716V118.17H120.053V133.523Z" fill="#E6E6E6"/>
<path d="M92.198 141.041C94.9841 141.041 97.2427 138.782 97.2427 135.996C97.2427 133.21 94.9841 130.951 92.198 130.951C89.4119 130.951 87.1533 133.21 87.1533 135.996C87.1533 138.782 89.4119 141.041 92.198 141.041Z" fill="#4BC7B6"/>
<path d="M228.257 175.997H0.955566V175.452H228.356L228.257 175.997Z" fill="#CACACA"/>
<path d="M92.8022 106.028C109.989 106.028 123.921 92.0958 123.921 74.9091C123.921 57.7225 109.989 43.79 92.8022 43.79C75.6156 43.79 61.6831 57.7225 61.6831 74.9091C61.6831 92.0958 75.6156 106.028 92.8022 106.028Z" fill="#4BC7B6"/>
<path d="M93.1066 125.496L83.2752 108.701L73.4438 91.907L92.9039 91.7899L112.364 91.6729L102.735 108.584L93.1066 125.496Z" fill="#4BC7B6"/>
<path d="M93.0523 85.878C99.2186 85.878 104.217 80.8792 104.217 74.7129C104.217 68.5466 99.2186 63.5479 93.0523 63.5479C86.886 63.5479 81.8872 68.5466 81.8872 74.7129C81.8872 80.8792 86.886 85.878 93.0523 85.878Z" fill="white"/>
<path d="M92.0828 0.159901C92.0828 0.159901 85.424 -1.71583 83.4544 7.38145C81.4849 16.4787 82.7359 15.3325 82.7359 15.3325L97.601 13.5975C97.601 13.5975 102.071 2.92659 92.0828 0.159901Z" fill="#2F2E41"/>
<path d="M82.3988 40.0703C82.3988 40.0703 72.3529 40.5353 74.0926 44.4786C74.2155 44.7574 74.33 45.0186 74.436 45.2621C75.6796 48.1183 77.111 50.889 78.7209 53.556L84.8952 63.7862L87.142 62.538L80.8194 46.1024L86.5024 45.6385L82.3988 40.0703Z" fill="#FFB6B6"/>
<path d="M108.887 44.2461L112.134 51.3209C112.134 51.3209 114.57 53.7565 117.237 63.4988C119.905 73.2411 120.485 72.8932 120.485 72.8932L117.848 73.7713L107.031 54.1044L101.696 47.3776L103.32 43.7822L108.887 44.2461Z" fill="#FFB6B6"/>
<path d="M104.943 36.1277L109.609 44.8131C109.609 44.8131 120.189 65.6024 119.096 65.5333C117.867 65.4557 114.414 66.8885 113.354 68.2794C112.842 68.9507 105.366 52.552 102.739 48.8855L97.0564 44.4783C97.0564 44.4783 80.9205 47.1941 80.9007 46.311C80.8911 45.8784 86.243 56.2572 85.1446 55.7973C83.8934 55.2734 80.9501 57.8229 79.6525 57.2952C79.1172 57.0775 75.3344 47.9058 73.8031 44.1475C73.611 43.6784 73.601 43.1544 73.7751 42.6783C73.9491 42.2022 74.2947 41.8082 74.7441 41.5736C75.895 40.9751 91.885 37.3239 91.885 37.3239L91.6053 35.8958L92.7651 33.5762L104.943 36.1277Z" fill="#2F2E41"/>
<path d="M95.3744 10.5243C95.7745 8.05843 94.0999 5.73508 91.6341 5.33493C89.1682 4.93479 86.8449 6.60937 86.4447 9.07522C86.0446 11.5411 87.7192 13.8644 90.185 14.2646C92.6509 14.6647 94.9742 12.9901 95.3744 10.5243Z" fill="#FFB6B6"/>
<path d="M105.366 36.8243C105.616 37.5736 103.998 38.004 101.743 37.583C99.7926 37.2188 97.6574 36.7862 95.9734 36.436C94.1699 36.0602 92.8814 35.7795 92.8814 35.7795C92.8814 35.7795 92.4174 38.679 90.9097 38.3311C89.6107 38.0319 85.7289 24.4727 84.6793 20.7253C84.6025 20.4517 84.6173 20.1605 84.7214 19.8961C84.8255 19.6317 85.0131 19.4085 85.2557 19.2605L90.5873 16.0049C90.5873 16.0049 94.2615 14.7431 95.6011 14.7071C96.9406 14.6712 99.2603 14.3232 99.2603 14.3232C99.2603 14.3232 101.928 14.5552 102.392 16.5269C102.856 18.4985 104.791 30.1887 104.827 32.996C104.867 36.0754 104.617 34.5776 105.366 36.8243Z" fill="#CACACA"/>
<path d="M92.6005 3.99023C92.6005 3.99023 90.7247 8.96092 86.1292 11.0242L85.3789 6.61625L92.6005 3.99023Z" fill="#2F2E41"/>
<path d="M95.3171 9.27835C95.6694 9.27835 95.955 8.73313 95.955 8.06056C95.955 7.388 95.6694 6.84277 95.3171 6.84277C94.9648 6.84277 94.6792 7.388 94.6792 8.06056C94.6792 8.73313 94.9648 9.27835 95.3171 9.27835Z" fill="#FFB6B6"/>
<path d="M89.0117 64.9462L80.0454 69.0684L79.9932 68.955C79.5677 68.0294 79.5273 66.9727 79.8809 66.0173C80.2344 65.0619 80.953 64.2861 81.8785 63.8605L81.8788 63.8604L87.3551 61.3428L89.0117 64.9462Z" fill="#2F2E41"/>
<path d="M116.511 73.1814L122.011 70.7159L122.011 70.7158C122.941 70.2992 123.998 70.2689 124.95 70.6316C125.901 70.9943 126.67 71.7202 127.087 72.6498L127.138 72.7637L118.133 76.8004L116.511 73.1814Z" fill="#2F2E41"/>
<path opacity="0.2" d="M101.621 26.0898L100.571 37.6385L102.437 37.7266L101.621 26.0898Z" fill="black"/>
<path d="M94.3016 47.6647C94.5241 47.4164 94.6894 47.1223 94.7859 46.8031C94.8824 46.484 94.9077 46.1475 94.8602 45.8175C94.8126 45.4875 94.6932 45.172 94.5105 44.8931C94.3277 44.6142 94.0861 44.3788 93.8025 44.2034L89.7686 23.8262L85.1362 25.5984L90.5581 45.0713C90.295 45.5672 90.223 46.1423 90.3556 46.6878C90.4883 47.2332 90.8164 47.7111 91.2779 48.0308C91.7393 48.3505 92.302 48.4898 92.8593 48.4223C93.4166 48.3548 93.9298 48.0853 94.3016 47.6647Z" fill="#FFB6B6"/>
<path d="M90.7892 27.2596L85.7026 28.1555C85.5579 28.181 85.4094 28.175 85.2672 28.1379C85.125 28.1008 84.9925 28.0335 84.8786 27.9406C84.7648 27.8477 84.6723 27.7313 84.6075 27.5994C84.5427 27.4675 84.507 27.3232 84.503 27.1763L84.3626 22.029C84.2363 21.2878 84.4091 20.5267 84.8431 19.9127C85.2772 19.2987 85.937 18.8818 86.6779 18.7535C87.4188 18.6253 88.1803 18.7961 88.7955 19.2285C89.4107 19.6609 89.8292 20.3196 89.9594 21.0602L91.5821 25.9295C91.6285 26.0689 91.6443 26.2167 91.6284 26.3628C91.6126 26.5089 91.5654 26.6499 91.4902 26.7761C91.4149 26.9023 91.3134 27.0109 91.1924 27.0943C91.0714 27.1777 90.9339 27.2341 90.7892 27.2596H90.7892Z" fill="#CACACA"/>
<path d="M98.2017 47.3067C98.4921 47.1428 98.743 46.9173 98.9367 46.6459C99.1305 46.3745 99.2624 46.064 99.3231 45.7362C99.3839 45.4083 99.372 45.0712 99.2883 44.7484C99.2047 44.4256 99.0513 44.1252 98.8389 43.8681L101.552 23.2734L96.5961 23.4667L95.4875 43.6498C95.0793 44.0352 94.8266 44.5569 94.7774 45.1161C94.7282 45.6753 94.8858 46.2331 95.2203 46.6838C95.5549 47.1346 96.0432 47.447 96.5927 47.5618C97.1422 47.6766 97.7147 47.5858 98.2017 47.3067Z" fill="#FFB6B6"/>
<path d="M101.418 26.8526L96.3125 26.0701C96.1673 26.0479 96.0285 25.9945 95.9057 25.9138C95.7829 25.8331 95.679 25.7269 95.6009 25.6023C95.5229 25.4778 95.4726 25.3379 95.4535 25.1922C95.4344 25.0465 95.4469 24.8984 95.4902 24.758L97.0078 19.8375C97.1258 19.0949 97.5336 18.4294 98.1415 17.987C98.7495 17.5446 99.5082 17.3613 100.251 17.4774C100.994 17.5935 101.661 17.9995 102.105 18.6063C102.549 19.2131 102.734 19.9712 102.62 20.7145L102.595 25.8469C102.595 25.9939 102.562 26.139 102.5 26.2723C102.438 26.4056 102.349 26.524 102.237 26.6194C102.125 26.7148 101.994 26.7851 101.853 26.8253C101.711 26.8655 101.563 26.8748 101.418 26.8526Z" fill="#CACACA"/>
</g>
<defs>
<clipPath id="clip0_5930_247029">
<rect width="227.4" height="175.996" fill="white" transform="translate(0.955566)"/>
</clipPath>
</defs>
</svg>
