<svg width="168" height="202" viewBox="0 0 168 202" fill="none" xmlns="http://www.w3.org/2000/svg">
<g clip-path="url(#clip0_7789_266146)">
<path d="M160.491 190.59C159.442 190.959 158.314 191.051 157.219 190.858C156.123 190.665 155.095 190.193 154.234 189.487C152.043 187.648 151.355 184.618 150.797 181.812L149.143 173.512L152.605 175.896C155.095 177.61 157.64 179.379 159.364 181.863C161.088 184.346 161.841 187.736 160.456 190.422" fill="#E6E6E6"/>
<path d="M160.196 200.637C160.546 198.085 160.907 195.5 160.661 192.92C160.442 190.629 159.744 188.391 158.32 186.556C157.565 185.584 156.646 184.751 155.604 184.095C155.333 183.924 155.083 184.354 155.353 184.525C157.155 185.664 158.549 187.346 159.334 189.328C160.201 191.532 160.34 193.935 160.189 196.277C160.099 197.693 159.908 199.099 159.715 200.505C159.699 200.568 159.708 200.636 159.741 200.692C159.773 200.749 159.826 200.792 159.888 200.811C159.952 200.828 160.02 200.82 160.077 200.787C160.135 200.754 160.177 200.701 160.195 200.637L160.196 200.637Z" fill="#F2F2F2"/>
<path d="M147.648 158.244H2.80811V13.4043H147.648V158.244Z" fill="white"/>
<path d="M147.648 158.244H2.80811V13.4043H147.648V158.244ZM4.94808 156.104H145.508V15.5443H4.94808V156.104Z" fill="#E5E5E5"/>
<path d="M121.99 36.0645H59.2681V38.0183H121.99V36.0645Z" fill="#E5E5E5"/>
<path d="M121.99 41.1455H59.2681V43.0993H121.99V41.1455Z" fill="#E5E5E5"/>
<path d="M121.99 46.2246H59.2681V48.1784H121.99V46.2246Z" fill="#E5E5E5"/>
<path d="M121.99 79.6846H59.2681V81.6384H121.99V79.6846Z" fill="#E5E5E5"/>
<path d="M121.99 84.7646H59.2681V86.7185H121.99V84.7646Z" fill="#E5E5E5"/>
<path d="M121.99 89.8457H59.2681V91.7995H121.99V89.8457Z" fill="#E5E5E5"/>
<path d="M121.99 123.305H59.2681V125.259H121.99V123.305Z" fill="#E5E5E5"/>
<path d="M121.99 128.386H59.2681V130.34H121.99V128.386Z" fill="#E5E5E5"/>
<path d="M121.99 133.464H59.2681V135.418H121.99V133.464Z" fill="#E5E5E5"/>
<path d="M34.1592 51.6312C33.0877 51.0665 31.9692 50.5959 30.8164 50.2245L30.6694 48.5983L24.7078 47.9561L23.9501 50.0345L21.8106 50.8374C21.7341 50.8664 21.6612 50.9044 21.5935 50.9504H21.5912C21.4718 51.0311 21.3701 51.1353 21.2923 51.2567C21.2146 51.378 21.1624 51.5139 21.1389 51.6561C21.116 51.7975 21.1214 51.942 21.1548 52.0813L21.2679 52.5449C21.4307 52.6421 21.598 52.7349 21.7654 52.8231L21.8717 52.8774C22.116 53.004 22.3648 53.1239 22.6203 53.2347C22.6723 53.2573 22.7289 53.2799 22.7809 53.3025C22.7854 53.3048 22.7876 53.3048 22.7921 53.3071C22.9121 53.3568 23.0319 53.4043 23.154 53.4495C23.5552 53.6028 23.9644 53.7341 24.3798 53.8431C25.44 54.1256 26.5326 54.2686 27.6298 54.2683C28.0301 54.2683 28.4259 54.2502 28.8172 54.2117C29.7112 54.1292 30.5937 53.951 31.4497 53.6802C31.4519 53.6802 31.4543 53.678 31.4565 53.678C31.9972 53.5057 32.5254 53.2964 33.0374 53.0515C33.0396 53.0492 33.0441 53.0492 33.0465 53.047C33.1618 52.9927 33.2726 52.9339 33.3857 52.8774L33.4399 52.8502C33.5304 52.8027 33.6209 52.7552 33.7114 52.7055C33.9375 52.5811 34.1592 52.4499 34.3785 52.3097C34.4395 52.2735 34.4984 52.235 34.5595 52.1943C34.6454 52.1378 34.7313 52.079 34.815 52.0179C34.6046 51.8822 34.3853 51.7533 34.1592 51.6312Z" fill="#3F3D56"/>
<path d="M22.9703 52.6341L22.5971 50.9492H21.6223C21.6125 50.9494 21.6027 50.9501 21.593 50.9515H21.5906C21.2403 50.9811 20.903 51.0977 20.6091 51.2907C20.4098 51.418 20.2326 51.5768 20.0845 51.7611C20.3739 51.9805 20.6747 52.1841 20.9846 52.3786L20.9982 52.3853C21.0863 52.4396 21.1769 52.4939 21.2673 52.5459C21.4301 52.6432 21.5975 52.7359 21.7648 52.8241L21.8711 52.8784C22.1154 53.005 22.3642 53.1249 22.6198 53.2357C22.6718 53.2583 22.7283 53.2809 22.7803 53.3036C22.7849 53.3058 22.7871 53.3058 22.7916 53.3081C22.9115 53.3579 23.0313 53.4053 23.1535 53.4506L22.9703 52.6341Z" fill="#3F3D56"/>
<path d="M27.4538 46.929C29.8251 46.929 31.7474 45.0067 31.7474 42.6354C31.7474 40.2641 29.8251 38.3418 27.4538 38.3418C25.0825 38.3418 23.1602 40.2641 23.1602 42.6354C23.1602 45.0067 25.0825 46.929 27.4538 46.929Z" fill="#FFB8B8"/>
<path d="M24.5712 40.5446C25.0156 41.0706 25.7678 41.219 26.4617 41.2798C28.0839 41.3694 29.7108 41.2366 31.297 40.885C31.3953 41.8376 31.1273 42.8648 31.6884 43.6484C31.9515 42.6997 32.1044 41.7239 32.1442 40.7402C32.1861 40.3181 32.131 39.8921 31.9831 39.4946C31.9041 39.2954 31.7707 39.1224 31.5982 38.9952C31.4257 38.868 31.2209 38.7917 31.0072 38.7751C31.3271 38.5325 31.7018 38.3723 32.0983 38.3087L30.7349 37.6236L31.085 37.2642L28.6168 37.1131L29.3317 36.6589C28.2558 36.5111 27.1672 36.4767 26.0841 36.5564C25.5779 36.5567 25.0814 36.6947 24.6477 36.9557C24.2402 37.2471 24.0047 37.8263 24.2577 38.2542C23.941 38.3062 23.6428 38.4382 23.3913 38.6377C23.1399 38.8372 22.9435 39.0976 22.8209 39.3943C22.6658 39.8657 22.6283 40.368 22.7118 40.8573C22.8048 41.6422 22.9872 42.414 23.2556 43.1576L24.5712 40.5446Z" fill="#2F2E41"/>
<path d="M39.5278 37.9799C38.9253 36.2492 37.9527 34.6708 36.6775 33.3547C35.4024 32.0386 33.8556 31.0165 32.1449 30.3597C30.4342 29.7028 28.6007 29.4271 26.7725 29.5516C24.9442 29.6761 23.1652 30.1979 21.5593 31.0807C19.9535 31.9634 18.5595 33.1858 17.4746 34.6627C16.3897 36.1395 15.64 37.8352 15.2779 39.6316C14.9157 41.4279 14.9497 43.2816 15.3775 45.0635C15.8053 46.8453 16.6167 48.5124 17.755 49.9484C17.8681 50.0909 17.9857 50.2334 18.1056 50.3713C18.1147 50.3804 18.1214 50.3894 18.1305 50.3985C18.4253 50.7382 18.7386 51.0613 19.069 51.3665C19.1551 51.4456 19.2455 51.527 19.336 51.6039C19.5078 51.7577 19.6843 51.9047 19.8675 52.045C19.9398 52.1015 20.0099 52.158 20.0846 52.2123C20.374 52.4317 20.6748 52.6352 20.9847 52.8297L20.9983 52.8365C21.0864 52.8908 21.177 52.9451 21.2674 52.9971C21.4302 53.0944 21.5976 53.1871 21.7649 53.2753L21.8712 53.3296C22.1155 53.4562 22.3643 53.5761 22.6199 53.6869C22.6719 53.7095 22.7284 53.7321 22.7804 53.7548C22.785 53.757 22.7872 53.757 22.7917 53.7593C22.9116 53.809 23.0314 53.8565 23.1536 53.9018C23.5548 54.055 23.9639 54.1863 24.3794 54.2953C25.4396 54.5779 26.5321 54.7208 27.6293 54.7205C28.0297 54.7205 28.4254 54.7024 28.8167 54.6639C29.7107 54.5814 30.5933 54.4032 31.4493 54.1325C31.4515 54.1325 31.4538 54.1302 31.456 54.1302C31.9968 53.9579 32.525 53.7486 33.0369 53.5037C33.0392 53.5014 33.0437 53.5015 33.046 53.4992C33.1613 53.4449 33.2722 53.3861 33.3852 53.3296L33.4395 53.3024C33.5299 53.2549 33.6205 53.2074 33.7109 53.1577C33.9371 53.0333 34.1587 52.9021 34.378 52.7619C34.4391 52.7257 34.4979 52.6873 34.559 52.6466C34.6449 52.59 34.7309 52.5312 34.8146 52.4701C34.9253 52.3932 35.0362 52.3141 35.1447 52.2327C35.1786 52.2078 35.2149 52.1829 35.2488 52.1558C37.3676 50.5475 38.9229 48.3097 39.6916 45.7631C40.4602 43.2165 40.4029 40.4919 39.5278 37.9799V37.9799ZM34.8327 51.6062C34.758 51.665 34.6812 51.7215 34.6042 51.7736C34.5295 51.8301 34.455 51.8844 34.378 51.9341C34.3124 51.9816 34.2468 52.0269 34.179 52.0698L34.1587 52.0834C34.1089 52.1173 34.0592 52.149 34.0094 52.1806C33.8217 52.2982 33.6317 52.4113 33.4395 52.5199L33.3784 52.5538C33.2925 52.6013 33.2066 52.6466 33.1207 52.6918C33.1093 52.6986 33.0957 52.7031 33.0844 52.7099L33.0709 52.7167C32.9623 52.7732 32.8514 52.8275 32.7407 52.8795C32.313 53.0854 31.8726 53.2637 31.4221 53.4132C31.3633 53.4336 31.3045 53.454 31.2458 53.472C30.4355 53.7297 29.6 53.8996 28.7534 53.9787C28.3825 54.0126 28.007 54.0307 27.6294 54.0307C26.5916 54.0328 25.5581 53.8974 24.5558 53.6281C24.0415 53.4938 23.5374 53.323 23.0473 53.117C23.0224 53.1057 22.9952 53.0966 22.9704 53.0853C22.9433 53.074 22.9184 53.065 22.8935 53.0536C22.8663 53.0423 22.8415 53.031 22.8143 53.0175C22.6017 52.9247 22.3914 52.823 22.1856 52.7167L22.0861 52.6647C21.835 52.5335 21.5885 52.3933 21.3488 52.244C21.2787 52.201 21.2063 52.1558 21.1384 52.1083C21.1204 52.097 21.1045 52.0857 21.0864 52.0743C20.9258 51.9681 20.7653 51.8572 20.6092 51.7419C20.503 51.6627 20.3967 51.5836 20.2926 51.5022C20.1185 51.371 19.9511 51.2308 19.7883 51.086C19.7024 51.0136 19.6187 50.9345 19.5373 50.8599C19.2166 50.5638 18.913 50.2497 18.6281 49.919C18.5331 49.8105 18.4404 49.7019 18.3521 49.5888C18.3321 49.5665 18.3132 49.5431 18.2956 49.5187C16.8261 47.6644 15.9423 45.4145 15.7567 43.0559C15.5712 40.6972 16.0923 38.3368 17.2538 36.2755C18.4152 34.2143 20.1642 32.5457 22.2778 31.4825C24.3914 30.4193 26.7738 30.0098 29.1211 30.3061C31.4684 30.6024 33.6743 31.5911 35.4574 33.1462C37.2405 34.7012 38.52 36.7521 39.1328 39.0373C39.7455 41.3225 39.6638 43.7385 38.8979 45.977C38.1321 48.2155 36.7168 50.1753 34.8327 51.6062L34.8327 51.6062Z" fill="#3F3D56"/>
<path d="M39.5277 81.6009C38.9253 79.8703 37.9526 78.2919 36.6775 76.9758C35.4024 75.6597 33.8556 74.6376 32.1449 73.9808C30.4341 73.3239 28.6007 73.0482 26.7725 73.1727C24.9442 73.2972 23.1652 73.819 21.5593 74.7018C19.9534 75.5845 18.5595 76.8069 17.4746 78.2838C16.3897 79.7606 15.64 81.4563 15.2779 83.2526C14.9157 85.049 14.9497 86.9027 15.3775 88.6845C15.8053 90.4664 16.6167 92.1334 17.755 93.5695C17.8681 93.712 17.9857 93.8545 18.1055 93.9924C18.1146 94.0015 18.1213 94.0105 18.1304 94.0196C18.4252 94.3592 18.7386 94.6824 19.069 94.9875C19.1549 95.0667 19.2454 95.1481 19.3358 95.225C19.5078 95.3788 19.6841 95.5258 19.8673 95.666C20.225 95.948 20.598 96.21 20.9846 96.4508L20.9982 96.4576C21.2492 96.6137 21.5047 96.7584 21.7649 96.8964L21.8711 96.9506C22.1154 97.0773 22.3642 97.1972 22.6197 97.308C22.6717 97.3306 22.7283 97.3532 22.7803 97.3758C22.7848 97.3781 22.7871 97.3781 22.7917 97.3803C23.308 97.5951 23.8385 97.7742 24.3793 97.9163C25.4395 98.1989 26.532 98.3419 27.6292 98.3415C28.0295 98.3415 28.4253 98.3234 28.8166 98.285C29.7106 98.2025 30.5932 98.0243 31.4492 97.7535C31.4515 97.7535 31.4537 97.7512 31.4559 97.7512C31.9966 97.579 32.5249 97.3697 33.0368 97.1248C33.039 97.1225 33.0437 97.1225 33.0459 97.1203C33.1612 97.066 33.272 97.0072 33.3851 96.9506L33.4394 96.9235C33.5299 96.876 33.6203 96.8285 33.7108 96.7787C33.9369 96.6544 34.1586 96.5232 34.378 96.383C34.4391 96.3467 34.4978 96.3083 34.5589 96.2676C34.7579 96.1364 34.9547 95.9962 35.1446 95.8537C35.1786 95.8289 35.2147 95.804 35.2487 95.7768C37.3675 94.1685 38.9227 91.9307 39.6914 89.3841C40.4601 86.8375 40.4028 84.113 39.5277 81.6009V81.6009Z" fill="white"/>
<path d="M31.7872 90.9357C32.83 90.9357 33.6754 90.0903 33.6754 89.0474C33.6754 88.0046 32.83 87.1592 31.7872 87.1592C30.7443 87.1592 29.8989 88.0046 29.8989 89.0474C29.8989 90.0903 30.7443 90.9357 31.7872 90.9357Z" fill="#2F2E41"/>
<path d="M32.313 87.2104C32.6398 87.2104 32.961 87.2952 33.2452 87.4565C33.5295 87.6179 33.7669 87.8502 33.9345 88.1308C34.102 88.4114 34.1938 88.7307 34.201 89.0575C34.2081 89.3842 34.1304 89.7072 33.9753 89.9949C34.1389 89.7901 34.2581 89.5534 34.3253 89.2999C34.3924 89.0465 34.4061 88.7819 34.3653 88.5229C34.3245 88.2639 34.2302 88.0162 34.0885 87.7957C33.9467 87.5752 33.7605 87.3866 33.5419 87.2419C33.3232 87.0973 33.0768 86.9998 32.8183 86.9557C32.5599 86.9115 32.2951 86.9217 32.0408 86.9855C31.7865 87.0494 31.5483 87.1655 31.3414 87.3264C31.1344 87.4874 30.9633 87.6897 30.8389 87.9205C31.0154 87.6989 31.2396 87.5199 31.4949 87.397C31.7502 87.274 32.0299 87.2102 32.3132 87.2104L32.313 87.2104Z" fill="#2F2E41"/>
<path d="M28.2583 89.042C31.3218 89.042 33.8052 86.5586 33.8052 83.4951C33.8052 80.4317 31.3218 77.9482 28.2583 77.9482C25.1948 77.9482 22.7114 80.4317 22.7114 83.4951C22.7114 86.5586 25.1948 89.042 28.2583 89.042Z" fill="#2F2E41"/>
<path d="M23.9051 80.0552C24.8609 78.9804 26.1969 78.3188 27.6311 78.2103C29.0654 78.1018 30.4857 78.5547 31.5924 79.4735C31.5471 79.4304 31.5019 79.3869 31.4551 79.3451C30.3594 78.3635 28.9186 77.8573 27.4497 77.938C25.9807 78.0187 24.6041 78.6797 23.6224 79.7754C22.6408 80.8711 22.1347 82.3119 22.2154 83.7808C22.2961 85.2498 22.957 86.6264 24.0527 87.608C24.0633 87.6175 24.0738 87.6269 24.0844 87.6362C24.1315 87.6781 24.1799 87.7176 24.2281 87.7577C23.1859 86.7663 22.5698 85.4088 22.5095 83.9717C22.4493 82.5346 22.9498 81.1303 23.9053 80.0552L23.9051 80.0552Z" fill="#2F2E41"/>
<path d="M28.2111 88.9955C30.1842 88.9955 31.7836 87.3961 31.7836 85.4231C31.7836 83.45 30.1842 81.8506 28.2111 81.8506C26.2381 81.8506 24.6387 83.45 24.6387 85.4231C24.6387 87.3961 26.2381 88.9955 28.2111 88.9955Z" fill="#A0616A"/>
<path d="M34.6041 94.7318V95.9305C34.3847 96.0707 34.163 96.2019 33.9369 96.3262C33.8464 96.376 33.756 96.4235 33.6655 96.471L33.6112 96.4981C33.4981 96.5547 33.3872 96.6135 33.272 96.6678C33.2697 96.67 33.2651 96.67 33.2629 96.6723C32.7509 96.9172 32.2227 97.1265 31.682 97.2987C31.6798 97.2987 31.6775 97.301 31.6752 97.301C30.8192 97.5718 29.9367 97.75 29.0427 97.8325C28.6514 97.8709 28.2556 97.889 27.8553 97.889C26.7581 97.8893 25.6656 97.7464 24.6054 97.4638C24.0646 97.3217 23.5341 97.1426 23.0178 96.9278C23.0132 96.9256 23.0109 96.9256 23.0064 96.9233C22.9544 96.9007 22.8978 96.8781 22.8458 96.8555C22.5903 96.7446 22.3415 96.6248 22.0972 96.4981L21.991 96.4439C21.7308 96.3059 21.4753 96.1612 21.2242 96.0051L21.2107 95.9983C20.8241 95.7575 20.4511 95.4955 20.0934 95.2135C19.9102 95.0733 19.7339 94.9263 19.5619 94.7725C19.4715 94.6956 19.381 94.6142 19.2951 94.535C18.9647 94.2299 18.6513 93.9067 18.3564 93.5671C18.3956 93.3315 18.453 93.0993 18.5284 92.8727L18.5306 92.8705C18.5441 92.8319 18.56 92.7941 18.5781 92.7574C18.5906 92.7249 18.6049 92.6932 18.621 92.6624C19.0259 91.9048 19.7587 91.717 20.6679 91.6763C21.1813 91.6537 21.7489 91.6786 22.3483 91.6718C22.6649 91.6695 22.9928 91.6582 23.3208 91.6288C25.3902 91.4411 25.0148 90.2198 25.1075 89.5617C25.2002 88.9239 25.7747 89.4758 25.8131 89.5119L25.8153 89.5142C26.9864 90.0623 28.282 90.2894 29.5696 90.1723C29.7913 90.1452 30.0129 90.1294 30.2346 90.1226C30.8181 90.1158 30.6914 90.2832 30.4902 90.4211C30.3925 90.4854 30.2905 90.5429 30.1849 90.593C30.1849 90.593 30.0921 91.1584 29.9971 92.0043C29.9067 92.8139 31.4581 93.1939 31.587 93.2233C31.5897 93.2251 31.5929 93.2259 31.5961 93.2255C32.1626 93.0786 32.7592 93.0943 33.3172 93.2708H33.3195C33.6383 93.388 33.9229 93.5831 34.1472 93.8382C34.3715 94.0934 34.5286 94.4005 34.6041 94.7318Z" fill="#EE8C34"/>
<path d="M23.0404 96.1854C23.0404 96.3527 23.036 96.5133 23.0292 96.6649C23.027 96.7553 23.0224 96.8435 23.0179 96.9272C23.0134 96.9249 23.0111 96.925 23.0065 96.9227C22.9545 96.9001 22.898 96.8775 22.846 96.8548C22.5904 96.744 22.3416 96.6242 22.0974 96.4975L21.9911 96.4432C21.731 96.3053 21.4754 96.1605 21.2244 96.0045C21.2311 95.9253 21.2425 95.8461 21.2538 95.767C21.2786 95.5928 21.299 95.4164 21.3126 95.2423C21.4015 94.0188 21.1798 92.7928 20.668 91.678V91.6757C20.6228 91.5852 20.5957 91.5355 20.5957 91.5355C20.5957 91.5355 21.2538 90.9701 22.1923 91.5355C22.2523 91.5707 22.3052 91.6167 22.3485 91.6712C22.9139 92.3384 23.0676 94.5819 23.0404 96.1854Z" fill="#2F2E41"/>
<path d="M33.3105 95.8787C33.3015 96.132 33.2879 96.3966 33.2721 96.6657V96.668C33.2699 96.6702 33.2652 96.6702 33.263 96.6725C32.7511 96.9174 32.2228 97.1267 31.6821 97.299C31.6799 97.299 31.6777 97.3012 31.6754 97.3012L31.6505 96.6657L31.6482 96.582L31.5284 93.4881C31.5252 93.4181 31.5362 93.3481 31.5608 93.2824C31.5853 93.2168 31.623 93.1568 31.6714 93.1061C31.7198 93.0553 31.7779 93.0149 31.8424 92.9873C31.9068 92.9597 31.9762 92.9454 32.0463 92.9453H33.1929C33.2494 92.9453 33.2902 93.0607 33.3174 93.2687V93.271C33.373 94.1394 33.3707 95.0105 33.3105 95.8787Z" fill="#2F2E41"/>
<path d="M25.1558 80.958V84.5314H25.9831L27.0359 83.4033L26.895 84.5314H30.552L30.3259 83.4033L30.7782 84.5314H31.3612V80.958H25.1558Z" fill="#2F2E41"/>
<path d="M24.5916 85.1883C24.7474 85.1883 24.8736 84.9568 24.8736 84.6713C24.8736 84.3858 24.7474 84.1543 24.5916 84.1543C24.4358 84.1543 24.3096 84.3858 24.3096 84.6713C24.3096 84.9568 24.4358 85.1883 24.5916 85.1883Z" fill="#A0616A"/>
<path d="M31.8313 85.1883C31.9871 85.1883 32.1134 84.9568 32.1134 84.6713C32.1134 84.3858 31.9871 84.1543 31.8313 84.1543C31.6756 84.1543 31.5493 84.3858 31.5493 84.6713C31.5493 84.9568 31.6756 85.1883 31.8313 85.1883Z" fill="#A0616A"/>
<path d="M35.3712 95.4011C35.1812 95.5436 34.9845 95.6838 34.7855 95.815C34.7244 95.8557 34.6656 95.8941 34.6046 95.9303C34.3851 96.0705 34.1635 96.2017 33.9373 96.3261C33.8469 96.3758 33.7565 96.4233 33.666 96.4708V93.9785C33.666 93.9785 34.0278 94.268 34.6046 94.7497C34.6769 94.8108 34.7515 94.8741 34.8307 94.942C34.998 95.0822 35.179 95.236 35.3712 95.4011Z" fill="#4BC7B6"/>
<path d="M39.5277 81.6009C38.9253 79.8703 37.9526 78.2919 36.6775 76.9758C35.4024 75.6597 33.8556 74.6376 32.1449 73.9808C30.4341 73.3239 28.6007 73.0482 26.7725 73.1727C24.9442 73.2972 23.1652 73.819 21.5593 74.7018C19.9534 75.5845 18.5595 76.8069 17.4746 78.2838C16.3897 79.7606 15.64 81.4563 15.2779 83.2526C14.9157 85.049 14.9497 86.9027 15.3775 88.6845C15.8053 90.4664 16.6167 92.1334 17.755 93.5695C17.8681 93.712 17.9857 93.8545 18.1055 93.9924C18.1146 94.0015 18.1213 94.0105 18.1304 94.0196C18.4252 94.3592 18.7386 94.6824 19.069 94.9875C19.1549 95.0667 19.2454 95.1481 19.3358 95.225C19.5078 95.3788 19.6841 95.5258 19.8673 95.666C20.225 95.948 20.598 96.21 20.9846 96.4508L20.9982 96.4576C21.2492 96.6137 21.5047 96.7584 21.7649 96.8964L21.8711 96.9506C22.1154 97.0773 22.3642 97.1972 22.6197 97.308C22.6717 97.3306 22.7283 97.3532 22.7803 97.3758C22.7848 97.3781 22.7871 97.3781 22.7917 97.3803C23.308 97.5951 23.8385 97.7742 24.3793 97.9163C25.4395 98.1989 26.532 98.3419 27.6292 98.3415C28.0295 98.3415 28.4253 98.3234 28.8166 98.285C29.7106 98.2025 30.5932 98.0243 31.4492 97.7535C31.4515 97.7535 31.4537 97.7512 31.4559 97.7512C31.9966 97.579 32.5249 97.3697 33.0368 97.1248C33.039 97.1225 33.0437 97.1225 33.0459 97.1203C33.1612 97.066 33.272 97.0072 33.3851 96.9506L33.4394 96.9235C33.5299 96.876 33.6203 96.8285 33.7108 96.7787C33.9369 96.6544 34.1586 96.5232 34.378 96.383C34.4391 96.3467 34.4978 96.3083 34.5589 96.2676C34.7579 96.1364 34.9547 95.9962 35.1446 95.8537C35.1786 95.8289 35.2147 95.804 35.2487 95.7768C37.3675 94.1685 38.9227 91.9307 39.6914 89.3841C40.4601 86.8375 40.4028 84.113 39.5277 81.6009V81.6009ZM34.8325 95.2273C34.7579 95.2861 34.681 95.3426 34.6042 95.3946C34.5295 95.4512 34.4549 95.5054 34.378 95.5552C34.3124 95.6027 34.2468 95.6479 34.1789 95.6909C34.1224 95.7293 34.0658 95.7655 34.0093 95.8017C33.8217 95.9193 33.6317 96.0324 33.4394 96.141L33.3783 96.1749C33.2923 96.2224 33.2064 96.2676 33.1205 96.3128C33.1091 96.3196 33.0956 96.3242 33.0843 96.3309L33.0707 96.3377C32.9622 96.3943 32.8514 96.4485 32.7405 96.5006C32.3129 96.7065 31.8725 96.8848 31.422 97.0343C31.3632 97.0547 31.3044 97.075 31.2456 97.0931C30.4354 97.3508 29.5998 97.5206 28.7533 97.5997C28.3824 97.6336 28.0069 97.6517 27.6292 97.6517C26.5914 97.6539 25.5579 97.5185 24.5557 97.2492C24.0413 97.1149 23.5372 96.9441 23.0472 96.738C22.9952 96.7177 22.9432 96.6951 22.8934 96.6747C22.8663 96.6634 22.8414 96.6521 22.8142 96.6385C22.6016 96.5458 22.3914 96.444 22.1855 96.3377L22.086 96.2857C21.835 96.1545 21.5884 96.0143 21.3487 95.865C21.2605 95.8108 21.1723 95.7542 21.0864 95.6954C20.815 95.5167 20.5504 95.3245 20.2925 95.1232C20.1184 94.992 19.951 94.8518 19.7882 94.7071C19.7023 94.6347 19.6185 94.5556 19.5372 94.4809C19.2165 94.1848 18.9129 93.8707 18.628 93.5401C18.533 93.4315 18.4402 93.323 18.352 93.2099C18.3319 93.1875 18.3131 93.1641 18.2955 93.1398C16.826 91.2855 15.9422 89.0356 15.7566 86.6769C15.5711 84.3183 16.0922 81.9578 17.2537 79.8966C18.4151 77.8353 20.1641 76.1667 22.2777 75.1036C24.3913 74.0404 26.7737 73.6309 29.121 73.9272C31.4683 74.2235 33.6741 75.2122 35.4572 76.7672C37.2403 78.3223 38.5199 80.3732 39.1326 82.6584C39.7454 84.9436 39.6636 87.3595 38.8978 89.5981C38.1319 91.8366 36.7167 93.7963 34.8325 95.2273V95.2273Z" fill="#3F3D56"/>
<path d="M27.7005 135.025C30.4268 135.025 32.6369 132.815 32.6369 130.089C32.6369 127.362 30.4268 125.152 27.7005 125.152C24.9742 125.152 22.7642 127.362 22.7642 130.089C22.7642 132.815 24.9742 135.025 27.7005 135.025Z" fill="#2F2E41"/>
<path d="M23.8472 127.427C24.6449 126.63 24.8066 125.498 24.2083 124.9C23.61 124.301 22.4784 124.463 21.6807 125.261C20.883 126.058 20.7213 127.19 21.3196 127.788C21.9179 128.387 23.0495 128.225 23.8472 127.427Z" fill="#2F2E41"/>
<path d="M32.8455 125.859C33.1778 125.081 32.6063 124.091 31.5688 123.648C30.5314 123.205 29.421 123.476 29.0886 124.254C28.7562 125.032 29.3278 126.022 30.3652 126.465C31.4027 126.909 32.5131 126.637 32.8455 125.859Z" fill="#2F2E41"/>
<path d="M33.6052 139.664L33.0236 138.749C32.7769 138.197 32.3216 137.766 31.7577 137.55C31.1938 137.334 30.5671 137.35 30.0149 137.594C29.4627 137.839 29.03 138.293 28.8117 138.856C28.5933 139.419 28.607 140.046 28.8498 140.599L29.0151 141.192L29.2034 141.865C29.9653 141.768 30.7171 141.604 31.4499 141.374C31.4521 141.374 31.4541 141.373 31.4556 141.371C31.9972 141.2 32.526 140.99 33.038 140.744C33.0408 140.741 33.0435 140.741 33.0465 140.739C33.1605 140.684 33.2717 140.627 33.3857 140.57C33.4043 140.562 33.4224 140.552 33.4399 140.542C33.531 140.496 33.6224 140.448 33.7108 140.399C33.8019 140.351 33.8903 140.299 33.9758 140.245L33.6052 139.664Z" fill="#CACACA"/>
<path d="M27.8569 135.457C30.1707 135.457 32.0463 133.581 32.0463 131.268C32.0463 128.954 30.1707 127.078 27.8569 127.078C25.5432 127.078 23.6675 128.954 23.6675 131.268C23.6675 133.581 25.5432 135.457 27.8569 135.457Z" fill="#FFB6B6"/>
<path d="M33.9074 139.484C33.4453 138.716 32.8717 138.02 32.2053 137.42C31.7489 137.012 31.1582 136.787 30.5461 136.787H24.6445C24.3044 136.787 23.968 136.857 23.6559 136.992C23.3438 137.127 23.0627 137.324 22.83 137.572C22.5972 137.82 22.4178 138.113 22.3028 138.433C22.1878 138.753 22.1396 139.093 22.1613 139.433C22.1742 139.624 22.2086 139.814 22.264 139.997C22.3061 140.13 22.3585 140.26 22.4208 140.385L22.7116 140.967C22.7344 140.975 22.7572 140.987 22.7799 140.995C22.7856 140.998 22.7886 140.998 22.7913 141.001C22.9111 141.049 23.0309 141.098 23.1534 141.143C23.5546 141.297 23.9639 141.428 24.3794 141.537C25.0483 141.716 25.7311 141.839 26.4206 141.905C26.8227 141.942 27.2247 141.962 27.6295 141.962C28.0315 141.962 28.4249 141.942 28.8183 141.905C28.9467 141.893 29.0749 141.879 29.2033 141.865C29.9652 141.769 30.7171 141.604 31.4498 141.374C31.452 141.374 31.454 141.373 31.4555 141.371C31.9971 141.2 32.5259 140.99 33.0379 140.744C33.0407 140.741 33.0435 140.741 33.0464 140.739C33.1604 140.684 33.2716 140.627 33.3856 140.57C33.4043 140.562 33.4223 140.552 33.4398 140.542C33.531 140.496 33.6223 140.448 33.7107 140.399C33.8019 140.351 33.8902 140.3 33.9757 140.245C34.067 140.197 34.1525 140.143 34.2409 140.089C34.1327 139.875 34.0214 139.675 33.9074 139.484Z" fill="#CACACA"/>
<path d="M25.713 137.551C25.1668 137.295 24.5418 137.266 23.9744 137.471C23.4071 137.675 22.9436 138.095 22.6853 138.64L22.1607 139.432L21.9098 139.812L21.5278 140.388C21.6076 140.43 21.6846 140.473 21.7645 140.516L21.8699 140.57C22.1152 140.695 22.3631 140.815 22.6198 140.926C22.6482 140.941 22.6797 140.952 22.711 140.966C22.7338 140.975 22.7566 140.986 22.7793 140.995C22.785 140.998 22.7879 140.998 22.7907 141C22.9104 141.049 23.0303 141.097 23.1528 141.143C23.554 141.296 23.9633 141.428 24.3788 141.536C25.0477 141.716 25.7305 141.839 26.42 141.904L26.6196 141.229L26.8135 140.584C27.0691 140.036 27.0968 139.409 26.8905 138.84C26.6842 138.271 26.2607 137.808 25.713 137.551Z" fill="#CACACA"/>
<path d="M23.4546 128.632C24.4119 129.292 25.5482 129.643 26.7109 129.638C26.2962 129.926 25.824 130.12 25.327 130.208C26.8729 130.539 28.4706 130.548 30.0201 130.234C30.3645 130.179 30.6969 130.065 31.0025 129.897C31.1549 129.812 31.2876 129.695 31.3921 129.556C31.4965 129.416 31.5704 129.256 31.6089 129.086C31.7119 128.498 31.2536 127.963 30.7772 127.603C30.0479 127.06 29.2071 126.686 28.3155 126.508C27.4238 126.329 26.5038 126.352 25.6218 126.573C25.0341 126.691 24.4994 126.993 24.0949 127.436C23.8992 127.661 23.7811 127.943 23.7579 128.24C23.7348 128.538 23.8079 128.835 23.9664 129.087L23.4546 128.632Z" fill="#2F2E41"/>
<path d="M39.5296 125.22C38.9273 123.49 37.9547 121.911 36.6796 120.595C35.4045 119.278 33.8576 118.256 32.1468 117.599C30.436 116.942 28.6024 116.666 26.7741 116.791C24.9457 116.915 23.1664 117.437 21.5605 118.32C19.9545 119.203 18.5604 120.425 17.4755 121.902C16.3906 123.379 15.6409 125.075 15.2787 126.871C14.9166 128.668 14.9507 130.522 15.3787 132.304C15.8066 134.086 16.6182 135.753 17.7567 137.189C17.8678 137.331 17.9877 137.474 18.1074 137.611C18.1142 137.621 18.1219 137.63 18.1302 137.639C18.4255 137.979 18.7396 138.302 19.071 138.606C19.1565 138.686 19.2449 138.768 19.3362 138.845C19.5071 138.999 19.6839 139.145 19.8692 139.284C19.9405 139.341 20.0118 139.398 20.086 139.453C20.3738 139.672 20.6761 139.874 20.984 140.071C20.9893 140.071 20.9943 140.073 20.9982 140.077C21.0866 140.131 21.1779 140.185 21.2691 140.237C21.3546 140.288 21.443 140.339 21.5286 140.388C21.6083 140.43 21.6853 140.473 21.7652 140.516L21.8706 140.57C22.1159 140.696 22.3638 140.815 22.6205 140.927C22.6489 140.941 22.6804 140.952 22.7117 140.966C22.7345 140.975 22.7574 140.986 22.7801 140.995C22.7858 140.998 22.7887 140.998 22.7914 141.001C22.9112 141.049 23.031 141.098 23.1535 141.143C23.5547 141.297 23.964 141.428 24.3795 141.537C25.0484 141.716 25.7312 141.839 26.4207 141.904C26.8228 141.941 27.2248 141.961 27.6296 141.961C28.0317 141.961 28.4251 141.941 28.8185 141.904C28.9468 141.893 29.075 141.879 29.2034 141.864C29.9653 141.768 30.7172 141.604 31.4499 141.374C31.4521 141.374 31.4541 141.373 31.4556 141.371C31.9972 141.2 32.526 140.99 33.038 140.744C33.0408 140.741 33.0436 140.741 33.0465 140.738C33.1605 140.684 33.2717 140.627 33.3857 140.57C33.4044 140.562 33.4224 140.552 33.4399 140.542C33.5311 140.496 33.6224 140.448 33.7108 140.399C33.802 140.351 33.8903 140.299 33.9758 140.245C34.0672 140.197 34.1526 140.142 34.241 140.088C34.2867 140.06 34.3323 140.031 34.3779 140.003C34.4407 139.966 34.4976 139.929 34.5604 139.886C34.6459 139.832 34.7315 139.772 34.814 139.712C34.9253 139.635 35.0365 139.555 35.1448 139.472C35.1813 139.449 35.2165 139.423 35.2503 139.396C37.3675 137.786 38.9215 135.548 39.6901 133.002C40.4587 130.456 40.4025 127.733 39.5296 125.22L39.5296 125.22ZM34.8341 138.845C34.7599 138.905 34.6829 138.962 34.6061 139.014C34.5289 139.071 34.4549 139.125 34.3779 139.176C34.3123 139.222 34.2467 139.267 34.1784 139.31C34.1722 139.315 34.1655 139.32 34.1584 139.324C34.1099 139.358 34.0586 139.39 34.0101 139.421C33.9759 139.441 33.9418 139.464 33.9075 139.484C33.8077 139.547 33.7079 139.607 33.6053 139.664C33.5511 139.698 33.4941 139.729 33.4399 139.76C33.42 139.772 33.4 139.783 33.38 139.795C33.2916 139.843 33.2062 139.886 33.1206 139.932C33.1093 139.94 33.0949 139.943 33.0865 139.951C33.0811 139.952 33.0761 139.954 33.0721 139.957C32.9638 140.014 32.8526 140.068 32.7415 140.12C32.3134 140.326 31.8725 140.504 31.4214 140.653C31.3644 140.673 31.3046 140.696 31.2475 140.713C30.5204 140.943 29.7729 141.104 29.0152 141.192C28.9297 141.203 28.8413 141.212 28.7529 141.22C28.3823 141.254 28.0088 141.271 27.6296 141.271C27.2932 141.271 26.9539 141.257 26.6204 141.229C25.9231 141.171 25.2323 141.05 24.5563 140.87C24.0418 140.735 23.5377 140.564 23.0482 140.356C23.0224 140.345 22.9968 140.336 22.9712 140.325C22.9427 140.314 22.9198 140.305 22.8942 140.294C22.8657 140.282 22.8429 140.271 22.8143 140.257C22.629 140.177 22.4437 140.088 22.2642 139.997C22.2384 139.983 22.2128 139.971 22.1872 139.957L22.0874 139.906C22.0275 139.875 21.9677 139.843 21.9106 139.812C21.7196 139.709 21.5314 139.598 21.349 139.484C21.2805 139.441 21.2065 139.396 21.138 139.35L21.0866 139.316C20.9269 139.207 20.7674 139.099 20.6105 138.982C20.505 138.902 20.3967 138.825 20.2941 138.743C20.1202 138.612 19.9519 138.472 19.7895 138.326C19.7039 138.255 19.6184 138.175 19.5386 138.101C19.2176 137.805 18.9139 137.491 18.6292 137.16C18.5351 137.052 18.441 136.944 18.3526 136.83C18.3327 136.807 18.3155 136.784 18.2955 136.758C16.8257 134.904 15.9416 132.654 15.7558 130.295C15.5701 127.936 16.0912 125.575 17.2526 123.513C18.4141 121.452 20.1633 119.783 22.2771 118.72C24.3909 117.656 26.7736 117.246 29.1212 117.543C31.4688 117.839 33.675 118.828 35.4584 120.383C37.2418 121.938 38.5216 123.989 39.1345 126.275C39.7474 128.56 39.6657 130.976 38.8998 133.215C38.1339 135.454 36.7185 137.414 34.8341 138.845H34.8341Z" fill="#3F3D56"/>
<path d="M48.7083 63.6639C44.3212 59.962 38.9527 57.6151 33.2561 56.9087C27.5596 56.2023 21.7804 57.1668 16.6221 59.685C11.4637 62.2032 7.1484 66.1664 4.20136 71.0923C1.25432 76.0183 -0.197426 81.6946 0.022779 87.4306C0.242985 93.1666 2.12564 98.715 5.44167 103.401C8.75769 108.086 13.3641 111.707 18.7004 113.822C24.0367 115.937 29.8727 116.456 35.4984 115.315C41.124 114.174 46.2968 111.422 50.3871 107.395L86.7087 138.043C87.2617 138.508 87.9763 138.734 88.6961 138.673C89.4158 138.612 90.0818 138.267 90.5482 137.716C91.0146 137.164 91.2432 136.45 91.1839 135.73C91.1247 135.01 90.7824 134.343 90.2321 133.875L90.2281 133.872L53.9065 103.224C58.1259 97.1681 59.9318 89.7549 58.9702 82.437C58.0086 75.1191 54.3489 68.4241 48.7083 63.6639ZM46.3668 100.273C43.5371 103.626 39.7767 106.065 35.5608 107.281C31.345 108.498 26.8632 108.436 22.6822 107.106C18.5012 105.775 14.8087 103.234 12.0717 99.8043C9.33477 96.3749 7.67621 92.2108 7.30581 87.8387C6.93541 83.4666 7.86981 79.0829 9.99083 75.2419C12.1118 71.4008 15.3242 68.275 19.2218 66.2597C23.1193 64.2443 27.5269 63.43 31.8873 63.9197C36.2476 64.4094 40.3648 66.181 43.7182 69.0106C48.2151 72.805 51.0204 78.2304 51.5171 84.0932C52.0138 89.9559 50.1612 95.7759 46.3668 100.273Z" fill="#4BC7B6"/>
<path opacity="0.3" d="M15.1042 102.921C10.8483 99.3298 8.0986 94.2692 7.40119 88.7442C6.70379 83.2193 8.10965 77.6341 11.3396 73.0977C10.9154 73.5248 10.5054 73.9722 10.1094 74.4398C8.23062 76.6664 6.80878 79.2413 5.92508 82.0174C5.04139 84.7935 4.71314 87.7164 4.95907 90.6194C5.20501 93.5223 6.02032 96.3484 7.35845 98.9363C8.69658 101.524 10.5313 103.823 12.7579 105.702C14.9845 107.581 17.5594 109.003 20.3355 109.886C23.1116 110.77 26.0345 111.098 28.9375 110.852C31.8405 110.606 34.6665 109.791 37.2544 108.453C39.8423 107.115 42.1412 105.28 44.02 103.053C44.4151 102.585 44.7871 102.106 45.1361 101.615C41.2077 105.562 35.9386 107.887 30.3751 108.129C24.8116 108.371 19.3605 106.512 15.1042 102.921Z" fill="black"/>
<path d="M121.932 139.189C122.216 138.843 122.42 138.438 122.531 138.004C122.641 137.57 122.655 137.118 122.572 136.678C122.488 136.238 122.31 135.822 122.048 135.458C121.786 135.095 121.448 134.793 121.057 134.575L114.437 107.477L109.607 109.018L116.756 135.932C116.432 136.613 116.37 137.389 116.58 138.112C116.791 138.836 117.259 139.458 117.897 139.859C118.535 140.261 119.298 140.414 120.042 140.291C120.786 140.167 121.458 139.775 121.932 139.189H121.932Z" fill="#FFB6B6"/>
<path d="M118.51 121.856L114.981 124.901L110.043 129.158L107.862 117.999L107.634 116.838L107.454 115.918L112.458 107.202L116.629 107.441L116.914 107.458L116.919 107.521L116.985 108.106L117.84 115.798L117.86 115.983L118.51 121.856Z" fill="#3F3D56"/>
<path d="M95.4402 197.599L91.9452 197.599L90.2822 184.117L95.4411 184.117L95.4402 197.599Z" fill="#FFB6B6"/>
<path d="M96.3322 200.987L85.062 200.986V200.844C85.0621 199.68 85.5243 198.565 86.3469 197.742C87.1696 196.919 88.2853 196.457 89.4487 196.457H89.449L96.3324 196.457L96.3322 200.987Z" fill="#2F2E41"/>
<path d="M131.933 197.884L128.438 197.884L126.775 184.402L131.934 184.403L131.933 197.884Z" fill="#FFB6B6"/>
<path d="M132.825 201.272L121.555 201.271V201.129C121.555 199.965 122.017 198.85 122.84 198.027C123.662 197.204 124.778 196.742 125.941 196.742H125.942L132.825 196.742L132.825 201.272Z" fill="#2F2E41"/>
<path d="M134.727 192.518L125.318 193.943L111.631 147.62L97.0936 194.228L86.5449 192.803L100.23 138.634V134.358L102.083 127.943L101.889 126.207L100.54 114.064L99.956 108.799L99.9181 108.458C99.8863 108.173 99.9619 107.886 100.13 107.653C100.298 107.42 100.547 107.258 100.828 107.199L105.219 106.275H112.395L116.629 107.441L116.919 107.521L117.05 107.558L116.985 108.106L115.993 116.425L115.939 116.881L114.981 124.901L114.77 126.66C123.038 132.647 123.323 138.634 123.323 138.634L134.727 192.518Z" fill="#2F2E41"/>
<path d="M107.94 102.668C111.807 102.668 114.942 99.5327 114.942 95.6654C114.942 91.7981 111.807 88.6631 107.94 88.6631C104.073 88.6631 100.938 91.7981 100.938 95.6654C100.938 99.5327 104.073 102.668 107.94 102.668Z" fill="#FFB6B6"/>
<path d="M115.294 125.05L101.442 126.861L101.701 128.84L115.553 127.029L115.294 125.05Z" fill="#3F3D56"/>
<path d="M82.8622 127.458C82.9947 127.544 83.1202 127.64 83.2375 127.745L96.9383 124.253L97.873 120.947L103.046 121.706L101.96 127.718C101.872 128.204 101.629 128.648 101.267 128.984C100.906 129.32 100.445 129.529 99.954 129.581L83.9567 131.265C83.696 131.814 83.2743 132.271 82.7478 132.574C82.2212 132.878 81.6148 133.014 81.0091 132.964C80.4034 132.915 79.8271 132.682 79.357 132.297C78.8869 131.912 78.5451 131.392 78.3772 130.808C78.2093 130.224 78.2232 129.603 78.4171 129.027C78.6109 128.451 78.9755 127.948 79.4624 127.584C79.9493 127.22 80.5354 127.013 81.1427 126.991C81.75 126.968 82.3498 127.131 82.8622 127.458Z" fill="#FFB6B6"/>
<path d="M103.935 108.984L101.512 107.131C100.857 106.882 99.9591 107.589 99.8016 108.271L96.3804 122.241L103.508 127.373L104.506 125.805L103.935 108.984Z" fill="#3F3D56"/>
<g opacity="0.2">
<path opacity="0.2" d="M117.84 115.798C117.235 116.038 116.619 116.247 115.993 116.425C115.793 116.485 115.588 116.542 115.386 116.596C114.051 116.966 112.68 117.188 111.297 117.257C110.702 117.283 110.106 117.266 109.513 117.209C108.876 117.145 108.247 117.021 107.634 116.838C107.614 116.833 107.591 116.827 107.571 116.821C106.296 116.459 105.128 115.795 104.164 114.885C103.949 114.676 103.748 114.452 103.563 114.215C103.03 113.563 102.64 112.808 102.416 111.996C102.192 111.185 102.14 110.335 102.263 109.503C102.286 109.352 102.319 109.202 102.36 109.055C102.467 108.654 102.609 108.263 102.784 107.886C102.861 107.709 102.947 107.536 103.038 107.364L106.26 106.275H112.395L116.629 107.441L116.914 107.459L116.919 107.521L117.051 107.558L116.985 108.106L117.84 115.798Z" fill="black"/>
</g>
<path d="M102.574 89.8686C101.265 89.7081 99.8275 89.8216 98.8068 90.6576C97.7861 91.4936 97.4567 93.2314 98.4231 94.1296C99.2786 94.9248 100.616 94.7378 101.762 94.9639C102.749 95.1851 103.634 95.7312 104.274 96.5146C104.914 97.298 105.273 98.2735 105.293 99.285C105.276 102.186 102.492 104.382 101.992 107.24C101.651 109.19 102.473 111.242 103.895 112.619C105.317 113.997 107.272 114.741 109.241 114.943C111.21 115.144 113.202 114.836 115.116 114.33C117.037 113.822 118.93 113.101 120.542 111.939C122.155 110.777 123.477 109.138 123.995 107.218C124.512 105.299 124.141 103.098 122.806 101.625C121.278 99.9373 118.737 99.357 117.415 97.5035C115.934 95.4258 116.482 92.4669 115.283 90.2144C114.482 88.7104 112.967 87.6846 111.351 87.1442C109.735 86.6039 108.01 86.4972 106.307 86.4449C105.412 86.4174 104.489 86.4082 103.655 86.7345C102.821 87.0609 102.088 87.8046 102.045 88.699C102.002 89.5935 102.574 89.8686 102.574 89.8686Z" fill="#2F2E41"/>
<path d="M168.129 201.388H59.5068C59.4312 201.388 59.3587 201.358 59.3052 201.304C59.2517 201.251 59.2217 201.178 59.2217 201.102C59.2217 201.027 59.2517 200.954 59.3052 200.901C59.3587 200.847 59.4312 200.817 59.5068 200.817H168.129C168.205 200.817 168.277 200.847 168.331 200.901C168.384 200.954 168.414 201.027 168.414 201.102C168.414 201.178 168.384 201.251 168.331 201.304C168.277 201.358 168.205 201.388 168.129 201.388Z" fill="#CACACA"/>
<path d="M143.531 53.827C157.161 53.827 168.21 42.7775 168.21 29.1474C168.21 15.5172 157.161 4.46777 143.531 4.46777C129.901 4.46777 118.851 15.5172 118.851 29.1474C118.851 42.7775 129.901 53.827 143.531 53.827Z" fill="#4BC7B6"/>
<path d="M144.761 26.6531C144.761 28.1544 144.708 29.5216 144.6 30.7548C144.493 31.9701 144.359 33.1854 144.198 34.4008H142.643C142.483 33.1854 142.348 31.9701 142.241 30.7548C142.134 29.5216 142.08 28.1544 142.08 26.6531V21.6131H144.761V26.6531ZM145.217 38.7437C145.217 39.2263 145.056 39.6463 144.734 40.0037C144.413 40.3612 143.975 40.5399 143.421 40.5399C142.867 40.5399 142.429 40.3612 142.107 40.0037C141.786 39.6463 141.625 39.2263 141.625 38.7437C141.625 38.2612 141.786 37.8412 142.107 37.4837C142.429 37.1263 142.867 36.9476 143.421 36.9476C143.975 36.9476 144.413 37.1263 144.734 37.4837C145.056 37.8412 145.217 38.2612 145.217 38.7437Z" fill="white"/>
</g>
<defs>
<clipPath id="clip0_7789_266146">
<rect width="168" height="201.064" fill="white"/>
</clipPath>
</defs>
</svg>
