<svg width="29" height="29" viewBox="0 0 29 29" fill="none" xmlns="http://www.w3.org/2000/svg">
<g clip-path="url(#clip0_14111_376697)">
<path d="M19.2204 11.3037C20.6777 11.3037 21.8591 10.1223 21.8591 8.66502C21.8591 7.20773 20.6777 6.02637 19.2204 6.02637C17.7632 6.02637 16.5818 7.20773 16.5818 8.66502C16.5818 10.1223 17.7632 11.3037 19.2204 11.3037Z" stroke="white" stroke-width="2" stroke-linecap="round" stroke-linejoin="round"/>
<path d="M8.66539 17.4599C10.1227 17.4599 11.304 16.2786 11.304 14.8213C11.304 13.364 10.1227 12.1826 8.66539 12.1826C7.2081 12.1826 6.02673 13.364 6.02673 14.8213C6.02673 16.2786 7.2081 17.4599 8.66539 17.4599Z" stroke="white" stroke-width="2" stroke-linecap="round" stroke-linejoin="round"/>
<path d="M19.2204 23.6181C20.6777 23.6181 21.8591 22.4368 21.8591 20.9795C21.8591 19.5222 20.6777 18.3408 19.2204 18.3408C17.7632 18.3408 16.5818 19.5222 16.5818 20.9795C16.5818 22.4368 17.7632 23.6181 19.2204 23.6181Z" stroke="white" stroke-width="2" stroke-linecap="round" stroke-linejoin="round"/>
<path d="M10.9426 16.1514L16.95 19.652" stroke="white" stroke-width="2" stroke-linecap="round" stroke-linejoin="round"/>
<path d="M16.9412 9.99219L10.9426 13.4928" stroke="white" stroke-width="2" stroke-linecap="round" stroke-linejoin="round"/>
</g>
<defs>
<clipPath id="clip0_14111_376697">
<rect width="29" height="29" fill="white"/>
</clipPath>
</defs>
</svg>
