<svg width="60" height="60" viewBox="0 0 60 60" fill="none" xmlns="http://www.w3.org/2000/svg">
<circle cx="30" cy="30" r="29.5" fill="white" stroke="#CFECE9"/>
<path d="M27.9406 40.2967C25.6696 42.5678 21.9744 42.5678 19.7033 40.2967C17.4322 38.0257 17.4322 34.3306 19.7033 32.0595L23.8219 27.9408C26.0929 25.6698 29.7881 25.6698 32.0592 27.9408V27.9406C32.227 28.1038 32.3223 28.3272 32.3239 28.5611C32.3256 28.7949 32.2333 29.0198 32.068 29.1851C31.9026 29.3505 31.6779 29.4427 31.4439 29.4409C31.2101 29.4393 30.9866 29.344 30.8237 29.1764C29.2157 27.5685 26.6654 27.5685 25.0572 29.1764L20.9385 33.295C19.3306 34.903 19.3306 37.4533 20.9385 39.0615C22.5465 40.6697 25.0968 40.6694 26.705 39.0615L30.4119 35.3547H30.4117C30.5748 35.1871 30.7983 35.0918 31.0321 35.0902C31.2659 35.0885 31.4906 35.1806 31.656 35.3459C31.8213 35.5113 31.9134 35.736 31.9119 35.9698C31.9103 36.2038 31.815 36.4271 31.6472 36.5902L27.9404 40.2971L27.9406 40.2967ZM36.1779 32.0595C33.9069 34.3305 30.2117 34.3305 27.9406 32.0595C27.773 31.8966 27.6777 31.6731 27.6763 31.4392C27.6747 31.2054 27.7667 30.9807 27.932 30.8154C28.0974 30.65 28.3221 30.558 28.5559 30.5596C28.7897 30.561 29.0132 30.6563 29.1761 30.8239C30.7841 32.4318 33.3344 32.4318 34.9426 30.8239L39.0613 26.7053C40.6692 25.0973 40.6692 22.547 39.0613 20.9388C37.4533 19.3306 34.903 19.3309 33.2948 20.9388L29.5879 24.6457H29.5881C29.425 24.8133 29.2015 24.9088 28.9677 24.9104C28.7339 24.912 28.509 24.8198 28.3436 24.6544C28.1783 24.489 28.086 24.2644 28.0876 24.0303C28.0895 23.7965 28.1848 23.573 28.3526 23.4101L32.0594 19.7033C34.3304 17.4322 38.0256 17.4322 40.2967 19.7033C42.5678 21.9743 42.5678 25.6694 40.2967 27.9405L36.1779 32.0595Z" fill="#4BC7B6"/>
</svg>
