<svg width="62" height="62" viewBox="0 0 62 62" fill="none" xmlns="http://www.w3.org/2000/svg">
<circle cx="31" cy="31" r="30" fill="#232C36" stroke="#DBF2EF" stroke-opacity="0.3"/>
<path d="M28.9406 41.2967C26.6696 43.5678 22.9744 43.5678 20.7033 41.2967C18.4322 39.0257 18.4322 35.3306 20.7033 33.0595L24.8219 28.9408C27.0929 26.6698 30.7881 26.6698 33.0592 28.9408V28.9406C33.227 29.1038 33.3223 29.3272 33.3239 29.5611C33.3256 29.7949 33.2333 30.0198 33.068 30.1851C32.9026 30.3505 32.6779 30.4427 32.4439 30.4409C32.2101 30.4393 31.9866 30.344 31.8237 30.1764C30.2157 28.5685 27.6654 28.5685 26.0572 30.1764L21.9385 34.295C20.3306 35.903 20.3306 38.4533 21.9385 40.0615C23.5465 41.6697 26.0968 41.6694 27.705 40.0615L31.4119 36.3547H31.4117C31.5748 36.1871 31.7983 36.0918 32.0321 36.0902C32.2659 36.0885 32.4906 36.1806 32.656 36.3459C32.8213 36.5113 32.9134 36.736 32.9119 36.9698C32.9103 37.2038 32.815 37.4271 32.6472 37.5902L28.9404 41.2971L28.9406 41.2967ZM37.1779 33.0595C34.9069 35.3305 31.2117 35.3305 28.9406 33.0595C28.773 32.8966 28.6777 32.6731 28.6763 32.4392C28.6747 32.2054 28.7667 31.9807 28.932 31.8154C29.0974 31.65 29.3221 31.558 29.5559 31.5596C29.7897 31.561 30.0132 31.6563 30.1761 31.8239C31.7841 33.4318 34.3344 33.4318 35.9426 31.8239L40.0613 27.7053C41.6692 26.0973 41.6692 23.547 40.0613 21.9388C38.4533 20.3306 35.903 20.3309 34.2948 21.9388L30.5879 25.6457H30.5881C30.425 25.8133 30.2015 25.9088 29.9677 25.9104C29.7339 25.912 29.509 25.8198 29.3436 25.6544C29.1783 25.489 29.086 25.2644 29.0876 25.0303C29.0895 24.7965 29.1848 24.573 29.3526 24.4101L33.0594 20.7033C35.3304 18.4322 39.0256 18.4322 41.2967 20.7033C43.5678 22.9743 43.5678 26.6694 41.2967 28.9405L37.1779 33.0595Z" fill="#4BC7B6"/>
</svg>
