<svg width="13" height="12" viewBox="0 0 13 12" fill="none" xmlns="http://www.w3.org/2000/svg">
<path d="M4.50006 4.99994C4.77621 4.99994 5.00003 4.77612 5.00003 4.49997C5.00003 4.22382 4.77621 4 4.50006 4C4.22391 4 4 4.22382 4 4.49997C4 4.77612 4.22391 4.99994 4.50006 4.99994Z" fill="#4BC7B6"/>
<path d="M6.99994 4.49997C6.99994 4.77612 6.77612 4.99994 6.49997 4.99994C6.22382 4.99994 6 4.77612 6 4.49997C6 4.22382 6.22382 4 6.49997 4C6.77612 4 6.99994 4.22382 6.99994 4.49997Z" fill="#4BC7B6"/>
<path d="M8.49997 4.99994C8.77612 4.99994 9.00003 4.77612 9.00003 4.49997C9.00003 4.22382 8.77612 4 8.49997 4C8.22382 4 8 4.22382 8 4.49997C8 4.77612 8.22382 4.99994 8.49997 4.99994Z" fill="#4BC7B6"/>
<path fill-rule="evenodd" clip-rule="evenodd" d="M2 0C1.17157 0 0.5 0.671571 0.5 1.5V7.5C0.5 8.32843 1.17157 9 2 9H2.49997V11.5001C2.49997 11.6894 2.60703 11.8625 2.77636 11.9472C2.94578 12.0319 3.14851 12.0137 3.30003 11.9L7.1666 9.00008H11C11.8284 9.00008 12.5 8.32851 12.5 7.50008V1.50008C12.5 0.671655 11.8284 8.35714e-05 11 8.35714e-05L2 0ZM1.50003 1.5C1.50003 1.22385 1.72385 1.00003 2 1.00003H11C11.2762 1.00003 11.5 1.22385 11.5 1.5V7.5C11.5 7.77615 11.2762 7.99997 11 7.99997H6.99993C6.89178 7.99997 6.78648 8.03513 6.69993 8.1L3.5 10.5V8.50003C3.5 8.22388 3.27618 7.99997 3.00003 7.99997H2C1.72385 7.99997 1.50003 7.77615 1.50003 7.5V1.5Z" fill="#4BC7B6"/>
</svg>
