<svg width="60" height="60" viewBox="0 0 60 60" fill="none" xmlns="http://www.w3.org/2000/svg">
<circle cx="30" cy="30" r="29.5" fill="white" stroke="#CFECE9"/>
<path d="M41.15 28.344C41.15 27.1877 40.2456 26.2407 39.1051 26.1621C38.1963 21.9872 34.46 18.85 30 18.85C25.54 18.85 21.8037 21.9872 20.8949 26.1621C19.7552 26.2408 18.85 27.1877 18.85 28.3441V30.9408C18.85 31.992 19.7079 32.8457 20.7619 32.8457H21.0487C21.518 32.8457 21.9 32.4658 21.9 31.9963C21.9 31.9584 21.8915 31.9176 21.8843 31.8894C21.8915 31.8612 21.9 31.8206 21.9 31.7826V28.1305C21.9 23.6824 25.5338 20.0631 30 20.0631C34.4671 20.0631 38.1 23.6824 38.1 28.1305V30.8696C38.1 34.4768 35.6928 37.3401 32.2217 38.2043C32.0412 38.0933 31.803 38.0239 31.4831 38.0239H28.5168C28.0049 38.0239 27.6927 38.1983 27.5146 38.4379C27.3427 38.6691 27.3154 38.9354 27.3154 39.087C27.3154 39.2387 27.3429 39.5049 27.515 39.7361C27.6932 39.9756 28.0053 40.15 28.5168 40.15H31.4831C31.9192 40.15 32.2118 40.0241 32.4003 39.8346C32.5511 39.683 32.6228 39.5032 32.656 39.3486C35.936 38.4861 38.3817 36.0471 39.0988 32.8456H39.2381C40.2921 32.8456 41.15 31.992 41.15 30.9407V28.344ZM20.6833 28.1304V31.6282C20.3367 31.5891 20.0666 31.2949 20.0666 30.9407V28.344C20.0666 27.9243 20.3351 27.5661 20.7111 27.4289C20.6931 27.6603 20.6833 27.8941 20.6833 28.1304ZM39.9333 30.9407C39.9333 31.3054 39.6468 31.6067 39.2853 31.631C39.306 31.3806 39.3166 31.1269 39.3166 30.8695V28.1304C39.3166 27.8943 39.3068 27.6607 39.2889 27.4299C39.6649 27.5671 39.9333 27.9252 39.9333 28.345L39.9333 30.9407Z" fill="#4BC7B6" stroke="#4BC7B6" stroke-width="0.3"/>
</svg>
