<svg width="333" height="70" viewBox="0 0 333 70" fill="none" xmlns="http://www.w3.org/2000/svg">
<rect x="333" y="70" width="333" height="70" rx="10" transform="rotate(-180 333 70)" fill="#D5F1ED"/>
<path d="M0 58.0001H333V60.0001C333 65.523 328.523 70.0001 323 70.0001H9.99999C4.47715 70.0001 0 65.523 0 60.0001V58.0001Z" fill="#A2E1D9"/>
<circle cx="28.5" cy="19.5" r="14.5" fill="#A2E1D9"/>
<circle cx="30.5" cy="21.5" r="12.5" fill="#D5F1ED"/>
<path d="M131.594 13.5046L126.314 16.5527L129.363 21.8323L134.642 18.7841L131.594 13.5046Z" fill="#EE8C34"/>
<path d="M131.661 22.9326L128.479 17.4197L133.991 14.2369L137.174 19.7499L131.661 22.9326ZM128.846 17.5184L131.76 22.5647L136.806 19.6512L133.893 14.6049L128.846 17.5184Z" fill="#2F2E41"/>
<path d="M126.723 37.7467C128.136 37.7467 129.281 36.6012 129.281 35.1883C129.281 33.7753 128.136 32.6299 126.723 32.6299C125.31 32.6299 124.164 33.7753 124.164 35.1883C124.164 36.6012 125.31 37.7467 126.723 37.7467Z" fill="#D0CDE1"/>
<path d="M128.608 37.8813C128.075 37.8813 127.554 37.7234 127.112 37.4275C126.669 37.1316 126.324 36.711 126.12 36.2189C125.916 35.7268 125.863 35.1853 125.966 34.6629C126.07 34.1405 126.327 33.6606 126.703 33.284C127.08 32.9074 127.56 32.6509 128.082 32.547C128.605 32.4431 129.146 32.4964 129.638 32.7002C130.13 32.9041 130.551 33.2492 130.847 33.6921C131.143 34.135 131.301 34.6557 131.301 35.1883C131.301 35.9025 131.017 36.5875 130.512 37.0926C130.007 37.5976 129.322 37.8813 128.608 37.8813ZM128.608 32.7645C128.128 32.7645 127.66 32.9067 127.261 33.173C126.863 33.4393 126.552 33.8179 126.368 34.2608C126.185 34.7036 126.137 35.191 126.231 35.6611C126.324 36.1313 126.555 36.5632 126.894 36.9021C127.233 37.2411 127.665 37.4719 128.135 37.5655C128.605 37.659 129.092 37.611 129.535 37.4275C129.978 37.2441 130.357 36.9334 130.623 36.5349C130.889 36.1363 131.031 35.6677 131.031 35.1883C131.031 34.5455 130.776 33.929 130.322 33.4744C129.867 33.0199 129.251 32.7645 128.608 32.7645Z" fill="#2F2E41"/>
<path d="M142.862 65.0246H118.086C117.782 65.0243 117.491 64.9036 117.277 64.689C117.062 64.4744 116.942 64.1835 116.941 63.8801V40.8545C116.942 40.5511 117.062 40.2601 117.277 40.0456C117.491 39.831 117.782 39.7103 118.086 39.71H142.862C143.165 39.7103 143.456 39.831 143.671 40.0456C143.885 40.2601 144.006 40.5511 144.006 40.8545V63.8801C144.006 64.1835 143.885 64.4744 143.671 64.689C143.456 64.9036 143.165 65.0243 142.862 65.0246Z" fill="#4BC7B6"/>
<path d="M132.224 65.8332H128.723C128.42 65.8328 128.129 65.7121 127.914 65.4975C127.7 65.283 127.579 64.9921 127.579 64.6886V40.1705C127.579 39.8671 127.7 39.5762 127.914 39.3616C128.129 39.147 128.42 39.0264 128.723 39.026H132.224C132.528 39.0264 132.819 39.147 133.033 39.3616C133.248 39.5762 133.368 39.8671 133.369 40.1705V64.6886C133.368 64.9921 133.248 65.283 133.033 65.4975C132.819 65.7121 132.528 65.8328 132.224 65.8332Z" fill="#3F3D56"/>
<path d="M149.445 37.4307C149.3 39.806 146.092 41.5432 146.092 41.5432C146.092 41.5432 143.118 39.4293 143.262 37.0539C143.407 34.6786 146.616 32.9414 146.616 32.9414C146.616 32.9414 149.59 35.0554 149.445 37.4307Z" fill="#3F3D56"/>
<path d="M149.59 44.8417C147.214 44.7044 145.467 41.5012 145.467 41.5012C145.467 41.5012 147.572 38.5207 149.948 38.658C152.323 38.7954 154.071 41.9986 154.071 41.9986C154.071 41.9986 151.966 44.9791 149.59 44.8417Z" fill="#3F3D56"/>
<path opacity="0.1" d="M143.939 42.5269V51.3171L135.196 39.7773H141.856L143.939 42.5269Z" fill="black"/>
<path d="M151.361 57.5737C151.185 57.5741 151.01 57.5334 150.851 57.4548C150.693 57.3762 150.555 57.2619 150.448 57.1209L132.233 33.0799C132.142 32.9601 132.076 32.8236 132.038 32.6782C132 32.5327 131.991 32.3813 132.011 32.2324C132.032 32.0835 132.081 31.9401 132.157 31.8104C132.233 31.6807 132.334 31.5672 132.454 31.4764L135.137 29.4435C135.257 29.3527 135.393 29.2864 135.539 29.2484C135.684 29.2104 135.836 29.2014 135.985 29.2219C136.133 29.2425 136.277 29.2921 136.407 29.3681C136.536 29.4441 136.65 29.5448 136.74 29.6646L154.956 53.7055C155.046 53.8253 155.113 53.9618 155.151 54.1072C155.189 54.2527 155.198 54.4041 155.177 54.553C155.157 54.7019 155.107 54.8453 155.031 54.975C154.955 55.1047 154.854 55.2182 154.734 55.309L152.051 57.3419C151.853 57.4926 151.611 57.574 151.361 57.5737Z" fill="#4BC7B6"/>
<path d="M144.07 38.8929L139.455 42.3895L142.952 47.0045L147.567 43.5079L144.07 38.8929Z" fill="#3F3D56"/>
<path d="M120.33 21.3064L118.752 27.1949L124.641 28.7728L126.218 22.8842L120.33 21.3064Z" fill="#D0CDE1"/>
<path d="M122.143 29.6531L115.994 28.0056L117.642 21.8568L123.79 23.5043L122.143 29.6531ZM116.324 27.8152L121.952 29.3233L123.461 23.6947L117.832 22.1866L116.324 27.8152Z" fill="#2F2E41"/>
<path d="M96.2426 43.945C96.4044 43.79 96.5303 43.6014 96.6113 43.3925C96.6924 43.1836 96.7266 42.9595 96.7116 42.7359C96.6967 42.5124 96.6329 42.2948 96.5247 42.0986C96.4166 41.9023 96.2668 41.7322 96.0858 41.6001L93.613 21.6675L90.4182 22.6174L93.8673 42.0153C93.6656 42.334 93.5878 42.7157 93.6488 43.088C93.7097 43.4603 93.905 43.7973 94.1978 44.0352C94.4906 44.2731 94.8605 44.3953 95.2374 44.3786C95.6143 44.362 95.9719 44.2077 96.2426 43.945Z" fill="#FFB8B8"/>
<path d="M99.2042 62.997H101.073L101.962 55.7897H99.2042V62.997Z" fill="#FFB8B8"/>
<path d="M104.677 64.7319H98.8039V62.463H102.615C103.162 62.463 103.686 62.6801 104.073 63.0667C104.459 63.4533 104.677 63.9776 104.677 64.5244V64.7319Z" fill="#2F2E41"/>
<path d="M77.426 54.5567L78.8525 55.7637L84.1869 50.8362L82.0817 49.0547L77.426 54.5567Z" fill="#FFB8B8"/>
<path d="M80.4831 59.4161L76 55.6227L77.4657 53.8906L80.3751 56.3525C80.7925 56.7056 81.0524 57.2101 81.0978 57.7549C81.1432 58.2998 80.9703 58.8403 80.6172 59.2577L80.4831 59.4161L80.4831 59.4161Z" fill="#2F2E41"/>
<path d="M95.8519 16.4929C97.8032 16.4929 99.385 14.911 99.385 12.9598C99.385 11.0085 97.8032 9.42664 95.8519 9.42664C93.9006 9.42664 92.3188 11.0085 92.3188 12.9598C92.3188 14.911 93.9006 16.4929 95.8519 16.4929Z" fill="#FFB8B8"/>
<path d="M90.3259 22.0277C90.2153 18.7734 93.6355 16.5158 96.5132 18.0395C96.8799 18.2336 100.666 21.4499 100.808 23.4473C100.951 25.4446 101.236 28.726 101.236 28.726L105.231 58.5438L96.6709 58.1158L94.3738 45.975L84.9085 53.77L79.3406 49.8725L93.6748 32.2927C93.6748 32.2927 90.4936 26.9595 90.3259 22.0277Z" fill="#EE8C34"/>
<path d="M90.3928 23.1605L90.9425 30.3064C90.9483 30.381 90.982 30.4507 91.0369 30.5015C91.0918 30.5524 91.1639 30.5806 91.2387 30.5806H93.6573C93.7062 30.5806 93.7543 30.5686 93.7974 30.5455C93.8405 30.5225 93.8772 30.4891 93.9044 30.4485C93.9315 30.4078 93.9482 30.3611 93.9529 30.3125C93.9577 30.2638 93.9504 30.2148 93.9316 30.1696L90.9633 23.0238C90.9362 22.9585 90.8868 22.9051 90.8238 22.873C90.7608 22.841 90.6885 22.8324 90.6198 22.8489C90.5511 22.8653 90.4905 22.9058 90.4489 22.9629C90.4073 23.02 90.3874 23.0901 90.3928 23.1605Z" fill="#2F2E41"/>
<path d="M116.549 27.1201C116.471 26.9103 116.347 26.7201 116.187 26.5631C116.027 26.4061 115.835 26.2861 115.624 26.2115C115.412 26.1369 115.187 26.1095 114.964 26.1313C114.741 26.153 114.526 26.2235 114.333 26.3375L95.0459 20.7313L94.6558 24.0415L113.838 28.5394C114.051 28.8507 114.371 29.073 114.737 29.1642C115.103 29.2553 115.49 29.2091 115.824 29.0341C116.158 28.8592 116.416 28.5677 116.55 28.2149C116.684 27.8622 116.683 27.4726 116.549 27.1201Z" fill="#FFB8B8"/>
<path d="M92.2352 22.153C92.2352 22.153 93.4656 24.0166 97.0538 24.935C100.642 25.8535 103.593 26.7338 103.593 26.7338C103.593 26.7338 103.499 24.0435 104.369 23.3927C105.239 22.7418 95.3452 20.0068 95.3452 20.0068C95.3452 20.0068 91.6799 19.6908 92.2352 22.153Z" fill="#2F2E41"/>
<path d="M96.6807 13.5111C96.7284 12.778 97.6533 12.7529 98.3879 12.746C99.1225 12.739 100.001 12.7652 100.416 12.1595C100.691 11.7592 100.639 11.2034 100.412 10.7742C100.185 10.345 99.8115 10.0149 99.4443 9.69734C98.4961 8.87746 97.519 8.06409 96.3806 7.53932C95.2423 7.01454 93.9084 6.8025 92.7278 7.22376C91.2776 7.74124 89.3172 10.405 89.1479 11.9355C88.9786 13.4659 89.5902 15.0261 90.6212 16.1697C91.6522 17.3134 94.012 16.852 95.4971 17.2588C94.5943 15.981 95.1894 13.6592 96.6357 13.0625L96.6807 13.5111Z" fill="#2F2E41"/>
<path d="M119.674 19.5383L117.496 18.9474L117.081 16.5472L119.226 17.4151L119.674 19.5383Z" fill="#EE8C34"/>
<path d="M115.475 11.0442L114.564 8.97977L116.168 7.14699L116.843 9.35997L115.475 11.0442Z" fill="#EE8C34"/>
<path d="M125.38 16.5399L123.535 15.2397L123.966 12.8425L125.685 14.3916L125.38 16.5399Z" fill="#EE8C34"/>
<path d="M125.733 28.1359L124.858 26.0559L126.494 24.2514L127.131 26.4758L125.733 28.1359Z" fill="#EE8C34"/>
<path d="M117.399 22.2385L115.439 25.1918L114.429 22.4734L114.592 20.232L117.399 22.2385Z" fill="#A2E1D9"/>
<path d="M125.16 16.8551L124.306 20.2954L122.441 18.0745L121.841 15.9085L125.16 16.8551Z" fill="#4BC7B6"/>
<path d="M113.611 14.342L112.98 17.2184L110.52 16.2249L112.122 12.2603L113.611 14.342Z" fill="#4BC7B6"/>
<path d="M121.573 10.0204L120.218 12.6354L118.1 11.0392L120.673 7.62431L121.573 10.0204Z" fill="#4BC7B6"/>
<circle cx="301.5" cy="47.5" r="17.5" fill="#A2E1D9"/>
<circle cx="303.914" cy="49.9138" r="15.0862" fill="#75D4C7"/>
<path d="M273.849 31.4701L276.074 34.0993L276.628 34.7529L278.114 36.5081L278.666 37.1612L280.254 39.037L280.807 39.6899L282.395 41.5656L282.948 42.2187L284.535 44.0945L285.088 44.7476L286.676 46.6227L287.229 47.2763L288.799 49.1309L289.338 49.7675L289.848 50.3701C290.181 50.7641 290.405 51.1625 290.53 51.5467C290.614 51.8011 290.654 52.0491 290.655 52.284C290.665 53.6586 289.354 54.6257 287.446 54.0707L285.571 53.5246L284.134 53.1072L280.266 51.9809L278.831 51.5633L278.83 51.5628L273.178 49.918L271.597 49.4584L271.596 49.458L267.058 48.1375L267.058 48.137L265.477 47.6772L263.67 47.151L273.849 31.4701Z" fill="#EE8C34"/>
<path d="M270.354 40.9646C270.449 40.8221 270.544 40.6773 270.639 40.5314C271.089 39.8376 271.504 39.151 271.879 38.4844L271.88 38.4837C272.042 38.1963 272.196 37.9122 272.342 37.6337L272.342 37.633C272.761 36.837 273.116 36.0792 273.4 35.3835C273.516 35.0981 273.62 34.8232 273.712 34.5614C274.271 32.9571 274.361 31.8029 273.849 31.4703C272.811 30.7967 269.691 33.7605 266.88 38.0912C264.069 42.4212 262.632 46.4776 263.67 47.1511C264.24 47.5214 265.438 46.7941 266.869 45.3455C267.148 45.0633 267.435 44.7539 267.728 44.4201L267.729 44.4181C268.385 43.6721 269.068 42.8038 269.749 41.8428L270.354 40.9646Z" fill="black"/>
<path d="M286.677 46.6226L287.23 47.2762L273.179 49.918L271.598 49.4584L286.677 46.6226Z" fill="#FFF2E7"/>
<path d="M288.8 49.1308L289.338 49.7674L280.267 51.9809L278.831 51.5632L288.8 49.1308Z" fill="#FFF2E7"/>
<path d="M290.53 51.5462C290.614 51.8006 290.655 52.0486 290.656 52.2836L285.571 53.5241L284.134 53.1067L290.53 51.5462Z" fill="#FFF2E7"/>
<path d="M284.535 44.0945L285.088 44.7476L267.058 48.1375L267.058 48.1371L265.477 47.6772L284.535 44.0945Z" fill="#FFF2E7"/>
<path d="M267.8 44.3091L282.395 41.5655L282.948 42.2186L266.946 45.2269L267.8 44.3091Z" fill="#FFF2E7"/>
<path d="M280.254 39.0371L280.807 39.69L269.803 41.759C270.004 41.477 270.203 41.1869 270.403 40.889L280.254 39.0371Z" fill="#FFF2E7"/>
<path d="M272.372 37.5874L272.372 37.5867L278.114 36.5078L278.666 37.1609L271.914 38.43L271.914 38.4306L272.372 37.5874Z" fill="#FFF2E7"/>
<path d="M273.725 34.5406L276.075 34.0991L276.628 34.7527L273.418 35.3562L273.725 34.5406Z" fill="#FFF2E7"/>
<path d="M274.545 29.9485L272.17 29.8169L271.216 27.4333L273.617 27.8576L274.545 29.9485Z" fill="#4BC7B6"/>
<path d="M276.048 20.4857L273.673 20.3542L272.719 17.9705L275.121 18.3949L276.048 20.4857Z" fill="#4BC7B6"/>
<path d="M261.151 28.7554L258.776 28.6238L257.822 26.2402L260.224 26.6645L261.151 28.7554Z" fill="#EE8C34"/>
<path d="M236.008 32.8239L233.633 32.6923L232.679 30.3086L235.081 30.733L236.008 32.8239Z" fill="#EE8C34"/>
<path d="M229.245 28.9033L227.853 26.9747L229.105 24.7331L230.287 26.8666L229.245 28.9033Z" fill="#EE8C34"/>
<path d="M253.917 15.5105L251.782 14.4614L251.835 11.8944L253.88 13.2234L253.917 15.5105Z" fill="#EE8C34"/>
<path d="M225.362 28.8064L223.227 27.7573L223.28 25.1903L225.325 26.5193L225.362 28.8064Z" fill="#EE8C34"/>
<path d="M248.499 9.62363L246.266 8.80342L246.051 6.24495L248.223 7.35295L248.499 9.62363Z" fill="#EE8C34"/>
<path d="M240.663 32.3972L238.476 31.4613L238.395 28.895L240.506 30.1152L240.663 32.3972Z" fill="#EE8C34"/>
<path d="M256.002 29.3181L253.75 30.0859L251.973 28.2332L254.358 27.7269L256.002 29.3181Z" fill="#EE8C34"/>
<path d="M243.571 44.2754L242.212 42.3228L243.503 40.1034L244.648 42.2572L243.571 44.2754Z" fill="#EE8C34"/>
<path d="M264.659 15.8674L264.649 19.0371L261.664 17.4536L262.314 14.3452L264.659 15.8674Z" fill="#D1F0EC"/>
<path d="M239.653 23.0683L239.644 26.2381L236.659 24.6545L237.308 21.5461L239.653 23.0683Z" fill="#D1F0EC"/>
<path d="M255.1 7.91595L252.702 9.98852L251.939 6.69685L254.711 5.14756L255.1 7.91595Z" fill="#D1F0EC"/>
<path d="M257.347 38.9057L258.972 41.6274L255.597 41.8074L254.553 38.8086L257.347 38.9057Z" fill="#D1F0EC"/>
<path d="M249.308 22.929L250.226 25.9629L246.909 25.3213L246.621 22.1589L249.308 22.929Z" fill="#D1F0EC"/>
<path d="M263.602 37.6018L261.687 40.1277L260.256 37.0666L262.645 34.9749L263.602 37.6018Z" fill="#D1F0EC"/>
<path d="M259.751 9.58479L257.836 12.1107L256.405 9.04964L258.794 6.9579L259.751 9.58479Z" fill="#D1F0EC"/>
<path d="M235.569 35.8697L234.025 38.6375L232.182 35.8054L234.256 33.4015L235.569 35.8697Z" fill="#D1F0EC"/>
<path d="M229.379 12.3467L232.002 14.1268L229.02 15.716L226.806 13.4395L229.379 12.3467Z" fill="#D1F0EC"/>
<path d="M247.949 23.6115L245.78 25.9234L244.677 22.7296L247.272 20.899L247.949 23.6115Z" fill="#D1F0EC"/>
<path d="M242.001 25.3717L240.557 21.9255L243.532 22.6288L245.403 24.0826L242.001 25.3717Z" fill="#A2E1D9"/>
<path d="M271.647 22.9062L268.493 24.9103L268.685 21.8593L269.803 19.7707L271.647 22.9062Z" fill="#A2E1D9"/>
<path d="M261.007 14.0887L258.868 17.1522L257.871 14.2623L258.099 11.9043L261.007 14.0887Z" fill="#A2E1D9"/>
<path d="M233.685 40.0231L232.311 43.4981L230.673 40.9168L230.35 38.57L233.685 40.0231Z" fill="#A2E1D9"/>
<path d="M237.295 21.6242L233.564 21.4332L235.486 19.0563L237.607 18.0002L237.295 21.6242Z" fill="#A2E1D9"/>
<path d="M251.224 47.8426L247.518 48.3183L248.987 45.6374L250.886 44.2211L251.224 47.8426Z" fill="#A2E1D9"/>
<path d="M248.261 14.9703L244.524 14.9749L246.32 12.5006L248.382 11.335L248.261 14.9703Z" fill="#A2E1D9"/>
<path d="M241.115 42.1199L240.989 45.8543L238.579 43.9736L237.486 41.8719L241.115 42.1199Z" fill="#A2E1D9"/>
<path d="M257.307 25.1298L253.587 24.7812L255.608 22.4877L257.771 21.5222L257.307 25.1298Z" fill="#A2E1D9"/>
<path d="M249.816 32.0678L249.747 35.8037L247.309 33.9602L246.183 31.8754L249.816 32.0678Z" fill="#A2E1D9"/>
<path d="M238.86 52.372L236.838 50.0162L239.235 48.5758L241.557 52.4388L238.86 52.372Z" fill="#4BC7B6"/>
<path d="M228.047 32.7124L228.027 35.8165L225.273 35.3315L226.055 30.8926L228.047 32.7124Z" fill="#4BC7B6"/>
<path d="M244.165 13.1364L241.581 14.8557L240.443 12.3018L244.56 10.4677L244.165 13.1364Z" fill="#4BC7B6"/>
<path d="M274.685 26.0653L271.794 24.9343L273.234 22.5375L277.098 24.8581L274.685 26.0653Z" fill="#4BC7B6"/>
<path d="M238.04 11.6822L237.375 14.7143L234.783 13.6675L236.47 9.48808L238.04 11.6822Z" fill="#4BC7B6"/>
<path d="M235.308 26.5101L234.485 29.5034L231.951 28.3223L233.855 24.2369L235.308 26.5101Z" fill="#4BC7B6"/>
<path d="M247.085 53.3069L244.501 55.0262L243.363 52.4723L247.48 50.6382L247.085 53.3069Z" fill="#4BC7B6"/>
<path d="M248.661 18.8934L246.077 20.6128L244.939 18.0588L249.056 16.2248L248.661 18.8934Z" fill="#4BC7B6"/>
<path d="M256.836 51.7132L254.214 50.0514L256.084 47.9733L259.434 50.9886L256.836 51.7132Z" fill="#4BC7B6"/>
<path d="M274.566 12.9286L274.924 16.012L272.132 15.8662L272.367 11.3651L274.566 12.9286Z" fill="#4BC7B6"/>
<path d="M283.01 45.9145C283.01 45.9145 265.454 29.4965 255.357 32.9475C240.981 37.861 245.61 21.2949 245.61 21.2949" stroke="#4BC7B6" stroke-width="1.71037"/>
<path d="M238.903 39.5384C241.625 36.1378 250.452 33.5342 250.603 40.3825C250.823 50.3411 266.143 44.023 266.665 40.1117" stroke="#EE8C34" stroke-width="2.02903"/>
<path d="M241.694 18.7245C241.694 18.7245 258.544 18.7094 259.165 22.3725C259.495 24.3185 252.061 24.8894 253.831 22.5828C255.953 19.8179 261.348 28.6359 261.348 28.6359" stroke="#4BC7B6" stroke-width="1.45162"/>
<path d="M269.64 14.7621C269.64 14.7621 260.151 29.3796 264.063 29.8594C266.141 30.1142 270.984 23.6555 267.306 25.2284C262.897 27.1137 270.121 31.6524 270.121 31.6524" stroke="#4BC7B6" stroke-width="1.43246"/>
<path d="M229.508 16.4559C231.479 19.1807 237.037 19.7001 241.961 20.7707C250.093 22.5391 258.035 24.7896 256.626 29.4811" stroke="#EE8C34" stroke-width="2.02903"/>
<path d="M41.1439 53.2722L37.7907 54.061L36.9572 54.257L34.7186 54.7837L33.8858 54.9794L31.4935 55.542L30.6604 55.7388L28.2682 56.3014L27.4354 56.497L25.0432 57.0597L24.2104 57.2553L21.8185 57.8186L20.985 58.0147L18.6197 58.571L17.8078 58.762L17.0393 58.9427C16.5369 59.0605 16.0805 59.0787 15.6815 59.0155C15.4167 58.9749 15.1773 58.8983 14.9675 58.7926C13.7384 58.1772 13.4724 56.5697 14.8334 55.1219L16.1715 53.6993L17.1959 52.6087L19.9558 49.6746L20.9799 48.5852L20.9807 48.5848L25.0128 44.2966L26.1405 43.0965L26.1412 43.096L29.3786 39.6529L29.3793 39.6524L30.5067 38.4534L31.7964 37.0819L41.1439 53.2722Z" fill="#EE8C34"/>
<path d="M34.2724 45.8464C34.356 45.9963 34.4418 46.1466 34.5288 46.2973C34.9424 47.0136 35.3656 47.6954 35.7892 48.332L35.7896 48.3327C35.9721 48.6077 36.1553 48.8738 36.337 49.1305L36.3374 49.1312C36.8563 49.8661 37.3703 50.5262 37.8613 51.0949C38.0628 51.328 38.2604 51.5457 38.4521 51.7463C39.6273 52.9731 40.6148 53.5776 41.1438 53.2722C42.2151 52.6536 40.9917 48.5279 38.4101 44.0565C35.829 39.5858 32.8677 36.4633 31.7963 37.0819C31.2074 37.4219 31.3111 38.8198 31.952 40.7523C32.0768 41.1288 32.222 41.5253 32.3863 41.9379L32.3875 41.9399C32.7546 42.8624 33.2177 43.8659 33.7646 44.9088L34.2724 45.8464Z" fill="black"/>
<path d="M21.8183 57.8192L20.9848 58.0153L25.0126 44.2972L26.1403 43.097L21.8183 57.8192Z" fill="#FFF2E7"/>
<path d="M18.6195 58.5714L17.8076 58.7624L19.9556 49.675L20.9797 48.5856L18.6195 58.5714Z" fill="#FFF2E7"/>
<path d="M15.6817 59.0163C15.4169 58.9757 15.1776 58.899 14.9678 58.7933L16.1717 53.7L17.1962 52.6095L15.6817 59.0163Z" fill="#FFF2E7"/>
<path d="M25.0431 57.0596L24.2103 57.2552L29.3785 39.6528L29.3793 39.6524L30.5066 38.4534L25.0431 57.0596Z" fill="#FFF2E7"/>
<path d="M32.4525 42.0524L28.2683 56.3016L27.4355 56.4972L32.0228 40.8746L32.4525 42.0524Z" fill="#FFF2E7"/>
<path d="M31.4934 55.542L30.6603 55.7387L33.8146 44.9954C33.9748 45.3019 34.1427 45.6115 34.3175 45.9245L31.4934 55.542Z" fill="#FFF2E7"/>
<path d="M36.3646 49.1782L36.365 49.1789L34.7187 54.784L33.8859 54.9797L35.8217 48.388L35.8213 48.3873L36.3646 49.1782Z" fill="#FFF2E7"/>
<path d="M38.4644 51.7677L37.7907 54.0612L36.9572 54.2573L37.8776 51.1231L38.4644 51.7677Z" fill="#FFF2E7"/>
<path d="M42.1834 54.5837L43.3793 52.5273L45.9363 52.7599L44.4675 54.7069L42.1834 54.5837Z" fill="#4BC7B6"/>
<path d="M49.9311 60.2206L51.127 58.1643L53.684 58.3968L52.2151 60.3439L49.9311 60.2206Z" fill="#4BC7B6"/>
<path d="M49.3291 43.1929L50.525 41.1366L53.082 41.3691L51.6131 43.3161L49.3291 43.1929Z" fill="#EE8C34"/>
<path d="M57.1236 18.9446L58.3195 16.8883L60.8765 17.1208L59.4076 19.0679L57.1236 18.9446Z" fill="#EE8C34"/>
<path d="M63.6879 14.7001L66.0385 14.3354L67.467 16.4689L65.0295 16.5527L63.6879 14.7001Z" fill="#EE8C34"/>
<path d="M64.415 42.7629L66.3192 41.3374L68.5821 42.5505L66.4693 43.7688L64.415 42.7629Z" fill="#EE8C34"/>
<path d="M65.5381 11.2839L67.4424 9.85836L69.7053 11.0715L67.5924 12.2898L65.5381 11.2839Z" fill="#EE8C34"/>
<path d="M72.1202 40.6095L73.8651 38.9927L76.2423 39.9627L74.2684 41.3952L72.1202 40.6095Z" fill="#EE8C34"/>
<path d="M55.3898 23.2853L57.2168 21.762L59.5401 22.8551L57.4939 24.1823L55.3898 23.2853Z" fill="#EE8C34"/>
<path d="M51.1668 38.3493L51.5053 35.9948L53.9632 35.2525L53.3306 37.608L51.1668 38.3493Z" fill="#EE8C34"/>
<path d="M43.4864 20.4817L45.8431 20.1581L47.2341 22.3162L44.7955 22.3575L43.4864 20.4817Z" fill="#EE8C34"/>
<path d="M59.2185 52.1708L56.3987 50.723L59.1652 48.7828L61.6396 50.7729L59.2185 52.1708Z" fill="#D1F0EC"/>
<path d="M64.1597 26.6223L61.3399 25.1745L64.1064 23.2343L66.5808 25.2245L64.1597 26.6223Z" fill="#D1F0EC"/>
<path d="M70.6436 47.2663L69.8864 44.1884L73.1656 45.0034L73.287 48.1765L70.6436 47.2663Z" fill="#D1F0EC"/>
<path d="M42.0139 35.1937L38.8512 35.4049L40.2232 32.3171L43.3692 32.7485L42.0139 35.1937Z" fill="#D1F0EC"/>
<path d="M59.8986 35.288L56.7787 34.7278L58.857 32.0636L61.8052 33.2433L59.8986 35.288Z" fill="#D1F0EC"/>
<path d="M40.3349 41.3583L38.9542 38.5051L42.3313 38.6205L43.1098 41.699L40.3349 41.3583Z" fill="#D1F0EC"/>
<path d="M67.0446 50.6519L65.6639 47.7987L69.0409 47.9141L69.8194 50.9926L67.0446 50.6519Z" fill="#D1F0EC"/>
<path d="M54.6093 17.1705L52.845 14.5371L56.2052 14.1814L57.4046 17.1217L54.6093 17.1705Z" fill="#D1F0EC"/>
<path d="M78.3778 22.3388L75.6007 23.8669L75.5392 20.4885L78.5728 19.5499L78.3778 22.3388Z" fill="#D1F0EC"/>
<path d="M59.9081 33.7666L58.8333 30.7846L62.1797 31.2524L62.6321 34.3955L59.9081 33.7666Z" fill="#D1F0EC"/>
<path d="M61.041 27.6685L64.7672 27.947L62.7895 30.2781L60.6448 31.2842L61.041 27.6685Z" fill="#A2E1D9"/>
<path d="M49.7737 55.1999L49.4206 51.4801L52.0515 53.0369L53.4045 54.9814L49.7737 55.1999Z" fill="#A2E1D9"/>
<path d="M62.4614 49.7257L60.7037 46.4284L63.7312 46.8527L65.7284 48.1267L62.4614 49.7257Z" fill="#A2E1D9"/>
<path d="M51.7648 13.6051L49.2927 10.8033L52.3362 10.5163L54.5738 11.2943L51.7648 13.6051Z" fill="#A2E1D9"/>
<path d="M66.517 25.1779L68.3819 21.94L69.6265 24.7323L69.6043 27.1011L66.517 25.1779Z" fill="#A2E1D9"/>
<path d="M36.8326 25.6799L38.092 22.162L39.8132 24.6884L40.2127 27.0235L36.8326 25.6799Z" fill="#A2E1D9"/>
<path d="M67.465 37.9689L69.1579 34.6379L70.5469 37.3612L70.6487 39.7279L67.465 37.9689Z" fill="#A2E1D9"/>
<path d="M46.5224 19.2721L43.2525 17.464L46.0226 16.1709L48.3915 16.1517L46.5224 19.2721Z" fill="#A2E1D9"/>
<path d="M54.3053 41.4144L56.3055 38.2582L57.4308 41.1007L57.3085 43.4664L54.3053 41.4144Z" fill="#A2E1D9"/>
<path d="M51.5264 31.5894L48.2291 29.8317L50.9791 28.4963L53.3474 28.4407L51.5264 31.5894Z" fill="#A2E1D9"/>
<path d="M38.4125 12.6073L41.4294 11.8762L41.6245 14.6653L37.1282 14.9797L38.4125 12.6073Z" fill="#4BC7B6"/>
<path d="M60.8386 11.9023L58.0821 10.4748L59.7647 8.24194L63.3644 10.9545L60.8386 11.9023Z" fill="#4BC7B6"/>
<path d="M70.9589 35.1534L70.601 32.0699L73.393 32.2162L73.1571 36.7173L70.9589 35.1534Z" fill="#4BC7B6"/>
<path d="M45.5795 56.4719L47.9 54.4101L49.3816 56.7811L45.5592 59.1696L45.5795 56.4719Z" fill="#4BC7B6"/>
<path d="M75.0364 30.3565L72.6369 28.3871L74.7469 26.5529L77.704 29.9545L75.0364 30.3565Z" fill="#4BC7B6"/>
<path d="M63.0668 21.1879L60.7736 19.0956L62.9768 17.3743L65.7518 20.926L63.0668 21.1879Z" fill="#4BC7B6"/>
<path d="M33.8441 19.5107L33.4861 16.4272L36.2781 16.5735L36.0422 21.0746L33.8441 19.5107Z" fill="#4BC7B6"/>
<path d="M63.788 36.5441L63.43 33.4606L66.222 33.6069L65.9862 38.108L63.788 36.5441Z" fill="#4BC7B6"/>
<path d="M30.8357 28.9213L33.507 27.3401L34.509 29.9503L30.3011 31.5656L30.8357 28.9213Z" fill="#4BC7B6"/>
<path d="M57.3374 62.3319L54.4274 61.251L55.8254 58.8297L59.7288 61.0833L57.3374 62.3319Z" fill="#4BC7B6"/>
<path d="M24.1146 54.8739C24.1146 54.8739 46.7146 46.6899 48.2258 36.1269C50.3775 21.0872 63.0339 32.7355 63.0339 32.7355" stroke="#4BC7B6" stroke-width="1.71037"/>
<path d="M49.8268 18.4745C51.6204 22.4436 49.9309 31.4906 43.7611 28.5149C34.789 24.1876 33.4599 40.7065 36.7078 42.9472" stroke="#EE8C34" stroke-width="2.02903"/>
<path d="M67.1025 30.4141C67.1025 30.4141 59.4633 45.4329 55.9178 44.3224C54.0342 43.7325 56.9021 36.8496 58.1531 39.4743C59.6527 42.6206 49.3462 43.4228 49.3462 43.4228" stroke="#4BC7B6" stroke-width="1.45162"/>
<path d="M57.9408 57.1108C57.9408 57.1108 49.2273 42.0181 47.0233 45.2853C45.8525 47.0211 49.4071 54.2691 49.6763 50.278C49.9989 45.4938 42.6745 49.8683 42.6745 49.8683" stroke="#4BC7B6" stroke-width="1.43246"/>
<path d="M74.6583 20.5874C71.3356 21.1059 68.3485 25.822 65.1585 29.7222C59.8899 36.1639 54.278 42.2172 50.7381 38.8313" stroke="#EE8C34" stroke-width="2.02903"/>
</svg>
