<svg width="11" height="15" viewBox="0 0 11 15" fill="none" xmlns="http://www.w3.org/2000/svg">
<path d="M3.55217 1.125C3.55217 0.831601 3.79002 0.59375 4.08342 0.59375H6.91675C7.21014 0.59375 7.448 0.831601 7.448 1.125V1.65625H10.4584C10.7518 1.65625 10.9897 1.8941 10.9897 2.1875C10.9897 2.4809 10.7518 2.71875 10.4584 2.71875H0.541748C0.248349 2.71875 0.010498 2.4809 0.010498 2.1875C0.010498 1.8941 0.248349 1.65625 0.541748 1.65625H3.55217V1.125Z" fill="#62716D"/>
<path fill-rule="evenodd" clip-rule="evenodd" d="M1.42011 4.62755C1.44003 4.4482 1.59164 4.3125 1.77211 4.3125H9.22828C9.40869 4.3125 9.56034 4.4482 9.58025 4.62755L9.72199 5.90351C9.97755 8.20345 9.97755 10.5247 9.72199 12.8245L9.70803 12.9502C9.61496 13.7878 8.96577 14.4558 8.13114 14.5726C6.38566 14.817 4.61469 14.817 2.86924 14.5726C2.03457 14.4558 1.38536 13.7878 1.29229 12.9502L1.27833 12.8245C1.02278 10.5247 1.02278 8.20345 1.27833 5.90351L1.42011 4.62755ZM4.61476 7.07503C4.61476 6.78164 4.3769 6.54378 4.08351 6.54378C3.79011 6.54378 3.55226 6.78164 3.55226 7.07503V12.0334C3.55226 12.3268 3.79011 12.5646 4.08351 12.5646C4.3769 12.5646 4.61476 12.3268 4.61476 12.0334V7.07503ZM7.44809 7.07503C7.44809 6.78164 7.21024 6.54378 6.91684 6.54378C6.62345 6.54378 6.38559 6.78164 6.38559 7.07503V12.0334C6.38559 12.3268 6.62345 12.5646 6.91684 12.5646C7.21024 12.5646 7.44809 12.3268 7.44809 12.0334V7.07503Z" fill="#62716D"/>
</svg>
