<svg width="16" height="13" viewBox="0 0 16 13" fill="none" xmlns="http://www.w3.org/2000/svg">
<path d="M14.75 1.00628C14.1515 1.42846 13.4888 1.75135 12.7875 1.96253C12.4111 1.52973 11.9108 1.22297 11.3544 1.08374C10.798 0.94451 10.2122 0.979532 9.6763 1.18407C9.14042 1.3886 8.68028 1.75279 8.35811 2.22736C8.03595 2.70193 7.86731 3.26399 7.875 3.83753V4.46253C6.77665 4.49101 5.6883 4.24742 4.70688 3.75344C3.72546 3.25946 2.88145 2.53043 2.25 1.63128C2.25 1.63128 -0.25 7.25628 5.375 9.75628C4.08783 10.63 2.55447 11.0681 1 11.0063C6.625 14.1313 13.5 11.0063 13.5 3.81878C13.4994 3.64469 13.4827 3.47103 13.45 3.30003C14.0879 2.67097 14.538 1.87673 14.75 1.00628V1.00628Z" stroke="#D0D0D0" stroke-width="1.25" stroke-linecap="round" stroke-linejoin="round"/>
</svg>
