<svg width="38" height="38" viewBox="0 0 38 38" fill="none" xmlns="http://www.w3.org/2000/svg">
<circle r="18" transform="matrix(-1 0 0 1 19 19)" fill="#232C36" stroke="#DBF2EF" stroke-opacity="0.3"/>
<path d="M18.9998 11.7006H18.9997C17.0637 11.7006 15.2071 12.4697 13.8381 13.8386C12.4692 15.2076 11.7001 17.0642 11.7001 19.0002C11.7001 20.9362 12.4692 22.7928 13.8381 24.1618C15.2071 25.5307 17.0637 26.2998 18.9997 26.2998C19.1778 26.2998 19.3486 26.229 19.4745 26.1031C19.6004 25.9772 19.6712 25.8064 19.6712 25.6283C19.6712 25.4502 19.6004 25.2795 19.4745 25.1535C19.3486 25.0276 19.1779 24.9569 18.9998 24.9569C17.8741 24.9562 16.7717 24.6365 15.8202 24.0349C14.8687 23.4333 14.1072 22.5744 13.6239 21.5577C13.1406 20.541 12.9552 19.4082 13.0894 18.2905C13.2235 17.1728 13.6716 16.116 14.3817 15.2425C15.0918 14.3691 16.0349 13.7147 17.1017 13.3553C18.1685 12.9959 19.3153 12.9461 20.4092 13.2118C21.5032 13.4774 22.4994 14.0476 23.2825 14.8562C23.8238 15.4151 24.2479 16.072 24.5343 16.7882L23.4333 16.082C23.4329 16.0818 23.4326 16.0816 23.4322 16.0814C23.2916 15.9892 23.1291 15.9345 22.9602 15.9217C22.791 15.9089 22.6206 15.9383 22.4647 16.007L22.4646 16.0066L22.4534 16.0124C22.2978 16.0928 22.1633 16.2087 22.0617 16.3504L22.0617 16.3504L22.0594 16.3536C21.9097 16.5713 21.8516 16.8378 21.9013 17.095C21.9509 17.352 22.1036 17.5759 22.3244 17.7179L24.8042 19.3534L24.8042 19.3534L24.8058 19.3544C24.9206 19.4286 25.0487 19.4775 25.1818 19.5001C25.2719 19.5803 25.3822 19.6348 25.5011 19.6576C25.6307 19.6826 25.7648 19.6687 25.8866 19.6178C26.0084 19.567 26.1125 19.4813 26.1859 19.3716C26.2417 19.2882 26.2779 19.1938 26.2922 19.0953C26.3231 19.0526 26.3507 19.0074 26.3745 18.9599L26.3753 18.9583L27.6862 16.2925C27.8047 16.0583 27.8231 15.788 27.7358 15.5412C27.6485 15.2942 27.4635 15.0938 27.2242 14.9818L27.2242 14.9818L27.2206 14.9802C27.0612 14.9094 26.8866 14.8776 26.7117 14.887L26.7117 14.8866L26.6992 14.8881C26.53 14.9077 26.3681 14.9686 26.2287 15.0653C26.0895 15.1619 25.977 15.2913 25.9024 15.442C25.9022 15.4423 25.902 15.4427 25.9019 15.443L25.6368 15.9652C25.2783 15.1819 24.7807 14.4608 24.1599 13.84C22.7913 12.4714 20.9354 11.7019 18.9998 11.7006Z" fill="#5A6168" stroke="#5A6168" stroke-width="0.405405"/>
</svg>
