<svg width="36" height="36" viewBox="0 0 36 36" fill="none" xmlns="http://www.w3.org/2000/svg">
<circle cx="18" cy="18" r="18" fill="white"/>
<path d="M18.001 10.7016L18.0008 10.7016C16.0653 10.7029 14.2094 11.4723 12.8408 12.841C12.2199 13.4618 11.7224 14.1829 11.3639 14.9662L11.0983 14.4429C11.0237 14.2922 10.9111 14.1628 10.772 14.0663C10.6326 13.9696 10.4707 13.9087 10.3015 13.889L10.3015 13.8887L10.289 13.888C10.1141 13.8786 9.93944 13.9104 9.78011 13.9812L9.78009 13.9811L9.77651 13.9828C9.5372 14.0948 9.35221 14.2952 9.26485 14.5422C9.17758 14.7889 9.19593 15.0593 9.31446 15.2935L10.6253 17.9593L10.6253 17.9593L10.6261 17.9609C10.65 18.0084 10.6776 18.0536 10.7084 18.0962C10.7228 18.1947 10.759 18.2892 10.8148 18.3726C10.8882 18.4823 10.9923 18.568 11.1141 18.6188C11.2359 18.6697 11.37 18.6835 11.4996 18.6586C11.6185 18.6358 11.7287 18.5812 11.8189 18.5011C11.952 18.4785 12.0801 18.4296 12.1949 18.3553L12.1949 18.3553L12.1964 18.3543L14.6763 16.7188C14.8971 16.5768 15.0498 16.353 15.0994 16.096C15.1491 15.8388 15.091 15.5723 14.9412 15.3546L14.9413 15.3546L14.939 15.3514C14.8374 15.2097 14.7029 15.0938 14.5473 15.0134L14.5475 15.0131L14.5359 15.008C14.3801 14.9393 14.2097 14.9098 14.0404 14.9227C13.8716 14.9355 13.709 14.9901 13.5684 15.0823L12.4663 15.7892C12.7528 15.073 13.1769 14.416 13.7181 13.8572C14.5013 13.0486 15.4975 12.4784 16.5914 12.2127C17.6854 11.9471 18.8322 11.9969 19.8989 12.3563C20.9657 12.7157 21.9088 13.3701 22.619 14.2435C23.3291 15.117 23.7772 16.1738 23.9113 17.2915C24.0454 18.4092 23.8601 19.542 23.3768 20.5587C22.8935 21.5753 22.132 22.4342 21.1805 23.0358C20.229 23.6375 19.1265 23.9571 18.0008 23.9578C17.8228 23.9579 17.6521 24.0286 17.5262 24.1545C17.4003 24.2804 17.3295 24.4512 17.3295 24.6293C17.3295 24.8074 17.4003 24.9782 17.5262 25.1041C17.6521 25.23 17.8229 25.3007 18.001 25.3007C19.9369 25.3007 21.7936 24.5317 23.1625 23.1628C24.5315 21.7938 25.3005 19.9371 25.3005 18.0012C25.3005 16.0652 24.5315 14.2085 23.1625 12.8396C21.7936 11.4707 19.9369 10.7016 18.001 10.7016Z" fill="#62716D" stroke="#62716D" stroke-width="0.405405" fill-opacity="0.7" stroke-opacity="0.7"/>
</svg>
