<svg width="352" height="250" viewBox="0 0 352 250" fill="none" xmlns="http://www.w3.org/2000/svg">
<g clip-path="url(#clip0_1180_89639)">
<path d="M290.495 46.3365C288.762 41.3566 285.963 36.8146 282.294 33.0275C278.625 29.2404 274.174 26.2993 269.251 24.4092C264.328 22.519 259.052 21.7255 253.792 22.0838C248.531 22.4421 243.411 23.9437 238.79 26.4839C234.169 29.024 230.158 32.5416 227.036 36.7912C223.915 41.0409 221.757 45.9204 220.715 51.0894C219.673 56.2584 219.771 61.5926 221.002 66.7199C222.233 71.8473 224.568 76.6444 227.843 80.7767C228.169 81.1867 228.507 81.5967 228.852 81.9936C228.878 82.0197 228.898 82.0457 228.924 82.0717C229.772 83.0492 230.674 83.9791 231.625 84.8571C231.872 85.0849 232.132 85.3192 232.393 85.5405C232.887 85.983 233.395 86.406 233.922 86.8095C234.13 86.9722 234.332 87.1349 234.547 87.2911C235.38 87.9224 236.245 88.5081 237.137 89.0678L237.176 89.0873C237.43 89.2435 237.69 89.3997 237.95 89.5494C238.419 89.8292 238.901 90.0961 239.382 90.3499L239.688 90.5061C240.391 90.8705 241.107 91.2154 241.842 91.5343C241.992 91.5994 242.155 91.6644 242.304 91.7295C242.317 91.736 242.324 91.736 242.337 91.7425C242.682 91.8857 243.027 92.0224 243.378 92.1525C244.532 92.5935 245.71 92.9715 246.905 93.2849C249.956 94.098 253.1 94.5093 256.257 94.5084C257.409 94.5084 258.548 94.4563 259.674 94.3457C262.246 94.1082 264.786 93.5955 267.249 92.8164C267.256 92.8164 267.262 92.8099 267.269 92.8099C268.825 92.3142 270.345 91.7118 271.818 91.0071C271.824 91.0006 271.837 91.0006 271.844 90.9942C272.176 90.838 272.495 90.6688 272.82 90.5061C272.872 90.48 272.924 90.454 272.976 90.4279C273.236 90.2913 273.497 90.1546 273.757 90.0115C274.408 89.6535 275.046 89.2761 275.677 88.8726C275.853 88.7684 276.022 88.6578 276.198 88.5407C276.445 88.378 276.692 88.2087 276.933 88.033C277.252 87.8118 277.571 87.584 277.883 87.3497C277.981 87.2781 278.085 87.2065 278.182 87.1284C284.28 82.5006 288.755 76.0611 290.967 68.7331C293.179 61.4052 293.014 53.565 290.495 46.3366L290.495 46.3365Z" fill="white"/>
<path d="M275.047 85.6184C271.964 83.9936 268.746 82.6392 265.428 81.5704L265.006 76.8912L247.851 75.043L245.67 81.0238L239.514 83.3341C239.294 83.4176 239.084 83.5268 238.889 83.6595H238.883C238.539 83.8917 238.246 84.1915 238.023 84.5406C237.799 84.8897 237.648 85.2808 237.581 85.69C237.515 86.0968 237.531 86.5127 237.627 86.9135L237.952 88.2476C238.42 88.5274 238.902 88.7943 239.384 89.0481L239.69 89.2043C240.393 89.5687 241.109 89.9136 241.844 90.2325C241.994 90.2976 242.156 90.3627 242.306 90.4277C242.319 90.4342 242.325 90.4342 242.338 90.4408C242.683 90.584 243.028 90.7206 243.38 90.8508C244.534 91.2917 245.712 91.6697 246.907 91.9831C249.958 92.7962 253.102 93.2076 256.259 93.2066C257.411 93.2066 258.55 93.1546 259.676 93.0439C262.248 92.8065 264.788 92.2937 267.251 91.5146C267.257 91.5146 267.264 91.5081 267.27 91.5081C268.826 91.0124 270.346 90.41 271.82 89.7054C271.826 89.6989 271.839 89.6988 271.846 89.6924C272.177 89.5361 272.496 89.367 272.822 89.2043C272.874 89.1782 272.926 89.1522 272.978 89.1261C273.238 88.9895 273.499 88.8528 273.759 88.7097C274.41 88.3517 275.047 87.9743 275.679 87.5708C275.854 87.4666 276.024 87.356 276.199 87.2389C276.447 87.0762 276.694 86.9069 276.935 86.7312C276.329 86.3408 275.698 85.9698 275.047 85.6184Z" fill="#BDBDBD"/>
<path d="M255.754 72.0847C262.577 72.0847 268.109 66.5531 268.109 59.7296C268.109 52.9061 262.577 47.3745 255.754 47.3745C248.93 47.3745 243.398 52.9061 243.398 59.7296C243.398 66.5531 248.93 72.0847 255.754 72.0847Z" fill="#D9D9D9"/>
<path d="M247.459 53.712C248.738 55.2255 250.903 55.6526 252.9 55.8278C256.954 56.1834 262.851 55.6065 266.813 54.6916C267.096 57.4328 266.325 60.3886 267.94 62.6435C268.697 59.9136 269.137 57.1055 269.251 54.2749C269.372 53.0605 269.213 51.8345 268.788 50.6907C268.56 50.1174 268.176 49.6196 267.68 49.2536C267.184 48.8876 266.594 48.6682 265.98 48.6204C266.9 47.9221 267.978 47.4611 269.119 47.2782L265.196 45.3067L266.203 44.2724L259.101 43.8378L261.158 42.531C258.062 42.1055 254.93 42.0066 251.813 42.236C250.366 42.3426 248.853 42.5463 247.68 43.3849C246.507 44.2235 245.83 45.8901 246.558 47.1213C245.646 47.271 244.788 47.6509 244.064 48.225C243.341 48.7991 242.776 49.5484 242.423 50.4019C241.977 51.7586 241.869 53.2039 242.109 54.6118C242.377 56.8706 242.902 59.0915 243.674 61.2311L247.459 53.712Z" fill="#686E6D"/>
<path d="M290.495 46.3365C288.762 41.3566 285.963 36.8146 282.294 33.0275C278.625 29.2404 274.174 26.2993 269.251 24.4092C264.328 22.519 259.052 21.7255 253.792 22.0838C248.531 22.4421 243.411 23.9437 238.79 26.4839C234.169 29.024 230.158 32.5416 227.036 36.7912C223.915 41.0409 221.757 45.9204 220.715 51.0894C219.673 56.2584 219.771 61.5926 221.002 66.7199C222.233 71.8473 224.568 76.6444 227.843 80.7767C228.169 81.1867 228.507 81.5967 228.852 81.9936C228.878 82.0197 228.898 82.0457 228.924 82.0717C229.772 83.0492 230.674 83.9791 231.625 84.8571C231.872 85.0849 232.132 85.3192 232.393 85.5405C232.887 85.983 233.395 86.406 233.922 86.8095C234.13 86.9722 234.332 87.1349 234.547 87.2911C235.38 87.9224 236.245 88.5081 237.137 89.0678L237.176 89.0873C237.43 89.2435 237.69 89.3997 237.95 89.5494C238.419 89.8292 238.901 90.0961 239.382 90.3499L239.688 90.5061C240.391 90.8705 241.107 91.2154 241.842 91.5343C241.992 91.5994 242.155 91.6644 242.304 91.7295C242.317 91.736 242.324 91.736 242.337 91.7425C242.682 91.8857 243.027 92.0224 243.378 92.1525C244.532 92.5935 245.71 92.9715 246.905 93.2849C249.956 94.098 253.1 94.5093 256.257 94.5084C257.409 94.5084 258.548 94.4563 259.674 94.3457C262.246 94.1082 264.786 93.5955 267.249 92.8164C267.256 92.8164 267.262 92.8099 267.269 92.8099C268.825 92.3142 270.345 91.7118 271.818 91.0071C271.824 91.0006 271.837 91.0006 271.844 90.9942C272.176 90.8379 272.495 90.6688 272.82 90.5061C272.872 90.48 272.924 90.454 272.976 90.4279C273.236 90.2913 273.497 90.1546 273.757 90.0115C274.408 89.6535 275.046 89.2761 275.677 88.8726C275.853 88.7684 276.022 88.6578 276.198 88.5407C276.445 88.378 276.692 88.2087 276.933 88.033C277.252 87.8118 277.571 87.584 277.883 87.3497C277.981 87.2781 278.085 87.2065 278.182 87.1284C284.28 82.5006 288.755 76.0611 290.967 68.7331C293.179 61.4052 293.014 53.565 290.495 46.3366L290.495 46.3365ZM276.985 85.547C276.77 85.7162 276.549 85.8789 276.328 86.0286C276.113 86.1913 275.898 86.3475 275.677 86.4906C275.488 86.6273 275.299 86.7575 275.104 86.8811L275.046 86.9202C274.902 87.0178 274.759 87.1089 274.616 87.2C274.076 87.5384 273.529 87.8638 272.976 88.1762C272.918 88.2087 272.859 88.2412 272.8 88.2738C272.553 88.4105 272.306 88.5406 272.059 88.6708C272.026 88.6903 271.987 88.7033 271.955 88.7229L271.915 88.7424C271.603 88.9051 271.284 89.0613 270.965 89.2109C269.735 89.8035 268.467 90.3165 267.171 90.7468C267.002 90.8054 266.833 90.8639 266.664 90.916C264.332 91.6575 261.928 92.1463 259.492 92.3738C258.424 92.4714 257.344 92.5235 256.257 92.5235C253.271 92.5296 250.297 92.1401 247.413 91.365C245.933 90.9787 244.482 90.4872 243.072 89.8943C243.001 89.8617 242.922 89.8357 242.851 89.8031C242.773 89.7706 242.701 89.7446 242.63 89.712C242.551 89.6795 242.48 89.647 242.402 89.6079C241.79 89.3411 241.185 89.0482 240.593 88.7424L240.306 88.5927C239.584 88.2152 238.875 87.8117 238.185 87.3822C237.983 87.2585 237.775 87.1284 237.579 86.9917C237.528 86.9592 237.482 86.9267 237.43 86.8941C236.968 86.5882 236.506 86.2694 236.057 85.9374C235.751 85.7096 235.445 85.4819 235.146 85.2476C234.644 84.8701 234.163 84.4666 233.694 84.0501C233.447 83.8419 233.206 83.6141 232.972 83.3993C232.049 82.5473 231.176 81.6434 230.356 80.692C230.082 80.3796 229.816 80.0673 229.562 79.7419C229.504 79.6775 229.45 79.6102 229.399 79.5401C225.171 74.2043 222.627 67.7301 222.093 60.943C221.559 54.1558 223.059 47.3635 226.401 41.4322C229.743 35.5008 234.776 30.6993 240.858 27.64C246.94 24.5807 253.795 23.4022 260.55 24.2548C267.304 25.1074 273.652 27.9525 278.783 32.4273C283.914 36.902 287.596 42.8036 289.359 49.3794C291.122 55.9551 290.887 62.9071 288.683 69.3486C286.479 75.7901 282.407 81.4293 276.985 85.547H276.985Z" fill="#E4E4E4"/>
<path d="M211.486 248.834H128.482C123.81 248.829 119.331 246.971 116.027 243.667C112.723 240.363 110.865 235.883 110.86 231.211V17.6231C110.865 12.9508 112.723 8.47137 116.027 5.16755C119.331 1.86373 123.81 0.00530847 128.482 0H139.7L139.267 1.06159C138.819 2.16028 138.648 3.35234 138.769 4.53276C138.89 5.71317 139.3 6.84571 139.961 7.83059C140.623 8.81547 141.517 9.62247 142.564 10.1805C143.612 10.7385 144.78 11.0304 145.967 11.0305H193.29C194.477 11.0304 195.645 10.7385 196.692 10.1805C197.739 9.62247 198.633 8.81549 199.295 7.83062C199.957 6.84576 200.367 5.71323 200.488 4.53282C200.609 3.3524 200.438 2.16033 199.99 1.06159L199.557 0H211.486C216.158 0.00529884 220.638 1.86371 223.941 5.16753C227.245 8.47134 229.104 12.9508 229.109 17.6231V231.211C229.104 235.883 227.245 240.363 223.941 243.667C220.638 246.97 216.158 248.829 211.486 248.834Z" fill="white"/>
<path d="M211.486 248.834H128.482C123.81 248.829 119.331 246.971 116.027 243.667C112.723 240.363 110.865 235.883 110.86 231.211V17.6231C110.865 12.9508 112.723 8.47137 116.027 5.16755C119.331 1.86373 123.81 0.00530847 128.482 0H139.7L139.267 1.06159C138.819 2.16028 138.648 3.35234 138.769 4.53276C138.89 5.71317 139.3 6.84571 139.961 7.83059C140.623 8.81547 141.517 9.62247 142.564 10.1805C143.612 10.7385 144.78 11.0304 145.967 11.0305H193.29C194.477 11.0304 195.645 10.7385 196.692 10.1805C197.739 9.62247 198.633 8.81549 199.295 7.83062C199.957 6.84576 200.367 5.71323 200.488 4.53282C200.609 3.3524 200.438 2.16033 199.99 1.06159L199.557 0H211.486C216.158 0.00529884 220.638 1.86371 223.941 5.16753C227.245 8.47134 229.104 12.9508 229.109 17.6231V231.211C229.104 235.883 227.245 240.363 223.941 243.667C220.638 246.97 216.158 248.829 211.486 248.834ZM128.482 1.54121C124.219 1.54607 120.131 3.24198 117.116 6.25686C114.101 9.27175 112.406 13.3594 112.401 17.6231V231.211C112.406 235.475 114.101 239.562 117.116 242.577C120.131 245.592 124.219 247.288 128.482 247.293H211.486C215.75 247.288 219.837 245.592 222.852 242.577C225.867 239.562 227.563 235.475 227.568 231.211V17.6231C227.563 13.3594 225.867 9.27171 222.852 6.25683C219.837 3.24195 215.75 1.54606 211.486 1.54121H201.774C202.119 2.84092 202.161 4.20251 201.896 5.52091C201.631 6.83931 201.067 8.07929 200.248 9.14517C199.428 10.2111 198.374 11.0744 197.168 11.6685C195.961 12.2626 194.635 12.5716 193.29 12.5717H145.967C144.622 12.5713 143.296 12.262 142.089 11.6677C140.883 11.0735 139.83 10.2102 139.01 9.14436C138.19 8.07854 137.627 6.8387 137.362 5.52045C137.097 4.20221 137.139 2.84079 137.484 1.54119L128.482 1.54121Z" fill="#E4E4E4"/>
<path d="M217.553 73.9392C215.211 67.2132 211.431 61.079 206.476 55.9641C201.52 50.8492 195.508 46.8769 188.86 44.3241C182.211 41.7713 175.086 40.6996 167.981 41.1835C160.875 41.6675 153.961 43.6955 147.72 47.1262C141.479 50.5569 136.062 55.3077 131.845 61.0472C127.629 66.7868 124.715 73.377 123.308 80.3583C121.9 87.3396 122.032 94.5439 123.695 101.469C125.358 108.394 128.511 114.873 132.935 120.454C133.375 121.008 133.832 121.561 134.297 122.097C134.332 122.133 134.359 122.168 134.394 122.203C135.54 123.523 136.758 124.779 138.042 125.965C138.376 126.272 138.727 126.589 139.079 126.888C139.747 127.485 140.432 128.057 141.144 128.602C142.535 129.697 143.984 130.716 145.486 131.652L145.539 131.678C146.515 132.285 147.508 132.847 148.519 133.383L148.932 133.594C149.881 134.086 150.848 134.552 151.841 134.983C152.043 135.071 152.263 135.159 152.465 135.247C152.483 135.255 152.492 135.255 152.51 135.264C154.516 136.099 156.578 136.795 158.68 137.347C162.8 138.446 167.046 139.001 171.31 139C172.866 139 174.404 138.93 175.925 138.78C179.399 138.459 182.829 137.767 186.156 136.715C186.165 136.715 186.174 136.706 186.182 136.706C188.284 136.036 190.337 135.223 192.326 134.271C192.335 134.262 192.353 134.262 192.361 134.253C192.81 134.042 193.24 133.814 193.68 133.594C193.75 133.559 193.821 133.524 193.891 133.489C194.243 133.304 194.594 133.12 194.946 132.926C195.825 132.443 196.686 131.933 197.539 131.388C197.776 131.247 198.004 131.098 198.242 130.94C199.015 130.43 199.78 129.885 200.518 129.331C200.65 129.235 200.791 129.138 200.923 129.032C209.157 122.782 215.201 114.085 218.189 104.188C221.176 94.2906 220.953 83.7019 217.553 73.9392H217.553Z" fill="white"/>
<path d="M187.468 110.217C191.521 110.217 194.806 106.932 194.806 102.879C194.806 98.8261 191.521 95.5405 187.468 95.5405C183.415 95.5405 180.129 98.8261 180.129 102.879C180.129 106.932 183.415 110.217 187.468 110.217Z" fill="#62716D"/>
<path d="M189.513 95.7427C190.783 95.7427 192.032 96.0724 193.136 96.6994C194.241 97.3264 195.164 98.2294 195.815 99.32C196.466 100.411 196.823 101.651 196.85 102.921C196.878 104.191 196.576 105.446 195.973 106.564C196.609 105.768 197.073 104.849 197.334 103.864C197.595 102.879 197.648 101.85 197.489 100.844C197.331 99.8371 196.964 98.8746 196.413 98.0174C195.862 97.1603 195.139 96.4273 194.289 95.8652C193.439 95.3031 192.481 94.9243 191.477 94.7527C190.473 94.5811 189.443 94.6207 188.455 94.8688C187.467 95.1169 186.541 95.5682 185.737 96.1938C184.933 96.8194 184.268 97.6057 183.784 98.5026C184.47 97.6413 185.341 96.9458 186.334 96.4679C187.326 95.9901 188.413 95.7422 189.514 95.7427H189.513Z" fill="#62716D"/>
<path d="M173.755 102.863C185.661 102.863 195.313 93.2117 195.313 81.3059C195.313 69.4001 185.661 59.7485 173.755 59.7485C161.849 59.7485 152.198 69.4001 152.198 81.3059C152.198 93.2117 161.849 102.863 173.755 102.863Z" fill="#62716D"/>
<path d="M156.837 67.9308C160.551 63.7533 165.743 61.1824 171.317 60.7606C176.892 60.3388 182.412 62.0991 186.712 65.6701C186.537 65.5022 186.361 65.3335 186.179 65.1709C181.92 61.3605 176.322 59.3972 170.616 59.7126C164.91 60.028 159.562 62.5963 155.749 66.8529C151.936 71.1095 149.969 76.706 150.28 82.4124C150.592 88.1187 153.156 93.4679 157.41 97.284C157.451 97.3207 157.492 97.3572 157.534 97.3935C157.716 97.5561 157.904 97.7099 158.092 97.8655C154.042 94.0125 151.647 88.7368 151.413 83.1517C151.179 77.5666 153.124 72.109 156.837 67.9308L156.837 67.9308Z" fill="#62716D"/>
<path d="M173.571 102.68C181.239 102.68 187.455 96.4641 187.455 88.7962C187.455 81.1282 181.239 74.9121 173.571 74.9121C165.903 74.9121 159.687 81.1282 159.687 88.7962C159.687 96.4641 165.903 102.68 173.571 102.68Z" fill="#A0616A"/>
<path d="M198.418 124.972V129.63C197.565 130.175 196.703 130.685 195.824 131.168C195.473 131.362 195.121 131.546 194.77 131.731C194.7 131.766 194.629 131.801 194.559 131.836C194.119 132.056 193.688 132.285 193.24 132.496C193.232 132.504 193.214 132.504 193.205 132.513C191.215 133.465 189.163 134.278 187.061 134.948C187.052 134.948 187.044 134.957 187.035 134.957C183.708 136.009 180.278 136.701 176.804 137.022C175.283 137.172 173.745 137.242 172.189 137.242C167.925 137.243 163.679 136.688 159.559 135.589C157.457 135.037 155.395 134.341 153.388 133.506C153.371 133.498 153.362 133.498 153.344 133.489C153.142 133.401 152.922 133.313 152.72 133.225C151.727 132.794 150.76 132.329 149.811 131.836L149.398 131.625C148.387 131.089 147.394 130.527 146.418 129.92L146.365 129.894C144.863 128.958 143.413 127.94 142.023 126.844C141.311 126.299 140.626 125.728 139.958 125.13C139.606 124.831 139.255 124.515 138.921 124.207C137.637 123.021 136.419 121.765 135.273 120.445C135.425 119.529 135.648 118.627 135.941 117.747L135.95 117.738C136.002 117.588 136.064 117.441 136.134 117.298C136.183 117.172 136.238 117.049 136.301 116.929C137.874 113.985 140.722 113.255 144.256 113.097C146.251 113.009 148.457 113.106 150.787 113.079C152.017 113.07 153.291 113.027 154.566 112.912C162.608 112.183 161.15 107.436 161.51 104.879C161.87 102.4 164.103 104.545 164.252 104.685L164.261 104.694C168.812 106.824 173.847 107.707 178.852 107.252C179.713 107.146 180.574 107.085 181.436 107.058C183.704 107.032 183.211 107.682 182.429 108.219C182.05 108.468 181.653 108.692 181.243 108.887C181.243 108.887 180.882 111.084 180.513 114.371C180.161 117.518 191.245 118.608 193.416 119.294H193.425C194.664 119.749 195.77 120.507 196.642 121.499C197.514 122.491 198.124 123.684 198.418 124.972Z" fill="#30A292"/>
<path d="M161.698 71.4414V85.329H164.913L169.005 80.9447L168.457 85.329H182.67L181.791 80.9447L183.549 85.329H185.815V71.4414H161.698Z" fill="#62716D"/>
<path d="M159.506 87.8833C160.111 87.8833 160.602 86.9838 160.602 85.874C160.602 84.7643 160.111 83.8647 159.506 83.8647C158.901 83.8647 158.41 84.7643 158.41 85.874C158.41 86.9838 158.901 87.8833 159.506 87.8833Z" fill="#A0616A"/>
<path d="M187.639 87.8833C188.244 87.8833 188.735 86.9838 188.735 85.874C188.735 84.7643 188.244 83.8647 187.639 83.8647C187.034 83.8647 186.543 84.7643 186.543 85.874C186.543 86.9838 187.034 87.8833 187.639 87.8833Z" fill="#A0616A"/>
<path d="M217.553 73.9392C215.211 67.2132 211.431 61.079 206.476 55.9641C201.52 50.8492 195.508 46.8769 188.86 44.3241C182.211 41.7713 175.086 40.6996 167.981 41.1835C160.875 41.6675 153.961 43.6955 147.72 47.1262C141.479 50.5569 136.062 55.3077 131.845 61.0472C127.629 66.7868 124.715 73.377 123.308 80.3583C121.9 87.3396 122.032 94.5439 123.695 101.469C125.358 108.394 128.511 114.873 132.935 120.454C133.375 121.008 133.832 121.561 134.297 122.097C134.332 122.133 134.359 122.168 134.394 122.203C135.54 123.523 136.758 124.779 138.042 125.965C138.376 126.272 138.727 126.589 139.079 126.888C139.747 127.485 140.432 128.057 141.144 128.602C142.535 129.697 143.984 130.716 145.486 131.652L145.539 131.678C146.515 132.285 147.508 132.847 148.519 133.383L148.932 133.594C149.881 134.086 150.848 134.552 151.841 134.983C152.043 135.071 152.263 135.159 152.465 135.247C152.483 135.255 152.492 135.255 152.51 135.264C154.516 136.099 156.578 136.795 158.68 137.347C162.8 138.446 167.046 139.001 171.31 139C172.866 139 174.404 138.93 175.925 138.78C179.399 138.459 182.829 137.767 186.156 136.715C186.165 136.715 186.174 136.706 186.182 136.706C188.284 136.036 190.337 135.223 192.326 134.271C192.335 134.262 192.353 134.262 192.361 134.253C192.81 134.042 193.24 133.814 193.68 133.594C193.75 133.559 193.821 133.524 193.891 133.489C194.243 133.304 194.594 133.12 194.946 132.926C195.825 132.443 196.686 131.933 197.539 131.388C197.776 131.247 198.004 131.098 198.242 130.94C199.015 130.43 199.78 129.885 200.518 129.331C200.65 129.235 200.791 129.138 200.923 129.032C209.157 122.782 215.201 114.085 218.189 104.188C221.176 94.2906 220.953 83.7019 217.553 73.9392H217.553ZM199.305 126.897C199.015 127.125 198.716 127.345 198.418 127.547C198.128 127.767 197.837 127.978 197.539 128.171C197.284 128.356 197.029 128.531 196.765 128.698C196.545 128.848 196.325 128.988 196.106 129.129C195.376 129.586 194.638 130.026 193.891 130.448C193.812 130.491 193.733 130.535 193.653 130.579C193.319 130.764 192.985 130.94 192.652 131.116C192.607 131.142 192.555 131.16 192.511 131.186L192.458 131.212C192.036 131.432 191.606 131.643 191.175 131.845C189.513 132.646 187.801 133.338 186.05 133.919C185.822 133.999 185.593 134.078 185.365 134.148C182.216 135.149 178.969 135.81 175.679 136.117C174.237 136.249 172.778 136.319 171.31 136.319C167.277 136.327 163.26 135.801 159.365 134.754C157.366 134.233 155.407 133.569 153.503 132.768C153.301 132.689 153.098 132.601 152.905 132.522C152.8 132.478 152.703 132.434 152.597 132.381C151.771 132.021 150.954 131.625 150.154 131.212L149.767 131.01C148.792 130.5 147.833 129.955 146.901 129.375C146.559 129.164 146.216 128.944 145.882 128.716C144.827 128.022 143.799 127.275 142.797 126.492C142.12 125.982 141.47 125.437 140.837 124.875C140.503 124.594 140.177 124.286 139.861 123.996C138.615 122.845 137.435 121.624 136.328 120.339C135.959 119.918 135.598 119.496 135.255 119.056C135.177 118.969 135.104 118.878 135.035 118.784C129.325 111.577 125.89 102.833 125.168 93.6665C124.447 84.4998 126.473 75.3262 130.987 67.3153C135.5 59.3045 142.298 52.8197 150.512 48.6878C158.726 44.5559 167.985 42.9642 177.108 44.1158C186.23 45.2673 194.803 49.1099 201.733 55.1535C208.663 61.197 213.636 69.1676 216.017 78.0488C218.399 86.93 218.081 96.3193 215.104 105.019C212.128 113.719 206.628 121.335 199.305 126.897Z" fill="#E4E4E4"/>
<path d="M120.495 160.337C118.762 155.357 115.963 150.815 112.294 147.028C108.625 143.24 104.174 140.299 99.2509 138.409C94.3282 136.519 89.0525 135.725 83.7916 136.084C78.5307 136.442 73.4113 137.944 68.7904 140.484C64.1695 143.024 60.1583 146.542 57.0365 150.791C53.9147 155.041 51.7575 159.92 50.7152 165.089C49.673 170.258 49.7709 175.593 51.002 180.72C52.2331 185.847 54.5678 190.644 57.8434 194.777C58.1688 195.187 58.5072 195.597 58.8523 195.994C58.8784 196.02 58.8978 196.046 58.9238 196.072C59.7721 197.049 60.6737 197.979 61.6245 198.857C61.8721 199.085 62.1323 199.319 62.3926 199.54C62.887 199.983 63.3948 200.406 63.922 200.809C64.1301 200.972 64.3319 201.135 64.5467 201.291C65.3796 201.922 66.2452 202.508 67.1369 203.068L67.176 203.087C67.4296 203.244 67.6901 203.4 67.9504 203.549C68.4188 203.829 68.9005 204.096 69.3819 204.35L69.688 204.506C70.3909 204.87 71.1068 205.215 71.8421 205.534C71.9918 205.599 72.1545 205.664 72.3042 205.729C72.3172 205.736 72.3236 205.736 72.3366 205.743C72.6817 205.886 73.0265 206.022 73.3779 206.153C74.5324 206.593 75.7098 206.971 76.9052 207.285C79.956 208.098 83.0999 208.509 86.2572 208.508C87.4091 208.508 88.548 208.456 89.6739 208.346C92.2464 208.108 94.786 207.596 97.2492 206.816C97.2556 206.816 97.2622 206.81 97.2686 206.81C98.8246 206.314 100.345 205.712 101.818 205.007C101.824 205.001 101.837 205.001 101.844 204.994C102.176 204.838 102.495 204.669 102.82 204.506C102.872 204.48 102.924 204.454 102.976 204.428C103.236 204.291 103.497 204.155 103.757 204.011C104.408 203.653 105.046 203.276 105.677 202.873C105.853 202.768 106.022 202.658 106.198 202.541C106.445 202.378 106.692 202.209 106.933 202.033C107.252 201.812 107.571 201.584 107.883 201.35C107.981 201.278 108.085 201.207 108.182 201.128C114.28 196.501 118.755 190.061 120.967 182.733C123.179 175.405 123.014 167.565 120.495 160.337L120.495 160.337Z" fill="white"/>
<path d="M73.4833 180.736L75.589 188.031L102.498 187.556L102.263 174.191C102.076 163.612 94.5994 154.488 84.0207 154.675C73.442 154.861 66.7156 163.805 66.9022 174.384L68.439 188.157L72.8264 188.08L73.4833 180.736Z" fill="#686E6D"/>
<path d="M85.2239 185.837C91.8919 185.837 97.2975 180.432 97.2975 173.763C97.2975 167.095 91.8919 161.69 85.2239 161.69C78.5559 161.69 73.1504 167.095 73.1504 173.763C73.1504 180.432 78.5559 185.837 85.2239 185.837Z" fill="#CACACA"/>
<path d="M109.256 192.591L108.982 197.67C103.188 203.697 95.2835 207.245 86.9289 207.568C78.5743 207.892 70.4193 204.966 64.1759 199.405C63.8969 199.16 63.6233 198.903 63.3555 198.641C65.0296 196.978 69.6505 192.87 74.7791 192.491L97.905 191.034C97.905 191.034 106.666 190.008 109.256 192.591Z" fill="#E7EDEC"/>
<path d="M98.441 165.286C98.4249 164.361 98.1356 163.462 97.6093 162.702C97.5538 162.624 97.4979 162.551 97.442 162.479C96.9947 161.908 96.4214 161.448 95.7669 161.135C95.1125 160.823 94.3946 160.666 93.6694 160.676L84.9917 160.833L76.3194 160.983C75.077 161.008 73.8951 161.524 73.0322 162.418C72.1694 163.313 71.6959 164.512 71.7154 165.755L73.7804 169.912L74.9689 172.301L75.1643 172.189C82.6701 167.97 85.7394 167.914 95.673 171.837L95.8738 171.916L96.6608 169.901L98.4464 165.33L98.441 165.286Z" fill="#62716D"/>
<path d="M120.495 160.337C118.762 155.357 115.963 150.815 112.294 147.028C108.625 143.24 104.174 140.299 99.2509 138.409C94.3282 136.519 89.0525 135.725 83.7916 136.084C78.5307 136.442 73.4113 137.944 68.7904 140.484C64.1695 143.024 60.1583 146.542 57.0365 150.791C53.9147 155.041 51.7575 159.92 50.7152 165.089C49.673 170.258 49.7709 175.593 51.002 180.72C52.2331 185.847 54.5678 190.644 57.8434 194.777C58.1688 195.187 58.5072 195.597 58.8523 195.994C58.8784 196.02 58.8978 196.046 58.9238 196.072C59.7721 197.049 60.6737 197.979 61.6245 198.857C61.8721 199.085 62.1323 199.319 62.3926 199.54C62.887 199.983 63.3948 200.406 63.922 200.809C64.1301 200.972 64.3319 201.135 64.5467 201.291C65.3796 201.922 66.2452 202.508 67.1369 203.068L67.176 203.087C67.4296 203.244 67.6901 203.4 67.9504 203.549C68.4188 203.829 68.9005 204.096 69.3819 204.35L69.688 204.506C70.3909 204.87 71.1068 205.215 71.8421 205.534C71.9918 205.599 72.1545 205.664 72.3042 205.729C72.3172 205.736 72.3236 205.736 72.3366 205.743C72.6817 205.886 73.0265 206.022 73.3779 206.153C74.5324 206.593 75.7098 206.971 76.9052 207.285C79.956 208.098 83.0999 208.509 86.2572 208.508C87.4091 208.508 88.548 208.456 89.6739 208.346C92.2464 208.108 94.786 207.596 97.2492 206.816C97.2556 206.816 97.2622 206.81 97.2686 206.81C98.8246 206.314 100.345 205.712 101.818 205.007C101.824 205.001 101.837 205.001 101.844 204.994C102.176 204.838 102.495 204.669 102.82 204.506C102.872 204.48 102.924 204.454 102.976 204.428C103.236 204.291 103.497 204.155 103.757 204.011C104.408 203.653 105.046 203.276 105.677 202.873C105.853 202.768 106.022 202.658 106.198 202.541C106.445 202.378 106.692 202.209 106.933 202.033C107.252 201.812 107.571 201.584 107.883 201.35C107.981 201.278 108.085 201.207 108.182 201.128C114.28 196.501 118.755 190.061 120.967 182.733C123.179 175.405 123.014 167.565 120.495 160.337L120.495 160.337ZM106.985 199.547C106.77 199.716 106.549 199.879 106.328 200.029C106.113 200.191 105.898 200.347 105.677 200.491C105.488 200.627 105.299 200.757 105.104 200.881L105.046 200.92C104.902 201.018 104.759 201.109 104.616 201.2C104.076 201.538 103.529 201.864 102.976 202.176C102.918 202.209 102.859 202.241 102.8 202.274C102.553 202.41 102.306 202.541 102.059 202.671C102.026 202.69 101.987 202.703 101.954 202.723L101.915 202.742C101.603 202.905 101.284 203.061 100.965 203.211C99.7347 203.804 98.4673 204.317 97.1711 204.747C97.0017 204.805 96.8326 204.864 96.6636 204.916C94.3321 205.657 91.9277 206.146 89.4918 206.374C88.4244 206.471 87.344 206.523 86.2572 206.523C83.2709 206.53 80.297 206.14 77.413 205.365C75.933 204.979 74.4823 204.487 73.0723 203.894C73.0005 203.862 72.9223 203.836 72.8508 203.803C72.7729 203.771 72.7011 203.745 72.6296 203.712C72.5515 203.679 72.48 203.647 72.4018 203.608C71.7901 203.341 71.1847 203.048 70.5927 202.742L70.3064 202.593C69.5838 202.215 68.8745 201.812 68.1846 201.382C67.9829 201.258 67.7747 201.128 67.5793 200.992C67.5275 200.959 67.4817 200.927 67.4296 200.894C66.9676 200.588 66.5055 200.269 66.0565 199.937C65.7509 199.71 65.4448 199.482 65.1455 199.248C64.6444 198.87 64.1626 198.467 63.6942 198.05C63.447 197.842 63.2061 197.614 62.9719 197.399C62.0491 196.547 61.1756 195.643 60.3557 194.692C60.0824 194.38 59.8155 194.067 59.5616 193.742C59.5039 193.677 59.4496 193.61 59.3989 193.54C55.1705 188.204 52.6271 181.73 52.0932 174.943C51.5593 168.156 53.0589 161.363 56.401 155.432C59.743 149.501 64.776 144.699 70.858 141.64C76.94 138.581 83.7953 137.402 90.5498 138.255C97.3043 139.107 103.652 141.953 108.783 146.427C113.914 150.902 117.596 156.804 119.359 163.379C121.122 169.955 120.887 176.907 118.683 183.349C116.479 189.79 112.407 195.429 106.985 199.547Z" fill="#E4E4E4"/>
</g>
<path d="M171 236C176.523 236 181 231.523 181 226C181 220.477 176.523 216 171 216C165.477 216 161 220.477 161 226C161 231.523 165.477 236 171 236Z" stroke="black" stroke-width="2" stroke-linecap="round" stroke-linejoin="round"/>
<path d="M171 222V230" stroke="black" stroke-width="2" stroke-linecap="round" stroke-linejoin="round"/>
<path d="M167 226H175" stroke="black" stroke-width="2" stroke-linecap="round" stroke-linejoin="round"/>
<defs>
<clipPath id="clip0_1180_89639">
<rect width="374" height="249.93" fill="white"/>
</clipPath>
</defs>
</svg>
