<svg width="361" height="266" viewBox="0 0 361 266" fill="none" xmlns="http://www.w3.org/2000/svg">
<path d="M308.68 49.2375C306.838 43.9457 303.864 39.1195 299.965 35.0953C296.066 31.0711 291.336 27.9458 286.106 25.9374C280.875 23.929 275.269 23.0857 269.678 23.4665C264.088 23.8473 258.648 25.4428 253.738 28.142C248.828 30.8412 244.566 34.5789 241.248 39.0946C237.931 43.6103 235.639 48.7952 234.531 54.2879C233.424 59.7805 233.528 65.4486 234.836 70.8969C236.144 76.3452 238.625 81.4426 242.106 85.8336C242.452 86.2693 242.811 86.7049 243.178 87.1268C243.206 87.1544 243.226 87.1821 243.254 87.2097C244.155 88.2484 245.113 89.2365 246.124 90.1695C246.387 90.4116 246.663 90.6605 246.94 90.8956C247.465 91.3659 248.005 91.8153 248.565 92.2441C248.786 92.417 249.001 92.5899 249.229 92.7559C250.114 93.4266 251.034 94.049 251.981 94.6437L252.023 94.6645C252.292 94.8305 252.569 94.9965 252.846 95.1555C253.343 95.4529 253.855 95.7364 254.367 96.0061L254.692 96.1721C255.439 96.5593 256.2 96.9258 256.981 97.2647C257.14 97.3338 257.313 97.403 257.472 97.4721C257.486 97.479 257.493 97.479 257.506 97.4859C257.873 97.6381 258.239 97.7833 258.613 97.9216C259.84 98.3901 261.091 98.7918 262.361 99.1249C265.603 99.9889 268.944 100.426 272.298 100.425C273.522 100.425 274.733 100.37 275.929 100.252C278.663 99.9997 281.361 99.4549 283.979 98.627C283.985 98.627 283.992 98.6201 283.999 98.6201C285.653 98.0933 287.268 97.4533 288.833 96.7045C288.84 96.6976 288.854 96.6976 288.861 96.6907C289.213 96.5247 289.552 96.345 289.898 96.1721C289.954 96.1444 290.009 96.1167 290.064 96.0891C290.341 95.9438 290.617 95.7986 290.894 95.6465C291.586 95.2661 292.263 94.8651 292.934 94.4363C293.121 94.3257 293.3 94.2081 293.487 94.0836C293.75 93.9107 294.013 93.7309 294.269 93.5442C294.607 93.3091 294.946 93.0671 295.278 92.8181C295.382 92.7421 295.493 92.666 295.596 92.583C302.075 87.6654 306.83 80.8228 309.181 73.0361C311.531 65.2494 311.356 56.9184 308.68 49.2375L308.68 49.2375Z" fill="white"/>
<path d="M292.265 90.9787C288.988 89.2521 285.568 87.813 282.043 86.6773L281.594 81.7052L263.365 79.7412L261.048 86.0964L254.507 88.5514C254.272 88.6401 254.05 88.7562 253.843 88.8971H253.836C253.471 89.1439 253.16 89.4625 252.922 89.8334C252.684 90.2044 252.524 90.62 252.453 91.0547C252.383 91.487 252.399 91.9289 252.501 92.3548L252.847 93.7724C253.345 94.0698 253.857 94.3534 254.368 94.623L254.693 94.789C255.44 95.1763 256.201 95.5428 256.982 95.8816C257.141 95.9508 257.314 96.0199 257.473 96.0891C257.487 96.096 257.494 96.096 257.508 96.1029C257.874 96.2551 258.241 96.4003 258.614 96.5386C259.841 97.0071 261.092 97.4088 262.362 97.7418C265.604 98.6059 268.945 99.0429 272.3 99.0419C273.524 99.0419 274.734 98.9866 275.93 98.8691C278.664 98.6167 281.363 98.0719 283.98 97.244C283.987 97.244 283.994 97.237 284.001 97.237C285.654 96.7103 287.269 96.0703 288.835 95.3215C288.841 95.3146 288.855 95.3146 288.862 95.3077C289.215 95.1417 289.554 94.9619 289.9 94.789C289.955 94.7614 290.01 94.7337 290.065 94.706C290.342 94.5608 290.619 94.4156 290.895 94.2635C291.587 93.8831 292.265 93.482 292.935 93.0533C293.122 92.9426 293.302 92.825 293.489 92.7006C293.751 92.5277 294.014 92.3479 294.27 92.1612C293.627 91.7463 292.956 91.3521 292.265 90.9787Z" fill="#BDBDBD"/>
<path d="M271.763 76.5979C279.014 76.5979 284.892 70.72 284.892 63.4693C284.892 56.2187 279.014 50.3408 271.763 50.3408C264.513 50.3408 258.635 56.2187 258.635 63.4693C258.635 70.72 264.513 76.5979 271.763 76.5979Z" fill="#D9D9D9"/>
<path d="M262.951 57.0746C264.31 58.683 266.61 59.1368 268.731 59.3229C273.04 59.7008 279.305 59.0878 283.516 58.1156C283.817 61.0284 282.997 64.1692 284.713 66.5653C285.517 63.6644 285.985 60.6806 286.107 57.6728C286.235 56.3823 286.066 55.0796 285.614 53.8642C285.372 53.2551 284.965 52.726 284.437 52.3371C283.91 51.9482 283.284 51.7151 282.63 51.6643C283.608 50.9223 284.754 50.4324 285.966 50.2381L281.798 48.1432L282.868 47.0442L275.321 46.5823L277.507 45.1937C274.217 44.7416 270.889 44.6365 267.577 44.8802C266.039 44.9935 264.431 45.21 263.185 46.101C261.939 46.9921 261.219 48.7632 261.992 50.0714C261.024 50.2304 260.112 50.6341 259.343 51.2441C258.574 51.8542 257.974 52.6504 257.599 53.5574C257.125 54.999 257.01 56.5347 257.265 58.0308C257.55 60.431 258.108 62.7909 258.928 65.0644L262.951 57.0746Z" fill="#686E6D"/>
<path d="M308.68 49.2375C306.838 43.9457 303.864 39.1195 299.965 35.0953C296.066 31.0711 291.336 27.9458 286.106 25.9374C280.875 23.929 275.269 23.0857 269.678 23.4665C264.088 23.8473 258.648 25.4428 253.738 28.142C248.828 30.8412 244.566 34.5789 241.248 39.0946C237.931 43.6103 235.639 48.7952 234.531 54.2879C233.424 59.7805 233.528 65.4486 234.836 70.8969C236.144 76.3452 238.625 81.4426 242.106 85.8336C242.452 86.2693 242.811 86.7049 243.178 87.1268C243.206 87.1544 243.226 87.1821 243.254 87.2097C244.155 88.2484 245.113 89.2365 246.124 90.1695C246.387 90.4116 246.663 90.6605 246.94 90.8956C247.465 91.3659 248.005 91.8153 248.565 92.2441C248.786 92.417 249.001 92.5899 249.229 92.7559C250.114 93.4266 251.034 94.049 251.981 94.6437L252.023 94.6645C252.292 94.8305 252.569 94.9965 252.846 95.1555C253.343 95.4529 253.855 95.7364 254.367 96.0061L254.692 96.1721C255.439 96.5593 256.2 96.9258 256.981 97.2647C257.14 97.3338 257.313 97.403 257.472 97.4721C257.486 97.479 257.493 97.479 257.506 97.486C257.873 97.6381 258.239 97.7833 258.613 97.9216C259.84 98.3901 261.091 98.7918 262.361 99.1249C265.603 99.9889 268.944 100.426 272.298 100.425C273.522 100.425 274.733 100.37 275.929 100.252C278.663 99.9998 281.361 99.4549 283.979 98.627C283.985 98.627 283.992 98.6201 283.999 98.6201C285.653 98.0933 287.268 97.4533 288.833 96.7045C288.84 96.6976 288.854 96.6976 288.861 96.6907C289.213 96.5247 289.552 96.345 289.898 96.1721C289.954 96.1444 290.009 96.1168 290.064 96.0891C290.341 95.9438 290.617 95.7986 290.894 95.6465C291.586 95.2661 292.263 94.8651 292.934 94.4363C293.121 94.3257 293.3 94.2081 293.487 94.0836C293.75 93.9107 294.013 93.7309 294.269 93.5442C294.607 93.3091 294.946 93.0671 295.278 92.8181C295.382 92.7421 295.493 92.666 295.596 92.583C302.075 87.6654 306.831 80.8228 309.181 73.0361C311.531 65.2494 311.356 56.9184 308.68 49.2375L308.68 49.2375ZM294.324 90.9025C294.096 91.0823 293.861 91.2552 293.625 91.4143C293.397 91.5872 293.169 91.7531 292.934 91.9052C292.733 92.0505 292.533 92.1888 292.325 92.3202L292.263 92.3617C292.111 92.4654 291.959 92.5622 291.807 92.659C291.233 93.0186 290.652 93.3644 290.064 93.6963C290.002 93.7309 289.939 93.7655 289.877 93.8001C289.615 93.9453 289.352 94.0836 289.089 94.2219C289.054 94.2427 289.013 94.2565 288.978 94.2772L288.937 94.298C288.605 94.4708 288.266 94.6368 287.927 94.7958C286.62 95.4255 285.273 95.9707 283.896 96.4279C283.716 96.4901 283.536 96.5524 283.356 96.6077C280.879 97.3956 278.324 97.9149 275.736 98.1567C274.601 98.2604 273.453 98.3158 272.299 98.3158C269.125 98.3223 265.965 97.9084 262.901 97.0848C261.328 96.6743 259.787 96.152 258.288 95.522C258.212 95.4874 258.129 95.4597 258.053 95.4251C257.97 95.3906 257.894 95.3629 257.818 95.3283C257.735 95.2937 257.659 95.2592 257.576 95.2177C256.926 94.9341 256.282 94.6229 255.653 94.298L255.349 94.1389C254.581 93.7378 253.828 93.3091 253.095 92.8526C252.88 92.7212 252.659 92.5829 252.451 92.4377C252.396 92.4032 252.348 92.3686 252.292 92.334C251.801 92.009 251.31 91.6701 250.833 91.3174C250.508 91.0754 250.183 90.8334 249.865 90.5844C249.333 90.1833 248.821 89.7546 248.323 89.312C248.06 89.0907 247.804 88.8487 247.556 88.6204C246.575 87.7151 245.647 86.7546 244.776 85.7437C244.485 85.4117 244.202 85.0798 243.932 84.734C243.87 84.6656 243.813 84.5941 243.759 84.5196C239.266 78.8498 236.563 71.9703 235.996 64.7583C235.428 57.5463 237.022 50.3287 240.573 44.0261C244.125 37.7235 249.473 32.6214 255.935 29.3705C262.398 26.1197 269.683 24.8674 276.86 25.7734C284.037 26.6794 290.782 29.7026 296.234 34.4575C301.686 39.2123 305.599 45.4834 307.472 52.4708C309.346 59.4582 309.096 66.8454 306.754 73.6901C304.413 80.5349 300.085 86.5271 294.324 90.9025H294.324Z" fill="#E4E4E4"/>
<path d="M224.724 264.412H136.525C131.56 264.406 126.8 262.431 123.29 258.921C119.779 255.41 117.804 250.65 117.799 245.685V18.7263C117.804 13.7615 119.779 9.00169 123.29 5.49105C126.8 1.9804 131.56 0.00564078 136.525 0H148.445L147.985 1.12804C147.509 2.29552 147.327 3.5622 147.455 4.81651C147.584 6.07082 148.019 7.27426 148.722 8.3208C149.426 9.36733 150.376 10.2248 151.488 10.8178C152.601 11.4108 153.843 11.721 155.103 11.7211H205.389C206.65 11.7209 207.892 11.4107 209.005 10.8178C210.117 10.2249 211.067 9.36735 211.771 8.32083C212.474 7.27431 212.909 6.07089 213.038 4.81658C213.166 3.56227 212.985 2.29556 212.508 1.12804L212.048 0H224.724C229.689 0.00563056 234.449 1.98038 237.96 5.49102C241.47 9.00166 243.445 13.7615 243.451 18.7263V245.685C243.445 250.65 241.47 255.41 237.96 258.921C234.449 262.431 229.689 264.406 224.724 264.412Z" fill="white"/>
<path d="M224.724 264.412H136.525C131.56 264.406 126.8 262.431 123.29 258.921C119.779 255.41 117.804 250.65 117.799 245.685V18.7263C117.804 13.7615 119.779 9.00169 123.29 5.49105C126.8 1.9804 131.56 0.00564078 136.525 0H148.445L147.985 1.12804C147.509 2.29552 147.327 3.5622 147.455 4.81651C147.584 6.07082 148.019 7.27426 148.722 8.3208C149.426 9.36733 150.376 10.2248 151.488 10.8178C152.601 11.4108 153.843 11.721 155.103 11.7211H205.389C206.65 11.7209 207.892 11.4107 209.005 10.8178C210.117 10.2249 211.067 9.36735 211.771 8.32083C212.474 7.27431 212.909 6.07089 213.038 4.81658C213.166 3.56227 212.985 2.29556 212.508 1.12804L212.048 0H224.724C229.689 0.00563056 234.449 1.98038 237.96 5.49102C241.47 9.00166 243.445 13.7615 243.451 18.7263V245.685C243.445 250.65 241.47 255.41 237.96 258.921C234.449 262.431 229.689 264.406 224.724 264.412ZM136.525 1.63769C131.994 1.64286 127.651 3.44493 124.447 6.64855C121.244 9.85217 119.442 14.1957 119.437 18.7263V245.685C119.442 250.216 121.244 254.559 124.447 257.763C127.651 260.967 131.994 262.769 136.525 262.774H224.724C229.255 262.769 233.599 260.967 236.802 257.763C240.006 254.559 241.808 250.216 241.813 245.685V18.7263C241.808 14.1957 240.006 9.85214 236.802 6.64852C233.599 3.4449 229.255 1.64285 224.724 1.63769H214.405C214.771 3.01877 214.816 4.46559 214.534 5.86653C214.253 7.26746 213.654 8.58506 212.783 9.71767C211.912 10.8503 210.792 11.7676 209.51 12.3989C208.228 13.0302 206.818 13.3586 205.389 13.3587H155.103C153.675 13.3582 152.265 13.0296 150.984 12.3982C149.702 11.7667 148.583 10.8493 147.712 9.71681C146.841 8.58427 146.241 7.26681 145.96 5.86604C145.679 4.46528 145.723 3.01863 146.09 1.63767L136.525 1.63769Z" fill="#E4E4E4"/>
<path d="M231.171 78.5681C228.683 71.4211 224.666 64.9028 219.401 59.4678C214.135 54.0327 207.747 49.8117 200.682 47.0991C193.617 44.3865 186.046 43.2476 178.496 43.7619C170.946 44.2761 163.599 46.4311 156.967 50.0766C150.335 53.722 144.579 58.7702 140.098 64.8691C135.618 70.968 132.522 77.9707 131.026 85.3891C129.531 92.8074 129.671 100.463 131.438 107.821C133.205 115.18 136.556 122.064 141.256 127.995C141.723 128.583 142.209 129.171 142.704 129.741C142.741 129.778 142.769 129.816 142.807 129.853C144.024 131.256 145.318 132.59 146.683 133.851C147.038 134.178 147.411 134.514 147.785 134.831C148.495 135.466 149.223 136.074 149.98 136.653C151.457 137.817 152.997 138.899 154.594 139.893L154.65 139.922C155.686 140.566 156.742 141.164 157.816 141.733L158.255 141.958C159.263 142.481 160.291 142.976 161.346 143.433C161.561 143.527 161.795 143.62 162.009 143.714C162.028 143.723 162.038 143.723 162.056 143.732C164.189 144.619 166.379 145.359 168.613 145.946C172.991 147.113 177.503 147.703 182.034 147.702C183.687 147.702 185.322 147.627 186.937 147.468C190.629 147.127 194.274 146.392 197.809 145.273C197.819 145.273 197.828 145.264 197.837 145.264C200.07 144.553 202.251 143.688 204.366 142.677C204.375 142.667 204.394 142.667 204.403 142.658C204.879 142.434 205.337 142.191 205.804 141.958C205.879 141.92 205.954 141.883 206.028 141.846C206.402 141.649 206.775 141.453 207.149 141.248C208.083 140.734 208.998 140.192 209.904 139.613C210.156 139.464 210.399 139.305 210.651 139.137C211.473 138.595 212.286 138.016 213.07 137.428C213.211 137.325 213.36 137.222 213.5 137.11C222.25 130.468 228.673 121.227 231.847 110.71C235.021 100.194 234.785 88.942 231.171 78.5681H231.171Z" fill="white"/>
<path d="M199.202 117.117C203.509 117.117 207 113.626 207 109.319C207 105.013 203.509 101.521 199.202 101.521C194.896 101.521 191.404 105.013 191.404 109.319C191.404 113.626 194.896 117.117 199.202 117.117Z" fill="#5E5E5E"/>
<path d="M201.375 101.737C202.724 101.737 204.051 102.087 205.225 102.753C206.398 103.419 207.379 104.379 208.071 105.538C208.763 106.697 209.142 108.015 209.172 109.364C209.201 110.714 208.88 112.048 208.24 113.236C208.915 112.39 209.408 111.412 209.685 110.366C209.962 109.319 210.019 108.226 209.85 107.157C209.682 106.087 209.293 105.064 208.707 104.154C208.122 103.243 207.353 102.464 206.45 101.867C205.547 101.269 204.529 100.867 203.462 100.685C202.394 100.502 201.301 100.544 200.251 100.808C199.201 101.072 198.217 101.551 197.362 102.216C196.508 102.881 195.801 103.716 195.287 104.669C196.016 103.754 196.942 103.015 197.996 102.507C199.051 101.999 200.206 101.736 201.376 101.737H201.375Z" fill="#5E5E5E"/>
<path d="M184.632 109.303C197.283 109.303 207.538 99.0468 207.538 86.3957C207.538 73.7445 197.283 63.4888 184.632 63.4888C171.98 63.4888 161.725 73.7445 161.725 86.3957C161.725 99.0468 171.98 109.303 184.632 109.303Z" fill="#5E5E5E"/>
<path d="M166.653 72.1837C170.6 67.7447 176.118 65.0128 182.041 64.5646C187.964 64.1164 193.829 65.9869 198.399 69.7814C198.213 69.6031 198.026 69.4237 197.833 69.2509C193.307 65.202 187.358 63.1158 181.295 63.451C175.232 63.7861 169.55 66.5152 165.498 71.0382C161.446 75.5613 159.355 81.5082 159.686 87.5718C160.018 93.6354 162.743 99.3194 167.263 103.374C167.307 103.413 167.35 103.452 167.394 103.491C167.588 103.664 167.788 103.827 167.987 103.992C163.683 99.8982 161.139 94.2921 160.89 88.3574C160.641 82.4227 162.708 76.6234 166.654 72.1836L166.653 72.1837Z" fill="#5E5E5E"/>
<path d="M184.437 109.108C192.585 109.108 199.19 102.503 199.19 94.3548C199.19 86.2068 192.585 79.6016 184.437 79.6016C176.289 79.6016 169.684 86.2068 169.684 94.3548C169.684 102.503 176.289 109.108 184.437 109.108Z" fill="#A0616A"/>
<path d="M210.838 132.795V137.745C209.932 138.324 209.017 138.866 208.083 139.38C207.709 139.585 207.336 139.781 206.962 139.977C206.887 140.015 206.812 140.052 206.738 140.09C206.271 140.323 205.813 140.566 205.337 140.79C205.328 140.799 205.308 140.799 205.299 140.809C203.185 141.82 201.004 142.684 198.771 143.396C198.761 143.396 198.752 143.405 198.743 143.405C195.208 144.523 191.563 145.259 187.871 145.6C186.255 145.759 184.621 145.834 182.968 145.834C178.437 145.835 173.925 145.245 169.547 144.078C167.313 143.49 165.122 142.751 162.99 141.864C162.971 141.855 162.962 141.855 162.943 141.845C162.728 141.752 162.495 141.659 162.28 141.565C161.225 141.108 160.197 140.613 159.188 140.09L158.75 139.865C157.675 139.296 156.62 138.698 155.583 138.053L155.527 138.025C153.931 137.031 152.391 135.949 150.913 134.785C150.157 134.205 149.429 133.598 148.718 132.963C148.345 132.646 147.971 132.309 147.617 131.983C146.252 130.722 144.958 129.388 143.74 127.985C143.902 127.012 144.139 126.054 144.45 125.118L144.459 125.108C144.515 124.949 144.581 124.793 144.656 124.641C144.707 124.507 144.766 124.376 144.833 124.249C146.505 121.12 149.531 120.345 153.286 120.177C155.406 120.084 157.75 120.186 160.225 120.158C161.533 120.149 162.887 120.102 164.241 119.981C172.787 119.206 171.237 114.162 171.62 111.444C172.003 108.81 174.375 111.089 174.534 111.239L174.543 111.248C179.379 113.511 184.73 114.449 190.047 113.966C190.963 113.854 191.878 113.788 192.793 113.76C195.203 113.732 194.68 114.424 193.849 114.993C193.445 115.259 193.024 115.496 192.588 115.703C192.588 115.703 192.205 118.038 191.813 121.531C191.439 124.875 203.217 126.033 205.524 126.762H205.533C206.85 127.246 208.025 128.051 208.951 129.105C209.878 130.159 210.526 131.427 210.838 132.795Z" fill="#EE8C34"/>
<path d="M171.818 75.9141V90.671H175.235L179.583 86.0123L179.001 90.671H194.103L193.169 86.0123L195.037 90.671H197.445V75.9141H171.818Z" fill="#5E5E5E"/>
<path d="M169.491 93.3854C170.134 93.3854 170.656 92.4295 170.656 91.2503C170.656 90.0711 170.134 89.1152 169.491 89.1152C168.848 89.1152 168.326 90.0711 168.326 91.2503C168.326 92.4295 168.848 93.3854 169.491 93.3854Z" fill="#A0616A"/>
<path d="M199.385 93.3854C200.029 93.3854 200.55 92.4295 200.55 91.2503C200.55 90.0711 200.029 89.1152 199.385 89.1152C198.742 89.1152 198.221 90.0711 198.221 91.2503C198.221 92.4295 198.742 93.3854 199.385 93.3854Z" fill="#A0616A"/>
<path d="M231.171 78.5681C228.683 71.4211 224.666 64.9028 219.401 59.4678C214.135 54.0327 207.747 49.8117 200.682 47.0991C193.617 44.3865 186.046 43.2476 178.496 43.7619C170.946 44.2761 163.599 46.4311 156.967 50.0766C150.335 53.722 144.579 58.7702 140.098 64.8691C135.618 70.968 132.522 77.9707 131.026 85.3891C129.531 92.8074 129.671 100.463 131.438 107.821C133.205 115.18 136.556 122.064 141.256 127.995C141.723 128.583 142.209 129.171 142.704 129.741C142.741 129.778 142.769 129.816 142.807 129.853C144.024 131.256 145.318 132.59 146.683 133.851C147.038 134.178 147.411 134.514 147.785 134.831C148.495 135.466 149.223 136.074 149.98 136.653C151.457 137.817 152.997 138.899 154.594 139.893L154.65 139.922C155.686 140.566 156.742 141.164 157.816 141.733L158.255 141.958C159.263 142.481 160.291 142.976 161.346 143.433C161.561 143.527 161.795 143.62 162.009 143.714C162.028 143.723 162.038 143.723 162.056 143.732C164.189 144.619 166.379 145.359 168.613 145.946C172.991 147.113 177.503 147.703 182.034 147.702C183.687 147.702 185.322 147.627 186.937 147.468C190.629 147.127 194.274 146.392 197.809 145.273C197.819 145.273 197.828 145.264 197.837 145.264C200.07 144.553 202.251 143.688 204.366 142.677C204.375 142.667 204.394 142.667 204.403 142.658C204.879 142.434 205.337 142.191 205.804 141.958C205.879 141.92 205.954 141.883 206.028 141.846C206.402 141.649 206.775 141.453 207.149 141.248C208.083 140.734 208.998 140.192 209.904 139.613C210.156 139.464 210.399 139.305 210.651 139.137C211.473 138.595 212.286 138.016 213.07 137.428C213.211 137.325 213.36 137.222 213.5 137.11C222.25 130.468 228.673 121.227 231.847 110.71C235.021 100.194 234.785 88.942 231.171 78.5681H231.171ZM211.781 134.841C211.473 135.084 211.156 135.317 210.838 135.532C210.53 135.765 210.222 135.989 209.904 136.195C209.633 136.391 209.363 136.578 209.082 136.755C208.849 136.914 208.615 137.064 208.382 137.213C207.607 137.699 206.822 138.166 206.028 138.614C205.944 138.661 205.86 138.707 205.776 138.754C205.421 138.95 205.066 139.137 204.711 139.324C204.664 139.352 204.608 139.37 204.562 139.399L204.506 139.427C204.057 139.66 203.6 139.884 203.142 140.099C201.376 140.95 199.557 141.686 197.697 142.303C197.454 142.387 197.211 142.471 196.969 142.546C193.623 143.61 190.172 144.312 186.676 144.638C185.144 144.778 183.594 144.853 182.034 144.853C177.748 144.862 173.48 144.303 169.341 143.191C167.217 142.636 165.135 141.931 163.112 141.08C162.897 140.996 162.682 140.902 162.476 140.818C162.365 140.771 162.261 140.725 162.149 140.669C161.271 140.286 160.403 139.866 159.553 139.427L159.142 139.212C158.106 138.67 157.087 138.091 156.097 137.475C155.733 137.25 155.369 137.017 155.014 136.774C153.893 136.036 152.8 135.242 151.735 134.411C151.016 133.869 150.325 133.29 149.653 132.692C149.298 132.394 148.952 132.067 148.616 131.758C147.292 130.536 146.038 129.238 144.861 127.873C144.469 127.425 144.086 126.976 143.722 126.509C143.639 126.417 143.561 126.32 143.488 126.22C137.42 118.562 133.77 109.271 133.004 99.5303C132.237 89.7899 134.39 80.0419 139.186 71.5296C143.982 63.0173 151.205 56.1265 159.934 51.7359C168.662 47.3454 178.501 45.6541 188.194 46.8777C197.888 48.1013 206.998 52.1845 214.361 58.6064C221.725 65.0283 227.009 73.4979 229.539 82.935C232.07 92.3722 231.732 102.349 228.57 111.594C225.407 120.838 219.562 128.931 211.781 134.841Z" fill="#E4E4E4"/>
<path d="M128.037 170.374C126.195 165.082 123.221 160.256 119.322 156.232C115.424 152.207 110.694 149.082 105.463 147.074C100.232 145.065 94.6261 144.222 89.0359 144.603C83.4457 144.983 78.0058 146.579 73.0956 149.278C68.1854 151.977 63.9231 155.715 60.6059 160.231C57.2887 164.747 54.9964 169.931 53.8889 175.424C52.7814 180.917 52.8854 186.585 54.1936 192.033C55.5018 197.481 57.9827 202.579 61.4633 206.97C61.8091 207.405 62.1687 207.841 62.5354 208.263C62.5631 208.291 62.5837 208.318 62.6114 208.346C63.5128 209.385 64.4708 210.373 65.4812 211.306C65.7442 211.548 66.0207 211.797 66.2973 212.032C66.8227 212.502 67.3623 212.952 67.9224 213.38C68.1436 213.553 68.358 213.726 68.5863 213.892C69.4713 214.563 70.3911 215.185 71.3386 215.78L71.3801 215.801C71.6496 215.967 71.9265 216.133 72.203 216.292C72.7007 216.589 73.2126 216.873 73.7242 217.142L74.0494 217.308C74.7963 217.696 75.557 218.062 76.3384 218.401C76.4974 218.47 76.6703 218.539 76.8294 218.608C76.8432 218.615 76.8499 218.615 76.8638 218.622C77.2305 218.774 77.5969 218.92 77.9703 219.058C79.197 219.526 80.4482 219.928 81.7184 220.261C84.9602 221.125 88.3009 221.562 91.6558 221.561C92.8799 221.561 94.0901 221.506 95.2864 221.388C98.02 221.136 100.719 220.591 103.336 219.763C103.343 219.763 103.35 219.756 103.357 219.756C105.01 219.23 106.625 218.59 108.191 217.841C108.197 217.834 108.211 217.834 108.218 217.827C108.571 217.661 108.91 217.481 109.256 217.308C109.311 217.281 109.366 217.253 109.421 217.225C109.698 217.08 109.975 216.935 110.251 216.783C110.943 216.402 111.621 216.001 112.291 215.573C112.478 215.462 112.658 215.344 112.845 215.22C113.107 215.047 113.37 214.867 113.626 214.68C113.965 214.445 114.304 214.203 114.636 213.954C114.739 213.878 114.85 213.802 114.954 213.719C121.432 208.802 126.188 201.959 128.538 194.172C130.889 186.386 130.713 178.055 128.037 170.374L128.037 170.374Z" fill="white"/>
<path d="M78.083 192.051L80.3205 199.802L108.914 199.297L108.664 185.096C108.466 173.854 100.521 164.159 89.2801 164.357C78.0392 164.556 70.8916 174.059 71.09 185.3L72.7229 199.936L77.385 199.854L78.083 192.051Z" fill="#686E6D"/>
<path d="M90.5579 197.471C97.6433 197.471 103.387 191.727 103.387 184.641C103.387 177.556 97.6433 171.812 90.5579 171.812C83.4724 171.812 77.7285 177.556 77.7285 184.641C77.7285 191.727 83.4724 197.471 90.5579 197.471Z" fill="#CACACA"/>
<path d="M116.094 204.648L115.803 210.044C109.646 216.449 101.247 220.218 92.3695 220.562C83.4919 220.906 74.8263 217.797 68.1921 211.888C67.8956 211.627 67.6049 211.355 67.3203 211.076C69.0993 209.309 74.0095 204.944 79.4591 204.541L104.033 202.993C104.033 202.993 113.343 201.902 116.094 204.648Z" fill="#E7EDEC"/>
<path d="M104.602 175.633C104.585 174.651 104.278 173.695 103.719 172.887C103.66 172.804 103.6 172.727 103.541 172.65C103.066 172.044 102.456 171.555 101.761 171.223C101.066 170.891 100.303 170.724 99.5321 170.735L90.3111 170.901L81.096 171.061C79.7758 171.087 78.5199 171.636 77.603 172.586C76.6861 173.536 76.183 174.811 76.2037 176.131L78.3979 180.549L79.6609 183.087L79.8686 182.968C87.8442 178.485 91.1056 178.426 101.661 182.595L101.875 182.678L102.711 180.537L104.608 175.68L104.602 175.633Z" fill="#5E5E5E"/>
<path d="M128.037 170.374C126.195 165.082 123.221 160.256 119.322 156.232C115.424 152.207 110.694 149.082 105.463 147.074C100.232 145.065 94.6261 144.222 89.0359 144.603C83.4457 144.983 78.0058 146.579 73.0956 149.278C68.1854 151.977 63.9231 155.715 60.6059 160.231C57.2887 164.747 54.9964 169.931 53.8889 175.424C52.7814 180.917 52.8854 186.585 54.1936 192.033C55.5018 197.481 57.9827 202.579 61.4633 206.97C61.8091 207.405 62.1687 207.841 62.5354 208.263C62.5631 208.291 62.5837 208.318 62.6114 208.346C63.5128 209.385 64.4708 210.373 65.4812 211.306C65.7442 211.548 66.0207 211.797 66.2973 212.032C66.8227 212.502 67.3623 212.952 67.9224 213.38C68.1436 213.553 68.358 213.726 68.5863 213.892C69.4713 214.563 70.3911 215.185 71.3386 215.78L71.3801 215.801C71.6496 215.967 71.9265 216.133 72.203 216.292C72.7007 216.589 73.2126 216.873 73.7242 217.142L74.0494 217.308C74.7963 217.696 75.557 218.062 76.3384 218.401C76.4974 218.47 76.6703 218.539 76.8294 218.608C76.8432 218.615 76.8499 218.615 76.8638 218.622C77.2305 218.774 77.5969 218.92 77.9703 219.058C79.197 219.526 80.4482 219.928 81.7184 220.261C84.9602 221.125 88.3009 221.562 91.6558 221.561C92.8799 221.561 94.0901 221.506 95.2864 221.388C98.02 221.136 100.719 220.591 103.336 219.763C103.343 219.763 103.35 219.756 103.357 219.756C105.01 219.23 106.625 218.59 108.191 217.841C108.197 217.834 108.211 217.834 108.218 217.827C108.571 217.661 108.91 217.481 109.256 217.308C109.311 217.281 109.366 217.253 109.421 217.225C109.698 217.08 109.975 216.935 110.251 216.783C110.943 216.402 111.621 216.001 112.291 215.573C112.478 215.462 112.658 215.344 112.845 215.22C113.107 215.047 113.37 214.867 113.626 214.68C113.965 214.445 114.304 214.203 114.636 213.954C114.739 213.878 114.85 213.802 114.954 213.719C121.432 208.802 126.188 201.959 128.538 194.172C130.889 186.386 130.713 178.055 128.037 170.374L128.037 170.374ZM113.681 212.039C113.453 212.219 113.218 212.391 112.983 212.55C112.754 212.723 112.527 212.889 112.291 213.041C112.091 213.187 111.89 213.325 111.683 213.456L111.621 213.498C111.468 213.602 111.316 213.698 111.164 213.795C110.59 214.155 110.009 214.501 109.421 214.833C109.359 214.867 109.297 214.902 109.235 214.936C108.972 215.081 108.709 215.22 108.447 215.358C108.412 215.379 108.37 215.393 108.336 215.413L108.294 215.434C107.962 215.607 107.623 215.773 107.285 215.932C105.977 216.562 104.63 217.107 103.253 217.564C103.073 217.626 102.893 217.689 102.714 217.744C100.236 218.532 97.6814 219.051 95.093 219.293C93.9588 219.397 92.8107 219.452 91.6559 219.452C88.4827 219.459 85.3225 219.045 82.258 218.221C80.6853 217.811 79.1439 217.288 77.6455 216.658C77.5692 216.624 77.4862 216.596 77.4102 216.561C77.3275 216.527 77.2511 216.499 77.1752 216.465C77.0921 216.43 77.0161 216.395 76.9331 216.354C76.2831 216.07 75.6398 215.759 75.0107 215.434L74.7065 215.275C73.9387 214.874 73.185 214.445 72.4519 213.989C72.2375 213.857 72.0163 213.719 71.8087 213.574C71.7536 213.539 71.705 213.505 71.6496 213.47C71.1587 213.145 70.6677 212.806 70.1906 212.454C69.8658 212.212 69.5406 211.97 69.2225 211.721C68.69 211.32 68.1781 210.891 67.6804 210.448C67.4177 210.227 67.1617 209.985 66.9129 209.757C65.9323 208.851 65.0042 207.891 64.1329 206.88C63.8425 206.548 63.5588 206.216 63.2891 205.87C63.2277 205.802 63.17 205.73 63.1162 205.656C58.6231 199.986 55.9205 193.106 55.3531 185.894C54.7858 178.682 56.3793 171.465 59.9306 165.162C63.4819 158.86 68.8299 153.758 75.2926 150.507C81.7553 147.256 89.0398 146.004 96.2172 146.91C103.394 147.816 110.139 150.839 115.591 155.594C121.044 160.349 124.956 166.62 126.83 173.607C128.703 180.594 128.453 187.982 126.112 194.826C123.77 201.671 119.442 207.663 113.681 212.039Z" fill="#E4E4E4"/>
<path d="M181.704 250.774C187.573 250.774 192.33 246.016 192.33 240.147C192.33 234.279 187.573 229.521 181.704 229.521C175.836 229.521 171.078 234.279 171.078 240.147C171.078 246.016 175.836 250.774 181.704 250.774Z" stroke="#E4E4E4" stroke-width="2.1252" stroke-linecap="round" stroke-linejoin="round"/>
<path d="M181.705 235.897V244.398" stroke="#E4E4E4" stroke-width="2.1252" stroke-linecap="round" stroke-linejoin="round"/>
<path d="M177.453 240.147H185.954" stroke="#E4E4E4" stroke-width="2.1252" stroke-linecap="round" stroke-linejoin="round"/>
</svg>
