<svg width="18" height="14" viewBox="0 0 18 14" fill="none" xmlns="http://www.w3.org/2000/svg">
<path fill-rule="evenodd" clip-rule="evenodd" d="M10.0178 2.83792C9.98007 2.47316 9.94075 2.09472 9.84402 1.71708C9.58056 0.813647 8.85073 0.250007 8.06822 0.250007C7.63174 0.248397 7.07965 0.517334 6.76665 0.789491L4.17215 2.96273H2.81396C1.81438 2.96273 1.01063 3.7333 0.858849 4.84528C0.729871 5.91298 0.698413 7.92839 0.858849 9.10318C0.99805 10.278 1.76562 11.0373 2.81396 11.0373H4.17215L6.81698 13.2427C7.0883 13.4786 7.56725 13.7492 8.00766 13.7492C8.03597 13.75 8.06114 13.75 8.08631 13.75C8.88376 13.75 9.58606 13.1654 9.84952 12.2644C9.94878 11.8835 9.98357 11.5264 10.0172 11.1814V11.1814L10.0178 11.175L10.0532 10.8311C10.1885 9.71594 10.1885 4.27681 10.0532 3.16966L10.0178 2.83792ZM13.0549 2.87093C12.8387 2.55207 12.41 2.47236 12.0962 2.69379C11.7856 2.91683 11.7085 3.35647 11.9248 3.67452C12.5264 4.56105 12.8575 5.74147 12.8575 7C12.8575 8.25772 12.5264 9.43895 11.9248 10.3255C11.7085 10.6435 11.7856 11.0832 12.097 11.3062C12.2134 11.3883 12.3495 11.4318 12.4895 11.4318C12.7152 11.4318 12.926 11.3183 13.0549 11.1291C13.8146 10.0098 14.2338 8.54357 14.2338 7C14.2338 5.45643 13.8146 3.99016 13.0549 2.87093ZM14.4675 0.415796C14.7806 0.19356 15.2107 0.274886 15.4254 0.59294C16.602 2.32493 17.25 4.60123 17.25 6.99992C17.25 9.40022 16.602 11.6757 15.4254 13.4077C15.2972 13.5969 15.0857 13.7105 14.86 13.7105C14.72 13.7105 14.5847 13.667 14.4683 13.5848C14.1569 13.3618 14.0798 12.923 14.2953 12.6041C15.313 11.1048 15.8737 9.11437 15.8737 6.99992C15.8737 4.88627 15.313 2.89581 14.2953 1.39653C14.0798 1.07848 14.1569 0.638836 14.4675 0.415796Z" fill="#F6FCFB"/>
</svg>
