<svg width="16" height="14" viewBox="0 0 16 14" fill="none" xmlns="http://www.w3.org/2000/svg">
<path fill-rule="evenodd" clip-rule="evenodd" d="M2.405 0.100708H4.94C5.9975 0.100708 6.845 0.879062 6.845 1.83407V4.14138C6.845 5.10248 5.9975 5.87406 4.94 5.87406H2.405C1.355 5.87406 0.5 5.10248 0.5 4.14138V1.83407C0.5 0.879062 1.355 0.100708 2.405 0.100708ZM2.405 7.86374H4.94C5.9975 7.86374 6.845 8.636 6.845 9.5971V11.9044C6.845 12.8587 5.9975 13.6371 4.94 13.6371H2.405C1.355 13.6371 0.5 12.8587 0.5 11.9044V9.5971C0.5 8.636 1.355 7.86374 2.405 7.86374ZM13.5951 0.100708H11.0601C10.0026 0.100708 9.15508 0.879062 9.15508 1.83407V4.14138C9.15508 5.10248 10.0026 5.87406 11.0601 5.87406H13.5951C14.6451 5.87406 15.5001 5.10248 15.5001 4.14138V1.83407C15.5001 0.879062 14.6451 0.100708 13.5951 0.100708ZM11.0601 7.86374H13.5951C14.6451 7.86374 15.5001 8.636 15.5001 9.5971V11.9044C15.5001 12.8587 14.6451 13.6371 13.5951 13.6371H11.0601C10.0026 13.6371 9.15508 12.8587 9.15508 11.9044V9.5971C9.15508 8.636 10.0026 7.86374 11.0601 7.86374Z" fill="#F6FCFB"/>
</svg>
