<svg width="18" height="18" viewBox="0 0 18 18" fill="none" xmlns="http://www.w3.org/2000/svg">
<g opacity="0.5">
<path fill-rule="evenodd" clip-rule="evenodd" d="M14.2939 2.59553C14.3261 2.54734 14.3644 2.50271 14.4088 2.46296L14.2939 2.59553ZM12.5789 4.57444C12.4152 4.55247 12.2431 4.59013 12.0962 4.69379C11.8551 4.86692 11.7547 5.17058 11.823 5.44656L12.5789 4.57444ZM12.3255 6.39366L13.3016 5.26734C13.9049 6.32588 14.2338 7.63261 14.2338 9C14.2338 10.5436 13.8146 12.0098 13.0549 13.1291C12.926 13.3183 12.7152 13.4318 12.4895 13.4318C12.3495 13.4318 12.2134 13.3883 12.097 13.3062C11.7856 13.0832 11.7085 12.6435 11.9248 12.3255C12.5264 11.439 12.8575 10.2577 12.8575 9C12.8575 8.05714 12.6717 7.15811 12.3255 6.39366ZM10.1432 7.38486C10.1281 6.38049 10.0981 5.53684 10.0532 5.16966L10.0178 4.83792C9.98007 4.47316 9.94075 4.09472 9.84402 3.71708C9.58056 2.81365 8.85073 2.25001 8.06822 2.25001C7.63174 2.2484 7.07965 2.51733 6.76665 2.78949L4.17215 4.96273H2.81396C1.81438 4.96273 1.01063 5.7333 0.858849 6.84528C0.729871 7.91298 0.698413 9.92839 0.858849 11.1032C0.99805 12.278 1.76562 13.0373 2.81396 13.0373H4.17215L4.79458 13.5563L10.1432 7.38486ZM5.56274 14.1968L10.1546 8.89851C10.156 10.5686 10.1222 12.2623 10.0532 12.8311L10.0178 13.175L10.0172 13.1814V13.1814C9.98357 13.5264 9.94878 13.8835 9.84952 14.2644C9.58606 15.1654 8.88376 15.75 8.08631 15.75C8.06114 15.75 8.03597 15.75 8.00766 15.7492C7.56725 15.7492 7.0883 15.4786 6.81698 15.2427L5.56274 14.1968ZM14.5602 3.81517L15.5098 2.71945C16.6329 4.43501 17.25 6.65919 17.25 8.99992C17.25 11.4002 16.602 13.6757 15.4254 15.4077C15.2972 15.5969 15.0857 15.7105 14.86 15.7105C14.72 15.7105 14.5847 15.667 14.4683 15.5848C14.1569 15.3618 14.0798 14.923 14.2953 14.6041C15.313 13.1048 15.8737 11.1144 15.8737 8.99992C15.8737 7.07746 15.4098 5.25692 14.5602 3.81517Z" fill="#F6FCFB"/>
<line x1="2.62037" y1="15.6746" x2="14.6204" y2="1.6746" stroke="#F6FCFB"/>
</g>
</svg>
