<svg width="60" height="60" viewBox="0 0 60 60" fill="none" xmlns="http://www.w3.org/2000/svg">
<circle cx="30" cy="30" r="29.5" fill="white" stroke="#CFECE9"/>
<path fill-rule="evenodd" clip-rule="evenodd" d="M30.0009 18.5C26.9633 18.5 24.5009 20.9624 24.5009 24V32C24.5009 35.0376 26.9633 37.5 30.0009 37.5C33.0384 37.5 35.5009 35.0376 35.5009 32V24C35.5009 20.9624 33.0384 18.5 30.0009 18.5ZM25.5009 24C25.5009 21.5147 27.5156 19.5 30.0009 19.5C32.4861 19.5 34.5009 21.5147 34.5009 24V32C34.5009 34.4853 32.4861 36.5 30.0009 36.5C27.5156 36.5 25.5009 34.4853 25.5009 32V24ZM37 28C37 27.4477 37.4477 27 38 27C38.5523 27 39 27.4477 39 28V32C38.9978 36.582 35.5536 40.4309 31 40.94V43H29V40.94C24.4464 40.4309 21.0022 36.582 21 32V28C21 27.4477 21.4477 27 22 27C22.5523 27 23 27.4477 23 28V32C23 35.866 26.134 39 30 39C33.866 39 37 35.866 37 32V28Z" fill="#4BC7B6"/>
</svg>
