<svg width="246" height="230" viewBox="0 0 246 230" fill="none" xmlns="http://www.w3.org/2000/svg">
<g clip-path="url(#clip0_15201_438693)">
<path d="M227.27 175.916L238.3 177.64C242.033 173.12 244.607 167.756 245.797 162.016C237.732 168.617 225.468 165.109 215.689 168.713C212.647 169.861 209.903 171.678 207.659 174.03C205.416 176.382 203.73 179.209 202.728 182.301L197.337 188.101C202.217 190.032 207.456 190.883 212.696 190.595C217.936 190.306 223.051 188.885 227.688 186.43C230.276 185.026 232.677 183.303 234.835 181.299C230.976 178.869 227.27 175.916 227.27 175.916Z" fill="#4BC7B6"/>
<path d="M223.355 158.277L233.996 154.901C235.321 149.19 235.233 143.242 233.738 137.573C229.464 147.078 216.922 149.408 209.777 156.995C207.566 159.379 205.921 162.229 204.961 165.335C204.002 168.441 203.754 171.723 204.236 174.938L201.998 182.532C207.227 182.085 212.296 180.509 216.857 177.915C221.418 175.32 225.362 171.767 228.418 167.5C230.109 165.09 231.489 162.477 232.527 159.721C227.989 159.268 223.355 158.277 223.355 158.277Z" fill="#4BC7B6"/>
<path d="M245.856 191.614C245.857 191.671 245.846 191.727 245.824 191.78C245.802 191.832 245.77 191.88 245.73 191.92C245.69 191.96 245.642 191.992 245.589 192.014C245.537 192.036 245.48 192.047 245.423 192.047H0.433007C0.318167 192.047 0.208028 192.001 0.126824 191.92C0.0456195 191.839 0 191.729 0 191.614C0 191.499 0.0456195 191.389 0.126824 191.307C0.208028 191.226 0.318167 191.181 0.433007 191.181H245.423C245.48 191.18 245.537 191.192 245.589 191.213C245.642 191.235 245.69 191.267 245.73 191.307C245.77 191.347 245.802 191.395 245.824 191.448C245.846 191.5 245.857 191.557 245.856 191.614Z" fill="#CCCCCC"/>
<path d="M101.519 173.153C144.726 173.153 179.751 138.128 179.751 94.9211C179.751 51.7147 144.726 16.689 101.519 16.689C58.3129 16.689 23.2871 51.7147 23.2871 94.9211C23.2871 138.128 58.3129 173.153 101.519 173.153Z" fill="#4BC7B6"/>
<path d="M168.835 94.9215C168.843 105.425 166.389 115.785 161.671 125.169C156.953 134.554 150.101 142.702 141.665 148.96C141.101 149.382 140.526 149.793 139.948 150.193C128.667 158.035 115.257 162.238 101.519 162.238C87.7809 162.238 74.3714 158.035 63.0908 150.193C62.5122 149.793 61.9373 149.382 61.3733 148.96C52.9434 142.696 46.0958 134.547 41.378 125.164C36.6602 115.781 34.2031 105.424 34.2031 94.9215C34.2031 84.4191 36.6602 74.0624 41.378 64.6793C46.0958 55.2962 52.9434 47.147 61.3733 40.8831C61.9373 40.461 62.5122 40.0498 63.0908 39.6496C74.3714 31.8082 87.7809 27.6055 101.519 27.6055C115.257 27.6055 128.667 31.8082 139.948 39.6496C140.526 40.0498 141.101 40.461 141.665 40.8831C150.101 47.1415 156.953 55.2895 161.671 64.6739C166.389 74.0583 168.843 84.4177 168.835 94.9215Z" fill="white"/>
<path d="M101.519 156.416C135.481 156.416 163.013 128.884 163.013 94.9214C163.013 60.9591 135.481 33.4272 101.519 33.4272C67.5568 33.4272 40.0249 60.9591 40.0249 94.9214C40.0249 128.884 67.5568 156.416 101.519 156.416Z" fill="#A2E1D9"/>
<path opacity="0.2" d="M101.68 33.5991C100.747 33.5991 99.821 33.6235 98.899 33.6645C114.441 35.0303 128.883 42.253 139.299 53.8693C149.715 65.4856 155.326 80.6269 154.995 96.2256C154.663 111.824 148.415 126.714 137.516 137.878C126.617 149.042 111.881 155.645 96.2949 156.35C98.0698 156.504 99.8649 156.587 101.68 156.587C117.989 156.587 133.63 150.109 145.163 138.576C156.695 127.044 163.174 111.403 163.174 95.0933C163.174 78.784 156.695 63.1427 145.163 51.6103C133.63 40.078 117.989 33.5991 101.68 33.5991V33.5991Z" fill="black"/>
<path d="M101.701 29.0605C101.171 29.0615 100.662 29.2726 100.287 29.6477C99.9118 30.0229 99.7006 30.5313 99.6997 31.0618V39.7947C99.6997 40.3255 99.9106 40.8345 100.286 41.2099C100.661 41.5852 101.17 41.796 101.701 41.796C102.232 41.796 102.741 41.5852 103.116 41.2099C103.491 40.8345 103.702 40.3255 103.702 39.7947V31.0618C103.701 30.5313 103.49 30.0229 103.115 29.6477C102.74 29.2726 102.231 29.0615 101.701 29.0605Z" fill="white"/>
<path d="M141.665 40.8828C141.101 40.4607 140.526 40.0495 139.948 39.6493C139.601 39.6266 139.254 39.6949 138.941 39.8475C138.628 40 138.361 40.2314 138.165 40.5189L133.249 47.7345C132.95 48.1731 132.838 48.7124 132.937 49.2337C133.036 49.7551 133.338 50.2157 133.777 50.5144C134.215 50.8131 134.754 50.9253 135.276 50.8264C135.797 50.7274 136.258 50.4254 136.556 49.9868L141.472 42.7713C141.659 42.4975 141.775 42.1814 141.809 41.8515C141.842 41.5217 141.793 41.1887 141.665 40.8828Z" fill="white"/>
<path d="M163.999 73.784C163.9 73.5407 163.755 73.3193 163.57 73.1324C163.386 72.9455 163.166 72.7968 162.924 72.6947C162.682 72.5927 162.423 72.5393 162.16 72.5376C161.897 72.536 161.637 72.5861 161.394 72.6851L153.301 75.9709C152.81 76.1709 152.418 76.5579 152.212 77.0466C152.006 77.5354 152.003 78.0859 152.202 78.5773C152.402 79.0687 152.789 79.4607 153.277 79.6673C153.766 79.8738 154.316 79.8779 154.808 79.6787L162.9 76.3929C163.391 76.1918 163.783 75.8044 163.988 75.3154C164.194 74.8264 164.198 74.2758 163.999 73.784Z" fill="white"/>
<path d="M69.7898 47.7345L64.874 40.5189C64.6781 40.2314 64.4106 40 64.0979 39.8475C63.7852 39.6949 63.4381 39.6266 63.091 39.6493C62.5124 40.0495 61.9375 40.4607 61.3735 40.8828C61.2457 41.1887 61.1963 41.5217 61.23 41.8515C61.2637 42.1814 61.3793 42.4975 61.5664 42.7713L66.4823 49.9868C66.7809 50.4254 67.2416 50.7274 67.763 50.8264C68.2843 50.9253 68.8236 50.8131 69.2622 50.5144C69.7008 50.2158 70.0028 49.7551 70.1018 49.2337C70.2007 48.7124 70.0885 48.1731 69.7898 47.7345Z" fill="white"/>
<path d="M49.7366 75.9714L41.6441 72.6856C41.1524 72.486 40.6016 72.4898 40.1127 72.6962C39.6239 72.9026 39.237 73.2948 39.0373 73.7864C38.8376 74.2781 38.8413 74.8289 39.0476 75.3178C39.254 75.8067 39.6461 76.1936 40.1377 76.3934L48.2301 79.6792C48.7217 79.8784 49.2723 79.8742 49.7608 79.6677C50.2494 79.4612 50.6359 79.0692 50.8356 78.5778C51.0352 78.0864 51.0316 77.5358 50.8255 77.0471C50.6195 76.5584 50.2278 76.1714 49.7366 75.9713V75.9714Z" fill="white"/>
<path d="M101.701 148.046C101.171 148.047 100.662 148.258 100.287 148.634C99.9118 149.009 99.7006 149.517 99.6997 150.048V158.781C99.6997 159.311 99.9106 159.82 100.286 160.196C100.661 160.571 101.17 160.782 101.701 160.782C102.232 160.782 102.741 160.571 103.116 160.196C103.491 159.82 103.702 159.311 103.702 158.781V150.048C103.701 149.517 103.49 149.009 103.115 148.634C102.74 148.258 102.231 148.047 101.701 148.046Z" fill="white"/>
<path d="M141.472 147.071L136.556 139.856C136.409 139.638 136.219 139.453 136 139.308C135.78 139.164 135.534 139.065 135.276 139.016C135.018 138.967 134.752 138.969 134.495 139.023C134.238 139.076 133.994 139.18 133.777 139.328C133.559 139.476 133.373 139.665 133.229 139.885C133.085 140.105 132.986 140.351 132.937 140.609C132.888 140.867 132.89 141.132 132.944 141.389C132.997 141.647 133.101 141.891 133.249 142.108L138.165 149.324C138.361 149.611 138.628 149.842 138.941 149.995C139.254 150.147 139.601 150.216 139.948 150.193C140.526 149.793 141.101 149.382 141.665 148.96C141.793 148.654 141.842 148.321 141.809 147.991C141.775 147.661 141.659 147.345 141.472 147.071Z" fill="white"/>
<path d="M162.901 113.449L154.808 110.164C154.316 109.964 153.766 109.968 153.277 110.174C152.788 110.381 152.401 110.773 152.201 111.264C152.002 111.756 152.005 112.307 152.212 112.796C152.418 113.285 152.81 113.672 153.302 113.871L161.394 117.157C161.886 117.356 162.436 117.352 162.925 117.146C163.413 116.939 163.8 116.547 164 116.056C164.199 115.564 164.196 115.014 163.99 114.525C163.784 114.036 163.392 113.649 162.901 113.449V113.449Z" fill="white"/>
<path d="M69.2622 139.328C68.8236 139.03 68.2843 138.918 67.763 139.017C67.2417 139.115 66.781 139.417 66.4823 139.856L61.5664 147.071C61.3793 147.345 61.2637 147.661 61.23 147.991C61.1963 148.321 61.2457 148.654 61.3735 148.96C61.9375 149.382 62.5124 149.793 63.091 150.193C63.4381 150.216 63.7852 150.148 64.0979 149.995C64.4106 149.843 64.6781 149.611 64.874 149.324L69.7898 142.108C69.9378 141.891 70.0414 141.647 70.095 141.39C70.1485 141.132 70.1508 140.867 70.1018 140.609C70.0528 140.351 69.9535 140.105 69.8094 139.885C69.6653 139.665 69.4794 139.476 69.2622 139.328Z" fill="white"/>
<path d="M50.8356 111.263C50.7367 111.02 50.5909 110.798 50.4065 110.611C50.222 110.424 50.0026 110.276 49.7606 110.174C49.5187 110.072 49.259 110.018 48.9964 110.017C48.7338 110.015 48.4735 110.065 48.2303 110.164L40.1378 113.45C39.6466 113.65 39.2549 114.037 39.0488 114.526C38.8427 115.014 38.8391 115.565 39.0388 116.056C39.2384 116.548 39.625 116.94 40.1135 117.146C40.6021 117.353 41.1526 117.357 41.6442 117.158L49.7367 113.872C50.2277 113.671 50.619 113.283 50.8249 112.794C51.0309 112.305 51.0347 111.755 50.8356 111.263Z" fill="white"/>
<path d="M104.298 93.9284C104.483 95.0223 104.226 96.1449 103.584 97.0498C102.942 97.9547 101.968 98.5681 100.874 98.7553L65.3613 104.796C64.8196 104.888 64.265 104.873 63.7292 104.751C63.1935 104.628 62.687 104.402 62.2388 104.084C61.7906 103.766 61.4093 103.363 61.1169 102.898C60.8245 102.433 60.6265 101.914 60.5343 101.373C60.4422 100.831 60.4577 100.276 60.5798 99.7404C60.702 99.2047 60.9285 98.6982 61.2464 98.25C61.5643 97.8018 61.9674 97.4205 62.4327 97.1281C62.8979 96.8356 63.4162 96.6377 63.9579 96.5456L99.471 90.5048C100.565 90.32 101.687 90.5767 102.592 91.2185C103.497 91.8603 104.111 92.8349 104.298 93.9284Z" fill="#EE8C34"/>
<path d="M141.674 133.274C141.164 133.787 140.471 134.077 139.748 134.08C139.024 134.083 138.329 133.798 137.815 133.289L99.5854 95.3599C99.0724 94.8499 98.7828 94.1572 98.7803 93.4338C98.7778 92.7105 99.0625 92.0157 99.572 91.5022C100.081 90.9887 100.774 90.6985 101.497 90.6953C102.221 90.6922 102.916 90.9763 103.43 91.4853L141.659 129.415C142.172 129.925 142.462 130.618 142.465 131.341C142.467 132.065 142.183 132.76 141.674 133.274Z" fill="#EE8C34"/>
<path d="M101.519 99.6516C104.131 99.6516 106.249 97.5337 106.249 94.9212C106.249 92.3088 104.131 90.1909 101.519 90.1909C98.9064 90.1909 96.7886 92.3088 96.7886 94.9212C96.7886 97.5337 98.9064 99.6516 101.519 99.6516Z" fill="#CCCCCC"/>
<path d="M68.9369 12.8975C61.6759 24.313 50.5973 31.8889 36.9346 36.8658C36.6646 37.068 36.3574 37.215 36.0306 37.2985C35.7038 37.382 35.3638 37.4003 35.0299 37.3524C34.696 37.3045 34.3748 37.1913 34.0847 37.0192C33.7946 36.8472 33.5412 36.6197 33.339 36.3497C25.9175 26.4406 27.5933 12.2785 37.388 4.70682C39.7561 2.87942 42.4635 1.54062 45.3532 0.768128C48.2429 -0.00436149 51.2572 -0.195149 54.2212 0.206848C57.1852 0.608844 60.0399 1.59561 62.6194 3.10987C65.199 4.62412 67.452 6.6357 69.2478 9.02782L69.453 9.30189C69.6552 9.57187 69.8023 9.87903 69.8858 10.2058C69.9693 10.5326 69.9876 10.8727 69.9396 11.2066C69.8917 11.5405 69.7785 11.8616 69.6064 12.1518C69.4344 12.4419 69.2069 12.6953 68.9369 12.8975Z" fill="#4BC7B6"/>
<path d="M133.791 9.02781C135.586 6.6357 137.839 4.62412 140.419 3.10986C142.999 1.59561 145.853 0.608845 148.817 0.206849C151.781 -0.195147 154.796 -0.00436548 157.685 0.768124C160.575 1.54061 163.282 2.87942 165.65 4.70682C175.445 12.2785 177.121 26.4406 169.699 36.3497C169.497 36.6197 169.244 36.8472 168.954 37.0192C168.664 37.1913 168.342 37.3045 168.009 37.3524C167.675 37.4003 167.335 37.382 167.008 37.2985C166.681 37.215 166.374 37.068 166.104 36.8658C153.42 32.0098 143.019 23.6066 134.102 12.8975C133.556 12.4891 133.196 11.8809 133.099 11.2066C133.002 10.5323 133.177 9.84713 133.585 9.30188L133.791 9.02781Z" fill="#4BC7B6"/>
<path d="M130.608 162.699C130.146 162.959 129.805 163.391 129.661 163.902C129.517 164.412 129.581 164.959 129.839 165.423L141.389 186.062C141.648 186.525 142.081 186.867 142.592 187.011C143.102 187.155 143.649 187.09 144.112 186.831C144.576 186.572 144.917 186.139 145.061 185.629C145.205 185.118 145.141 184.571 144.882 184.108L133.332 163.468C133.072 163.006 132.639 162.665 132.129 162.521C131.618 162.377 131.072 162.441 130.608 162.699Z" fill="#4BC7B6"/>
<path d="M69.7064 163.468L58.1565 184.108C57.8974 184.571 57.833 185.118 57.9772 185.629C58.1215 186.14 58.4627 186.572 58.9258 186.831C59.389 187.09 59.9361 187.155 60.4468 187.011C60.9575 186.867 61.3901 186.526 61.6494 186.063L73.1993 165.423C73.3277 165.193 73.4097 164.941 73.4405 164.68C73.4714 164.419 73.4505 164.154 73.3791 163.901C73.3077 163.649 73.1872 163.412 73.0244 163.206C72.8616 162.999 72.6598 162.827 72.4304 162.699C72.201 162.57 71.9486 162.488 71.6875 162.458C71.4265 162.427 71.162 162.448 70.909 162.519C70.6561 162.591 70.4197 162.711 70.2133 162.874C70.007 163.037 69.8347 163.239 69.7064 163.468H69.7064Z" fill="#4BC7B6"/>
<path d="M143.728 191.347C147.145 191.347 149.914 188.578 149.914 185.161C149.914 181.745 147.145 178.976 143.728 178.976C140.312 178.976 137.542 181.745 137.542 185.161C137.542 188.578 140.312 191.347 143.728 191.347Z" fill="#4BC7B6"/>
<path d="M148.094 33.0635C151.511 33.0635 154.28 30.294 154.28 26.8777C154.28 23.4614 151.511 20.6919 148.094 20.6919C144.678 20.6919 141.909 23.4614 141.909 26.8777C141.909 30.294 144.678 33.0635 148.094 33.0635Z" fill="#4BC7B6"/>
<path d="M101.155 18.5083C104.571 18.5083 107.341 15.7388 107.341 12.3225C107.341 8.9062 104.571 6.13672 101.155 6.13672C97.7387 6.13672 94.9692 8.9062 94.9692 12.3225C94.9692 15.7388 97.7387 18.5083 101.155 18.5083Z" fill="#4BC7B6"/>
<path d="M56.3992 32.3355C59.8155 32.3355 62.585 29.566 62.585 26.1497C62.585 22.7333 59.8155 19.9639 56.3992 19.9639C52.9829 19.9639 50.2134 22.7333 50.2134 26.1497C50.2134 29.566 52.9829 32.3355 56.3992 32.3355Z" fill="#4BC7B6"/>
<path d="M60.4016 191.347C63.8179 191.347 66.5874 188.578 66.5874 185.161C66.5874 181.745 63.8179 178.976 60.4016 178.976C56.9853 178.976 54.2158 181.745 54.2158 185.161C54.2158 188.578 56.9853 191.347 60.4016 191.347Z" fill="#4BC7B6"/>
<path d="M138.876 129.795C139.12 130.177 139.444 130.501 139.827 130.744C140.209 130.986 140.64 131.142 141.089 131.201C141.539 131.259 141.995 131.218 142.427 131.08C142.859 130.943 143.255 130.713 143.588 130.405L153.294 135.606L152.774 129.908L143.636 125.842C143.083 125.317 142.357 125.013 141.595 124.988C140.832 124.962 140.087 125.217 139.5 125.704C138.913 126.192 138.526 126.877 138.411 127.631C138.296 128.385 138.461 129.155 138.876 129.795H138.876Z" fill="#FFB7B7"/>
<path d="M145.948 131.784L149.752 126.533L168.076 135.196L190.879 130.917C192.006 130.706 193.166 130.745 194.276 131.032C195.387 131.319 196.42 131.848 197.303 132.579C198.186 133.311 198.898 134.228 199.387 135.265C199.876 136.302 200.13 137.434 200.132 138.581C200.134 140.653 199.314 142.64 197.852 144.107C196.39 145.575 194.406 146.402 192.334 146.408L166.202 146.457L145.948 131.784Z" fill="#EE8C34"/>
<path d="M140.09 222.47L136.241 220.629L141.528 204.543L147.208 207.26L140.09 222.47Z" fill="#FFB7B7"/>
<path d="M165.89 219.877C165.611 220.052 165.331 220.225 165.048 220.397C164.485 220.742 163.917 221.081 163.349 221.415C163.064 221.582 162.775 221.749 162.49 221.912V221.921L162.473 221.924L162.467 221.927L162.032 222.034L161.407 220.383L161.119 219.623L160.712 218.546L159.965 216.575L156.036 206.201L162.145 204.694L162.374 205.63H162.377L162.49 206.094L164.624 214.749L165.059 216.519L165.073 216.573L165.336 217.63L165.563 218.546L165.814 219.569L165.89 219.877Z" fill="#FFB7B7"/>
<path d="M202.331 183.444C201.944 184.066 201.548 184.685 201.15 185.299C200.409 186.441 199.649 187.566 198.869 188.674C198.869 188.677 198.866 188.677 198.863 188.68C198.408 189.101 197.905 189.468 197.365 189.774C197.342 189.791 197.317 189.802 197.294 189.816C196.896 190.036 196.473 190.206 196.033 190.322C195.875 190.362 195.714 190.401 195.556 190.441C194.985 190.576 194.419 190.692 193.857 190.794C192.856 190.972 191.867 191.099 190.883 191.179C190.804 191.187 190.725 191.193 190.645 191.198C186.6 191.495 182.662 191.017 178.552 190.234C176.523 189.85 174.451 189.389 172.305 188.911C171.604 188.753 170.9 188.598 170.188 188.442C170.134 188.431 170.078 188.417 170.021 188.405C169.003 188.182 167.969 187.962 166.909 187.744C165.574 187.47 164.198 187.204 162.767 186.952L162.869 188.968C162.954 190.518 163.276 192.047 163.825 193.499C164.435 195.286 164.919 196.699 163.898 199.642L163.406 201.067C163.661 201.774 163.749 202.531 163.662 203.278C163.575 204.025 163.316 204.742 162.906 205.372L162.807 205.522L166.909 215.899L167.174 216.572H165.074L162.49 216.575H158.112L151.794 203.899L151.491 203.294V203.263L152.144 178.904C152.153 178.69 152.17 178.472 152.198 178.257C152.313 177.28 152.622 176.337 153.105 175.48C153.589 174.624 154.239 173.873 155.016 173.271C155.761 172.689 156.614 172.26 157.526 172.011C158.438 171.761 159.39 171.696 160.328 171.818L162.49 172.098L166.909 172.669L170.021 173.073L170.083 173.081L179.262 174.269L179.92 171.583L180.042 171.538L183.906 170.122L197.271 165.223L197.305 165.211L198.185 164.889L198.289 165.059C198.32 165.11 198.351 165.161 198.38 165.211C199.248 166.769 199.956 168.412 200.491 170.113C201.391 172.893 202.132 175.721 202.71 178.585C202.736 178.709 202.758 178.823 202.778 178.924L202.787 178.955C202.795 179.003 202.801 179.035 202.804 179.043C203.112 180.326 202.897 181.892 202.331 183.444Z" fill="#100F0E"/>
<path d="M202.896 174.468C202.853 174.287 202.8 174.103 202.743 173.925C202.294 172.576 201.772 171.253 201.177 169.962C200.51 168.492 199.71 166.917 198.757 165.213C198.297 164.387 197.801 163.529 197.271 162.637C197.005 162.191 196.729 161.736 196.442 161.272C196.431 161.251 196.419 161.23 196.405 161.21L196.324 161.074L183.1 162.844L178.175 163.502L177.881 165.956L177.811 166.564C177.808 166.564 177.808 166.564 177.811 166.567L177.613 168.223V168.226L177.35 170.414L177.327 170.411L170.02 169.464L162.489 168.489L158.444 167.966C157.507 167.844 156.554 167.909 155.642 168.159C154.731 168.408 153.877 168.837 153.133 169.419C152.355 170.022 151.706 170.773 151.222 171.629C150.738 172.485 150.43 173.429 150.314 174.405C150.289 174.603 150.272 174.807 150.263 175.008L146.447 184.051C144.164 189.459 142.709 195.181 142.134 201.023L139.335 209.97L139.734 210.006L145.664 210.558L147.23 210.705L150.679 205.67C151.072 205.096 151.445 204.505 151.793 203.9C152.365 202.912 152.874 201.889 153.316 200.836L160.776 183.084C161.353 183.183 161.924 183.277 162.489 183.366C165.104 183.791 167.614 184.136 170.02 184.404C177.842 185.277 184.615 185.345 190.644 184.605C192.338 184.398 193.974 184.127 195.555 183.791C196.134 183.669 196.706 183.538 197.271 183.398C197.403 183.366 197.533 183.335 197.663 183.301C198.832 183 199.906 182.411 200.787 181.587C201.669 180.763 202.33 179.732 202.709 178.586C203.163 177.259 203.227 175.83 202.896 174.468Z" fill="#100F0E"/>
<path d="M141.319 219.844L137.155 217.848L136.502 217.534L135.459 220.095L128.177 221.698C127.817 221.777 127.492 221.969 127.249 222.246C127.005 222.523 126.857 222.871 126.826 223.238C126.794 223.605 126.881 223.973 127.073 224.287C127.265 224.602 127.553 224.846 127.895 224.986L135.01 227.889L137.268 225.856L136.714 228.584L139.394 229.678L142.331 220.33L141.319 219.844Z" fill="#100F0E"/>
<path d="M166.909 215.899L167.175 216.572H166.909V215.899Z" fill="#100F0E"/>
<path d="M165.459 216.716L161.096 218.227L160.411 218.464L161.472 221.018L157.425 227.28C157.225 227.59 157.129 227.955 157.151 228.323C157.173 228.691 157.312 229.042 157.548 229.325C157.784 229.608 158.105 229.809 158.463 229.897C158.821 229.985 159.197 229.956 159.538 229.815L166.636 226.872L166.811 223.838L168.337 226.167L171.011 225.058L166.52 216.349L165.459 216.716Z" fill="#100F0E"/>
<path d="M201.807 178.563C201.548 178.563 201.293 178.499 201.064 178.379L178.04 166.348L177.774 165.259L177.273 161.813L177.28 161.78L179.469 151.685C179.429 151.599 179.345 151.457 179.251 151.296C178.273 149.64 175.298 144.599 180.976 137.658L190.944 126.036L199.5 125.668L199.597 125.791C201.885 128.662 203.428 132.054 204.089 135.666C204.75 139.277 204.508 142.996 203.385 146.491L202.494 162.58L203.45 165.829C204.009 167.739 203.916 169.78 203.187 171.631L203.406 176.892C203.415 177.108 203.38 177.323 203.304 177.525C203.227 177.727 203.111 177.911 202.962 178.067C202.812 178.223 202.633 178.347 202.435 178.433C202.237 178.518 202.023 178.562 201.807 178.563L201.807 178.563Z" fill="#EE8C34"/>
<path d="M181.836 191.832C182.226 191.601 182.561 191.288 182.817 190.915C183.073 190.541 183.244 190.115 183.318 189.668C183.391 189.221 183.366 188.764 183.244 188.328C183.122 187.891 182.905 187.487 182.61 187.144L188.145 177.624L182.432 177.946L178.051 186.937C177.507 187.471 177.178 188.187 177.126 188.947C177.074 189.708 177.303 190.462 177.769 191.065C178.236 191.669 178.908 192.08 179.657 192.221C180.407 192.363 181.182 192.224 181.836 191.832L181.836 191.832Z" fill="#FFB7B7"/>
<path d="M184.07 184.833L178.955 180.849L188.249 162.837L184.766 139.899C184.594 138.766 184.674 137.608 185 136.508C185.325 135.409 185.889 134.394 186.651 133.537C187.413 132.68 188.354 132.001 189.407 131.548C190.461 131.096 191.602 130.881 192.748 130.918C194.818 130.989 196.776 131.878 198.191 133.39C199.607 134.902 200.365 136.914 200.299 138.984L199.438 165.102L184.07 184.833Z" fill="#EE8C34"/>
<path d="M185.457 121.207V112.741C185.455 109.732 186.648 106.846 188.774 104.717C190.9 102.588 193.785 101.391 196.794 101.389C199.802 101.387 202.689 102.581 204.818 104.707C206.946 106.833 208.143 109.718 208.145 112.726V112.741C210.145 116.907 208.894 118.888 208.145 121.207C208.145 121.611 207.984 121.998 207.698 122.283C207.413 122.569 207.026 122.729 206.622 122.73H186.98C186.577 122.73 186.189 122.569 185.904 122.284C185.618 121.998 185.457 121.611 185.457 121.207Z" fill="#100F0E"/>
<path d="M193.082 122.18C197.771 122.18 201.573 118.378 201.573 113.688C201.573 108.998 197.771 105.196 193.082 105.196C188.392 105.196 184.59 108.998 184.59 113.688C184.59 118.378 188.392 122.18 193.082 122.18Z" fill="#FFB7B7"/>
<path d="M201.969 115.914C201.892 115.902 201.815 115.886 201.738 115.874C200.413 115.639 199.089 115.408 197.768 115.169L197.647 112.175L196.047 114.857C192.397 116.068 188.982 115.383 185.77 113.873C184.71 113.37 183.682 112.803 182.691 112.175C182.961 110.52 183.598 108.945 184.554 107.568C185.511 106.19 186.764 105.043 188.221 104.212C188.342 104.143 188.46 104.082 188.581 104.021C188.582 104.021 188.582 104.021 188.583 104.021C188.583 104.021 188.584 104.02 188.584 104.02C188.584 104.02 188.585 104.019 188.585 104.019C188.585 104.018 188.585 104.018 188.585 104.017C188.792 103.92 189.002 103.827 189.213 103.742C190.862 103.097 192.66 102.934 194.398 103.271C196.136 103.608 197.743 104.432 199.032 105.646C201.624 108.121 202.791 112.208 201.969 115.914Z" fill="#100F0E"/>
</g>
<defs>
<clipPath id="clip0_15201_438693">
<rect width="245.856" height="229.947" fill="white"/>
</clipPath>
</defs>
</svg>
