<svg width="13" height="14" viewBox="0 0 13 14" fill="none" xmlns="http://www.w3.org/2000/svg">
<path d="M12.7943 4.87572C12.1991 2.59422 10.364 0.759101 8.05784 0.188584C5.75168 -0.381934 3.24685 0.362176 1.65972 2.1477C-0.299398 4.33001 -0.547388 7.60346 1.03974 10.0834C0.915749 10.9761 0.816554 11.8689 0.692559 12.7616C0.642961 13.084 1.03974 13.3072 1.31253 13.2328C2.1805 12.9848 3.07326 12.7616 3.94122 12.5137C6.29712 13.4808 9.02514 13.0344 10.9099 11.2985C12.6706 9.68657 13.3898 7.15723 12.7946 4.87572H12.7943ZM11.0584 9.66206C9.57044 11.8444 6.64416 12.6629 4.23881 11.5716H4.21401C4.11481 11.522 3.99082 11.4972 3.84202 11.522C3.14765 11.7204 2.45328 11.894 1.75891 12.0924C1.83331 11.4972 1.90771 10.9268 1.9821 10.3316C2.0069 10.1332 2.0565 9.91005 1.9573 9.71166C1.88291 9.58766 1.78371 9.46367 1.70932 9.31487C1.53572 9.01729 1.38693 8.6949 1.26293 8.37252C0.866152 7.23176 0.841353 5.96702 1.21334 4.82641C1.85811 2.8177 3.69323 1.30496 5.77634 1.05697C7.93385 0.759384 10.0914 1.80094 11.2072 3.61126C12.3479 5.47118 12.2735 7.85174 11.0584 9.6622V9.66206Z" fill="#4BC7B6"/>
<path d="M9.94229 7.33112L8.82634 6.46315C8.47916 6.19036 8.00798 6.23996 7.71039 6.53755L7.388 6.85994C7.14001 6.71114 6.91682 6.53755 6.69363 6.33916C6.49524 6.14077 6.32165 5.89278 6.17285 5.64479L6.49524 5.3224C6.79283 5.02481 6.81763 4.55363 6.56964 4.20645L5.70168 3.0657C5.52808 2.81771 5.25529 2.66892 4.95771 2.66892C4.66012 2.64412 4.36253 2.76811 4.16414 2.9665L3.19698 3.93366C2.65141 4.47924 2.52741 5.3224 2.8746 6.01677C3.34578 6.90953 3.94095 7.7031 4.63532 8.39747C5.32969 9.09184 6.14806 9.68701 7.01602 10.1582C7.28881 10.307 7.56159 10.3566 7.83438 10.3566C8.28076 10.3566 8.75194 10.183 9.07433 9.83581L10.0415 8.86865C10.2399 8.67026 10.3639 8.37267 10.3391 8.07508C10.3391 7.7775 10.1903 7.50471 9.94229 7.33112ZM9.34712 8.17428L8.37996 9.14144C8.13197 9.38943 7.75999 9.43902 7.4624 9.29023C6.66883 8.86865 5.94966 8.34787 5.30489 7.7031C4.66012 7.05833 4.13934 6.33916 3.71776 5.54559C3.56897 5.24801 3.61856 4.87602 3.86655 4.62803L4.83371 3.66087H4.85851C4.88331 3.66087 4.88331 3.66087 4.88331 3.68567L5.67688 4.72723L5.35449 5.02481C5.1065 5.2728 5.0321 5.66959 5.2057 5.99197C5.40409 6.38876 5.67688 6.73594 5.97446 7.03353C6.27205 7.33112 6.61924 7.6039 7.01602 7.8023C7.3384 7.97589 7.71039 7.90149 7.95838 7.6535L8.30556 7.30632L9.32232 8.09988C9.32232 8.09988 9.34712 8.09988 9.34712 8.12468V8.17428Z" fill="#4BC7B6"/>
</svg>
