<svg width="186" height="167" viewBox="0 0 186 167" fill="none" xmlns="http://www.w3.org/2000/svg">
<g clip-path="url(#clip0_16577_490387)">
<path d="M166.464 127.569C175.365 120.8 179.616 109.426 176.955 98.5753C176.888 98.3057 176.819 98.0368 176.745 97.7684C174.981 91.3277 170.616 85.2063 164.254 83.1483C158.912 81.4203 153.081 82.7491 147.508 82.062C136.568 80.713 128.087 71.8749 122.119 62.6213C116.151 53.3677 111.565 43.0096 103.635 35.3648C90.5635 22.7636 69.2412 20.0506 53.0348 28.253C36.8284 36.4555 26.5052 54.6533 26.9454 72.7897C27.3857 90.9262 38.169 108.266 53.829 117.466C59.5819 120.845 66.2356 123.24 72.8574 122.402C78.6031 121.675 83.8237 118.592 89.5423 117.677C98.5333 116.238 107.467 120.297 115.244 125.027C123.02 129.757 130.532 135.363 139.369 137.556C147.949 139.685 158.58 133.565 166.464 127.569Z" fill="#D1F0EC"/>
<circle cx="51.5" cy="76.5" r="29" fill="white" stroke="#E6E6E6"/>
<circle cx="161" cy="65" r="15.6" fill="white" stroke="#E6E6E6" stroke-width="0.8"/>
<circle cx="137.5" cy="145.5" r="12.25" fill="white" stroke="#E6E6E6" stroke-width="0.5"/>
<path d="M100.118 117.091H15.1461C14.4116 117.091 13.7072 116.799 13.1878 116.281C12.6685 115.762 12.3767 115.059 12.3767 114.326C12.3767 113.592 12.6685 112.889 13.1878 112.37C13.7072 111.852 14.4116 111.561 15.1461 111.561H100.118C100.853 111.561 101.557 111.852 102.077 112.37C102.596 112.889 102.888 113.592 102.888 114.326C102.888 115.059 102.596 115.762 102.077 116.281C101.557 116.799 100.853 117.091 100.118 117.091Z" fill="#4BC7B6"/>
<path d="M42.3862 92.7236C41.8829 92.7221 41.3881 92.5935 40.9479 92.3495C40.4771 92.096 40.0844 91.7191 39.8121 91.2594C39.5397 90.7998 39.398 90.2746 39.4022 89.7405V65.1487C39.4022 64.6155 39.5456 64.0921 39.8175 63.6331C40.0894 63.1742 40.4798 62.7966 40.9478 62.5398C41.4158 62.283 41.9444 62.1565 42.4782 62.1734C43.0119 62.1903 43.5313 62.3501 43.9821 62.636L67.3457 74.9319C67.7694 75.2007 68.1183 75.5719 68.36 76.0111C68.6017 76.4504 68.7284 76.9434 68.7284 77.4446C68.7284 77.9458 68.6017 78.4389 68.36 78.8781C68.1183 79.3174 67.7694 79.6886 67.3457 79.9574L43.9821 92.2533C43.506 92.5588 42.9522 92.722 42.3862 92.7236Z" fill="#F2F2F2"/>
<path d="M173.503 87.4735H148.543C147.809 87.4727 147.105 87.1811 146.586 86.6626C146.068 86.1441 145.776 85.4413 145.776 84.7085C145.776 83.9756 146.068 83.2728 146.586 82.7543C147.105 82.2359 147.809 81.9442 148.543 81.9434H173.503C174.238 81.9434 174.942 82.2347 175.462 82.7532C175.981 83.2718 176.273 83.9751 176.273 84.7085C176.273 85.4418 175.981 86.1451 175.462 86.6637C174.942 87.1822 174.238 87.4735 173.503 87.4735Z" fill="#4BC7B6"/>
<path d="M158.08 71.8981C157.869 71.8975 157.663 71.8437 157.479 71.7418C157.282 71.6358 157.118 71.4783 157.004 71.2862C156.89 71.0941 156.831 70.8747 156.833 70.6515V60.3749C156.833 60.152 156.893 59.9333 157.006 59.7415C157.12 59.5497 157.283 59.3919 157.479 59.2846C157.674 59.1773 157.895 59.1244 158.118 59.1315C158.341 59.1386 158.558 59.2053 158.747 59.3248L168.51 64.4631C168.687 64.5754 168.833 64.7306 168.934 64.9141C169.035 65.0977 169.088 65.3037 169.088 65.5132C169.088 65.7226 169.035 65.9287 168.934 66.1122C168.833 66.2958 168.687 66.4509 168.51 66.5632L158.747 71.7016C158.548 71.8292 158.316 71.8974 158.08 71.8981Z" fill="#F2F2F2"/>
<path d="M149.842 166.738H124.881C124.147 166.737 123.443 166.446 122.925 165.927C122.406 165.409 122.115 164.706 122.115 163.973C122.115 163.24 122.406 162.537 122.925 162.019C123.443 161.5 124.147 161.209 124.881 161.208H149.842C150.576 161.208 151.281 161.499 151.8 162.018C152.319 162.536 152.611 163.24 152.611 163.973C152.611 164.706 152.319 165.41 151.8 165.928C151.281 166.447 150.576 166.738 149.842 166.738Z" fill="#4BC7B6"/>
<path d="M134.328 152.677C134.118 152.677 133.911 152.623 133.727 152.521C133.53 152.415 133.366 152.258 133.252 152.066C133.139 151.873 133.079 151.654 133.081 151.431V141.154C133.081 140.931 133.141 140.713 133.255 140.521C133.368 140.329 133.531 140.171 133.727 140.064C133.923 139.957 134.143 139.904 134.367 139.911C134.59 139.918 134.807 139.985 134.995 140.104L144.758 145.242C144.935 145.355 145.081 145.51 145.182 145.693C145.283 145.877 145.336 146.083 145.336 146.292C145.336 146.502 145.283 146.708 145.182 146.892C145.081 147.075 144.935 147.23 144.758 147.343L134.995 152.481C134.796 152.609 134.565 152.677 134.328 152.677Z" fill="#F2F2F2"/>
</g>
<defs>
<clipPath id="clip0_16577_490387">
<rect width="186" height="167" fill="white"/>
</clipPath>
</defs>
</svg>
