<svg width="212" height="149" viewBox="0 0 212 149" fill="none" xmlns="http://www.w3.org/2000/svg">
<path d="M74.3281 133.861L74.3947 133.59C74.4094 133.531 75.911 127.606 80.4435 124.389C84.9762 121.172 90.9309 121.804 90.9904 121.811L91.2618 121.842L91.1952 122.113C91.1805 122.172 89.6789 128.096 85.1464 131.313C80.6138 134.531 74.659 133.898 74.5995 133.891L74.3281 133.861ZM80.7151 124.789C76.8829 127.509 75.2866 132.238 74.9346 133.43C76.1506 133.509 81.0462 133.631 84.8748 130.913C88.7028 128.196 90.3022 123.465 90.6553 122.272C89.4386 122.194 84.5435 122.072 80.7151 124.789V124.789Z" fill="#F1F1F1"/>
<path d="M82.3607 126.227C80.0748 131.333 74.6892 133.818 74.6892 133.818C74.6892 133.818 73.01 128.027 75.296 122.921C77.5819 117.816 82.9675 115.33 82.9675 115.33C82.9675 115.33 84.6467 121.122 82.3607 126.227Z" fill="#F1F1F1"/>
<path d="M24.3312 132.015C21.8661 124.265 21.6643 115.458 25.8303 108.268C27.6012 105.211 30.0903 102.572 33.1431 100.847C36.6645 98.8568 40.7295 98.2058 44.7063 98.1161C53.3535 97.9211 61.9418 100.056 70.5898 98.9525C74.4698 98.4573 78.3401 97.3461 81.666 95.1915C84.5417 93.3286 87.0377 90.7218 88.5108 87.5602C89.946 84.543 90.2707 81.0985 89.4256 77.8567C88.6083 74.7907 86.6846 71.924 83.8717 70.456C81.3159 69.1222 78.1785 69.0869 75.5375 70.19C72.6965 71.3767 70.6509 73.8314 70.2158 76.9731C69.6729 80.8922 71.3992 84.7699 73.3208 88.0504C75.1705 91.208 77.4129 94.1716 80.1375 96.5922C82.7767 98.9369 85.8888 100.785 89.3119 101.606C92.5594 102.385 96.062 102.317 99.2188 101.166C102.476 99.975 105.19 97.6012 106.846 94.4966C108.694 91.0799 109.339 87.1322 109.276 83.2645C109.201 78.6966 108.258 74.1747 107.416 69.705C106.562 65.1718 105.645 60.6517 104.663 56.1449C104.185 53.948 103.692 51.7547 103.183 49.565C103.077 49.1078 102.388 49.3013 102.494 49.7591C104.516 58.4749 106.406 67.2602 107.84 76.0992C108.521 80.2949 108.947 84.6467 108.094 88.8508C107.374 92.396 105.759 95.833 102.996 98.1786C97.7236 102.655 89.8597 102.088 84.2169 98.7102C81.1738 96.8886 78.5921 94.3372 76.4548 91.4864C74.2453 88.5393 72.1874 85.169 71.2548 81.5511C70.7732 79.6831 70.6361 77.6892 71.1922 75.821C71.6215 74.384 72.4637 73.1122 73.6093 72.1708C75.7551 70.3912 78.7886 69.7522 81.4701 70.3518C84.4914 71.0274 86.8288 73.3518 88.083 76.1789C89.3853 79.166 89.5373 82.5454 88.5086 85.642C87.4268 88.9104 85.1834 91.7041 82.4863 93.7358C79.4163 96.0484 75.7573 97.3602 72.021 98.0066C63.6383 99.4569 55.2176 97.5602 46.8193 97.3861C42.9921 97.3067 39.0693 97.6078 35.4521 98.9753C32.2297 100.202 29.3837 102.282 27.2051 105.002C22.4258 110.929 21.1028 118.794 22.2341 126.249C22.5467 128.271 23.0176 130.264 23.6422 132.209C23.7838 132.654 24.4739 132.464 24.3312 132.015L24.3312 132.015Z" fill="#E5E5E5"/>
<path d="M25.9862 130.252H21.4609V133.905H25.9862V130.252Z" fill="#A2E1D9"/>
<path d="M102.886 49.6544H183.6C198.89 49.6544 211.285 40.7455 211.285 25.115V25.1149C211.285 9.48441 198.89 2.9696 183.6 2.9696H158.256C127.676 2.9696 102.886 18.3933 102.886 49.6543V49.6544Z" fill="white"/>
<path d="M183.601 50.3848H102.172V49.6544C102.172 34.6974 107.878 22.3708 118.673 14.007C128.609 6.30855 142.297 2.23926 158.257 2.23926H183.601C191.787 2.23926 198.698 4.08684 203.587 7.5824C209.17 11.5745 212 17.4733 212 25.115C212 32.7762 209.106 39.2415 203.629 43.8119C198.55 48.0505 191.437 50.3848 183.601 50.3848ZM103.605 48.924H183.601C199.733 48.924 210.571 39.3559 210.571 25.115C210.571 5.78677 191.71 3.70011 183.601 3.70011H158.257C132.025 3.70011 104.008 15.5973 103.605 48.924H103.605Z" fill="#E5E5E5"/>
<path d="M148.203 17.5591H141.016C140.368 17.5591 139.843 18.0843 139.843 18.7322C139.843 19.3801 140.368 19.9053 141.016 19.9053H148.203C148.851 19.9053 149.376 19.3801 149.376 18.7322C149.376 18.0843 148.851 17.5591 148.203 17.5591Z" fill="#A2E1D9"/>
<path d="M181.217 17.5591H180.209C179.561 17.5591 179.036 18.0843 179.036 18.7322C179.036 19.3801 179.561 19.9053 180.209 19.9053H181.217C181.865 19.9053 182.391 19.3801 182.391 18.7322C182.391 18.0843 181.865 17.5591 181.217 17.5591Z" fill="#A2E1D9"/>
<path d="M187.925 17.5591H186.917C186.269 17.5591 185.744 18.0843 185.744 18.7322C185.744 19.3801 186.269 19.9053 186.917 19.9053H187.925C188.573 19.9053 189.099 19.3801 189.099 18.7322C189.099 18.0843 188.573 17.5591 187.925 17.5591Z" fill="#A2E1D9"/>
<path d="M174.332 17.5591H153.904C153.256 17.5591 152.73 18.0843 152.73 18.7322C152.73 19.3801 153.256 19.9053 153.904 19.9053H174.332C174.98 19.9053 175.505 19.3801 175.505 18.7322C175.505 18.0843 174.98 17.5591 174.332 17.5591Z" fill="#A2E1D9"/>
<path d="M136.197 32.719H129.01C128.362 32.719 127.837 33.2442 127.837 33.8921C127.837 34.54 128.362 35.0652 129.01 35.0652H136.197C136.845 35.0652 137.37 34.54 137.37 33.8921C137.37 33.2442 136.845 32.719 136.197 32.719Z" fill="#A2E1D9"/>
<path d="M169.212 32.719H168.203C167.555 32.719 167.03 33.2442 167.03 33.8921C167.03 34.54 167.555 35.0652 168.203 35.0652H169.212C169.859 35.0652 170.385 34.54 170.385 33.8921C170.385 33.2442 169.859 32.719 169.212 32.719Z" fill="#A2E1D9"/>
<path d="M175.921 32.719H174.912C174.264 32.719 173.739 33.2442 173.739 33.8921C173.739 34.54 174.264 35.0652 174.912 35.0652H175.921C176.568 35.0652 177.094 34.54 177.094 33.8921C177.094 33.2442 176.568 32.719 175.921 32.719Z" fill="#A2E1D9"/>
<path d="M162.327 32.719H141.899C141.251 32.719 140.726 33.2442 140.726 33.8921C140.726 34.54 141.251 35.0652 141.899 35.0652H162.327C162.975 35.0652 163.5 34.54 163.5 33.8921C163.5 33.2442 162.975 32.719 162.327 32.719Z" fill="#A2E1D9"/>
<path d="M175.567 22.7927H168.38C167.732 22.7927 167.207 23.3179 167.207 23.9658C167.207 24.6137 167.732 25.1389 168.38 25.1389H175.567C176.215 25.1389 176.741 24.6137 176.741 23.9658C176.741 23.3179 176.215 22.7927 175.567 22.7927Z" fill="#A2E1D9"/>
<path d="M188.455 22.7927H181.268C180.62 22.7927 180.095 23.3179 180.095 23.9658C180.095 24.6137 180.62 25.1389 181.268 25.1389H188.455C189.103 25.1389 189.628 24.6137 189.628 23.9658C189.628 23.3179 189.103 22.7927 188.455 22.7927Z" fill="#A2E1D9"/>
<path d="M195.165 22.7927H194.156C193.509 22.7927 192.983 23.3179 192.983 23.9658C192.983 24.6137 193.509 25.1389 194.156 25.1389H195.165C195.813 25.1389 196.338 24.6137 196.338 23.9658C196.338 23.3179 195.813 22.7927 195.165 22.7927Z" fill="#A2E1D9"/>
<path d="M136.727 22.7927H135.719C135.071 22.7927 134.546 23.3179 134.546 23.9658C134.546 24.6137 135.071 25.1389 135.719 25.1389H136.727C137.375 25.1389 137.9 24.6137 137.9 23.9658C137.9 23.3179 137.375 22.7927 136.727 22.7927Z" fill="#A2E1D9"/>
<path d="M162.856 22.7927H142.428C141.78 22.7927 141.255 23.3179 141.255 23.9658C141.255 24.6137 141.78 25.1389 142.428 25.1389H162.856C163.504 25.1389 164.029 24.6137 164.029 23.9658C164.029 23.3179 163.504 22.7927 162.856 22.7927Z" fill="#A2E1D9"/>
<path d="M155.794 27.8462H148.607C147.959 27.8462 147.434 28.3714 147.434 29.0193C147.434 29.6672 147.959 30.1924 148.607 30.1924H155.794C156.442 30.1924 156.967 29.6672 156.967 29.0193C156.967 28.3714 156.442 27.8462 155.794 27.8462Z" fill="#A2E1D9"/>
<path d="M142.906 27.8462H135.719C135.071 27.8462 134.546 28.3714 134.546 29.0193C134.546 29.6672 135.071 30.1924 135.719 30.1924H142.906C143.554 30.1924 144.079 29.6672 144.079 29.0193C144.079 28.3714 143.554 27.8462 142.906 27.8462Z" fill="#A2E1D9"/>
<path d="M195.165 27.8462H194.156C193.509 27.8462 192.983 28.3714 192.983 29.0193C192.983 29.6672 193.509 30.1924 194.156 30.1924H195.165C195.813 30.1924 196.338 29.6672 196.338 29.0193C196.338 28.3714 195.813 27.8462 195.165 27.8462Z" fill="#A2E1D9"/>
<path d="M188.456 27.8462H187.448C186.8 27.8462 186.274 28.3714 186.274 29.0193C186.274 29.6672 186.8 30.1924 187.448 30.1924H188.456C189.104 30.1924 189.629 29.6672 189.629 29.0193C189.629 28.3714 189.104 27.8462 188.456 27.8462Z" fill="#A2E1D9"/>
<path d="M181.747 27.8462H161.319C160.671 27.8462 160.146 28.3714 160.146 29.0193C160.146 29.6672 160.671 30.1924 161.319 30.1924H181.747C182.395 30.1924 182.92 29.6672 182.92 29.0193C182.92 28.3714 182.395 27.8462 181.747 27.8462Z" fill="#A2E1D9"/>
<path d="M90.9824 134.148H0.238174C0.175006 134.148 0.114426 134.122 0.0697593 134.077C0.0250931 134.031 0 133.969 0 133.905C0 133.84 0.0250931 133.778 0.0697593 133.732C0.114426 133.687 0.175006 133.661 0.238174 133.661H90.9824C91.0455 133.661 91.1061 133.687 91.1508 133.732C91.1955 133.778 91.2206 133.84 91.2206 133.905C91.2206 133.969 91.1955 134.031 91.1508 134.077C91.1061 134.122 91.0455 134.148 90.9824 134.148Z" fill="#CBCBCB"/>
<path d="M55.0186 149H27.1522C27.0891 149 27.0285 148.974 26.9838 148.929C26.9392 148.883 26.9141 148.821 26.9141 148.756C26.9141 148.692 26.9392 148.63 26.9838 148.584C27.0285 148.539 27.0891 148.513 27.1522 148.513H55.0186C55.0817 148.513 55.1423 148.539 55.187 148.584C55.2317 148.63 55.2567 148.692 55.2567 148.756C55.2567 148.821 55.2317 148.883 55.187 148.929C55.1423 148.974 55.0817 149 55.0186 149Z" fill="#CBCBCB"/>
</svg>
